<?xml version="1.0" encoding="utf-8"?>
<!-- Generator: Adobe Illustrator 25.4.1, SVG Export Plug-In . SVG Version: 6.00 Build 0)  -->
<svg version="1.1" id="Calque_1" xmlns="http://www.w3.org/2000/svg" xmlns:xlink="http://www.w3.org/1999/xlink" x="0px" y="0px"
	 viewBox="0 0 132 146.8" style="enable-background:new 0 0 132 146.8;" xml:space="preserve">
<path d="M66,6c1.6,0,3.1,0.4,4.5,1.2l50.9,29.2c2.8,1.6,4.6,4.7,4.6,7.9v58.2c0,3.3-1.8,6.3-4.6,7.9l-50.9,29.2
	c-1.4,0.8-3,1.2-4.5,1.2s-3.1-0.4-4.5-1.2l-50.9-29.2c-2.8-1.6-4.6-4.7-4.6-7.9V44.3c0-3.3,1.8-6.3,4.6-7.9L61.5,7.2
	C62.9,6.4,64.4,6,66,6 M66,0c-2.6,0-5.2,0.7-7.5,2L7.6,31.2C2.9,33.9,0,38.9,0,44.3v58.2c0,5.4,2.9,10.4,7.6,13.1l50.9,29.2
	c2.3,1.3,4.9,2,7.5,2s5.2-0.7,7.5-2l50.9-29.2c4.7-2.7,7.6-7.7,7.6-13.1V44.3c0-5.4-2.9-10.4-7.6-13.1L73.5,2C71.3,0.7,68.7,0,66,0
	L66,0z"/>
</svg>
