<?xml version="1.0" encoding="UTF-8"?>
<svg width="83.944mm" height="89.616mm" version="1.1" viewBox="0 0 83.944 89.616" xmlns="http://www.w3.org/2000/svg">
 <g transform="translate(-3.8633 -3.3212)">
  <g transform="translate(-50.579 -91.285)">
   <path d="m96.415 98.269c1.0175 0 1.9714 0.24418 2.8617 0.73256l32.369 17.826c1.7806 0.97673 2.9253 2.8692 2.9253 4.8227v35.529c0 2.0145-1.1447 3.8459-2.9253 4.8227l-32.369 17.826c-0.89032 0.48838-1.9078 0.73256-2.8617 0.73256s-1.9714-0.24418-2.8617-0.73256l-32.369-17.826c-1.7806-0.97676-2.9253-2.8692-2.9253-4.8227v-35.529c0-2.0145 1.1447-3.8459 2.9253-4.8227l32.369-17.826c0.89032-0.48838 1.8442-0.73256 2.8617-0.73256m0-3.6628c-1.6534 0-3.3069 0.42733-4.7695 1.2209l-32.369 17.826c-2.9889 1.6482-4.8331 4.7006-4.8331 7.9971v35.529c0 3.2965 1.8442 6.3488 4.8331 7.9971l32.369 17.826c1.4627 0.79361 3.1161 1.2209 4.7695 1.2209s3.3069-0.42733 4.7695-1.2209l32.369-17.826c2.9889-1.6482 4.8331-4.7006 4.8331-7.9971v-35.529c0-3.2965-1.8442-6.3488-4.8331-7.9971l-32.369-17.826c-1.3991-0.79358-3.0525-1.2209-4.7695-1.2209z" style="stroke-width:.62307"/>
   <g transform="matrix(2.1167 0 0 2.1167 60.317 55.607)">
    <path d="m25.992 37.801h-7.3474v-7.3474c0-0.87173-0.7472-1.6189-1.6189-1.6189s-1.6189 0.7472-1.6189 1.6189v7.3474h-7.2229c-0.87173 0-1.6189 0.7472-1.6189 1.6189s0.7472 1.6189 1.6189 1.6189h7.3474v7.3474c0 0.87173 0.7472 1.6189 1.6189 1.6189 0.87173 0 1.6189-0.7472 1.6189-1.6189v-7.3474h7.3474c0.87173 0 1.6189-0.7472 1.6189-1.6189-0.24906-0.99626-0.87173-1.6189-1.7435-1.6189z" style="stroke-width:1.2453"/>
   </g>
  </g>
 </g>
</svg>
