<?xml version="1.0" encoding="utf-8"?>
<!-- Generator: Adobe Illustrator 25.3.1, SVG Export Plug-In . SVG Version: 6.00 Build 0)  -->
<svg version="1.1" id="Calque_1" xmlns="http://www.w3.org/2000/svg" xmlns:xlink="http://www.w3.org/1999/xlink" x="0px" y="0px"
	 viewBox="0 0 234 234" style="enable-background:new 0 0 234 234;" xml:space="preserve">
<path d="M117,49.6c1.6,0,3.1,0.4,4.5,1.2L172.4,80c2.8,1.6,4.6,4.7,4.6,7.9v58.2c0,3.3-1.8,6.3-4.6,7.9l-50.9,29.2
	c-1.4,0.8-3,1.2-4.5,1.2s-3.1-0.4-4.5-1.2l-50.9-29.2c-2.8-1.6-4.6-4.7-4.6-7.9V87.9c0-3.3,1.8-6.3,4.6-7.9l50.9-29.2
	C113.9,50,115.4,49.6,117,49.6 M117,43.6c-2.6,0-5.2,0.7-7.5,2L58.6,74.8c-4.7,2.7-7.6,7.7-7.6,13.1v58.2c0,5.4,2.9,10.4,7.6,13.1
	l50.9,29.2c2.3,1.3,4.9,2,7.5,2c2.6,0,5.2-0.7,7.5-2l50.9-29.2c4.7-2.7,7.6-7.7,7.6-13.1V87.9c0-5.4-2.9-10.4-7.6-13.1l-50.9-29.2
	C122.3,44.3,119.7,43.6,117,43.6L117,43.6z"/>
</svg>
