<?xml version="1.0" encoding="utf-8"?>
<!-- Generator: Adobe Illustrator 25.3.1, SVG Export Plug-In . SVG Version: 6.00 Build 0)  -->
<svg version="1.1" id="Calque_1" xmlns="http://www.w3.org/2000/svg" xmlns:xlink="http://www.w3.org/1999/xlink" x="0px" y="0px"
	 viewBox="0 0 50 50" style="enable-background:new 0 0 50 50;" xml:space="preserve">
<g>
	<path d="M25.5,31.5C25.5,31.6,25.4,31.6,25.5,31.5c-0.1,0.1-0.1,0.1-0.1,0.1c0,0,0,0,0,0c0,0,0,0,0,0c0,0-0.1,0-0.1,0c0,0,0,0,0,0
		c0,0,0,0,0,0c-0.1,0-0.1,0-0.2,0c0,0,0,0,0,0c0,0,0,0,0,0c-0.1,0-0.1-0.1-0.1-0.1c0,0,0,0,0,0c-0.2-0.2-0.6-0.3-1.2-0.5v1.1
		c0,0.1,0.5,0.5,1.5,0.5c1,0,1.5-0.4,1.5-0.5V31C26.1,31.1,25.7,31.3,25.5,31.5C25.5,31.5,25.5,31.5,25.5,31.5z"/>
	<path d="M16.3,31.5c-0.1,0.1-0.4,0.2-0.6,0.1c-0.2-0.1-0.3-0.3-0.3-0.5V19.1l-1,0.3v13.3l8.2-0.9v-0.9c-0.7-0.1-1.5-0.2-2-0.2
		C18.9,30.7,16.9,30.9,16.3,31.5z"/>
	<path d="M24.6,18.1c-0.7-0.4-2.8-0.8-4.1-0.8c-1.5,0-3.4,0.2-4.1,0.7v12.1c1.3-0.6,3.4-0.6,4.1-0.6c0.8,0,2.8,0.2,4.1,0.7V18.1z"/>
	<path d="M34.8,31.2c0,0.2-0.1,0.4-0.3,0.5c-0.1,0-0.1,0-0.2,0c-0.1,0-0.3-0.1-0.4-0.1c-0.4-0.4-2.9-0.9-4.2-0.9c-0.7,0-1.4,0-2,0.1
		v0.9l8.2,0.9V19.3l-1-0.3V31.2z"/>
	<path d="M33.8,30.3V18.1c-0.7-0.4-2.8-0.8-4.1-0.8c-1.5,0-3.4,0.2-4.1,0.7v12.1c1.3-0.6,3.4-0.6,4.1-0.6
		C30.5,29.6,32.6,29.9,33.8,30.3z"/>
	<path d="M38.8,12.7l-9.6-5.5c-2.5-1.4-5.6-1.4-8.1,0l-9.6,5.5c-2.5,1.4-4,4.1-4,7v11.1c0,2.9,1.5,5.6,4,7l9.6,5.5
		c2.5,1.4,5.6,1.4,8.1,0l9.6-5.5c2.5-1.4,4-4.1,4-7V19.7C42.8,16.8,41.3,14.1,38.8,12.7z M36.9,33.2c0,0.1-0.1,0.3-0.2,0.4
		c-0.1,0.1-0.2,0.1-0.3,0.1c0,0,0,0-0.1,0l-8.8-1c-0.4,0.6-1.3,1-2.4,1c-1.1,0-2-0.4-2.4-1l-8.8,1c-0.1,0-0.3,0-0.4-0.1
		c-0.1-0.1-0.2-0.2-0.2-0.4V18.9c0-0.2,0.2-0.4,0.4-0.5l1.7-0.4v-0.1c0-0.1,0.1-0.3,0.1-0.4c1.1-1.1,4.1-1.2,5-1.2
		c0.9,0,3.4,0.3,4.6,0.9c1.3-0.8,3.8-0.9,4.6-0.9c1,0,4.1,0.4,5,1.2c0.1,0.1,0.1,0.2,0.1,0.4V18l1.7,0.4c0.2,0.1,0.4,0.3,0.4,0.5
		V33.2z"/>
</g>
</svg>
