<?xml version="1.0" encoding="utf-8"?>
<!-- Generator: Adobe Illustrator 25.4.1, SVG Export Plug-In . SVG Version: 6.00 Build 0)  -->
<svg version="1.1" id="Calque_1" xmlns="http://www.w3.org/2000/svg" xmlns:xlink="http://www.w3.org/1999/xlink" x="0px" y="0px"
	 viewBox="0 0 33.6 33.7" style="enable-background:new 0 0 33.6 33.7;" xml:space="preserve">
<path d="M15.3,1.1c-1.4-1.4-3.7-1.4-5.1,0L8.3,2.9C8.1,3.2,8.1,3.8,8.2,4.1C9.1,5.2,9,6.9,7.9,7.9c-1,1-2.7,1.2-3.9,0.3
	C3.8,7.9,3.2,8,2.9,8.3l-1.9,1.9c-1.4,1.4-1.4,3.7,0,5.1l17.3,17.3c1.4,1.4,3.7,1.4,5.1,0l9.1-9.1c1.4-1.4,1.4-3.7,0-5.1L15.3,1.1z
	 M1.7,12.8c0-0.5,0.2-1,0.6-1.4L3.7,10c1.8,0.9,4,0.6,5.5-0.8C10.6,7.8,11,5.5,10,3.7l1.4-1.4c0.8-0.8,2-0.8,2.7,0l14.6,14.5
	L16.8,28.6L2.2,14.1C1.9,13.8,1.7,13.3,1.7,12.8z M31.4,22.1l-9.1,9.1c-0.8,0.8-2,0.8-2.7,0l-1.5-1.5L30,17.8l1.5,1.5
	C32.2,20.2,32.2,21.4,31.4,22.1z"/>
</svg>
