<?xml version="1.0" encoding="UTF-8"?>
<svg id="Calque_1" xmlns="http://www.w3.org/2000/svg" viewBox="0 0 32 32">
    <path d="M15.42,17.12c.66-.67,.67-1.79,0-2.46-.83-.84-1.66-1.68-2.49-2.51-1.32-1.33-2.65-2.67-3.97-4.01-.31-.31-.62-.62-.92-.93-.64-.65-1.83-.69-2.46,0-.64,.7-.68,1.77,0,2.46,.83,.84,1.66,1.68,2.49,2.51,1.22,1.23,2.45,2.47,3.67,3.71-.42,.43-.85,.86-1.27,1.28-1.32,1.33-2.65,2.67-3.97,4.01-.31,.31-.62,.62-.92,.93-.64,.65-.7,1.82,0,2.46,.69,.64,1.78,.69,2.46,0,.83-.84,1.66-1.68,2.49-2.51,1.32-1.33,2.65-2.67,3.97-4.01,.31-.31,.62-.62,.92-.93Z" />
    <path d="M25.45,21.6H15.53c-.91,0-1.78,.8-1.74,1.74,.05,.95,.77,1.74,1.74,1.74h9.92c.91,0,1.78-.8,1.74-1.74-.04-.95-.77-1.74-1.74-1.74Z" />
</svg>