<svg viewBox="0 0 40 28" fill="none" xmlns="http://www.w3.org/2000/svg">
    <path
        d="M13.0031 3.63423C15.251 3.63423 17.4485 4.30082 19.3176 5.54971C21.1867 6.79859 22.6434 8.57369 23.5037 10.6505C24.3639 12.7273 24.589 15.0126 24.1504 17.2174C23.7119 19.4221 22.6294 21.4473 21.0399 23.0368C19.4503 24.6263 17.4252 25.7088 15.2204 26.1474C13.0157 26.5859 10.7304 26.3608 8.65361 25.5006C6.57678 24.6404 4.80168 23.1836 3.55279 21.3145C2.3039 19.4454 1.63732 17.2479 1.63732 15C1.64301 11.9874 2.8423 9.09974 4.97256 6.96948C7.10282 4.83922 9.99044 3.63993 13.0031 3.63423ZM13.0031 2C10.4318 1.99939 7.91809 2.76131 5.77984 4.1894C3.6416 5.61749 1.97486 7.6476 0.990453 10.023C0.00604142 12.3984 -0.251837 15.0123 0.249423 17.5343C0.750683 20.0562 1.98857 22.3729 3.80653 24.1913C5.62449 26.0097 7.94087 27.2481 10.4627 27.75C12.9845 28.2518 15.5986 27.9946 17.9742 27.0107C20.3498 26.0269 22.3803 24.3606 23.8089 22.2227C25.2375 20.0848 26 17.5713 26 15C26.0004 13.293 25.6645 11.6026 25.0116 10.0253C24.3586 8.44813 23.4013 7.015 22.1944 5.8078C20.9875 4.60059 19.5546 3.64297 17.9775 2.98962C16.4005 2.33628 14.7101 2 13.0031 2Z"
        fill="white" />
    <path
        d="M17.2717 19.2749L19.2937 21.8909H16.6562L15.6282 20.5675C14.4685 21.174 13.1451 21.3936 11.8516 21.1943C10.5581 20.9949 9.36222 20.3871 8.43885 19.4595C7.78479 18.7944 7.29145 17.9886 6.99658 17.1036C6.70171 16.2186 6.61311 15.2779 6.73754 14.3534C6.86197 13.4289 7.19615 12.5451 7.71452 11.7696C8.23289 10.994 8.92173 10.3473 9.72837 9.8788C10.6466 9.33728 11.6939 9.0534 12.7599 9.05706C13.5531 9.04748 14.3398 9.20129 15.071 9.50892C15.8022 9.81655 16.4623 10.2714 17.0101 10.8452C18.1047 11.9615 18.7378 13.4496 18.7828 15.0124C18.8279 16.5751 18.2817 18.0974 17.2532 19.2749H17.2717ZM15.8898 17.4868C16.3529 16.8077 16.5977 16.0035 16.5916 15.1816C16.6023 14.6636 16.5092 14.1486 16.3178 13.6671C16.1265 13.1856 15.8408 12.7473 15.4774 12.3779C15.1332 12.0075 14.7152 11.7134 14.2503 11.5146C13.7853 11.3158 13.2839 11.2167 12.7783 11.2237C12.271 11.2112 11.7666 11.3043 11.2971 11.4971C10.8277 11.69 10.4035 11.9784 10.0515 12.344C9.68609 12.7213 9.40043 13.1684 9.21165 13.6586C9.02287 14.1488 8.93483 14.672 8.9528 15.197C8.92867 15.7783 9.04142 16.3572 9.28198 16.8869C9.52254 17.4167 9.88417 17.8825 10.3377 18.2469C11.0288 18.8214 11.9012 19.1322 12.7999 19.1241C13.3126 19.128 13.8203 19.0231 14.2895 18.8163L12.209 16.1357H14.8465L15.8898 17.4868Z"
        fill="white" />
    <path fill-rule="evenodd" clip-rule="evenodd"
        d="M31.7667 5.2L31.7667 0H34.3667L34.3667 5.2L40 5.2V7.8L34.3667 7.8V13H31.7667V7.8L27 7.8V5.2L31.7667 5.2Z"
        fill="white" />
</svg>