<?xml version="1.0" encoding="utf-8"?>
<!-- Generator: Adobe Illustrator 25.3.1, SVG Export Plug-In . SVG Version: 6.00 Build 0)  -->
<svg version="1.1" id="Calque_1" xmlns="http://www.w3.org/2000/svg" xmlns:xlink="http://www.w3.org/1999/xlink" x="0px" y="0px"
	 viewBox="0 0 50 50" style="enable-background:new 0 0 50 50;" xml:space="preserve">
<path d="M40.2,36.9c-0.1-0.1-1-0.7-1.9-2.6c-1.6-3.4-2-8.3-2-11.8l0,0c0-4.6-2.8-8.5-6.7-10.3V9.5c0-2.5-2-4.5-4.4-4.5h-0.4
	c-2.5,0-4.4,2-4.4,4.5v2.7c-3.9,1.8-6.7,5.7-6.7,10.3c0,3.5-0.3,8.3-2,11.8c-0.9,1.9-1.8,2.5-1.9,2.6c-0.5,0.2-0.7,0.8-0.6,1.3
	c0.1,0.5,0.6,0.9,1.2,0.9H19c0,3.3,2.7,6,6,6s6-2.7,6-6h8.6c0.6,0,1.1-0.4,1.2-0.9C41,37.7,40.7,37.2,40.2,36.9z M22.8,9.5
	c0-1.2,0.9-2.1,2.1-2.1h0.4c1.2,0,2.1,0.9,2.1,2.1v1.9c-0.7-0.2-1.5-0.2-2.3-0.2s-1.5,0.1-2.3,0.2L22.8,9.5L22.8,9.5z M25.1,42.7
	c-2,0-3.6-1.6-3.7-3.6h7.4C28.7,41.1,27.1,42.7,25.1,42.7z M29.8,36.8H13.1c0.2-0.3,0.4-0.7,0.6-1.1c1.6-3.1,2.4-7.5,2.4-13.1
	c0-5,4-9,9-9s9,4,9,9l0,0c0,5.6,0.8,10,2.4,13.1c0.2,0.4,0.4,0.8,0.6,1.1H29.8z"/>
</svg>
