<?xml version="1.0" encoding="utf-8"?>
<!-- Generator: Adobe Illustrator 25.3.1, SVG Export Plug-In . SVG Version: 6.00 Build 0)  -->
<svg version="1.1" id="Calque_1" xmlns="http://www.w3.org/2000/svg" xmlns:xlink="http://www.w3.org/1999/xlink" x="0px" y="0px"
	 viewBox="0 0 50 50" style="enable-background:new 0 0 50 50;" xml:space="preserve">
<path d="M41.4,15.6L39,15v-0.2c0-0.2-0.1-0.4-0.2-0.5c-1.2-1.2-5.6-1.7-7.1-1.7c-1.2,0-4.8,0.1-6.6,1.3c-1.6-0.9-5.2-1.3-6.6-1.3
	c-1.3,0-5.5,0.1-7.1,1.7c-0.1,0.1-0.2,0.3-0.2,0.5V15l-2.4,0.6c-0.3,0.1-0.6,0.4-0.6,0.7v20.5c0,0.2,0.1,0.4,0.2,0.5
	c0.2,0.1,0.4,0.2,0.6,0.2l12.6-1.4c0.5,0.8,1.8,1.4,3.4,1.4s2.9-0.6,3.4-1.4L41,37.5h0.1c0.2,0,0.4-0.1,0.5-0.2
	c0.2-0.1,0.2-0.3,0.2-0.5V16.3C42,16,41.7,15.7,41.4,15.6z M37.6,15.2v17.4c-1.8-0.7-4.7-1-5.9-1c-1,0-3.9,0.1-5.9,0.9V15.2
	c1.1-0.7,3.7-1.1,5.9-1.1C33.5,14.1,36.6,14.7,37.6,15.2z M12.7,15.2c1.1-0.7,3.7-1.1,5.9-1.1c1.8,0,4.9,0.5,5.9,1.1v17.4
	c-1.8-0.7-4.7-1-5.9-1c-1,0-3.9,0.1-5.9,0.9C12.7,32.5,12.7,15.2,12.7,15.2z M9.8,16.9l1.5-0.4v17.3c0,0.3,0.2,0.6,0.5,0.7
	c0.3,0.1,0.6,0.1,0.8-0.2c0.9-0.9,3.7-1.2,6.1-1.2c0.8,0,1.9,0.1,2.9,0.3v1.2L9.8,36V16.9z M25.1,36.1c-1.4,0-2.2-0.5-2.2-0.7v-1.6
	c0.8,0.2,1.5,0.4,1.7,0.7l0,0c0.1,0.1,0.1,0.1,0.2,0.1l0,0l0,0c0.1,0,0.2,0,0.2,0l0,0l0,0c0.1,0,0.1,0,0.2,0l0,0l0,0
	c0,0,0.1,0,0.1-0.1c0,0,0.1,0,0.1-0.1l0,0c0.3-0.3,0.9-0.6,1.7-0.8v1.7C27.3,35.5,26.6,36.1,25.1,36.1z M40.5,36l-11.7-1.3v-1.3
	c1-0.1,2-0.2,2.9-0.2c1.9,0,5.5,0.7,6.1,1.2c0.1,0.1,0.3,0.2,0.5,0.2c0.1,0,0.2,0,0.3-0.1c0.3-0.1,0.5-0.4,0.5-0.7V16.5l1.5,0.4
	L40.5,36L40.5,36z"/>
</svg>
