<svg width="26" height="26" viewBox="0 0 26 26" fill="none" xmlns="http://www.w3.org/2000/svg">
<path fill-rule="evenodd" clip-rule="evenodd" d="M4.79963 2.36364C3.45427 2.36364 2.36364 3.45427 2.36364 4.79963V21.2004C2.36364 22.5457 3.45427 23.6364 4.79963 23.6364H21.2004C22.5457 23.6364 23.6364 22.5457 23.6364 21.2004V7.18738H12.0353C9.38449 7.18738 7.23562 5.03851 7.23562 2.38776V2.36364H4.79963ZM4.79963 0C2.14887 0 0 2.14887 0 4.79963V21.2004C0 23.8511 2.14887 26 4.79963 26H21.2004C23.8511 26 26 23.8511 26 21.2004V4.79963C26 2.14887 23.8511 0 21.2004 0H4.79963ZM9.59926 2.36364V2.38776C9.59926 3.73311 10.6899 4.82375 12.0353 4.82375H23.6364V4.79963C23.6364 3.45427 22.5457 2.36364 21.2004 2.36364H9.59926Z" fill="#7DAAB7"/>
<path d="M14.3272 9.88114C14.8903 10.0265 15.2326 10.6157 15.0918 11.1972L12.9472 20.0565C12.8064 20.638 12.2359 20.9915 11.6728 20.8461C11.1097 20.7008 10.7674 20.1115 10.9082 19.5301L13.0528 10.6708C13.1936 10.0893 13.7641 9.73577 14.3272 9.88114Z" fill="#7DAAB7"/>
<path d="M9.45377 12.3814C9.86417 12.8052 9.86417 13.4924 9.45377 13.9162L8.0522 15.3636L9.45377 16.8111C9.86417 17.2349 9.86417 17.922 9.45377 18.3458C9.04338 18.7697 8.378 18.7697 7.9676 18.3458L5.82295 16.131C5.41255 15.7072 5.41255 15.0201 5.82295 14.5962L7.9676 12.3814C8.378 11.9576 9.04338 11.9576 9.45377 12.3814Z" fill="#7DAAB7"/>
<path d="M16.5462 12.3814C16.9566 11.9576 17.622 11.9576 18.0324 12.3814L20.1771 14.5962C20.5874 15.0201 20.5874 15.7072 20.1771 16.131L18.0324 18.3458C17.622 18.7697 16.9566 18.7697 16.5462 18.3458C16.1358 17.922 16.1358 17.2349 16.5462 16.8111L17.9478 15.3636L16.5462 13.9162C16.1358 13.4924 16.1358 12.8052 16.5462 12.3814Z" fill="#7DAAB7"/>
</svg>
