<?xml version="1.0" encoding="utf-8"?>
<!-- Generator: Adobe Illustrator 25.4.1, SVG Export Plug-In . SVG Version: 6.00 Build 0)  -->
<svg version="1.1" xmlns="http://www.w3.org/2000/svg" xmlns:xlink="http://www.w3.org/1999/xlink" x="0px" y="0px"
	viewBox="0 0 46.1 45.1" style="enable-background:new 0 0 46.1 45.1;" xml:space="preserve">
	<path d="M23.1,2l7.8,4.5c0.6,0.3,1,1,1,1.7v7.9c0,0.7-0.4,1.3-1,1.7l-6.9,4c-0.6,0.3-1.3,0.3-1.9,0l-6.9-4c-0.6-0.3-1-1-1-1.7V8.2
		c0-0.7,0.4-1.3,1-1.7L23.1,2 M23.1,0c-0.3,0-0.7,0.1-1,0.3l-7.8,4.5c-1.2,0.7-2,2-2,3.4v7.9c0,1.4,0.8,2.7,2,3.4l7.8,4.5
		c0.3,0.2,0.7,0.3,1,0.3s0.7-0.1,1-0.3l7.8-4.4c1.2-0.7,2-2,2-3.4V8.3c0-1.4-0.8-2.7-2-3.4l-7.8-4.5C23.8,0.1,23.4,0,23.1,0L23.1,0z
		" />
	<path d="M35.3,22.8l7.8,4.5c0.6,0.3,1,1,1,1.7v7.9c0,0.7-0.4,1.3-1,1.7l-6.9,4c-0.6,0.3-1.3,0.3-1.9,0l-6.9-4c-0.6-0.3-1-1-1-1.7
			V29c0-0.7,0.4-1.3,1-1.7L35.3,22.8 M35.3,20.8c-0.3,0-0.7,0.1-1,0.3l-7.8,4.5c-1.2,0.7-2,2-2,3.4v7.9c0,1.4,0.8,2.7,2,3.4l7.8,4.5
			c0.3,0.2,0.7,0.3,1,0.3s0.7-0.1,1-0.3l7.8-4.5c1.2-0.7,2-2,2-3.4V29c0-1.4-0.8-2.7-2-3.4l-7.8-4.5C36,20.9,35.7,20.8,35.3,20.8
			L35.3,20.8z" />
	<path d="M10.8,22.8l7.8,4.5c0.6,0.3,1,1,1,1.7v7.9c0,0.7-0.4,1.3-1,1.7l-6.9,4c-0.6,0.3-1.3,0.3-1.9,0l-6.9-4c-0.6-0.3-1-1-1-1.7
			V29c0-0.7,0.4-1.3,1-1.7L10.8,22.8 M10.8,20.8c-0.3,0-0.7,0.1-1,0.3L2,25.6c-1.2,0.7-2,2-2,3.4v7.9c0,1.4,0.8,2.7,2,3.4l7.8,4.5
			c0.3,0.2,0.7,0.3,1,0.3c0.3,0,0.7-0.1,1-0.3l7.8-4.5c1.2-0.7,2-2,2-3.4V29c0-1.4-0.8-2.7-2-3.4l-7.8-4.5
			C11.5,20.9,11.2,20.8,10.8,20.8L10.8,20.8z" />

</svg>