<?xml version="1.0" encoding="utf-8"?>
<!-- Generator: Adobe Illustrator 25.4.1, SVG Export Plug-In . SVG Version: 6.00 Build 0)  -->
<svg version="1.1" xmlns="http://www.w3.org/2000/svg" xmlns:xlink="http://www.w3.org/1999/xlink" x="0px" y="0px"
	viewBox="0 0 31.7 40.1" style="enable-background:new 0 0 31.7 40.1;" xml:space="preserve">
	<path d="M31,31.9c-0.1-0.1-1-0.7-1.9-2.6c-1.6-3.4-2-8.3-2-11.8l0,0c0-4.6-2.8-8.5-6.7-10.3V4.5C20.4,2,18.4,0,16,0h-0.4
	c-2.5,0-4.4,2-4.4,4.5v2.7C7.3,9,4.5,12.9,4.5,17.5c0,3.5-0.3,8.3-2,11.8c-0.9,1.9-1.8,2.5-1.9,2.6c-0.5,0.2-0.7,0.8-0.6,1.3
	c0.1,0.5,0.6,0.9,1.2,0.9h8.6c0,3.3,2.7,6,6,6s6-2.7,6-6h8.6c0.6,0,1.1-0.4,1.2-0.9C31.8,32.7,31.5,32.2,31,31.9z M13.6,4.5
	c0-1.2,0.9-2.1,2.1-2.1h0.4c1.2,0,2.1,0.9,2.1,2.1v1.9c-0.7-0.2-1.5-0.2-2.3-0.2c-0.8,0-1.5,0.1-2.3,0.2L13.6,4.5L13.6,4.5z
	 M15.9,37.7c-2,0-3.6-1.6-3.7-3.6h7.4C19.5,36.1,17.9,37.7,15.9,37.7z M20.6,31.8H3.9c0.2-0.3,0.4-0.7,0.6-1.1
	c1.6-3.1,2.4-7.5,2.4-13.1c0-5,4-9,9-9s9,4,9,9l0,0c0,5.6,0.8,10,2.4,13.1c0.2,0.4,0.4,0.8,0.6,1.1H20.6z" />
</svg>