<?xml version="1.0" encoding="UTF-8"?>
<svg xmlns="http://www.w3.org/2000/svg" viewBox="0 0 32 32">
    <path
        d="M8.49,27.3h-3.41c-1.33,0-2.4-1.08-2.4-2.4V15.43c0-1.33,1.08-2.4,2.4-2.4h3.41c1.33,0,2.4,1.08,2.4,2.4v9.46c0,1.33-1.08,2.4-2.4,2.4Zm-3.31-2.51h3.21V15.54h-3.21v9.26Z" />
    <path
        d="M24.57,27.3H13.73c-1.32,0-2.39-1.07-2.39-2.39v-7.92c-.03-.47-.1-2.99,1.6-5.18,.85-1.09,1.6-1.9,2.16-2.5,.36-.39,.77-.83,.9-1.04,0-.13-.03-.37-.05-.53-.08-.65-.16-1.38,.06-2.03,.46-1.34,1.7-2.08,3.09-1.83,1.55,.28,3.15,2.23,3.15,5.02,0,1.03-.36,2.14-.83,3.16h3.71c1.69,0,3.07,1.38,3.07,3.07,0,.65-.2,1.25-.55,1.75,.34,.47,.55,1.06,.55,1.68,0,.8-.33,1.52-.85,2.04,.17,.36,.26,.77,.26,1.19,0,.72-.27,1.38-.71,1.88,.14,.32,.22,.68,.22,1.05,0,1.42-1.15,2.57-2.57,2.57Zm-10.72-2.51h10.72s.06-.03,.06-.06-.03-.06-.06-.06c-.69,0-1.25-.56-1.25-1.25s.56-1.25,1.25-1.25h.19c.2,0,.36-.17,.36-.36s-.17-.36-.36-.36c-.69,0-1.25-.56-1.25-1.25s.56-1.25,1.25-1.25h.59c.2,0,.36-.17,.36-.36s-.17-.36-.36-.36h-.2c-.69,0-1.25-.56-1.25-1.25s.56-1.25,1.25-1.25c.31,0,.57-.26,.57-.57s-.26-.57-.57-.57h-5.83c-.46,0-.88-.25-1.1-.65s-.2-.89,.04-1.28c.95-1.5,1.5-2.87,1.5-3.74,0-1.68-.81-2.47-1.09-2.55-.13-.02-.2-.03-.27,.18-.04,.15,.02,.66,.06,.93,.07,.57,.13,1.11-.04,1.6-.22,.64-.72,1.17-1.46,1.98-.55,.59-1.24,1.33-2.02,2.34-1.22,1.56-1.08,3.46-1.08,3.48,0,.03,0,.08,0,.11v7.84Z" />
</svg>