<?xml version="1.0" encoding="utf-8"?>
<!-- Generator: Adobe Illustrator 25.3.1, SVG Export Plug-In . SVG Version: 6.00 Build 0)  -->
<svg version="1.1" id="Calque_1" xmlns="http://www.w3.org/2000/svg" xmlns:xlink="http://www.w3.org/1999/xlink" x="0px" y="0px"
	 viewBox="0 0 50 50" style="enable-background:new 0 0 50 50;" xml:space="preserve">
<g>
	<path d="M39.5,8.5H10.9c-2.1,0-3.8,1.7-3.8,3.8v25.6c0,2.1,1.7,3.8,3.8,3.8h28.6c2.1,0,3.8-1.7,3.8-3.8V12.3
		C43.3,10.2,41.6,8.5,39.5,8.5z M10.9,10h28.6c1.2,0,2.3,1,2.3,2.3v2.3H8.6v-2.3C8.6,11,9.7,10,10.9,10z M39.5,40.1H10.9
		c-1.2,0-2.3-1-2.3-2.3V16h33.2v21.9C41.8,39.1,40.8,40.1,39.5,40.1z"/>
	<circle cx="10.9" cy="12.3" r="0.8"/>
	<circle cx="13.9" cy="12.3" r="0.8"/>
	<circle cx="16.9" cy="12.3" r="0.8"/>
	<path d="M19,22.3c-0.3-0.3-0.8-0.3-1.1,0s-0.3,0.8,0,1.1l4,4l-4,4c-0.3,0.3-0.3,0.8,0,1.1c0.1,0.1,0.3,0.2,0.5,0.2
		c0.2,0,0.4-0.1,0.5-0.2l4.5-4.5c0.3-0.3,0.3-0.8,0-1.1L19,22.3z"/>
	<path d="M33.5,29.6H26c-0.4,0-0.8,0.3-0.8,0.8c0,0.4,0.3,0.8,0.8,0.8h7.5c0.4,0,0.8-0.3,0.8-0.8C34.3,29.9,33.9,29.6,33.5,29.6z"/>
</g>
</svg>
