<?xml version="1.0" encoding="utf-8"?>
<!-- Generator: Adobe Illustrator 25.3.1, SVG Export Plug-In . SVG Version: 6.00 Build 0)  -->
<svg version="1.1" id="Calque_1" xmlns="http://www.w3.org/2000/svg" xmlns:xlink="http://www.w3.org/1999/xlink" x="0px" y="0px"
	 viewBox="0 0 50 50" style="enable-background:new 0 0 50 50;" xml:space="preserve">
<path d="M30.9,23.7c-0.1-0.2-0.3-0.4-0.5-0.4L27,22.9l-1.3-3.1c-0.1-0.2-0.3-0.4-0.6-0.4l0,0l0,0h0c-0.2,0-0.5,0.1-0.6,0.4l-0.7,1.6
	l-0.6,1.4L20,23.2c-0.2,0-0.4,0.2-0.5,0.4c0,0.1,0,0.1,0,0.2c0,0.2,0,0.4,0.2,0.5l0,0l0,0l0.7,0.7l1.8,1.5l-0.7,3.3c0,0,0,0,0,0v0
	c0,0,0,0,0,0.1c0,0.1,0,0.2,0,0.3c0,0,0,0,0,0c0,0.1,0.1,0.2,0.2,0.3c0,0,0.1,0.1,0.1,0.1c0.1,0,0.1,0,0.2,0c0,0,0,0,0.1,0h0h0
	c0,0,0.1,0,0.1,0c0.1,0,0.1,0,0.2-0.1l1.8-1.1l1.1-0.6l2.9,1.7c0.2,0.1,0.5,0.1,0.7,0c0.2-0.1,0.3-0.4,0.2-0.6l-0.7-3.3l2.5-2.2
	C30.9,24.1,30.9,23.9,30.9,23.7z M27.7,26c-0.2,0.1-0.2,0.4-0.2,0.6l0.7,3.1l-2.7-1.6C25.4,28,25.3,28,25.1,28v-7.6l1.2,2.9
	c0.1,0.2,0.3,0.3,0.5,0.4l3.1,0.3L27.7,26z"/>
</svg>
