<svg viewBox="0 0 41 42" xmlns="http://www.w3.org/2000/svg">
<path d="M40.44 23.14C40.04 22.83 39.63 22.54 39.23 22.27C38.38 21.7 37.51 21.21 36.64 20.8C36.05 20.52 35.46 20.29 34.86 20.09V9.63C34.86 4.59 30.76 0.5 25.73 0.5H9.13C4.1 0.5 0 4.6 0 9.63V26.23C0 31.27 4.1 35.36 9.13 35.36H22.13C22.36 35.66 22.59 35.97 22.84 36.25C23.68 37.21 24.62 38.08 25.64 38.86C26.67 39.64 27.8 40.34 29 40.94C29.17 41.04 29.36 41.09 29.56 41.09C29.68 41.09 29.8 41.07 29.92 41.03C29.98 41.01 30.04 40.99 30.09 40.96C36.79 37.66 40.72 31.5 40.88 24.07C40.88 23.71 40.72 23.37 40.44 23.15V23.14ZM9.13 2.77H25.73C29.44 2.77 32.46 5.72 32.58 9.4H2.28C2.41 5.73 5.43 2.77 9.13 2.77ZM9.13 33.1C5.34 33.1 2.26 30.02 2.26 26.23V11.66H32.59V19.52C32.51 19.51 32.44 19.5 32.36 19.49C31.97 19.43 31.58 19.36 31.18 19.32C30.64 19.27 30.1 19.24 29.56 19.24C27.16 19.24 24.96 19.7 22.81 20.65C21.87 21.07 20.96 21.57 20.06 22.17L18.27 23.2C18.06 23.32 17.93 23.55 17.93 23.79V27.05C17.93 27.3 18.06 27.52 18.27 27.64L18.7 27.89C18.84 28.57 19.01 29.23 19.22 29.88C19.41 30.45 19.62 31.01 19.86 31.55C19.98 31.83 20.13 32.1 20.26 32.37C20.38 32.61 20.48 32.85 20.61 33.08H9.13V33.1ZM29.57 38.69C28.66 38.21 27.8 37.66 27.01 37.07C26.11 36.39 25.28 35.61 24.54 34.77C24.21 34.39 23.89 33.99 23.6 33.58C23.5 33.43 23.41 33.29 23.31 33.14C23.14 32.88 22.97 32.62 22.81 32.36C22.71 32.19 22.62 32.02 22.52 31.84C22.37 31.57 22.23 31.29 22.1 31.01C22.03 30.86 21.95 30.7 21.89 30.55C21.73 30.17 21.58 29.77 21.44 29.38C21.42 29.32 21.39 29.26 21.37 29.2C20.9 27.75 20.61 26.2 20.53 24.6C21.59 23.83 22.64 23.22 23.72 22.74C23.72 22.74 23.73 22.74 23.74 22.74C25.59 21.93 27.49 21.53 29.56 21.53C30 21.53 30.43 21.56 30.86 21.6C31.05 21.62 31.24 21.63 31.43 21.66C31.55 21.67 31.66 21.7 31.78 21.72C32.32 21.81 32.87 21.92 33.42 22.07L34.2 22.29C34.7 22.46 35.19 22.66 35.68 22.89C36.44 23.25 37.21 23.68 37.97 24.19C38.18 24.33 38.39 24.48 38.6 24.63C38.28 30.76 35.02 35.84 29.57 38.72V38.69Z" />
<path d="M20.94 20.06V16.8C20.94 16.55 20.81 16.33 20.6 16.21L17.78 14.58C17.57 14.46 17.31 14.46 17.09 14.58L14.27 16.21C14.06 16.33 13.93 16.56 13.93 16.8V20.06C13.93 20.31 14.06 20.53 14.27 20.65L17.09 22.28C17.3 22.4 17.56 22.4 17.78 22.28L20.6 20.65C20.81 20.53 20.94 20.3 20.94 20.06Z"/>
<path d="M13.78 21.58C13.57 21.46 13.31 21.46 13.09 21.58L10.27 23.21C10.06 23.33 9.93 23.56 9.93 23.8V27.06C9.93 27.31 10.06 27.53 10.27 27.65L13.09 29.28C13.3 29.4 13.56 29.4 13.78 29.28L16.6 27.65C16.81 27.53 16.94 27.3 16.94 27.06V23.8C16.94 23.55 16.81 23.33 16.6 23.21L13.78 21.58Z" />
</svg>
