<?xml version="1.0" encoding="utf-8"?>
<!-- Generator: Adobe Illustrator 25.4.1, SVG Export Plug-In . SVG Version: 6.00 Build 0)  -->
<svg version="1.1" id="Calque_1" xmlns="http://www.w3.org/2000/svg" xmlns:xlink="http://www.w3.org/1999/xlink" x="0px" y="0px"
	 viewBox="0 0 40 38.3" style="enable-background:new 0 0 40 38.3;" xml:space="preserve">
<g>
	<path d="M15,16.7c-4.6,0-8.3-3.7-8.3-8.3S10.4,0,15,0s8.3,3.7,8.3,8.3S19.6,16.7,15,16.7z M15,2.5c-3.2,0-5.8,2.6-5.8,5.8
		c0,3.2,2.6,5.8,5.8,5.8s5.8-2.6,5.8-5.8C20.8,5.1,18.2,2.5,15,2.5z"/>
	<path d="M37.1,38.3h-9.2c-1.6,0-2.9-1.3-2.9-2.9v-5.8c0-1.6,1.3-2.9,2.9-2.9h9.2c1.6,0,2.9,1.3,2.9,2.9v5.8
		C40,37,38.7,38.3,37.1,38.3z M27.9,29.2c-0.2,0-0.4,0.2-0.4,0.4v5.8c0,0.2,0.2,0.4,0.4,0.4h9.2c0.2,0,0.4-0.2,0.4-0.4v-5.8
		c0-0.2-0.2-0.4-0.4-0.4H27.9z"/>
	<path d="M35.4,29.2h-5.8c-0.7,0-1.2-0.6-1.2-1.2v-3.8c0-2.3,1.9-4.2,4.2-4.2s4.2,1.9,4.2,4.2v3.8C36.7,28.6,36.1,29.2,35.4,29.2z
		 M30.8,26.7h3.3v-2.5c0-0.9-0.7-1.7-1.7-1.7s-1.7,0.7-1.7,1.7V26.7z"/>
	<path d="M20.8,35H1.2C0.6,35,0,34.4,0,33.8v-5.8C0,23.6,3.6,20,7.9,20h14.6c1.4,0,2.8,0.4,4,1.1c0.6,0.3,0.8,1.1,0.5,1.7
		c-0.3,0.6-1.1,0.8-1.7,0.5c-0.8-0.5-1.8-0.7-2.7-0.7H7.9c-3,0-5.4,2.4-5.4,5.4v4.6h18.3c0.7,0,1.2,0.6,1.2,1.2S21.5,35,20.8,35z"/>
</g>
</svg>
