<svg width="18" height="18" viewBox="0 0 18 18" fill="none" xmlns="http://www.w3.org/2000/svg">
<path d="M11.1092 4.28913H10.0546C9.76319 4.28913 9.52721 4.52511 9.52721 4.81647C9.52721 5.10783 9.76319 5.34381 10.0546 5.34381H11.1092C11.4006 5.34381 11.6366 5.10783 11.6366 4.81647C11.6366 4.52511 11.4006 4.28913 11.1092 4.28913Z" fill="#22AAFF"/>
<path d="M7.94519 4.28913H6.8905C6.59915 4.28913 6.36316 4.52511 6.36316 4.81647C6.36316 5.10783 6.59915 5.34381 6.8905 5.34381H7.94519C8.23654 5.34381 8.47253 5.10783 8.47253 4.81647C8.47253 4.52511 8.23654 4.28913 7.94519 4.28913Z" fill="#22AAFF"/>
<path d="M11.1092 6.39849H10.0546C9.76319 6.39849 9.52721 6.63448 9.52721 6.92584C9.52721 7.21719 9.76319 7.45318 10.0546 7.45318H11.1092C11.4006 7.45318 11.6366 7.21719 11.6366 6.92584C11.6366 6.63448 11.4006 6.39849 11.1092 6.39849Z" fill="#22AAFF"/>
<path d="M7.94519 6.39849H6.8905C6.59915 6.39849 6.36316 6.63448 6.36316 6.92584C6.36316 7.21719 6.59915 7.45318 6.8905 7.45318H7.94519C8.23654 7.45318 8.47253 7.21719 8.47253 6.92584C8.47253 6.63448 8.23654 6.39849 7.94519 6.39849Z" fill="#22AAFF"/>
<path d="M11.1092 8.50786H10.0546C9.76319 8.50786 9.52721 8.74384 9.52721 9.0352C9.52721 9.32656 9.76319 9.56254 10.0546 9.56254H11.1092C11.4006 9.56254 11.6366 9.32656 11.6366 9.0352C11.6366 8.74384 11.4006 8.50786 11.1092 8.50786Z" fill="#22AAFF"/>
<path d="M7.94519 8.50786H6.8905C6.59915 8.50786 6.36316 8.74384 6.36316 9.0352C6.36316 9.32656 6.59915 9.56254 6.8905 9.56254H7.94519C8.23654 9.56254 8.47253 9.32656 8.47253 9.0352C8.47253 8.74384 8.23654 8.50786 7.94519 8.50786Z" fill="#22AAFF"/>
<path d="M11.1092 10.6172H10.0546C9.76319 10.6172 9.52721 10.8532 9.52721 11.1446C9.52721 11.4359 9.76319 11.6719 10.0546 11.6719H11.1092C11.4006 11.6719 11.6366 11.4359 11.6366 11.1446C11.6366 10.8532 11.4006 10.6172 11.1092 10.6172Z" fill="#22AAFF"/>
<path d="M7.94519 10.6172H6.8905C6.59915 10.6172 6.36316 10.8532 6.36316 11.1446C6.36316 11.4359 6.59915 11.6719 6.8905 11.6719H7.94519C8.23654 11.6719 8.47253 11.4359 8.47253 11.1446C8.47253 10.8532 8.23654 10.6172 7.94519 10.6172Z" fill="#22AAFF"/>
<path d="M11.1092 12.7266H10.0546C9.76319 12.7266 9.52721 12.9626 9.52721 13.2539C9.52721 13.5453 9.76319 13.7813 10.0546 13.7813H11.1092C11.4006 13.7813 11.6366 13.5453 11.6366 13.2539C11.6366 12.9626 11.4006 12.7266 11.1092 12.7266Z" fill="#22AAFF"/>
<path d="M7.94519 12.7266H6.8905C6.59915 12.7266 6.36316 12.9626 6.36316 13.2539C6.36316 13.5453 6.59915 13.7813 6.8905 13.7813H7.94519C8.23654 13.7813 8.47253 13.5453 8.47253 13.2539C8.47253 12.9626 8.23654 12.7266 7.94519 12.7266Z" fill="#22AAFF"/>
<path d="M17.4727 16.9453H16.9103V5.16794C16.9103 4.94092 16.765 4.73948 16.5495 4.66776L13.7462 3.73331V2.70711C13.7462 2.41575 13.5102 2.17976 13.2189 2.17976H12.6915V0.527341C12.6913 0.235985 12.4553 0 12.1639 0H5.83582C5.54447 0 5.30848 0.235985 5.30848 0.527341V2.17976H4.78114C4.48978 2.17976 4.2538 2.41575 4.2538 2.70711V3.73331L1.45045 4.66776C1.23503 4.73948 1.08975 4.94119 1.08975 5.16794V16.9453H0.527341C0.235985 16.9453 0 17.1813 0 17.4727C0 17.764 0.235985 18 0.527078 18H17.4721C17.7632 18 17.9992 17.764 17.9992 17.4729C17.9992 17.1813 17.7638 16.9453 17.4727 16.9453ZM4.25406 16.9453H2.1447V15.8906H2.67204C2.96339 15.8906 3.19938 15.6546 3.19938 15.3633C3.19938 15.0719 2.96339 14.836 2.67204 14.836H2.1447V13.7813H2.67204C2.96339 13.7813 3.19938 13.5453 3.19938 13.2539C3.19938 12.9626 2.96339 12.7266 2.67204 12.7266H2.1447V11.6719H2.67204C2.96339 11.6719 3.19938 11.4359 3.19938 11.1446C3.19938 10.8532 2.96339 10.6172 2.67204 10.6172H2.1447V9.56254H2.67204C2.96339 9.56254 3.19938 9.32656 3.19938 9.0352C3.19938 8.74384 2.96339 8.50786 2.67204 8.50786H2.1447V7.45318H2.67204C2.96339 7.45318 3.19938 7.21719 3.19938 6.92584C3.19938 6.63448 2.96339 6.39849 2.67204 6.39849H2.1447V5.54816L4.25406 4.84495V16.9453ZM6.36316 1.05468H11.6366V2.17976H6.36316V1.05468ZM9.87868 16.9453H8.12079V15.8906H9.87868V16.9453ZM12.6913 16.9453H10.9334V15.8906H11.1092C11.4006 15.8906 11.6366 15.6546 11.6366 15.3633C11.6366 15.0719 11.4006 14.836 11.1092 14.836H6.8905C6.59915 14.836 6.36316 15.0719 6.36316 15.3633C6.36316 15.6546 6.59915 15.8906 6.8905 15.8906H7.06637V16.9453H5.30848V3.23445H12.6913V16.9453ZM15.8553 6.39849H15.328C15.0366 6.39849 14.8006 6.63448 14.8006 6.92584C14.8006 7.21719 15.0366 7.45318 15.328 7.45318H15.8553V8.50786H15.328C15.0366 8.50786 14.8006 8.74384 14.8006 9.0352C14.8006 9.32656 15.0366 9.56254 15.328 9.56254H15.8553V10.6172H15.328C15.0366 10.6172 14.8006 10.8532 14.8006 11.1446C14.8006 11.4359 15.0366 11.6719 15.328 11.6719H15.8553V12.7266H15.328C15.0366 12.7266 14.8006 12.9626 14.8006 13.2539C14.8006 13.5453 15.0366 13.7813 15.328 13.7813H15.8553V14.836H15.328C15.0366 14.836 14.8006 15.0719 14.8006 15.3633C14.8006 15.6546 15.0366 15.8906 15.328 15.8906H15.8553V16.9453H13.7459V4.84495L15.8553 5.54816V6.39849Z" fill="#22AAFF"/>
</svg>
