<svg viewBox="0 0 164 126" xmlns="http://www.w3.org/2000/svg">
    <path
        d="M142.192 4.6194C130.367 2.20336 111.695 0.0595503 82.5698 0H81.4302C52.2959 0.0595503 33.6329 2.20336 21.8078 4.6194C14.9527 6.42292 0 13.1266 0 37.1935V83.3109C0 102.29 9.55431 110.321 16.8893 113.69C21.2581 115.283 25.8473 116.201 30.4967 116.412C32.9388 116.557 35.9979 116.651 39.2455 116.744C47.4802 116.991 58.7654 117.331 64.9008 118.837C69.2733 119.893 73.4106 121.745 77.1029 124.299L79.2537 126H84.7463L86.8971 124.299C90.5894 121.745 94.7267 119.893 99.0992 118.837C105.235 117.331 116.52 116.991 124.754 116.744C128.002 116.651 131.07 116.557 133.503 116.412C138.153 116.201 142.742 115.283 147.111 113.69C154.446 110.287 164 102.29 164 83.3109V37.1935C164 13.1181 149.047 6.42292 142.192 4.6194ZM149.107 34.1138V85.7014C149.123 87.5732 148.98 89.4429 148.679 91.2907C145.988 100.487 131.627 101.686 131.627 101.686C129.545 101.797 126.991 101.874 124.283 101.959C114.857 102.239 103.178 102.588 95.5003 104.468C90.7562 105.626 86.2029 107.451 81.9786 109.887C77.7504 107.453 73.1946 105.628 68.4483 104.468C60.7363 102.588 49.0655 102.239 39.6654 101.959C36.9576 101.874 34.4041 101.797 32.3219 101.686C32.3219 101.686 17.9604 100.487 15.2698 91.2907C14.969 89.4429 14.8257 87.5732 14.8413 85.7014V31.315C14.8413 22.6036 23.9757 19.4049 29.04 18.333C39.8111 16.4869 56.5632 14.811 81.9529 14.7855C107.342 14.76 124.086 16.4869 134.857 18.333C139.921 19.4304 149.056 22.5866 149.056 31.315L149.107 34.1138Z"
    />
    <path
        d="M73.9922 72.99V71.8019C73.9922 68.5177 74.2716 65.8999 74.8304 63.9487C75.4091 61.9975 76.2473 60.4326 77.345 59.2542C78.4426 58.0564 79.7798 56.9648 81.3564 55.9796C82.6137 55.2068 83.7313 54.4244 84.7092 53.6323C85.7071 52.8209 86.4954 51.9515 87.0741 51.0242C87.6529 50.0969 87.9423 49.044 87.9423 47.8656C87.9423 46.7257 87.6629 45.7211 87.1041 44.8518C86.5453 43.9824 85.7769 43.3159 84.799 42.8523C83.8411 42.3693 82.7733 42.1278 81.5959 42.1278C80.4184 42.1278 79.3108 42.3886 78.273 42.9102C77.2552 43.4318 76.417 44.1756 75.7584 45.1416C75.1197 46.0882 74.7904 47.2377 74.7705 48.59H61C61.0599 44.533 62.0278 41.2101 63.9038 38.6214C65.7997 36.0326 68.3043 34.12 71.4177 32.8836C74.531 31.6279 77.9636 31 81.7156 31C85.8268 31 89.479 31.6182 92.6721 32.8546C95.8852 34.0911 98.4098 35.9167 100.246 38.3316C102.082 40.7465 103 43.7023 103 47.1991C103 49.498 102.601 51.5265 101.803 53.2846C101.004 55.0426 99.8867 56.5978 98.4498 57.9501C97.0328 59.2831 95.3664 60.5002 93.4505 61.6014C91.9537 62.4515 90.7063 63.3401 89.7085 64.2675C88.7306 65.1948 87.9922 66.2573 87.4932 67.4551C86.9943 68.6336 86.7448 70.0825 86.7448 71.8019V72.99H73.9922ZM80.608 92C78.4526 92 76.6066 91.2659 75.0699 89.7976C73.5531 88.3294 72.8047 86.552 72.8247 84.4656C72.8047 82.4177 73.5531 80.6694 75.0699 79.2204C76.6066 77.7522 78.4526 77.0181 80.608 77.0181C82.6636 77.0181 84.4697 77.7522 86.0264 79.2204C87.583 80.6694 88.3713 82.4177 88.3913 84.4656C88.3713 85.8565 87.9922 87.1219 87.2537 88.2618C86.5353 89.4016 85.5873 90.3096 84.4098 90.9857C83.2523 91.6619 81.985 92 80.608 92Z"
        fill="url(#paint0_linear_4981_17307)"
    />
    <defs>
        <linearGradient
            id="paint0_linear_4981_17307"
            x1="74.7044"
            y1="99.1554"
            x2="118.319"
            y2="73.8557"
            gradientUnits="userSpaceOnUse"
        >
            <stop stop-color="#FF1166" />
            <stop offset="0.51" stop-color="#FF3355" />
            <stop offset="1" stop-color="#FF5555" />
        </linearGradient>
    </defs>
</svg>