<?xml version="1.0" encoding="utf-8"?>
<!-- Generator: Adobe Illustrator 25.3.1, SVG Export Plug-In . SVG Version: 6.00 Build 0)  -->
<svg version="1.1" id="Calque_1" xmlns="http://www.w3.org/2000/svg" xmlns:xlink="http://www.w3.org/1999/xlink" x="0px" y="0px"
	 viewBox="0 0 50 50" style="enable-background:new 0 0 50 50;" xml:space="preserve">
<path d="M37.2,35.7L31,29.3c1.6-1.9,2.5-4.3,2.5-6.7c0-5.8-4.7-10.5-10.5-10.5s-10.5,4.7-10.5,10.5S17.3,33,23.1,33
	c2.2,0,4.2-0.7,6-1.9l6.2,6.5c0.3,0.3,0.6,0.4,1,0.4s0.7-0.1,0.9-0.4C37.7,37.1,37.8,36.2,37.2,35.7z M23.1,14.8
	c4.3,0,7.7,3.5,7.7,7.7s-3.5,7.7-7.7,7.7s-7.7-3.5-7.7-7.7S18.8,14.8,23.1,14.8z"/>
</svg>
