<?xml version="1.0" encoding="UTF-8"?>
<svg xmlns="http://www.w3.org/2000/svg" viewBox="0 0 32 32">
    <path
        d="M15.87,9.64c3.36,0,6.2,1.53,7.99,2.81,2.12,1.52,3.22,2.99,3.5,3.55-.28,.56-1.38,2.03-3.5,3.55-1.79,1.28-4.63,2.81-7.99,2.81s-6.2-1.53-7.99-2.81c-2.12-1.52-3.21-2.99-3.5-3.55,.28-.56,1.38-2.03,3.5-3.55,1.79-1.28,4.63-2.81,7.99-2.81m0-1.59c-7.25,0-13.13,6.37-13.13,7.96s5.88,7.96,13.13,7.96,13.13-6.36,13.13-7.96-5.88-7.96-13.13-7.96h0Zm0,3.18c-2.64,0-4.77,2.14-4.77,4.77s2.14,4.77,4.77,4.77,4.77-2.14,4.77-4.77-2.14-4.77-4.77-4.77Z" />
</svg>