<svg viewBox="0 0 30 30" xmlns="http://www.w3.org/2000/svg">
<path d="M15 2.5C18.4463 2.5 21.25 5.30375 21.25 8.75125C21.25 12.1962 18.4463 15.0013 15 15.0013C11.5538 15.0013 8.75 12.1962 8.75 8.75125C8.75 5.30375 11.5538 2.5 15 2.5ZM15 0C10.1675 0 6.25 3.9175 6.25 8.75125C6.25 13.5825 10.1675 17.5013 15 17.5013C19.8325 17.5013 23.75 13.5825 23.75 8.75125C23.75 3.9175 19.8325 0 15 0V0ZM22.9613 16.6912C22.34 17.3137 21.64 17.855 20.8888 18.3188C24.4788 20.6612 26.3612 24.6725 27.1038 27.5012H2.87C3.585 24.6388 5.4425 20.6225 9.08625 18.3037C8.3325 17.8363 7.63375 17.29 7.01375 16.6637C1.69125 20.5037 0 27.2962 0 30H30C30 27.3225 28.2 20.5537 22.9613 16.6912Z"/>
</svg>
