<?xml version="1.0" encoding="utf-8"?>
<!-- Generator: Adobe Illustrator 25.4.1, SVG Export Plug-In . SVG Version: 6.00 Build 0)  -->
<svg version="1.1" xmlns="http://www.w3.org/2000/svg" xmlns:xlink="http://www.w3.org/1999/xlink" x="0px" y="0px"
	viewBox="0 0 35.7 34.2" style="enable-background:new 0 0 35.7 34.2;" xml:space="preserve">
	<g>
		<path d="M32,0H3.7C1.6,0,0,1.7,0,3.7v26.8c0,2.1,1.7,3.7,3.7,3.7H32c2.1,0,3.7-1.7,3.7-3.7V3.8C35.7,1.7,34,0,32,0z M3.7,1.5H32
		c1.2,0,2.2,1,2.2,2.2v2.2H1.5V3.7C1.5,2.5,2.5,1.5,3.7,1.5z M32,32.8H3.7c-1.2,0-2.2-1-2.2-2.2V7.5h32.7v23.1
		C34.2,31.8,33.2,32.8,32,32.8z" />
		<circle cx="3.7" cy="3.8" r="0.7" />
		<path d="M6.7,4.5c0.4,0,0.7-0.3,0.7-0.7S7.1,3.1,6.7,3.1S6,3.4,6,3.8S6.3,4.5,6.7,4.5z" />
		<circle cx="9.7" cy="3.8" r="0.7" />
		<path d="M14.1,11.9H8.9v-0.7c0-0.4-0.3-0.7-0.7-0.7h-3c-0.4,0-0.7,0.3-0.7,0.7v3c0,0.4,0.3,0.7,0.7,0.7h3c0.4,0,0.7-0.3,0.7-0.7
		v-0.7h5.2c0.4,0,0.7-0.3,0.7-0.7S14.5,11.9,14.1,11.9z M7.4,13.4H5.9v-1.5h1.5V13.4z" />
		<path d="M14.1,19.4H8.9v-0.7c0-0.4-0.3-0.7-0.7-0.7h-3c-0.4,0-0.7,0.3-0.7,0.7v3c0,0.4,0.3,0.7,0.7,0.7h3c0.4,0,0.7-0.3,0.7-0.7V21
		h5.2c0.4,0,0.7-0.3,0.7-0.7C14.9,19.7,14.5,19.4,14.1,19.4z M7.4,20.9H5.9v-1.5h1.5V20.9z" />
		<path d="M14.1,26.8H8.9v-0.7c0-0.4-0.3-0.7-0.7-0.7h-3c-0.4,0-0.7,0.3-0.7,0.7v3c0,0.4,0.3,0.7,0.7,0.7h3c0.4,0,0.7-0.3,0.7-0.7
		v-0.7h5.2c0.4,0,0.7-0.3,0.7-0.7C14.9,27.2,14.5,26.8,14.1,26.8z M7.4,28.3H5.9v-1.5h1.5V28.3z" />
		<path d="M29,11.9h-5.2v-0.7c0-0.4-0.3-0.7-0.7-0.7h-3c-0.4,0-0.7,0.3-0.7,0.7v3c0,0.4,0.3,0.7,0.7,0.7h3c0.4,0,0.7-0.3,0.7-0.7
		v-0.7H29c0.4,0,0.7-0.3,0.7-0.7S29.4,11.9,29,11.9z M22.3,13.4h-1.5v-1.5h1.5V13.4z" />
		<path d="M29,19.4h-5.2v-0.7c0-0.4-0.3-0.7-0.7-0.7h-3c-0.4,0-0.7,0.3-0.7,0.7v3c0,0.4,0.3,0.7,0.7,0.7h3c0.4,0,0.7-0.3,0.7-0.7V21
		H29c0.4,0,0.7-0.3,0.7-0.7C29.7,19.7,29.4,19.4,29,19.4z M22.3,20.9h-1.5v-1.5h1.5V20.9z" />
		<path d="M29,26.8h-5.2v-0.7c0-0.4-0.3-0.7-0.7-0.7h-3c-0.4,0-0.7,0.3-0.7,0.7v3c0,0.4,0.3,0.7,0.7,0.7h3c0.4,0,0.7-0.3,0.7-0.7
		v-0.7H29c0.4,0,0.7-0.3,0.7-0.7C29.7,27.2,29.4,26.8,29,26.8z M22.3,28.3h-1.5v-1.5h1.5V28.3z" />
	</g>
</svg>