<?xml version="1.0" encoding="utf-8"?>
<!-- Generator: Adobe Illustrator 25.4.1, SVG Export Plug-In . SVG Version: 6.00 Build 0)  -->
<svg version="1.1" xmlns="http://www.w3.org/2000/svg" xmlns:xlink="http://www.w3.org/1999/xlink" x="0px" y="0px"
	viewBox="0 0 11.5 11" style="enable-background:new 0 0 11.5 11;" xml:space="preserve">
	<path
		d="M2.6,11c-0.1,0-0.3,0-0.4-0.1C2,10.8,1.9,10.5,2,10.3L2.7,7L0.2,4.8C0,4.6-0.1,4.4,0,4.2C0.1,4,0.3,3.8,0.5,3.8l3.3-0.3
	l1.3-3.1C5.2,0.2,5.4,0,5.7,0c0.2,0,0.5,0.1,0.6,0.4l1.3,3.1l3.3,0.3c0.2,0,0.5,0.2,0.5,0.4c0.1,0.2,0,0.5-0.2,0.6L8.7,7l0.7,3.3
	c0.1,0.2,0,0.5-0.2,0.6s-0.5,0.2-0.7,0L5.6,9.2l-2.9,1.7C2.8,11,2.7,11,2.6,11z M5.7,8.5c0.1,0,0.2,0,0.3,0.1l2.7,1.6L8,7.1
	c0-0.2,0-0.4,0.2-0.6l2.4-2.1L7.5,4.1C7.3,4.1,7.1,3.9,7,3.7L5.8,0.8L4.6,3.7C4.5,3.9,4.3,4,4.1,4.1L1,4.4l2.4,2.1
	c0.2,0.1,0.2,0.4,0.2,0.6l-0.7,3.1l2.7-1.6C5.5,8.5,5.6,8.5,5.7,8.5z M3.8,3.5L3.8,3.5L3.8,3.5z M7.6,3.5L7.6,3.5L7.6,3.5z" />
</svg>