<?xml version="1.0" encoding="utf-8"?>
<!-- Generator: Adobe Illustrator 25.3.1, SVG Export Plug-In . SVG Version: 6.00 Build 0)  -->
<svg version="1.1" id="Calque_1" xmlns="http://www.w3.org/2000/svg" xmlns:xlink="http://www.w3.org/1999/xlink" x="0px" y="0px"
	 viewBox="0 0 50 50" style="enable-background:new 0 0 50 50;" xml:space="preserve">
<path d="M33.9,14.2H16.4c-1.4,0-2.6,1.2-2.6,2.6v12.6c0,1.4,1.2,2.6,2.6,2.6h6c-0.3,1.4-0.8,2.5-1.1,2.5h-1.9V36H31v-1.4H29
	c-0.4,0-0.9-1.2-1.1-2.5h6c1.4,0,2.6-1.2,2.6-2.6V16.9C36.5,15.4,35.3,14.2,33.9,14.2z M16.4,15.6h17.5c0.7,0,1.3,0.6,1.3,1.3v10
	h-20v-10C15.2,16.2,15.8,15.6,16.4,15.6z M27.3,34.6H23c0.4-0.8,0.7-1.8,0.8-2.5h2.7C26.7,32.8,26.9,33.8,27.3,34.6z M33.9,30.7
	H16.4c-0.7,0-1.3-0.6-1.3-1.3v-1.3h20v1.3C35.2,30.2,34.6,30.7,33.9,30.7z"/>
</svg>
