<?xml version="1.0" encoding="UTF-8"?>
<svg id="Calque_1" xmlns="http://www.w3.org/2000/svg" viewBox="0 0 32 32">
    <path d="M18.61,16.53l2.22-2.22c.61-.61,.61-1.61,0-2.22-.61-.61-1.61-.61-2.22,0l-2.22,2.22-2.22-2.22c-.61-.61-1.61-.61-2.22,0-.61,.61-.61,1.61,0,2.22l2.22,2.22-2.22,2.22c-.61,.61-.61,1.61,0,2.22,.31,.31,.71,.46,1.11,.46s.8-.15,1.11-.46l2.22-2.22,2.22,2.22c.31,.31,.71,.46,1.11,.46s.8-.15,1.11-.46c.61-.61,.61-1.61,0-2.22l-2.22-2.22Z" />
    <path d="M26.99,20.73c.65-1.64,.91-3.42,.75-5.21-.25-2.79-1.53-5.39-3.57-7.3-2.05-1.91-4.73-3-7.53-3.06-2.8-.06-5.52,.92-7.65,2.74-2.13,1.82-3.51,4.36-3.88,7.14-.37,2.78,.29,5.59,1.87,7.91h0c.82,1.36,2.11,2.47,3.69,3.44,2.42,1.41,5.27,1.88,8.02,1.31,2.74-.56,5.18-2.12,6.85-4.36,.05-.07,.1-.15,.15-.22,.51-.75,.95-1.54,1.3-2.39Zm-9.1,4.78c-1.77,.29-3.59,.06-5.23-.68-1.64-.74-3.02-1.95-3.97-3.47-.95-1.52-1.43-3.3-1.37-5.09,.06-1.8,.65-3.53,1.69-4.99,1.4-1.96,3.52-3.28,5.9-3.68,2.38-.39,4.81,.17,6.77,1.57h0c1.46,1.04,2.58,2.5,3.21,4.18,.63,1.68,.76,3.51,.35,5.26-.41,1.75-1.32,3.34-2.63,4.57-1.31,1.23-2.95,2.04-4.73,2.34Z" />
</svg>