<svg viewBox="0 0 40 18" xmlns="http://www.w3.org/2000/svg">
<path d="M4.38749 17.7959C5.07381 17.8082 5.75368 17.662 6.37427 17.3686C6.99486 17.0753 7.53939 16.6427 7.96546 16.1045C8.39153 15.5663 8.68764 14.937 8.83078 14.2657C8.97393 13.5943 8.96032 12.899 8.79082 12.2338L16.5159 7.61813C16.9926 8.17202 17.597 8.60143 18.2769 8.86931C18.9569 9.13719 19.6917 9.23544 20.4181 9.15557C21.1445 9.07571 21.8406 8.82016 22.4461 8.41096C23.0515 8.00175 23.5482 7.4512 23.8932 6.80697L30.923 8.91204C30.9192 9.81048 31.1821 10.6899 31.6785 11.4388C32.1749 12.1876 32.8823 12.7724 33.7113 13.1188C34.5402 13.4653 35.4534 13.5579 36.335 13.385C37.2167 13.2121 38.0271 12.7814 38.6638 12.1474C39.3004 11.5135 39.7347 10.7048 39.9114 9.82393C40.0881 8.94302 39.9993 8.02951 39.6564 7.19908C39.3135 6.36866 38.7317 5.65869 37.9849 5.15914C37.2382 4.65959 36.36 4.3929 35.4616 4.39289C34.6647 4.40947 33.8865 4.63837 33.2076 5.05594C32.5286 5.4735 31.9734 6.06464 31.5991 6.76837L24.5692 4.6633C24.5871 4.01256 24.4648 3.36558 24.2106 2.76628C23.9564 2.16697 23.5762 1.62935 23.0959 1.18993C22.6156 0.750514 22.0464 0.419546 21.4269 0.219527C20.8074 0.0195075 20.1521 -0.0448839 19.5055 0.0306909C18.859 0.106266 18.2362 0.320057 17.6795 0.65755C17.1229 0.995043 16.6453 1.44837 16.2793 1.98671C15.9133 2.52505 15.6674 3.13581 15.5583 3.77758C15.4491 4.41936 15.4793 5.07707 15.6468 5.70614L7.92173 10.3219C7.42409 9.75257 6.79156 9.31723 6.08206 9.05573C5.37256 8.79423 4.60879 8.71493 3.8607 8.82511C3.11262 8.93529 2.4041 9.23141 1.80013 9.68637C1.19615 10.1413 0.716028 10.7406 0.403664 11.4292C0.0913 12.1178 -0.0433301 12.8738 0.0122013 13.6279C0.0677326 14.382 0.31159 15.1102 0.721455 15.7456C1.13132 16.3811 1.69405 16.9034 2.35815 17.265C3.02225 17.6266 3.76653 17.8158 4.52269 17.8152L4.38749 17.7959ZM35.4229 6.59456C35.8968 6.59495 36.3596 6.73705 36.7521 7.00259C37.1445 7.26813 37.4487 7.64497 37.6253 8.08468C37.8019 8.52439 37.8429 9.00689 37.7432 9.47012C37.6434 9.93335 37.4073 10.3561 37.0654 10.6842C36.7234 11.0122 36.2912 11.2305 35.8243 11.311C35.3573 11.3914 34.8769 11.3304 34.4449 11.1357C34.0129 10.941 33.649 10.6216 33.3999 10.2185C33.1509 9.81532 33.0282 9.3469 33.0475 8.87344C33.0676 8.25868 33.3274 7.67618 33.7713 7.25036C34.2151 6.82454 34.8079 6.58919 35.4229 6.59456ZM19.9728 2.28782C20.4434 2.28784 20.9035 2.42766 21.2945 2.68954C21.6856 2.95142 21.99 3.32354 22.1692 3.75872C22.3484 4.19391 22.3943 4.67254 22.3011 5.13385C22.2078 5.59517 21.9797 6.01842 21.6456 6.34985C21.3114 6.68128 20.8863 6.90593 20.4243 6.9954C19.9622 7.08486 19.484 7.03511 19.0503 6.85235C18.6166 6.6696 18.2469 6.36211 17.9883 5.96894C17.7296 5.57577 17.5936 5.11459 17.5974 4.64397C17.5973 4.02571 17.8402 3.43219 18.2738 2.99142C18.7073 2.55065 19.2966 2.29796 19.9148 2.28782H19.9728ZM4.52269 10.9012C4.99331 10.8974 5.45443 11.0335 5.8476 11.2922C6.24078 11.5509 6.54832 11.9205 6.73108 12.3542C6.91383 12.7879 6.96364 13.2661 6.87418 13.7282C6.78471 14.1902 6.56001 14.6153 6.22858 14.9495C5.89714 15.2836 5.47389 15.5118 5.01258 15.605C4.55127 15.6983 4.07263 15.6524 3.63745 15.4731C3.20226 15.2939 2.83009 14.9895 2.5682 14.5985C2.30632 14.2074 2.1665 13.7474 2.16649 13.2767C2.16521 12.6726 2.39419 12.0907 2.80678 11.6494C3.21938 11.2081 3.78463 10.9405 4.38749 10.9012H4.52269Z" />
</svg>
