<?xml version="1.0" encoding="utf-8"?>
<!-- Generator: Adobe Illustrator 25.4.1, SVG Export Plug-In . SVG Version: 6.00 Build 0)  -->
<svg version="1.1" id="Calque_1" xmlns="http://www.w3.org/2000/svg" xmlns:xlink="http://www.w3.org/1999/xlink" x="0px" y="0px"
	 viewBox="0 0 23.1 22.3" style="enable-background:new 0 0 23.1 22.3;" xml:space="preserve">
<g>
	<g>
		<g>
			<path d="M13.3,19.4l2-1.9L20,22c0.3,0.3,0.7,0.3,1,0l1.9-1.8c0.3-0.3,0.3-0.7,0-0.9l-4.7-4.5l2-1.9c0.4-0.4,0.1-1.1-0.5-1.1h-6.8
				c-0.4,0-0.7,0.3-0.7,0.6v6.5C12.2,19.5,12.9,19.8,13.3,19.4z"/>
		</g>
	</g>
	<g>
		<g>
			<path d="M0.2,2.9l4.7,4.5l-2,1.9c-0.4,0.4-0.1,1.1,0.5,1.1h6.8c0.4,0,0.7-0.3,0.7-0.6V3.3c0-0.6-0.7-0.9-1.2-0.5l-2,1.9L3,0.2
				c-0.3-0.3-0.7-0.3-1,0L0.1,2C0,2.2,0,2.6,0.2,2.9z"/>
		</g>
	</g>
</g>
</svg>
