<svg width="20" height="21" viewBox="0 0 20 21" xmlns="http://www.w3.org/2000/svg">
    <path fill-rule="evenodd" clip-rule="evenodd"
        d="M9.69206 0.576268C9.90185 0.472913 10.1481 0.474693 10.3564 0.581071L14.8973 2.90047C14.9638 2.92593 15.0267 2.96097 15.0839 3.0049C15.2766 3.14262 15.3938 3.36624 15.3938 3.60751V8.87041L19.6015 11.0622C19.8464 11.1898 20 11.443 20 11.7191V17.4359C20 17.7161 19.8418 17.9724 19.5913 18.098L14.9577 20.4214C14.7486 20.5262 14.5023 20.5261 14.2933 20.4212L9.99984 18.2654L5.69996 20.4214C5.49089 20.5263 5.24458 20.5262 5.03557 20.4212L0.408357 18.0979C0.158019 17.9722 0 17.716 0 17.4359V11.6322C0 11.3519 0.158186 11.0956 0.40873 10.97L4.65149 8.84269V3.68053C4.60897 3.50624 4.62926 3.31612 4.7229 3.14674C4.83126 2.95074 5.01538 2.82314 5.21857 2.78027L9.69206 0.576268ZM6.13297 4.7727V8.86105L9.25765 10.431V6.50018L6.13297 4.7727ZM10.7391 6.50775V10.4321L13.9124 8.84102V4.81542L10.7391 6.50775ZM13.0269 3.60866L10.0134 2.06946L6.99512 3.55653L10.0047 5.2204L13.0269 3.60866ZM5.36777 10.1408L8.4054 11.666L5.36808 13.344L2.32958 11.6642L5.36777 10.1408ZM1.48148 12.8881V16.979L4.62721 18.5585V14.6273L1.48148 12.8881ZM6.10869 14.6274L6.10869 18.5592L9.25765 16.9803V12.8877L6.10869 14.6274ZM10.7421 16.9804L13.8849 18.5584V14.6272L10.7398 12.8885L10.7421 16.9804ZM11.6119 11.6778L14.632 13.3474L17.6707 11.7269L14.651 10.1539L11.6119 11.6778ZM18.5185 12.9537L15.3664 14.6348V18.5591L18.5185 16.9786V12.9537Z"
    />
</svg>