<?xml version="1.0" encoding="utf-8"?>
<!-- Generator: Adobe Illustrator 25.4.1, SVG Export Plug-In . SVG Version: 6.00 Build 0)  -->
<svg version="1.1" id="Calque_1" xmlns="http://www.w3.org/2000/svg" xmlns:xlink="http://www.w3.org/1999/xlink" x="0px" y="0px"
	 viewBox="0 0 11.4 11.2" style="enable-background:new 0 0 11.4 11.2;" xml:space="preserve">
<path d="M11.4,4.3c-0.1-0.2-0.3-0.4-0.5-0.4L7.5,3.5L6.2,0.4C6.1,0.2,5.9,0,5.6,0l0,0l0,0l0,0C5.4,0,5.1,0.1,5,0.4L4.3,2L3.7,3.4
	L0.5,3.8C0.3,3.8,0.1,4,0,4.2c0,0.1,0,0.1,0,0.2c0,0.2,0,0.4,0.2,0.5l0,0l0,0l0.7,0.7l1.8,1.5L2,10.4l0,0l0,0c0,0,0,0,0,0.1
	s0,0.2,0,0.3l0,0c0,0.1,0.1,0.2,0.2,0.3l0.1,0.1c0.1,0,0.1,0,0.2,0c0,0,0,0,0.1,0l0,0l0,0h0.1c0.1,0,0.1,0,0.2-0.1L4.7,10l1.1-0.6
	l2.9,1.7c0.2,0.1,0.5,0.1,0.7,0s0.3-0.4,0.2-0.6L8.9,7.2L11.4,5C11.4,4.7,11.4,4.5,11.4,4.3z M8.2,6.6C8,6.7,8,7,8,7.2l0.7,3.1
	L6,8.7C5.9,8.6,5.8,8.6,5.6,8.6V1l1.2,2.9c0.1,0.2,0.3,0.3,0.5,0.4l3.1,0.3L8.2,6.6z"/>
</svg>
