<?xml version="1.0" encoding="utf-8"?>
<!-- Generator: Adobe Illustrator 25.4.1, SVG Export Plug-In . SVG Version: 6.00 Build 0)  -->
<svg version="1.1" xmlns="http://www.w3.org/2000/svg" xmlns:xlink="http://www.w3.org/1999/xlink" x="0px" y="0px"
	viewBox="0 0 40 40.1" style="enable-background:new 0 0 40 40.1;" xml:space="preserve">
	<g>
		<g>
			<path d="M25.7,21.2c-0.7,0-1.2,0.5-1.2,1.2v8.2c0,1.1-0.9,2.1-2.1,2.1h-5.3V6.9c0-1.6-1-3-2.5-3.5l-3.1-1h11
			c1.1,0,2.1,0.9,2.1,2.1v8.2c0,0.7,0.5,1.2,1.2,1.2s1.2-0.5,1.2-1.2V4.5C27,2,25,0,22.5,0H3.7C3.6,0,3.5,0,3.5,0
			C1.5,0.1,0,1.7,0,3.7v29.4c0,1.6,1,3,2.5,3.5l9.8,3.3c0.4,0.1,0.8,0.2,1.2,0.2c2,0,3.7-1.6,3.7-3.7v-1.2h5.3c2.5,0,4.5-2,4.5-4.5
			v-8.2C26.9,21.8,26.4,21.2,25.7,21.2z M2.4,3.7C2.4,3,3,2.5,3.6,2.5c0.1,0,0.3,0,0.4,0.1l9.8,3.3c0.5,0.2,0.9,0.6,0.9,1.2v29.4
			c0,0.4-0.2,0.8-0.5,1c-0.3,0.2-0.7,0.3-1.1,0.2l-9.8-3.3c-0.5-0.2-0.9-0.6-0.9-1.2C2.4,33.2,2.4,3.7,2.4,3.7z" />
			<path d="M39.9,18L39.9,18c0.1-0.2,0.1-0.3,0.1-0.5c0-0.3-0.1-0.6-0.4-0.9l-6.5-6.5c-0.5-0.5-1.2-0.5-1.7,0s-0.5,1.2,0,1.7l4.5,4.5
			H22.4c-0.7,0-1.2,0.5-1.2,1.2s0.5,1.2,1.2,1.2h13.5l-4.5,4.5c-0.2,0.2-0.4,0.5-0.4,0.9s0.1,0.6,0.4,0.9c0.2,0.2,0.5,0.4,0.9,0.4
			c0.3,0,0.6-0.1,0.9-0.4l6.5-6.5l0,0C39.8,18.3,39.8,18.1,39.9,18z" />
		</g>
	</g>
</svg>