<?xml version="1.0" encoding="utf-8"?>
<!-- Generator: Adobe Illustrator 25.3.1, SVG Export Plug-In . SVG Version: 6.00 Build 0)  -->
<svg version="1.1" id="Calque_1" xmlns="http://www.w3.org/2000/svg" xmlns:xlink="http://www.w3.org/1999/xlink" x="0px" y="0px"
	 viewBox="0 0 50 50" style="enable-background:new 0 0 50 50;" xml:space="preserve">
<path d="M22,30.5c-0.1,0-0.3,0-0.4-0.1c-0.2-0.1-0.3-0.4-0.2-0.6l0.7-3.3l-2.5-2.2c-0.2-0.2-0.3-0.4-0.2-0.6
	c0.1-0.2,0.3-0.4,0.5-0.4l3.3-0.3l1.3-3.1c0.1-0.2,0.3-0.4,0.6-0.4c0.2,0,0.5,0.1,0.6,0.4l1.3,3.1l3.3,0.3c0.2,0,0.5,0.2,0.5,0.4
	c0.1,0.2,0,0.5-0.2,0.6l-2.5,2.2l0.7,3.3c0.1,0.2,0,0.5-0.2,0.6c-0.2,0.1-0.5,0.2-0.7,0l-2.9-1.7l-2.9,1.7
	C22.2,30.5,22.1,30.5,22,30.5z M25.1,28c0.1,0,0.2,0,0.3,0.1l2.7,1.6l-0.7-3.1c0-0.2,0-0.4,0.2-0.6l2.4-2.1l-3.1-0.3
	c-0.2,0-0.4-0.2-0.5-0.4l-1.2-2.9l-1.2,2.9c-0.1,0.2-0.3,0.3-0.5,0.4l-3.1,0.3l2.4,2.1c0.2,0.1,0.2,0.4,0.2,0.6l-0.7,3.1l2.7-1.6
	C24.9,28,25,28,25.1,28z M23.2,23C23.2,23,23.2,23,23.2,23L23.2,23z M27,23L27,23C27,23,27,23,27,23z"/>
</svg>
