<?xml version="1.0" encoding="UTF-8"?>
<svg xmlns="http://www.w3.org/2000/svg" viewBox="0 0 32 32">
    <path
        d="M29.08,8.49h-2.12v-.56c0-.26-.17-.5-.42-.58l-.3-.1c-3.38-1.15-6.82-1.18-10.21-.11-3.39-1.07-6.82-1.03-10.21,.11l-.3,.1c-.25,.09-.42,.32-.42,.58v.56H2.98c-.38,0-.68,.31-.68,.68V26.32c0,.2,.09,.39,.24,.52s.35,.19,.54,.16l.44-.06c3.36-.5,6.78-.8,10.16-.9,.63,.59,1.47,.91,2.36,.91s1.73-.32,2.36-.91c3.41,.09,6.82,.4,10.15,.9l.44,.07s.07,0,.1,0c.16,0,.32-.06,.44-.16,.15-.13,.24-.32,.24-.52V9.17c0-.38-.31-.68-.68-.68Zm-9.85,14.59c2.21-.29,4.48-.04,6.27,.69l.61,.25c.19,.08,.41,.06,.58-.06,.17-.11,.27-.31,.27-.51V10.61h.68v14.03c-2.69-.37-5.47-.61-8.28-.71v-.03c0-.28-.04-.55-.13-.82Zm-4.31,.5c.09,.02,.16,.04,.23,.05,.13,.03,.24,.05,.41,.12,.3,.12,.64,.12,.95,0,.22-.09,.28-.1,.4-.13,.06-.01,.13-.03,.23-.06h.01c.06,.11,.09,.23,.09,.34,0,.5-.54,.91-1.2,.91s-1.2-.41-1.2-.91c0-.13,.04-.24,.08-.33Zm.06-14.53v12.3c-1.24-.33-2.58-.5-3.9-.5s-2.65,.16-3.84,.48V9.03c2.56-.73,5.16-.72,7.74,.01Zm2.12,0c2.58-.73,5.18-.74,7.74-.01v12.29c-2.42-.64-5.27-.63-7.74,.02V9.04Zm-4.39,14.9c-2.79,.11-5.57,.35-8.28,.71V10.61h.68v12.84c0,.21,.1,.4,.27,.51,.17,.11,.39,.14,.58,.06l.61-.25c1.79-.73,4.06-.98,6.27-.69-.09,.27-.13,.55-.13,.82v.04Z" />
</svg>