<?xml version="1.0" encoding="utf-8"?>
<!-- Generator: Adobe Illustrator 25.3.1, SVG Export Plug-In . SVG Version: 6.00 Build 0)  -->
<svg version="1.1" id="Calque_1" xmlns="http://www.w3.org/2000/svg" xmlns:xlink="http://www.w3.org/1999/xlink" x="0px" y="0px"
	 viewBox="0 0 50 50" style="enable-background:new 0 0 50 50;" xml:space="preserve">
<path d="M33.6,31.5c1.3,0,2.4-1.1,2.4-2.4v-8c0-0.8-0.3-1.4-0.9-1.9v-2.6c0-1.3-1.1-2.4-2.4-2.4h-15c-1.3,0-2.4,1-2.4,2.3
	c-0.5,0.4-0.9,1.1-0.9,1.9v10.6c0,1.3,1.1,2.4,2.4,2.4h7.3v0.4h-0.9v0.9h-0.9v0.9H15v1.4h7.3V36h4.9v-0.9h8.2v-1.4h-8.2v-0.9h-0.9
	v-0.9h-0.9v-0.4H33.6z M25.8,34.6h-2.2v-0.4h0.9v-0.9h0.4v0.9h0.9V34.6z M17.7,15.6h15c0.6,0,1.1,0.5,1.1,1.1v2c-0.1,0-0.1,0-0.2,0
	H23.4c-0.5,0-0.9-0.3-1-0.7l-0.1-0.2c-0.3-1-1.3-1.7-2.3-1.7h-3.1C17,15.8,17.3,15.6,17.7,15.6z M15.7,29.1V18.5
	c0-0.6,0.5-1.1,1.1-1.1h3.1c0.5,0,0.9,0.3,1,0.7l0.1,0.2c0.3,1,1.3,1.7,2.3,1.7h10.2c0.6,0,1.1,0.5,1.1,1.1v8c0,0.6-0.5,1.1-1.1,1.1
	H16.8C16.2,30.2,15.7,29.7,15.7,29.1z"/>
</svg>
