<svg viewBox="0 0 18 19" xmlns="http://www.w3.org/2000/svg">
    <path
        d="M11.4545 18.5H3.27273C2.40475 18.5 1.57232 18.1552 0.95856 17.5414C0.344804 16.9277 0 16.0953 0 15.2273V7.04545C0 6.17747 0.344804 5.34504 0.95856 4.73129C1.57232 4.11753 2.40475 3.77273 3.27273 3.77273H11.4545C12.3225 3.77273 13.155 4.11753 13.7687 4.73129C14.3825 5.34504 14.7273 6.17747 14.7273 7.04545V15.2273C14.7273 16.0953 14.3825 16.9277 13.7687 17.5414C13.155 18.1552 12.3225 18.5 11.4545 18.5ZM3.27273 5.40909C2.83874 5.40909 2.42252 5.58149 2.11564 5.88837C1.80877 6.19525 1.63636 6.61146 1.63636 7.04545V15.2273C1.63636 15.6613 1.80877 16.0775 2.11564 16.3844C2.42252 16.6912 2.83874 16.8636 3.27273 16.8636H11.4545C11.8885 16.8636 12.3048 16.6912 12.6116 16.3844C12.9185 16.0775 13.0909 15.6613 13.0909 15.2273V7.04545C13.0909 6.61146 12.9185 6.19525 12.6116 5.88837C12.3048 5.58149 11.8885 5.40909 11.4545 5.40909H3.27273Z" />
    <path
        d="M14.7273 15.2273V13.5909C15.1613 13.5909 15.5775 13.4185 15.8844 13.1116C16.1912 12.8048 16.3636 12.3885 16.3636 11.9545V3.77273C16.3636 3.33874 16.1912 2.92252 15.8844 2.61564C15.5775 2.30877 15.1613 2.13636 14.7273 2.13636H6.54545C6.11146 2.13636 5.69525 2.30877 5.38837 2.61564C5.08149 2.92252 4.90909 3.33874 4.90909 3.77273H3.27273C3.27273 2.90475 3.61753 2.07232 4.23129 1.45856C4.84504 0.844804 5.67747 0.5 6.54545 0.5H14.7273C15.5953 0.5 16.4277 0.844804 17.0414 1.45856C17.6552 2.07232 18 2.90475 18 3.77273V11.9545C18 12.8225 17.6552 13.655 17.0414 14.2687C16.4277 14.8825 15.5953 15.2273 14.7273 15.2273Z" />
</svg>