<svg xmlns="http://www.w3.org/2000/svg" viewBox="0 0 30 30">
   <path
      d="m 16.585441,27.968423 v -1.540896 h 4.533043 c 2.493174,0 4.64529,-0.04308 4.782481,-0.09572 0.238718,-0.0916 0.700307,-0.818949 0.700307,-1.103503 0,-0.07474 -0.37156,-0.105083 -0.825689,-0.06743 -1.385258,0.114878 -2.455508,-0.294912 -3.501151,-1.340552 -1.235381,-1.235383 -1.420404,-1.910388 -1.347225,-4.914969 0.06249,-2.565743 0.262648,-3.235565 1.266989,-4.239904 0.899242,-0.899242 1.684022,-1.224769 3.146026,-1.304973 l 1.281427,-0.0703 -0.10584,-0.626454 C 26.161927,10.569111 25.050367,8.5354897 23.293235,6.7679603 22.115426,5.583182 21.676552,5.2575771 20.437683,4.6493907 18.408733,3.6533376 17.346171,3.3999286 15.198632,3.3999286 c -2.14754,0 -3.2101,0.253409 -5.2390489,1.2494621 C 6.9466382,6.1285054 4.423499,9.4554018 3.8814544,12.663731 l -0.1058392,0.626454 1.2814289,0.0703 c 1.4620041,0.08021 2.2467829,0.405731 3.146026,1.304973 1.0043401,1.004339 1.2044976,1.674161 1.2669885,4.239904 0.073182,3.004581 -0.1118412,3.679586 -1.3472258,4.914969 C 7.050034,24.893124 5.9983652,25.283618 4.5384464,25.151236 2.8828292,25.001112 1.1945102,23.655385 0.73417601,22.118928 0.50965474,21.369542 0.50001129,13.571724 0.72205378,12.318098 1.5225443,7.7986645 4.4657508,3.8575759 8.6063896,1.7606089 10.529702,0.78657551 12.187282,0.36577092 14.470193,0.27198074 c 2.975075,-0.12222545 4.96734,0.29148894 7.431339,1.54319246 4.029687,2.0470709 6.982616,6.0367393 7.773673,10.5029248 0.249947,1.411162 0.211085,12.755621 -0.04701,13.724204 -0.41664,1.56354 -1.164957,2.561087 -2.327222,3.102308 -0.764277,0.355894 -0.856528,0.361724 -5.746139,0.363205 l -4.969392,0.0016 z M 5.9047983,21.623886 C 6.2428811,21.306273 6.2611754,21.184047 6.256531,19.274019 6.2532228,17.933679 6.1887953,17.177344 6.0639198,17.014701 5.7436068,16.597509 5.2345438,16.411697 4.4118825,16.411697 H 3.6206999 l 0.049127,2.47939 c 0.047378,2.391354 0.062041,2.489838 0.412898,2.773615 0.4981612,0.402918 1.3705427,0.383376 1.8220746,-0.04082 z m 20.4097467,0.04082 c 0.350854,-0.283777 0.365516,-0.382261 0.412896,-2.773615 l 0.04913,-2.47939 h -0.791182 c -0.822663,0 -1.331724,0.185812 -1.652037,0.603004 -0.124626,0.162322 -0.189357,0.914367 -0.192613,2.237723 -0.0044,1.838075 0.02118,2.020996 0.330141,2.349868 0.423614,0.450916 1.325575,0.481449 1.843669,0.0624 z" />
</svg>