<svg width="15" height="20" viewBox="0 0 15 20" fill="none" xmlns="http://www.w3.org/2000/svg">
<g clip-path="url(#clip0_623_1870)">
<path d="M2.93178 10.2151H0.762161C0.656739 10.2246 0.550493 10.212 0.450196 10.1782C0.349898 10.1444 0.25774 10.09 0.179608 10.0186C0.101476 9.9472 0.0390824 9.8603 -0.00361034 9.76345C-0.046303 9.66659 -0.0683594 9.56191 -0.0683594 9.45606C-0.0683594 9.35021 -0.046303 9.24551 -0.00361034 9.14865C0.0390824 9.05179 0.101476 8.96489 0.179608 8.89348C0.25774 8.82207 0.349898 8.76773 0.450196 8.73389C0.550493 8.70006 0.656739 8.68748 0.762161 8.69698H2.93178C3.0372 8.68748 3.14345 8.70006 3.24375 8.73389C3.34404 8.76773 3.4362 8.82207 3.51433 8.89348C3.59247 8.96489 3.65486 9.05179 3.69755 9.14865C3.74024 9.24551 3.7623 9.35021 3.7623 9.45606C3.7623 9.56191 3.74024 9.66659 3.69755 9.76345C3.65486 9.8603 3.59247 9.9472 3.51433 10.0186C3.4362 10.09 3.34404 10.1444 3.24375 10.1782C3.14345 10.212 3.0372 10.2246 2.93178 10.2151Z" fill="#7DAAB7"/>
<path d="M1.85002 8.04549C1.64789 8.04549 1.45402 7.96519 1.3111 7.82226C1.16817 7.67934 1.08785 7.48549 1.08785 7.28336V0.762143C1.07835 0.65672 1.09093 0.550474 1.12476 0.450177C1.15859 0.349879 1.21294 0.25774 1.28435 0.179608C1.35576 0.101476 1.44266 0.0390636 1.53952 -0.0036291C1.63638 -0.0463218 1.74109 -0.0683594 1.84694 -0.0683594C1.95279 -0.0683594 2.05748 -0.0463218 2.15433 -0.0036291C2.25119 0.0390636 2.33809 0.101476 2.4095 0.179608C2.48091 0.25774 2.53526 0.349879 2.56909 0.450177C2.60292 0.550474 2.6155 0.65672 2.606 0.762143V7.28336C2.60601 7.48443 2.52653 7.67735 2.38493 7.82011C2.24333 7.96286 2.05108 8.04387 1.85002 8.04549Z" fill="#7DAAB7"/>
<path d="M1.85002 20C1.64895 20 1.45599 19.9206 1.31323 19.779C1.17048 19.6374 1.08947 19.4451 1.08785 19.244V11.6288C1.07835 11.5234 1.09093 11.4171 1.12476 11.3168C1.15859 11.2165 1.21294 11.1244 1.28435 11.0462C1.35576 10.9681 1.44266 10.9057 1.53952 10.863C1.63638 10.8203 1.74109 10.7983 1.84694 10.7983C1.95279 10.7983 2.05748 10.8203 2.15433 10.863C2.25119 10.9057 2.33809 10.9681 2.4095 11.0462C2.48091 11.1244 2.53526 11.2165 2.56909 11.3168C2.60292 11.4171 2.6155 11.5234 2.606 11.6288V19.244C2.60439 19.444 2.52422 19.6354 2.38279 19.7768C2.24136 19.9183 2.05002 19.9984 1.85002 20Z" fill="#7DAAB7"/>
<path d="M8.37123 14.5667H6.19542C5.99329 14.5667 5.79946 14.4864 5.65653 14.3435C5.51361 14.2005 5.43329 14.0067 5.43329 13.8046C5.43329 13.6024 5.51361 13.4086 5.65653 13.2656C5.79946 13.1227 5.99329 13.0424 6.19542 13.0424H8.37123C8.57336 13.0424 8.76719 13.1227 8.91012 13.2656C9.05305 13.4086 9.13336 13.6024 9.13336 13.8046C9.13336 14.0067 9.05305 14.2005 8.91012 14.3435C8.76719 14.4864 8.57336 14.5667 8.37123 14.5667Z" fill="#7DAAB7"/>
<path d="M7.28334 12.3909C7.18302 12.3917 7.08357 12.3726 6.99073 12.3346C6.89789 12.2965 6.81355 12.2404 6.74261 12.1695C6.67168 12.0986 6.61556 12.0142 6.57755 11.9214C6.53954 11.8285 6.52039 11.7291 6.5212 11.6288V0.762133C6.5212 0.560001 6.60148 0.366155 6.74441 0.223227C6.88734 0.0802978 7.08121 0 7.28334 0C7.48547 0 7.67933 0.0802978 7.82226 0.223227C7.96519 0.366155 8.04547 0.560001 8.04547 0.762133V11.6288C8.04547 11.8309 7.96519 12.0247 7.82226 12.1677C7.67933 12.3106 7.48547 12.3909 7.28334 12.3909Z" fill="#7DAAB7"/>
<path d="M7.28331 20C7.08118 20 6.88732 19.9197 6.74439 19.7768C6.60146 19.6339 6.52118 19.44 6.52118 19.2379V15.9803C6.52118 15.7782 6.60146 15.5844 6.74439 15.4414C6.88732 15.2985 7.08118 15.2182 7.28331 15.2182C7.48544 15.2182 7.67931 15.2985 7.82224 15.4414C7.96517 15.5844 8.04544 15.7782 8.04544 15.9803V19.244C8.04224 19.4446 7.96075 19.6359 7.81833 19.7772C7.67592 19.9185 7.4839 19.9984 7.28331 20Z" fill="#7DAAB7"/>
<path d="M13.8045 8.04546H11.6288C11.4266 8.04546 11.2328 7.96517 11.0898 7.82224C10.9469 7.67931 10.8666 7.48546 10.8666 7.28333C10.8666 7.0812 10.9469 6.88733 11.0898 6.74441C11.2328 6.60148 11.4266 6.52118 11.6288 6.52118H13.8045C14.0067 6.52118 14.2005 6.60148 14.3435 6.74441C14.4864 6.88733 14.5667 7.0812 14.5667 7.28333C14.5667 7.48546 14.4864 7.67931 14.3435 7.82224C14.2005 7.96517 14.0067 8.04546 13.8045 8.04546Z" fill="#7DAAB7"/>
<path d="M12.7167 5.86969C12.5145 5.86969 12.3207 5.78939 12.1777 5.64647C12.0348 5.50354 11.9545 5.30969 11.9545 5.10756V0.762133C11.9545 0.560001 12.0348 0.366155 12.1777 0.223227C12.3207 0.0802979 12.5145 0 12.7167 0C12.9188 0 13.1126 0.0802979 13.2555 0.223227C13.3985 0.366155 13.4788 0.560001 13.4788 0.762133V5.10756C13.4788 5.30969 13.3985 5.50354 13.2555 5.64647C13.1126 5.78939 12.9188 5.86969 12.7167 5.86969Z" fill="#7DAAB7"/>
<path d="M12.7167 20C12.515 19.9984 12.3221 19.9176 12.1795 19.775C12.0369 19.6324 11.9561 19.4395 11.9545 19.2378V9.45909C11.9545 9.25696 12.0348 9.06312 12.1777 8.92019C12.3207 8.77726 12.5145 8.69696 12.7167 8.69696C12.9188 8.69696 13.1126 8.77726 13.2555 8.92019C13.3985 9.06312 13.4788 9.25696 13.4788 9.45909V19.244C13.4756 19.4445 13.3941 19.6359 13.2516 19.7772C13.1092 19.9184 12.9172 19.9984 12.7167 20Z" fill="#7DAAB7"/>
</g>
<defs>
<clipPath id="clip0_623_1870">
<rect width="14.5667" height="20" fill="white"/>
</clipPath>
</defs>
</svg>
