<?xml version="1.0" encoding="utf-8"?>
<!-- Generator: Adobe Illustrator 25.4.1, SVG Export Plug-In . SVG Version: 6.00 Build 0)  -->
<svg version="1.1" xmlns="http://www.w3.org/2000/svg" xmlns:xlink="http://www.w3.org/1999/xlink" x="0px" y="0px"
	viewBox="0 0 31.1 30.3" style="enable-background:new 0 0 31.1 30.3;" xml:space="preserve">
	<g>
		<path d="M3.9,11.3c-2.2,0-3.9,1.8-3.9,3.9s1.8,3.9,3.9,3.9s3.9-1.8,3.9-3.9S6.1,11.3,3.9,11.3z M3.9,17.5c-1.3,0-2.3-1-2.3-2.3
		s1-2.3,2.3-2.3s2.3,1,2.3,2.3S5.2,17.5,3.9,17.5z" />
		<path d="M30.1,14.3H12c-0.5,0-1,0.4-1,1s0.4,1,1,1h18.1c0.5,0,1-0.4,1-1S30.6,14.3,30.1,14.3z" />
		<path d="M3.9,0C1.7,0,0,1.8,0,3.9c0,2.2,1.8,3.9,3.9,3.9S7.8,6,7.8,3.9S6.1,0,3.9,0z M3.9,6.3c-1.3,0-2.3-1-2.3-2.3s1-2.3,2.3-2.3
		s2.3,1,2.3,2.3S5.2,6.3,3.9,6.3z" />
		<path d="M12,4.9h18.1c0.5,0,1-0.4,1-1s-0.4-1-1-1H12c-0.5,0-1,0.4-1,1S11.5,4.9,12,4.9z" />
		<path d="M3.9,22.5c-2.2,0-3.9,1.8-3.9,3.9s1.8,3.9,3.9,3.9s3.9-1.8,3.9-3.9S6.1,22.5,3.9,22.5z M3.9,28.8c-1.3,0-2.3-1-2.3-2.3
		s1-2.3,2.3-2.3s2.3,1,2.3,2.3S5.2,28.8,3.9,28.8z" />
		<path d="M30.1,25.5H12c-0.5,0-1,0.4-1,1s0.4,1,1,1h18.1c0.5,0,1-0.4,1-1S30.6,25.5,30.1,25.5z" />
	</g>
</svg>