<svg viewBox="0 0 25 25" xmlns="http://www.w3.org/2000/svg">
    <path
        d="M20.9915 19.9042L25 25H19.7713L17.7335 22.4221C15.4344 23.6035 12.8109 24.0314 10.2466 23.6431C7.68229 23.2548 5.31162 22.0707 3.48112 20.2639C2.18449 18.9684 1.20648 17.3986 0.621922 15.6747C0.0373696 13.9508 -0.13828 12.1184 0.108399 10.3176C0.355079 8.51679 1.01756 6.79524 2.04519 5.28456C3.07282 3.77388 4.43838 2.51409 6.03748 1.6015C7.85779 0.546664 9.93389 -0.00631317 12.0472 0.000821189C13.6197 -0.0178413 15.1793 0.281774 16.6289 0.881008C18.0784 1.48024 19.387 2.36626 20.473 3.48392C22.6429 5.65833 23.8979 8.55721 23.9873 11.6013C24.0766 14.6454 22.9937 17.6106 20.9549 19.9042H20.9915ZM18.2521 16.4211C19.1701 15.0984 19.6554 13.5319 19.6432 11.9309C19.6644 10.9218 19.4799 9.91878 19.1006 8.98083C18.7212 8.04289 18.1548 7.189 17.4346 6.46944C16.7522 5.74797 15.9234 5.17513 15.0018 4.7879C14.0801 4.40066 13.0861 4.20765 12.0838 4.22131C11.078 4.19683 10.0781 4.37819 9.14744 4.75387C8.21683 5.12954 7.37592 5.69131 6.67814 6.40348C5.95367 7.13846 5.38736 8.0094 5.01312 8.96424C4.63888 9.91908 4.46436 10.9383 4.49997 11.9609C4.45213 13.0932 4.67566 14.2208 5.15254 15.2527C5.62943 16.2846 6.34634 17.1921 7.24551 17.9019C8.61553 19.0209 10.345 19.6263 12.1265 19.6105C13.1429 19.6181 14.1494 19.4137 15.0795 19.011L10.9551 13.7893H16.1838L18.2521 16.4211Z" />
</svg>