<?xml version="1.0" encoding="utf-8"?>
<!-- Generator: Adobe Illustrator 25.3.1, SVG Export Plug-In . SVG Version: 6.00 Build 0)  -->
<svg version="1.1" id="Calque_1" xmlns="http://www.w3.org/2000/svg" xmlns:xlink="http://www.w3.org/1999/xlink" x="0px" y="0px"
	 viewBox="0 0 50 50" style="enable-background:new 0 0 50 50;" xml:space="preserve">
<g>
	<g id="XMLID_4_">
		<path d="M29.8,35.1H14c-2.6,0-4.7-2.1-4.7-4.7c0-2.4,1.7-4.3,4-4.7c0.4-4.4,4.1-8,8.7-8c3.5,0,6.6,2.1,8,5.3c3.3,0,6,2.7,6,6.1
			C35.8,32.4,33.1,35.1,29.8,35.1z M14,27.2c-1.7,0-3.2,1.4-3.2,3.2c0,1.7,1.4,3.2,3.2,3.2h15.8c2.5,0,4.5-2,4.5-4.5
			c0-2.5-2-4.5-4.5-4.5c-0.1,0-0.1,0-0.2,0l-0.8,0.1l-0.2-0.6c-1-2.9-3.7-4.8-6.7-4.8c-3.9,0-7.1,3.2-7.1,7.1v0.8H14z"/>
	</g>
	<g id="XMLID_3_">
		<path d="M37.7,31.8L37,30.4c1.5-0.8,2.5-2.3,2.5-4c0-2.5-2-4.5-4.5-4.5c-0.1,0-0.1,0-0.2,0L34.1,22l-0.2-0.6
			c-1-2.9-3.7-4.8-6.7-4.8c-0.7,0-1.5,0.1-2.2,0.4l-0.5-1.5c0.9-0.3,1.8-0.4,2.7-0.4c3.5,0,6.6,2.1,8,5.3c3.3,0,6,2.7,6,6.1
			C41.1,28.7,39.8,30.8,37.7,31.8z"/>
	</g>
</g>
</svg>
