<?xml version="1.0" encoding="utf-8"?>
<!-- Generator: Adobe Illustrator 25.4.1, SVG Export Plug-In . SVG Version: 6.00 Build 0)  -->
<svg version="1.1" xmlns="http://www.w3.org/2000/svg" xmlns:xlink="http://www.w3.org/1999/xlink" x="0px" y="0px"
	viewBox="0 0 37.3 40.3" style="enable-background:new 0 0 37.3 40.3;" xml:space="preserve">
	<g>
		<path d="M18.6,40.3c-1.6,0-3.1-0.4-4.5-1.2l-9.6-5.6C1.7,31.9,0,28.9,0,25.6v-11c0-3.2,1.7-6.3,4.5-7.9l9.6-5.5
		c2.8-1.6,6.3-1.6,9.1,0l9.6,5.5c2.8,1.6,4.5,4.6,4.5,7.9v11.1c0,3.2-1.7,6.3-4.5,7.9l-9.6,5.5C21.8,39.8,20.2,40.3,18.6,40.3z
		 M18.6,2c-1.2,0-2.5,0.3-3.5,0.9L5.5,8.5C3.3,9.8,2,12.1,2,14.6v11.1c0,2.5,1.4,4.9,3.5,6.1l9.6,5.5c2.2,1.3,4.9,1.3,7.1,0l9.6-5.5
		c2.2-1.3,3.5-3.6,3.5-6.1V14.6c0-2.5-1.4-4.9-3.5-6.1l-9.6-5.6C21.1,2.3,19.9,2,18.6,2z" />
	</g>
	<path d="M30,13.3l-1.7-0.4v-0.1c0-0.1-0.1-0.3-0.1-0.4c-0.8-0.8-3.9-1.2-5-1.2c-0.8,0-3.3,0.1-4.6,0.9c-1.1-0.6-3.7-0.9-4.6-0.9
	s-3.9,0.1-5,1.2c-0.1,0.1-0.1,0.2-0.1,0.4v0.1l-1.7,0.4c-0.2,0.1-0.4,0.3-0.4,0.5v14.3c0,0.1,0.1,0.3,0.2,0.4
	c0.1,0.1,0.3,0.1,0.4,0.1l8.8-1c0.4,0.6,1.3,1,2.4,1s2-0.4,2.4-1l8.8,1c0,0,0,0,0.1,0s0.2,0,0.3-0.1s0.2-0.2,0.2-0.4V13.8
	C30.4,13.6,30.2,13.4,30,13.3z M27.3,13v12.2c-1.3-0.5-3.3-0.7-4.1-0.7c-0.7,0-2.7,0.1-4.1,0.6V13c0.7-0.5,2.6-0.7,4.1-0.7
	C24.5,12.3,26.6,12.7,27.3,13z M9.9,13c0.7-0.5,2.6-0.7,4.1-0.7c1.2,0,3.4,0.4,4.1,0.8v12.2c-1.3-0.5-3.3-0.7-4.1-0.7
	c-0.7,0-2.7,0.1-4.1,0.6V13z M7.9,14.2l1-0.3V26c0,0.2,0.1,0.4,0.3,0.5s0.4,0,0.6-0.1c0.6-0.6,2.6-0.9,4.2-0.9c0.6,0,1.3,0.1,2,0.2
	v0.9l-8.2,0.9L7.9,14.2L7.9,14.2z M18.6,27.6c-1,0-1.5-0.4-1.5-0.5V26c0.6,0.1,1,0.3,1.2,0.5l0,0l0.1,0.1l0,0l0,0c0.1,0,0.1,0,0.2,0
	l0,0l0,0h0.1l0,0l0,0c0,0,0,0,0.1,0c0,0,0,0,0.1,0l0,0c0.2-0.2,0.6-0.4,1.2-0.5v1.2C20.2,27.2,19.6,27.6,18.6,27.6z M29.4,27.5
	l-8.2-0.9v-0.9c0.7-0.1,1.4-0.1,2-0.1c1.4,0,3.8,0.5,4.2,0.9c0.1,0.1,0.2,0.1,0.4,0.1c0.1,0,0.1,0,0.2,0c0.2-0.1,0.3-0.3,0.3-0.5V14
	l1,0.3L29.4,27.5L29.4,27.5z" />
</svg>