<svg width="32" height="28" viewBox="0 0 32 28" fill="none" xmlns="http://www.w3.org/2000/svg">
<path d="M24.1348 15.7457L11.6288 3.25429C11.0778 2.70702 10.333 2.3999 9.55674 2.3999C8.78043 2.3999 8.03556 2.70702 7.48456 3.25429L6.10317 4.63681C5.95047 4.79423 5.85845 5.00075 5.84357 5.21964C5.82869 5.43853 5.89194 5.65558 6.02193 5.83225C6.28715 6.18936 6.41517 6.63004 6.3827 7.0738C6.35022 7.51757 6.15935 7.93486 5.84496 8.24949C5.53058 8.56412 5.11361 8.75509 4.6702 8.78759C4.22678 8.82009 3.7865 8.69192 3.42966 8.42649C3.25376 8.29481 3.0365 8.23059 2.81733 8.24552C2.59817 8.26044 2.39163 8.35353 2.23516 8.50784L0.853672 9.89031C0.306828 10.4418 0 11.1872 0 11.9641C0 12.741 0.306828 13.4864 0.853672 14.0379L13.3597 26.5455C13.9107 27.0928 14.6556 27.3999 15.4319 27.3999C16.2082 27.3999 16.953 27.0928 17.504 26.5455L24.1348 19.9094C24.409 19.6366 24.6266 19.3122 24.7751 18.9549C24.9236 18.5976 25 18.2145 25 17.8275C25 17.4406 24.9236 17.0574 24.7751 16.7002C24.6266 16.3429 24.409 16.0185 24.1348 15.7457ZM20.6731 14.8755L12.4658 23.0079L2.14578 12.6798C2.0406 12.5728 1.95823 12.4456 1.90375 12.3058C1.84927 12.166 1.82379 12.0165 1.82886 11.8665C1.82379 11.7166 1.84927 11.5671 1.90375 11.4273C1.95823 11.2875 2.0406 11.1602 2.14578 11.0533L3.0315 10.1668C3.71387 10.4827 4.47664 10.5815 5.21686 10.4497C5.95708 10.3179 6.63907 9.96188 7.1707 9.42984C7.70233 8.89779 8.05804 8.21531 8.18973 7.47452C8.32143 6.73372 8.22277 5.9703 7.90713 5.28739L8.7847 4.40094C8.99185 4.19435 9.27243 4.07835 9.56487 4.07835C9.85731 4.07835 10.1378 4.19435 10.3449 4.40094L20.6731 14.8755ZM23.1597 17.8194C23.1662 17.9703 23.1406 18.1208 23.0845 18.261C23.0285 18.4012 22.9433 18.5279 22.8347 18.6326L16.2119 25.2687C16.0048 25.4753 15.7243 25.5913 15.4319 25.5913C15.1394 25.5913 14.8589 25.4753 14.6518 25.2687L13.7578 24.3741L21.9652 16.2417L22.8347 17.1119C23.0284 17.2982 23.1445 17.551 23.1597 17.8194Z" fill="white"/>
<path d="M31.7406 5.26999C31.7797 5.17808 31.7998 5.0795 31.7998 4.97994C31.7998 4.88036 31.7797 4.78179 31.7406 4.68988C31.6993 4.59312 31.6389 4.50529 31.5629 4.43144L27.2552 0.212316C27.1021 0.0725782 26.8996 -0.00349277 26.6903 0.000123253C26.4811 0.00373927 26.2815 0.0867691 26.1335 0.23171C25.9855 0.376651 25.9007 0.572182 25.897 0.777127C25.8933 0.982072 25.971 1.18042 26.1137 1.33038L29.0429 4.19939H18.6075C18.3933 4.19939 18.1878 4.28275 18.0364 4.43111C17.8849 4.57946 17.7998 4.78067 17.7998 4.99048C17.7998 5.20029 17.8849 5.40151 18.0364 5.54986C18.1878 5.69822 18.3933 5.78156 18.6075 5.78156H29.0483L26.1191 8.65057C26.0435 8.72366 25.9835 8.81071 25.9426 8.90667C25.9017 9.00263 25.8806 9.1056 25.8806 9.20961C25.8806 9.31361 25.9017 9.41658 25.9426 9.51254C25.9835 9.6085 26.0435 9.69555 26.1191 9.76864C26.2705 9.91678 26.4758 10 26.6898 10C26.9038 10 27.1092 9.91678 27.2606 9.76864L31.5683 5.54951C31.6448 5.46899 31.7035 5.37382 31.7406 5.26999Z" fill="white"/>
</svg>
