<?xml version="1.0" encoding="utf-8"?>
<!-- Generator: Adobe Illustrator 25.4.1, SVG Export Plug-In . SVG Version: 6.00 Build 0)  -->
<svg version="1.1" xmlns="http://www.w3.org/2000/svg" xmlns:xlink="http://www.w3.org/1999/xlink" x="0px" y="0px"
	viewBox="0 0 39.3 39.3" style="enable-background:new 0 0 39.3 39.3;" xml:space="preserve">
	<g>
		<circle cx="4.1" cy="17.2" r="0.8" />
		<circle cx="7.4" cy="17.2" r="0.8" />
		<circle cx="10.6" cy="17.2" r="0.8" />
		<path d="M35.2,0H15.5c-2.3,0-4.1,1.8-4.1,4.1v9H4.1c-2.3,0-4.1,1.8-4.1,4.1v18c0,2.3,1.8,4.1,4.1,4.1h19.6c2.3,0,4.1-1.8,4.1-4.1
		v-9h7.4c2.3,0,4.1-1.8,4.1-4.1v-18C39.3,1.9,37.4,0,35.2,0z M15.5,1.7h19.6c1.4,0,2.5,1.1,2.5,2.5v2.4H13.1V4.1
		C13.1,2.8,14.2,1.7,15.5,1.7z M4.1,14.8h19.6c1.4,0,2.5,1.1,2.5,2.5v2.5H1.6v-2.5C1.6,15.9,2.7,14.8,4.1,14.8z M26.2,35.2
		c0,1.4-1.1,2.5-2.5,2.5H4.1c-1.4,0-2.5-1.1-2.5-2.5V21.3h24.5v13.9H26.2z M35.2,24.6h-7.4v-7.4c0-2.3-1.8-4.1-4.1-4.1H13.1V8.2
		h24.5v13.9C37.6,23.5,36.5,24.6,35.2,24.6z" />
		<circle cx="15.5" cy="4.1" r="0.8" />
		<circle cx="18.8" cy="4.1" r="0.8" />
		<circle cx="22.1" cy="4.1" r="0.8" />
		<path d="M19.1,23c-0.1,0-0.2-0.1-0.3-0.1h-4.9c-0.5,0-0.8,0.4-0.8,0.8c0,0.5,0.4,0.8,0.8,0.8h2.9l-8.4,8.4c-0.3,0.3-0.3,0.8,0,1.2
		c0.2,0.2,0.4,0.2,0.6,0.2c0.2,0,0.4-0.1,0.6-0.2l8.4-8.4v2.9c0,0.5,0.4,0.8,0.8,0.8c0.5,0,0.8-0.4,0.8-0.8v-4.9
		c0-0.1,0-0.2-0.1-0.3C19.5,23.2,19.3,23.1,19.1,23z" />
	</g>
</svg>