<svg viewBox="0 0 30 30" xmlns="http://www.w3.org/2000/svg">
    <path fill-rule="evenodd" clip-rule="evenodd"
        d="M5.25253 11.1111C5.25253 10.4975 5.74999 10 6.36364 10H13.6364C14.25 10 14.7475 10.4975 14.7475 11.1111V13.5556H14.8485C15.4621 13.5556 15.9596 14.053 15.9596 14.6667V15.6903L19.4226 17.587C19.7787 17.782 20 18.1556 20 18.5615V28.8889C20 29.1836 19.8829 29.4662 19.6746 29.6746C19.4662 29.8829 19.1836 30 18.8889 30L1.11111 30C0.497461 30 0 29.5025 0 28.8889V18.5615C0 18.1556 0.221346 17.782 0.577354 17.587L4.0404 15.6903V14.6667C4.0404 14.053 4.53787 13.5556 5.15152 13.5556H5.25253V11.1111ZM7.47475 13.5556V12.2222H12.5253V13.5556L7.47475 13.5556ZM6.26263 16.3485V27.7778H13.7374L13.7374 16.3485C13.7374 16.348 13.7374 16.3475 13.7374 16.347V15.7778H13.641C13.6394 15.7778 13.6379 15.7778 13.6364 15.7778H6.36364C6.3621 15.7778 6.36057 15.7778 6.35903 15.7778H6.26263V15.7732C6.20144 15.7676 6.1411 15.757 6.08218 15.7416M15.9596 27.7778L17.7778 27.7778V19.2198L15.9596 18.224V27.7778ZM4.0404 27.7778V18.224L2.22222 19.2198V27.7778H4.0404Z"
    />
    <path d="M30 4V6L20 6L20 4L30 4Z" />
    <path d="M24 0H26V10H24V0Z" />
</svg>