<svg viewBox="0 0 30 30" xmlns="http://www.w3.org/2000/svg">
    <path
        d="M27.3356 29.0977H2.66453C1.69296 29.0977 0.902311 28.3071 0.902311 27.3355V2.66446C0.902311 1.69289 1.69296 0.902242 2.66453 0.902242H27.3356C28.3072 0.902242 29.0978 1.69289 29.0978 2.66446V27.3355C29.0978 28.3071 28.3072 29.0977 27.3356 29.0977ZM2.66453 2.07705C2.34028 2.07705 2.07712 2.34021 2.07712 2.66446V27.3355C2.07712 27.6598 2.34028 27.9229 2.66453 27.9229H27.3356C27.6598 27.9229 27.923 27.6598 27.923 27.3355V2.66446C27.923 2.34021 27.6598 2.07705 27.3356 2.07705H2.66453Z" />
    <path
        d="M10.3008 29.0977C9.97656 29.0977 9.7134 28.8346 9.7134 28.5103V1.48965C9.7134 1.1654 9.97656 0.902242 10.3008 0.902242C10.6251 0.902242 10.8882 1.1654 10.8882 1.48965V28.5103C10.8882 28.8346 10.6251 29.0977 10.3008 29.0977Z" />
    <path
        d="M19.6993 29.0977C19.3751 29.0977 19.1119 28.8346 19.1119 28.5103V1.48965C19.1119 1.1654 19.3751 0.902242 19.6993 0.902242C20.0236 0.902242 20.2867 1.1654 20.2867 1.48965V28.5103C20.2867 28.8346 20.0236 29.0977 19.6993 29.0977Z" />
    <path fill-rule="evenodd" clip-rule="evenodd"
        d="M27.3356 27.9229C27.6598 27.9229 27.923 27.6598 27.923 27.3355V2.66446C27.923 2.34021 27.6598 2.07705 27.3356 2.07705L20.2867 2.07707V27.9229L27.3356 27.9229ZM21.1889 27.0207H27.0207V2.97932H21.1889V27.0207ZM27.3356 0.902242C28.3072 0.902242 29.0978 1.69289 29.0978 2.66446V27.3355C29.0978 28.3071 28.3072 29.0977 27.3356 29.0977H2.66453C1.69296 29.0977 0.902311 28.3071 0.902311 27.3355V2.66446C0.902311 1.69289 1.69296 0.902242 2.66453 0.902242H27.3356ZM27.3355 0C28.8054 0 30 1.1946 30 2.66447V27.3355C30 28.8054 28.8054 30 27.3355 30H2.66447C1.1946 30 0 28.8054 0 27.3355V2.66447C0 1.1946 1.1946 0 2.66447 0H27.3355ZM19.1118 2.07707H10.8882V27.9229H19.1118V2.07707ZM18.2096 27.0207V2.97932H11.7904V27.0207H18.2096ZM9.71335 2.07707L2.66453 2.07705C2.34028 2.07705 2.07712 2.34021 2.07712 2.66446V27.3355C2.07712 27.6598 2.34028 27.9229 2.66453 27.9229L9.71335 27.9229V2.07707ZM8.81109 27.0207V2.97932H2.97932V27.0207H8.81109Z" />
</svg>