<svg viewBox="0 0 40 26" xmlns="http://www.w3.org/2000/svg">
    <path d="M32.0769 11.3744C27.9888 11.3744 24.6739 14.6489 24.6739 18.6872C24.6739 22.7255 27.9888 26 32.0769 26C36.1651 26 39.4799 22.7255 39.4799 18.6872C39.4799 14.6489 36.1651 11.3744 32.0769 11.3744ZM31.3058 21.9102L28.5289 19.2499L29.6734 18.1174L31.3037 19.645L34.7843 16.1209L35.9288 17.2515L31.3047 21.9102H31.3058ZM22.211 22.7487H4.11266C3.65854 22.7487 3.29034 22.385 3.29034 21.9364V11.3744H24.3784C26.3258 9.37592 29.0536 8.12412 32.0769 8.12412C33.5344 8.12412 34.9213 8.41509 36.1896 8.93845V3.25025C36.1896 1.45589 34.7158 0 32.8993 0H3.29034C1.47385 0 0 1.45589 0 3.25025V22.7497C0 24.5441 1.47385 26 3.29034 26H24.3784C23.4691 25.0644 22.7235 23.9672 22.21 22.7497L22.211 22.7487ZM3.29034 4.06256C3.29034 3.61397 3.65854 3.25025 4.11266 3.25025H32.0769C32.5311 3.25025 32.8993 3.61397 32.8993 4.06256V6.4995H3.29034V4.06256Z" />
</svg>