<svg data-testid="ico-ticket-normal" width="32" height="32" viewBox="0 0 32 32" xmlns="http://www.w3.org/2000/svg">
<path d="M30.9501 17.2373L14.772 1.08728C14.0878 0.411832 13.1651 0.0330811 12.2037 0.0330811C11.2423 0.0330811 10.3196 0.411832 9.6355 1.08728L7.85457 2.87756C7.68202 3.05135 7.57766 3.28132 7.56046 3.52562C7.54325 3.76992 7.61437 4.01227 7.76086 4.20853C8.1277 4.70135 8.30496 5.30972 8.2603 5.92246C8.21564 6.5352 7.95203 7.11144 7.51761 7.54586C7.08318 7.98028 6.50698 8.24389 5.89424 8.28855C5.28149 8.33321 4.67313 8.15593 4.1803 7.78909C3.98479 7.64069 3.74201 7.56841 3.49717 7.58565C3.25232 7.60289 3.02211 7.7085 2.84933 7.88282L1.05902 9.66372C0.383577 10.3479 0.00488281 11.2706 0.00488281 12.232C0.00488281 13.1934 0.383577 14.1161 1.05902 14.8002L17.2371 30.9689C17.9201 31.6466 18.8432 32.0269 19.8054 32.0269C20.7675 32.0269 21.6906 31.6466 22.3736 30.9689L30.9501 22.3925C31.6335 21.7088 32.0174 20.7816 32.0174 19.8149C32.0174 18.8482 31.6335 17.921 30.9501 17.2373V17.2373ZM26.8165 16L15.9718 26.7791L2.51185 13.3193C2.36363 13.1737 2.24591 13.0002 2.16545 12.8087C2.08499 12.6172 2.0434 12.4116 2.04319 12.2038C2.04423 11.7816 2.21279 11.3771 2.51185 11.0791L3.73041 9.86055C4.58868 10.2705 5.55284 10.4045 6.49036 10.244C7.42788 10.0836 8.29267 9.63656 8.96575 8.96451C9.63882 8.29246 10.0872 7.42837 10.2491 6.49109C10.411 5.55382 10.2785 4.58941 9.86982 3.73052L11.0883 2.51199C11.2346 2.36518 11.4085 2.24873 11.5999 2.16925C11.7913 2.08977 11.9965 2.04885 12.2037 2.04885C12.411 2.04885 12.6162 2.08977 12.8076 2.16925C12.999 2.24873 13.1729 2.36518 13.3191 2.51199L26.8165 16ZM29.4972 20.9209L20.9208 29.4973C20.7745 29.6442 20.6007 29.7606 20.4093 29.8401C20.2179 29.9196 20.0126 29.9605 19.8054 29.9605C19.5981 29.9605 19.3929 29.9196 19.2015 29.8401C19.0101 29.7606 18.8362 29.6442 18.69 29.4973L17.4152 28.2695L28.26 17.4809L29.4972 18.7182C29.7818 19.0148 29.9398 19.4104 29.938 19.8215C29.9363 20.2325 29.7749 20.6267 29.4879 20.9209H29.4972Z"/>
</svg>
