<svg viewBox="0 0 32 32" xmlns="http://www.w3.org/2000/svg">
<path d="M9.66136 6.38521C9.66136 2.85874 12.5044 0 16.0116 0C19.5188 0 22.3617 2.85875 22.3617 6.38521C22.3617 8.16581 21.6369 9.77618 20.4678 10.9343C21.1953 11.3062 21.8707 11.766 22.48 12.2996C23.0927 12.1017 23.7459 11.9948 24.4239 11.9948C27.931 11.9948 30.7741 14.8536 30.7741 18.38C30.7741 20.2761 29.9522 21.9791 28.6471 23.1486C30.6695 24.5165 32 26.839 32 29.474V30.5455C32 31.3488 31.3524 32 30.5534 32H1.44657C0.64765 32 0 31.3488 0 30.5455V29.474C0 26.8596 1.30977 24.5528 3.30552 23.1809C2.00909 22.0063 1.19406 20.3049 1.19406 18.4121C1.19406 14.8679 4.05139 11.9948 7.57606 11.9948C8.25442 11.9948 8.90805 12.1012 9.52136 12.2984C10.1346 11.7616 10.8147 11.2995 11.5475 10.9265C10.383 9.76898 9.66136 8.16183 9.66136 6.38521Z" fill="#0E3864"/>
<path fill-rule="evenodd" clip-rule="evenodd" d="M16.0116 2.90909C14.1023 2.90909 12.5545 4.46539 12.5545 6.38521C12.5545 8.30503 14.1023 9.86132 16.0116 9.86132C17.9209 9.86132 19.4686 8.30504 19.4686 6.38521C19.4686 4.46538 17.9209 2.90909 16.0116 2.90909ZM9.66136 6.38521C9.66136 2.85874 12.5044 0 16.0116 0C19.5188 0 22.3617 2.85875 22.3617 6.38521C22.3617 8.16581 21.6369 9.77618 20.4678 10.9343C21.1953 11.3062 21.8707 11.766 22.48 12.2995C23.0927 12.1017 23.7459 11.9948 24.4239 11.9948C27.931 11.9948 30.7741 14.8536 30.7741 18.38C30.7741 20.2761 29.9522 21.9791 28.6471 23.1486C30.6695 24.5165 32 26.839 32 29.474V30.5455C32 31.3488 31.3524 32 30.5534 32H1.44657C0.647651 32 0 31.3488 0 30.5455V29.474C0 26.8596 1.30977 24.5528 3.30552 23.1809C2.00909 22.0063 1.19406 20.3049 1.19406 18.4121C1.19406 14.8679 4.05139 11.9948 7.57606 11.9948C8.25442 11.9948 8.90805 12.1012 9.52136 12.2984C10.1346 11.7616 10.8147 11.2995 11.5475 10.9265C10.383 9.76898 9.66136 8.16183 9.66136 6.38521ZM9.15845 15.2846C9.17232 15.2921 9.18628 15.2994 9.20033 15.3065C10.3091 15.894 11.065 17.0643 11.065 18.4121C11.065 20.16 9.79363 21.6093 8.12998 21.8762C7.94707 21.8629 7.76237 21.8561 7.57609 21.8561C7.38981 21.8561 7.2051 21.8629 7.02218 21.8762C5.35858 21.6094 4.0872 20.16 4.0872 18.4121C4.0872 16.4745 5.64925 14.9039 7.57606 14.9039C8.14573 14.9039 8.6835 15.0412 9.15845 15.2846ZM11.8467 23.1809C13.1431 22.0063 13.9581 20.3049 13.9581 18.4121C13.9581 16.6706 13.2683 15.0912 12.1484 13.935C13.2525 13.1985 14.576 12.7704 16 12.7704C17.4276 12.7704 18.7541 13.2006 19.8598 13.9405C18.7541 15.0895 18.0737 16.6549 18.0737 18.38C18.0737 20.2761 18.8956 21.9791 20.2007 23.1486C18.2769 24.4498 16.9792 26.6148 16.8572 29.0909H15.1428C15.0218 26.6352 13.7443 24.4854 11.8467 23.1809ZM6.98633 24.8022C7.18052 24.8201 7.37723 24.8293 7.57606 24.8293C7.77491 24.8293 7.97163 24.8201 8.16584 24.8022C10.3497 25.0781 12.0656 26.8663 12.2438 29.0909H2.90841C3.08656 26.8663 4.80244 25.0782 6.98633 24.8022ZM19.7562 29.0909H29.0916C28.8977 26.6695 26.882 24.7652 24.4239 24.7652C21.9658 24.7652 19.9501 26.6695 19.7562 29.0909ZM22.817 15.3015C21.717 15.8832 20.9669 17.0435 20.9669 18.38C20.9669 20.2999 22.5146 21.8562 24.4239 21.8562C26.3332 21.8562 27.881 20.2999 27.881 18.38C27.881 16.4602 26.3332 14.9039 24.4239 14.9039C23.8516 14.9039 23.3117 15.0438 22.8363 15.2914C22.8299 15.2948 22.8235 15.2981 22.817 15.3015Z"/>
</svg>
