<?xml version="1.0" encoding="utf-8"?>
<!-- Generator: Adobe Illustrator 25.4.1, SVG Export Plug-In . SVG Version: 6.00 Build 0)  -->
<svg version="1.1" id="Calque_1" xmlns="http://www.w3.org/2000/svg" xmlns:xlink="http://www.w3.org/1999/xlink" x="0px" y="0px"
	 viewBox="0 0 40.1 40.1" style="enable-background:new 0 0 40.1 40.1;" xml:space="preserve">
<path d="M20,0C8.9,0,0,8.9,0,20c0,3.5,0.9,6.9,2.7,10l-2.6,8c-0.2,0.6,0,1.2,0.4,1.6c0.4,0.4,1,0.6,1.6,0.4l8-2.6
	c3,1.7,6.4,2.7,10,2.7c11.1,0,20-8.9,20-20C40,9,31.1,0,20,0z M20,36.9c-3.2,0-6.3-0.9-8.9-2.6c-0.4-0.2-0.9-0.3-1.3-0.2L4,36
	l1.9-5.8C6,29.8,6,29.3,5.7,28.9C4,26.2,3.1,23.1,3.1,20c0-9.3,7.6-16.9,16.9-16.9S36.9,10.7,36.9,20S29.3,36.9,20,36.9z"/>
</svg>
