<?xml version="1.0" encoding="utf-8"?>
<!-- Generator: Adobe Illustrator 25.3.1, SVG Export Plug-In . SVG Version: 6.00 Build 0)  -->
<svg version="1.1" id="Calque_1" xmlns="http://www.w3.org/2000/svg" xmlns:xlink="http://www.w3.org/1999/xlink" x="0px" y="0px"
	 viewBox="0 0 50 50" style="enable-background:new 0 0 50 50;" xml:space="preserve">
<g>
	<path d="M39.3,7.9H11c-2.1,0-3.7,1.7-3.7,3.7v26.8c0,2.1,1.7,3.7,3.7,3.7h28.3c2.1,0,3.7-1.7,3.7-3.7V11.7
		C43,9.6,41.3,7.9,39.3,7.9z M11,9.4h28.3c1.2,0,2.2,1,2.2,2.2v2.2H8.8v-2.2C8.8,10.4,9.8,9.4,11,9.4z M39.3,40.7H11
		c-1.2,0-2.2-1-2.2-2.2V15.4h32.7v23.1C41.5,39.7,40.5,40.7,39.3,40.7z"/>
	<circle cx="11" cy="11.7" r="0.7"/>
	<path d="M14,12.4c0.4,0,0.7-0.3,0.7-0.7s-0.3-0.7-0.7-0.7s-0.7,0.3-0.7,0.7S13.6,12.4,14,12.4z"/>
	<circle cx="17" cy="11.7" r="0.7"/>
	<path d="M21.4,19.8h-5.2v-0.7c0-0.4-0.3-0.7-0.7-0.7h-3c-0.4,0-0.7,0.3-0.7,0.7v3c0,0.4,0.3,0.7,0.7,0.7h3c0.4,0,0.7-0.3,0.7-0.7
		v-0.7h5.2c0.4,0,0.7-0.3,0.7-0.7S21.8,19.8,21.4,19.8z M14.7,21.3h-1.5v-1.5h1.5V21.3z"/>
	<path d="M21.4,27.3h-5.2v-0.7c0-0.4-0.3-0.7-0.7-0.7h-3c-0.4,0-0.7,0.3-0.7,0.7v3c0,0.4,0.3,0.7,0.7,0.7h3c0.4,0,0.7-0.3,0.7-0.7
		v-0.7h5.2c0.4,0,0.7-0.3,0.7-0.7C22.2,27.6,21.8,27.3,21.4,27.3z M14.7,28.8h-1.5v-1.5h1.5V28.8z"/>
	<path d="M21.4,34.7h-5.2V34c0-0.4-0.3-0.7-0.7-0.7h-3c-0.4,0-0.7,0.3-0.7,0.7v3c0,0.4,0.3,0.7,0.7,0.7h3c0.4,0,0.7-0.3,0.7-0.7
		v-0.7h5.2c0.4,0,0.7-0.3,0.7-0.7C22.2,35.1,21.8,34.7,21.4,34.7z M14.7,36.2h-1.5v-1.5h1.5V36.2z"/>
	<path d="M36.3,19.8h-5.2v-0.7c0-0.4-0.3-0.7-0.7-0.7h-3c-0.4,0-0.7,0.3-0.7,0.7v3c0,0.4,0.3,0.7,0.7,0.7h3c0.4,0,0.7-0.3,0.7-0.7
		v-0.7h5.2c0.4,0,0.7-0.3,0.7-0.7S36.7,19.8,36.3,19.8z M29.6,21.3h-1.5v-1.5h1.5V21.3z"/>
	<path d="M36.3,27.3h-5.2v-0.7c0-0.4-0.3-0.7-0.7-0.7h-3c-0.4,0-0.7,0.3-0.7,0.7v3c0,0.4,0.3,0.7,0.7,0.7h3c0.4,0,0.7-0.3,0.7-0.7
		v-0.7h5.2c0.4,0,0.7-0.3,0.7-0.7C37,27.6,36.7,27.3,36.3,27.3z M29.6,28.8h-1.5v-1.5h1.5V28.8z"/>
	<path d="M36.3,34.7h-5.2V34c0-0.4-0.3-0.7-0.7-0.7h-3c-0.4,0-0.7,0.3-0.7,0.7v3c0,0.4,0.3,0.7,0.7,0.7h3c0.4,0,0.7-0.3,0.7-0.7
		v-0.7h5.2c0.4,0,0.7-0.3,0.7-0.7C37,35.1,36.7,34.7,36.3,34.7z M29.6,36.2h-1.5v-1.5h1.5V36.2z"/>
</g>
</svg>
