<?xml version="1.0" encoding="utf-8"?>
<!-- Generator: Adobe Illustrator 25.4.1, SVG Export Plug-In . SVG Version: 6.00 Build 0)  -->
<svg version="1.1" xmlns="http://www.w3.org/2000/svg" xmlns:xlink="http://www.w3.org/1999/xlink" x="0px" y="0px"
	viewBox="0 0 35 32" style="enable-background:new 0 0 35 32;" xml:space="preserve">
	<g>
		<g>
			<path d="M17.5,22.4c-1,0-1.8,0.8-1.8,1.8s0.8,1.8,1.8,1.8c0.9,0,1.8-0.8,1.8-1.8S18.5,22.4,17.5,22.4z" />
			<path
				d="M34.2,28.8c1.1-1.9,1.1-4.3,0-6.2L22.9,3.1c-1.1-2-3.1-3.1-5.4-3.1s-4.3,1.2-5.4,3.1L0.8,22.6c-1.1,2-1.1,4.3,0,6.3
			C1.9,30.8,3.9,32,6.2,32h22.5C31,31.9,33,30.8,34.2,28.8z M31.7,27.4c-0.6,1.1-1.7,1.7-3,1.7H6.2c-1.2,0-2.3-0.6-2.9-1.7
			c-0.6-1.1-0.6-2.4,0-3.4L14.6,4.5c0.6-1.1,1.7-1.7,2.9-1.7c1.2,0,2.3,0.6,2.9,1.7L31.7,24C32.3,25.1,32.3,26.3,31.7,27.4z" />
			<path d="M17.1,9.8c-0.9,0.2-1.4,1-1.4,2c0,0.6,0.1,1.1,0.1,1.7c0.1,2.2,0.2,4.3,0.4,6.5c0,0.7,0.6,1.3,1.3,1.3
			c0.7,0,1.3-0.6,1.3-1.3c0-0.4,0-0.9,0-1.3c0.1-1.4,0.2-2.8,0.2-4.2c0-0.9,0.1-1.8,0.2-2.7c0-0.3,0-0.6-0.2-0.9
			C18.8,10,17.9,9.6,17.1,9.8z" />
		</g>
	</g>
</svg>