<?xml version="1.0" encoding="utf-8"?>
<!-- Generator: Adobe Illustrator 25.4.1, SVG Export Plug-In . SVG Version: 6.00 Build 0)  -->
<svg version="1.1" id="Calque_1" xmlns="http://www.w3.org/2000/svg" xmlns:xlink="http://www.w3.org/1999/xlink" x="0px" y="0px"
	 viewBox="0 0 21.6 21.8" style="enable-background:new 0 0 21.6 21.8;" xml:space="preserve">
<path d="M19.2,17.3c1.3,0,2.4-1.1,2.4-2.4v-8c0-0.8-0.3-1.4-0.9-1.9V2.4c0-1.3-1.1-2.4-2.4-2.4h-15C2,0,0.9,1,0.9,2.3
	C0.4,2.7,0,3.4,0,4.2v10.6c0,1.3,1.1,2.4,2.4,2.4h7.3v0.4H8.8v0.9H7.9v0.9H0.6v1.4h7.3v1h4.9v-0.9H21v-1.4h-8.2v-0.9h-0.9v-0.9H11
	v-0.4C11,17.3,19.2,17.3,19.2,17.3z M11.4,20.4H9.2V20h0.9v-0.9h0.4V20h0.9C11.4,20,11.4,20.4,11.4,20.4z M3.3,1.4h15
	c0.6,0,1.1,0.5,1.1,1.1v2c-0.1,0-0.1,0-0.2,0H9c-0.5,0-0.9-0.3-1-0.7L7.9,3.6c-0.3-1-1.3-1.7-2.3-1.7H2.5C2.6,1.6,2.9,1.4,3.3,1.4z
	 M1.3,14.9V4.3c0-0.6,0.5-1.1,1.1-1.1h3.1c0.5,0,0.9,0.3,1,0.7l0.1,0.2c0.3,1,1.3,1.7,2.3,1.7h10.2c0.6,0,1.1,0.5,1.1,1.1v8
	c0,0.6-0.5,1.1-1.1,1.1H2.4C1.8,16,1.3,15.5,1.3,14.9z"/>
</svg>
