<svg width="23" height="25" viewBox="0 0 23 25" xmlns="http://www.w3.org/2000/svg">
    <path
        d="M4.4022 6.26252L2.78112 5.32708C2.33437 5.06814 1.76179 5.22131 1.50286 5.66989C1.24392 6.11847 1.3971 6.68922 1.84567 6.94816L3.46675 7.8836C3.91168 8.14072 4.48608 7.99119 4.74502 7.54079C5.00395 7.09403 4.85078 6.52146 4.4022 6.26252Z" />
    <path
        d="M20.6073 15.616L18.9862 14.6806C18.5394 14.4217 17.9669 14.5748 17.7079 15.0234C17.449 15.4702 17.6022 16.0427 18.0507 16.3017L19.6718 17.2371C20.1168 17.4942 20.6912 17.3447 20.9501 16.8943C21.209 16.4476 21.0559 15.875 20.6073 15.616Z" />
    <path
        d="M6.20663 4.45568C6.46557 4.90608 7.03996 5.05561 7.48489 4.7985C7.93165 4.53956 8.08482 3.96881 7.82771 3.52023L6.89226 1.89915C6.63332 1.4524 6.06257 1.29923 5.614 1.55634C5.16724 1.81527 5.01407 2.38602 5.27118 2.8346L6.20663 4.45568Z" />
    <path
        d="M3.46555 14.6794L1.84447 15.6148C1.39771 15.8738 1.24454 16.4445 1.50165 16.8931C1.76058 17.3435 2.33498 17.493 2.77992 17.2359L4.40099 16.3005C4.84775 16.0415 5.00092 15.4708 4.74381 15.0222C4.48487 14.5754 3.91412 14.4223 3.46555 14.6794Z" />
    <path
        d="M18.9869 7.8824L20.608 6.94695C21.0548 6.68801 21.208 6.11726 20.9508 5.66868C20.6919 5.22193 20.1212 5.06876 19.6726 5.32587L18.0515 6.26132C17.6047 6.52025 17.4516 7.091 17.7087 7.53958C17.9676 7.98998 18.542 8.13951 18.9869 7.8824Z" />
    <path
        d="M14.9707 4.79971C15.4156 5.05682 15.99 4.90729 16.2489 4.45689L17.1844 2.83581C17.4433 2.38906 17.2901 1.81648 16.8416 1.55754C16.3948 1.29861 15.8222 1.45178 15.5633 1.90036L14.6279 3.52144C14.3689 3.96819 14.5221 4.54077 14.9707 4.79971Z" />
    <path
        d="M3.74179 11.2792C3.74179 10.7632 3.32239 10.3438 2.80635 10.3438H0.935447C0.4194 10.3438 0 10.7632 0 11.2792C0 11.7952 0.4194 12.2146 0.935447 12.2146H2.80635C3.32239 12.2146 3.74179 11.7952 3.74179 11.2792Z" />
    <path
        d="M21.5192 10.3438H19.6483C19.1323 10.3438 18.7129 10.7632 18.7129 11.2792C18.7129 11.7952 19.1323 12.2146 19.6483 12.2146H21.5192C22.0353 12.2146 22.4547 11.7952 22.4547 11.2792C22.4547 10.7632 22.0353 10.3438 21.5192 10.3438Z" />
    <path
        d="M12.7752 4.98277C10.793 4.52142 8.76167 4.96635 7.20259 6.20268C5.64351 7.44083 4.75 9.28984 4.75 11.2793C4.75 12.9149 5.36087 14.4777 6.4732 15.6775C7.219 16.4835 7.62929 17.4974 7.62929 18.5349V21.4014C7.62929 23.3854 9.24307 24.9992 11.227 24.9992C13.211 24.9992 14.8248 23.3854 14.8248 21.4014V18.4912C14.8248 17.4536 15.2059 16.4853 15.897 15.765C17.4506 14.1494 18.0505 11.8573 17.5016 9.6363C16.9345 7.346 15.0801 5.51887 12.777 4.98094L12.7752 4.98277Z" />
    <path
        d="M11.2265 3.80379C11.7425 3.80379 12.1619 3.38439 12.1619 2.86834V0.935449C12.1619 0.419403 11.7425 0 11.2265 0C10.7104 0 10.291 0.419403 10.291 0.935449V2.86834C10.291 3.38439 10.7104 3.80379 11.2265 3.80379Z" />
</svg>