<?xml version="1.0" encoding="utf-8"?>
<!-- Generator: Adobe Illustrator 26.0.3, SVG Export Plug-In . SVG Version: 6.00 Build 0)  -->
<svg data-testid="ico-ticket-closed" version="1.1" id="Calque_1" xmlns="http://www.w3.org/2000/svg" xmlns:xlink="http://www.w3.org/1999/xlink" viewBox="0 0 24 25.3"  xml:space="preserve">
<style type="text/css">
	.st0{fill:none;}
</style>
<g>
	<path class="st0" d="M22.1,15.3l-0.9-0.9l-8.1,8.1l1,0.9c0.1,0.1,0.2,0.2,0.4,0.3c0.1,0.1,0.3,0.1,0.5,0.1c0.2,0,0.3,0,0.5-0.1
		c0.1-0.1,0.3-0.1,0.4-0.3l6.4-6.4h0c0.2-0.2,0.3-0.5,0.3-0.8C22.5,15.8,22.3,15.5,22.1,15.3z"/>
	<path class="st0" d="M19.1,12.3c-1,0.6-2.1,0.9-3.3,0.9c-3.6,0-6.6-2.9-6.6-6.6c0-1.2,0.3-2.3,0.9-3.3L10,3.1
		C9.9,3,9.7,2.9,9.6,2.9C9.5,2.8,9.3,2.8,9.1,2.8c-0.2,0-0.3,0-0.5,0.1C8.6,2.9,8.4,3,8.3,3.1L7.4,4c0.3,0.6,0.4,1.4,0.3,2.1
		C7.6,6.8,7.2,7.5,6.7,8c-0.5,0.5-1.2,0.8-1.9,1C4.2,9,3.4,8.9,2.8,8.6L1.9,9.6c-0.2,0.2-0.4,0.5-0.4,0.8c0,0.2,0,0.3,0.1,0.5
		c0.1,0.1,0.1,0.3,0.3,0.4L12,21.3l8.1-8.1L19.1,12.3z"/>
	<path d="M13.4,9.5h4.8V6.1h-4.8V9.5z M14.9,7.5L15.5,8l1.2-1.3l0.4,0.4l-1.6,1.7l-1-0.9L14.9,7.5z"/>
	<path d="M23.2,14.2l-2.8-2.8c1.3-1.2,2-2.9,2-4.8c0-3.6-2.9-6.6-6.6-6.6c-1.9,0-3.6,0.8-4.8,2.1c-0.5-0.5-1.2-0.8-1.9-0.8
		c-0.7,0-1.4,0.3-1.9,0.8L5.9,3.4C5.8,3.5,5.7,3.7,5.7,3.9s0,0.4,0.2,0.5c0.3,0.4,0.4,0.8,0.4,1.3c0,0.5-0.2,0.9-0.6,1.2
		C5.3,7.2,4.9,7.4,4.4,7.5C4,7.5,3.5,7.4,3.1,7.1C3,7,2.8,6.9,2.6,6.9C2.4,6.9,2.3,7,2.1,7.2L0.8,8.5C0.3,9,0,9.7,0,10.4
		c0,0.7,0.3,1.4,0.8,1.9l12.1,12.1c0.5,0.5,1.2,0.8,1.9,0.8s1.4-0.3,1.9-0.8l6.4-6.4c0.5-0.5,0.8-1.2,0.8-1.9
		C24,15.4,23.7,14.7,23.2,14.2z M12.7,5.4h1V4c0-1.1,0.9-2.1,2.1-2.1s2.1,0.9,2.1,2.1v1.4h1v4.8h-6.2V5.4z M12,21.3L1.9,11.2
		c-0.1-0.1-0.2-0.2-0.3-0.4c-0.1-0.1-0.1-0.3-0.1-0.5c0-0.3,0.1-0.6,0.4-0.8l0.9-0.9C3.4,8.9,4.2,9,4.9,8.9c0.7-0.1,1.4-0.5,1.9-1
		c0.5-0.5,0.8-1.2,1-1.9c0.1-0.7,0-1.4-0.3-2.1l0.9-0.9C8.4,3,8.6,2.9,8.7,2.9C8.8,2.8,9,2.8,9.1,2.8c0.2,0,0.3,0,0.5,0.1
		C9.7,2.9,9.9,3,10,3.1l0.2,0.2c-0.6,1-0.9,2.1-0.9,3.3c0,3.6,2.9,6.6,6.6,6.6c1.2,0,2.3-0.3,3.3-0.9l1,1L12,21.3z M22.1,16.9
		l-6.4,6.4c-0.1,0.1-0.2,0.2-0.4,0.3c-0.1,0.1-0.3,0.1-0.5,0.1c-0.2,0-0.3,0-0.5-0.1c-0.1-0.1-0.3-0.1-0.4-0.3l-1-0.9l8.1-8.1
		l0.9,0.9c0.2,0.2,0.3,0.5,0.3,0.8C22.4,16.4,22.3,16.7,22.1,16.9L22.1,16.9z"/>
	<path d="M17.1,4c0-0.8-0.6-1.4-1.4-1.4S14.4,3.3,14.4,4v1.4h2.7V4z"/>
</g>
</svg>
