<svg viewBox="0 0 20 23" xmlns="http://www.w3.org/2000/svg">
    <path fill-rule="evenodd" clip-rule="evenodd"
        d="M2.80303 1.7395C2.25671 1.7395 1.81818 2.1614 1.81818 2.67659V20.3234C1.81818 20.8386 2.25671 21.2605 2.80303 21.2605H17.197C17.7433 21.2605 18.1818 20.8386 18.1818 20.3234V2.67659C18.1818 2.1614 17.7433 1.7395 17.197 1.7395H2.80303ZM0 2.67659C0 1.19606 1.25743 0 2.80303 0H17.197C18.7426 0 20 1.19606 20 2.67659V20.3234C20 21.8039 18.7426 23 17.197 23H2.80303C1.25743 23 0 21.8039 0 20.3234V2.67659ZM10 5.59409C9.38392 5.59409 8.88889 6.0699 8.88889 6.65164C8.88889 7.23338 9.38392 7.70919 10 7.70919C10.6161 7.70919 11.1111 7.23338 11.1111 6.65164C11.1111 6.0699 10.6161 5.59409 10 5.59409ZM12.3346 8.34132C12.7077 7.8722 12.9293 7.28697 12.9293 6.65164C12.9293 5.10456 11.6154 3.8546 10 3.8546C8.38464 3.8546 7.07071 5.10456 7.07071 6.65164C7.07071 7.28689 7.29224 7.87205 7.66521 8.34114C6.39964 9.08837 5.55555 10.4251 5.55555 11.9517V14.3608C5.55555 14.8412 5.96257 15.2306 6.46465 15.2306H13.5354C14.0374 15.2306 14.4444 14.8412 14.4444 14.3608V11.9517C14.4444 10.4219 13.5987 9.08742 12.3346 8.34132ZM10 9.44869C8.54712 9.44869 7.37374 10.5716 7.37374 11.9517V13.4911H12.6263V11.9517C12.6263 10.5683 11.4493 9.44869 10 9.44869ZM4.0404 18.2154C4.0404 17.7351 4.44742 17.3457 4.94949 17.3457H15.0505C15.5526 17.3457 15.9596 17.7351 15.9596 18.2154C15.9596 18.6958 15.5526 19.0852 15.0505 19.0852H4.94949C4.44742 19.0852 4.0404 18.6958 4.0404 18.2154Z" />
</svg>