<svg width="40" height="30" viewBox="0 0 40 30" fill="none" xmlns="http://www.w3.org/2000/svg">
<g clip-path="url(#clip0_1104_5620)">
<path d="M20.0044 26.0868C19.8902 26.0868 19.7771 26.0644 19.6715 26.0207C19.5659 25.977 19.47 25.9129 19.3892 25.8322C18.6868 25.1297 14.4911 24.3461 12.1788 24.3461C9.42067 24.3461 5.98686 24.8107 4.96742 25.8322C4.84588 25.9542 4.69086 26.0373 4.52201 26.0712C4.35316 26.105 4.17809 26.0879 4.01894 26.0221C3.85979 25.9564 3.72375 25.8448 3.62805 25.7016C3.53235 25.5585 3.48129 25.3901 3.48135 25.2179V2.60858C3.48136 2.4944 3.50395 2.38134 3.54782 2.27593C3.59169 2.17051 3.65597 2.07481 3.73697 1.99433C5.58662 0.143656 10.665 0 12.1778 0C13.9532 0 19.2376 0.613259 20.6187 1.99433C20.7816 2.15722 20.8732 2.37817 20.8733 2.60858V25.2179C20.8733 25.3898 20.8223 25.5579 20.7267 25.7007C20.6311 25.8436 20.4953 25.9549 20.3363 26.0204C20.2313 26.0645 20.1184 26.0871 20.0044 26.0868ZM12.1778 22.6084C13.544 22.6084 16.9897 22.9719 19.1336 23.7685V3.04549C17.9794 2.39656 14.292 1.74367 12.1778 1.74367C9.61683 1.74367 6.4743 2.13997 5.22105 3.01775V23.6674C7.51355 22.6995 10.9711 22.6084 12.1778 22.6084Z" fill="#7DAAB7"/>
<path d="M35.6518 26.0868C35.5375 26.0868 35.4244 26.0644 35.3188 26.0207C35.2133 25.977 35.1173 25.9129 35.0365 25.8322C34.3341 25.1297 30.1385 24.3461 27.8251 24.3461C25.068 24.3461 21.6342 24.8107 20.6147 25.8322C20.4932 25.9542 20.3382 26.0373 20.1693 26.0712C20.0005 26.105 19.8254 26.0879 19.6662 26.0221C19.5071 25.9564 19.3711 25.8448 19.2754 25.7016C19.1797 25.5585 19.1286 25.3901 19.1287 25.2179V2.60858C19.1287 2.37817 19.2203 2.15722 19.3833 1.99433C21.2339 0.143656 26.3123 0 27.8242 0C29.6005 0 34.885 0.613259 36.265 1.99433C36.346 2.07481 36.4103 2.17051 36.4542 2.27593C36.4981 2.38134 36.5206 2.4944 36.5206 2.60858V25.2179C36.5207 25.3898 36.4697 25.5579 36.3741 25.7007C36.2785 25.8436 36.1426 25.9549 35.9837 26.0204C35.8786 26.0645 35.7657 26.0871 35.6518 26.0868ZM27.8251 22.6084C29.1923 22.6084 32.638 22.9719 34.7819 23.7685V3.04549C33.6277 2.39656 29.9403 1.74367 27.8251 1.74367C25.2651 1.74367 22.1216 2.13997 20.8694 3.01775V23.6674C23.1648 22.6995 26.6224 22.6084 27.8251 22.6084Z" fill="#7DAAB7"/>
<path d="M39.1302 29.565C39.0975 29.565 39.0658 29.565 39.0311 29.565L24.0714 27.9026C23.468 28.8933 21.9146 29.57 19.9946 29.57C18.0746 29.57 16.5211 28.8973 15.9178 27.9026L0.958025 29.565C0.836536 29.5785 0.713551 29.5663 0.597127 29.529C0.480702 29.4918 0.373451 29.4304 0.282377 29.3488C0.191303 29.2673 0.118463 29.1675 0.0686096 29.0558C0.018756 28.9442 -0.00698049 28.8234 -0.00692741 28.7011V4.34812C-0.00697786 4.1541 0.0578343 3.96563 0.177211 3.81269C0.296587 3.65974 0.463664 3.55109 0.651887 3.50402L4.1293 2.63417C4.34688 2.59391 4.57165 2.63809 4.7578 2.75772C4.94396 2.87734 5.07752 3.06342 5.1313 3.27807C5.18509 3.49272 5.15505 3.71979 5.0473 3.91307C4.93955 4.10635 4.7622 4.25129 4.55134 4.3184L1.7387 5.02677V27.7243L16.425 26.0925C16.5466 26.0789 16.6697 26.091 16.7862 26.1282C16.9028 26.1654 17.0102 26.2268 17.1013 26.3083C17.1925 26.3899 17.2655 26.4898 17.3154 26.6015C17.3653 26.7131 17.3911 26.8341 17.391 26.9564C17.391 27.1734 18.3163 27.8263 19.9995 27.8263C21.6827 27.8263 22.6081 27.1734 22.6081 26.9564C22.6082 26.8342 22.634 26.7133 22.684 26.6016C22.734 26.49 22.8069 26.3902 22.898 26.3087C22.9892 26.2272 23.0965 26.1658 23.213 26.1285C23.3294 26.0913 23.4525 26.079 23.574 26.0925L38.2603 27.7243V5.02677L35.4408 4.32236C35.3239 4.30075 35.2128 4.25542 35.1141 4.18919C35.0155 4.12296 34.9315 4.03723 34.8672 3.93727C34.803 3.83732 34.7599 3.72526 34.7407 3.60802C34.7214 3.49078 34.7264 3.37083 34.7552 3.25558C34.7841 3.14033 34.8363 3.03223 34.9086 2.93792C34.9809 2.84361 35.0717 2.76511 35.1755 2.70726C35.2792 2.6494 35.3938 2.61342 35.512 2.60153C35.6302 2.58964 35.7496 2.6021 35.8628 2.63813L39.3412 3.50799C39.5292 3.55525 39.6961 3.66397 39.8153 3.8169C39.9345 3.96983 39.9991 4.1582 39.999 4.35208V28.6962C39.9992 28.8103 39.9768 28.9233 39.9331 29.0288C39.8895 29.1343 39.8255 29.2301 39.7448 29.3108C39.6641 29.3915 39.5683 29.4555 39.4628 29.4991C39.3574 29.5428 39.2443 29.5652 39.1302 29.565Z" fill="#7DAAB7"/>
<path d="M16.5211 27.8264C16.2904 27.8264 16.0692 27.7347 15.906 27.5716C15.7429 27.4085 15.6513 27.1872 15.6513 26.9565V24.3459C15.6513 24.1152 15.7429 23.894 15.906 23.7309C16.0692 23.5677 16.2904 23.4761 16.5211 23.4761C16.7518 23.4761 16.9731 23.5677 17.1362 23.7309C17.2993 23.894 17.391 24.1152 17.391 24.3459V26.9545C17.3912 27.0689 17.3689 27.1822 17.3253 27.288C17.2817 27.3938 17.2177 27.4899 17.1369 27.5709C17.0561 27.6519 16.9601 27.7161 16.8544 27.76C16.7488 27.8038 16.6355 27.8264 16.5211 27.8264Z" fill="#7DAAB7"/>
<path d="M23.4779 27.8264C23.2472 27.8264 23.026 27.7347 22.8628 27.5716C22.6997 27.4085 22.6081 27.1872 22.6081 26.9565V24.3459C22.6081 24.1152 22.6997 23.894 22.8628 23.7309C23.026 23.5677 23.2472 23.4761 23.4779 23.4761C23.7086 23.4761 23.9298 23.5677 24.093 23.7309C24.2561 23.894 24.3477 24.1152 24.3477 24.3459V26.9545C24.348 27.0689 24.3257 27.1822 24.2821 27.288C24.2385 27.3938 24.1745 27.4899 24.0937 27.5709C24.0129 27.6519 23.9169 27.7161 23.8112 27.76C23.7056 27.8038 23.5923 27.8264 23.4779 27.8264Z" fill="#7DAAB7"/>
</g>
<defs>
<clipPath id="clip0_1104_5620">
<rect width="40" height="29.5652" fill="white"/>
</clipPath>
</defs>
</svg>
