<?xml version="1.0" encoding="utf-8"?>
<!-- Generator: Adobe Illustrator 25.4.1, SVG Export Plug-In . SVG Version: 6.00 Build 0)  -->
<svg version="1.1" id="Calque_1" xmlns="http://www.w3.org/2000/svg" xmlns:xlink="http://www.w3.org/1999/xlink" x="0px" y="0px"
	 viewBox="0 0 41.5 32.1" style="enable-background:new 0 0 41.5 32.1;" xml:space="preserve">
<g>
	<g>
		<g>
			<g>
				<path d="M36,1.2C33,0.6,28.3,0,20.9,0l0,0h-0.1h-0.1l0,0C13.3,0,8.5,0.6,5.5,1.2C3.8,1.7,0,3.4,0,9.5v11.8
					c0,4.8,2.4,6.9,4.3,7.7c1,0.4,2.1,0.6,3.4,0.7c0.6,0,1.4,0.1,2.2,0.1c2.1,0.1,4.9,0.1,6.5,0.5c1.3,0.3,2.4,0.9,3.1,1.4l0.5,0.4
					h0.7h0.8l0.5-0.4c0.7-0.5,1.7-1.1,3.1-1.4c1.6-0.4,4.4-0.5,6.5-0.5c0.8,0,1.6,0,2.2-0.1c1.3-0.1,2.5-0.3,3.4-0.7
					c1.9-0.9,4.3-2.9,4.3-7.7V9.5C41.5,3.3,37.8,1.6,36,1.2z M37.8,8.7v13.2c0,0.5,0,1-0.1,1.4C37,25.6,33.4,26,33.4,26l0,0
					c-0.5,0-1.2,0-1.9,0.1c-2.4,0.1-5.3,0.2-7.3,0.6c-1.4,0.3-2.5,0.8-3.4,1.4c-0.9-0.5-2.1-1-3.4-1.4c-1.9-0.5-4.9-0.6-7.3-0.6
					c-0.7,0-1.3,0-1.9-0.1l0,0c0,0-3.6-0.3-4.3-2.7c-0.1-0.4-0.1-0.9-0.1-1.4V8.7V8c0-2.2,2.3-3,3.6-3.3c2.7-0.5,7-0.9,13.4-0.9
					s10.7,0.4,13.4,0.9C35.5,5,37.8,5.8,37.8,8V8.7z"/>
			</g>
		</g>
		<path d="M16,10.1l-3.2,3.2l3.2,3.2c0.5,0.5,0.5,1.4,0,1.9c-0.2,0.3-0.6,0.4-0.9,0.4c-0.4,0-0.7-0.1-0.9-0.4L10,14.2
			c-0.5-0.5-0.5-1.4,0-1.9l4.2-4.2c0.5-0.5,1.4-0.5,1.9,0C16.5,8.8,16.5,9.6,16,10.1z M31.7,12.4l-4.2-4.2c-0.5-0.5-1.4-0.5-1.9,0
			s-0.5,1.4,0,1.9l3.2,3.2l-3.2,3.2c-0.5,0.5-0.5,1.4,0,1.9c0.2,0.3,0.6,0.4,0.9,0.4c0.4,0,0.7-0.1,0.9-0.4l4.2-4.2
			C32.3,13.8,32.3,12.9,31.7,12.4z"/>
	</g>
</g>
</svg>
