<?xml version="1.0" encoding="utf-8"?>
<!-- Generator: Adobe Illustrator 25.4.1, SVG Export Plug-In . SVG Version: 6.00 Build 0)  -->
<svg version="1.1" id="Calque_1" xmlns="http://www.w3.org/2000/svg" xmlns:xlink="http://www.w3.org/1999/xlink" x="0px" y="0px"
	 viewBox="0 0 16.3 21.9" style="enable-background:new 0 0 16.3 21.9;" xml:space="preserve">
<g>
	<path d="M15.9,0H0.5C0.2,0,0,0.2,0,0.5v20.9c0,0.3,0.2,0.5,0.5,0.5h15.3c0.3,0,0.5-0.2,0.5-0.5V0.5C16.4,0.2,16.1,0,15.9,0z
		 M1,20.8V1h14.3v19.8H1z"/>
	<path d="M13.9,11H2.5C2.2,11,2,11.2,2,11.5S2.2,12,2.5,12h11.3c0.3,0,0.5-0.2,0.5-0.5S14.1,11,13.9,11z"/>
	<path d="M13.9,14.1H2.5c-0.3,0-0.5,0.2-0.5,0.5s0.2,0.5,0.5,0.5h11.3c0.3,0,0.5-0.2,0.5-0.5C14.4,14.3,14.1,14.1,13.9,14.1z"/>
	<path d="M13.9,17.1H2.5c-0.3,0-0.5,0.2-0.5,0.5s0.2,0.5,0.5,0.5h11.3c0.3,0,0.5-0.2,0.5-0.5C14.4,17.4,14.1,17.1,13.9,17.1z"/>
	<path d="M3,7.2h2.7c0.2,0,0.4-0.1,0.4-0.3l0.6-1.2L7.6,9C7.7,9.2,7.8,9.4,8,9.4l0,0l0,0c0.2,0,0.4-0.1,0.5-0.3l1.3-2.7L10.2,7
		c0.1,0.1,0.3,0.2,0.4,0.2h2.6c0.3,0,0.5-0.2,0.5-0.5s-0.2-0.5-0.5-0.5h-2.3l-0.8-1.1C10,4.9,9.8,4.9,9.6,4.9S9.3,5,9.2,5.2L8.1,7.4
		L7.2,4.1c0-0.1-0.1-0.3-0.3-0.3C6.7,3.7,6.3,3.8,6.2,4L5.1,6.1H3c-0.3,0-0.5,0.2-0.5,0.5C2.5,7,2.7,7.2,3,7.2z"/>
</g>
</svg>
