<svg width="35" height="35" viewBox="0 0 35 35" xmlns="http://www.w3.org/2000/svg">
<path d="M25.1606 0H9.86219C7.24854 -1.73052e-06 4.74176 1.0375 2.89257 2.88457C1.04338 4.73163 0.00300765 7.23722 0 9.85087V25.1492C-8.59134e-07 26.4437 0.255176 27.7256 0.750936 28.9215C1.2467 30.1174 1.97331 31.2039 2.88924 32.1188C3.80518 33.0337 4.89248 33.759 6.08895 34.2534C7.28542 34.7478 8.56761 35.0015 9.86219 35H25.1606C27.7732 35 30.2787 33.9622 32.1261 32.1148C33.9735 30.2674 35.0114 27.7618 35.0114 25.1492V9.85087C35.0114 7.23826 33.9735 4.73265 32.1261 2.88526C30.2787 1.03787 27.7732 0 25.1606 0ZM9.86219 2.09955H25.1606C27.0623 2.1063 28.8957 2.80996 30.3136 4.07733C31.7316 5.34471 32.6358 7.08787 32.8551 8.97698H2.21305C2.4314 7.09559 3.32909 5.35864 4.73753 4.09229C6.14597 2.82595 7.96825 2.11734 9.86219 2.09955V2.09955ZM32.9118 25.1492C32.9088 27.204 32.0912 29.1739 30.6382 30.6269C29.1852 32.0799 27.2154 32.8975 25.1606 32.9005H9.86219C7.80642 32.9005 5.83486 32.0838 4.38121 30.6302C2.92756 29.1765 2.11095 27.2049 2.11095 25.1492V11.0765H32.9118V25.1492Z" />
<path d="M20.6128 20.2843C20.7309 20.2159 20.8291 20.1166 20.8971 19.9966C20.9652 19.8767 21.0007 19.7404 21 19.6018V16.3918C21.0007 16.2533 20.9652 16.117 20.8971 15.9971C20.8291 15.8771 20.7309 15.7778 20.6128 15.7094L17.8872 14.1044C17.7691 14.036 17.6357 14 17.5 14C17.3643 14 17.2308 14.036 17.1128 14.1044L14.3872 15.7094C14.2697 15.7786 14.1721 15.878 14.1041 15.9978C14.0362 16.1176 14.0003 16.2535 14 16.3918V19.605C14.0003 19.7434 14.0362 19.8793 14.1041 19.999C14.1721 20.1188 14.2697 20.2183 14.3872 20.2875L17.1128 21.8956C17.2308 21.964 17.3643 22 17.5 22C17.6357 22 17.7691 21.964 17.8872 21.8956L20.6128 20.2843Z" />
<path d="M24.6128 22.7088L21.8872 21.1043C21.7692 21.036 21.6357 21 21.5 21C21.3643 21 21.2309 21.036 21.1128 21.1043L18.3872 22.7088C18.2696 22.7787 18.1721 22.8787 18.1042 22.9989C18.0363 23.1191 18.0004 23.2554 18 23.3941V26.603C18.0004 26.7417 18.0363 26.8779 18.1042 26.9981C18.1721 27.1184 18.2696 27.2184 18.3872 27.2883L21.1128 28.8927C21.2302 28.963 21.3639 29 21.5 29C21.6361 29 21.7698 28.963 21.8872 28.8927L24.6128 27.2883C24.7308 27.2189 24.8287 27.119 24.8966 26.9986C24.9646 26.8783 25.0003 26.7418 25 26.603V23.3941C25.0003 23.2553 24.9646 23.1188 24.8966 22.9984C24.8287 22.8781 24.7308 22.7782 24.6128 22.7088V22.7088Z" />
<path d="M16.6128 22.7088L13.8872 21.1043C13.7692 21.036 13.6357 21 13.5 21C13.3643 21 13.2309 21.036 13.1128 21.1043L10.3872 22.7088C10.2696 22.7787 10.1721 22.8787 10.1042 22.9989C10.0363 23.1191 10.0004 23.2554 10 23.3941V26.603C10.0004 26.7417 10.0363 26.8779 10.1042 26.9981C10.1721 27.1184 10.2696 27.2184 10.3872 27.2883L13.1128 28.8927C13.2302 28.963 13.3639 29 13.5 29C13.6361 29 13.7698 28.963 13.8872 28.8927L16.6128 27.2883C16.7308 27.2189 16.8287 27.119 16.8966 26.9986C16.9646 26.8783 17.0003 26.7418 17 26.603V23.3941C17.0003 23.2553 16.9646 23.1188 16.8966 22.9984C16.8287 22.8781 16.7308 22.7782 16.6128 22.7088V22.7088Z" />
</svg>
