<?xml version="1.0" encoding="utf-8"?>
<!-- Generator: Adobe Illustrator 25.4.1, SVG Export Plug-In . SVG Version: 6.00 Build 0)  -->
<svg version="1.1" id="Calque_1" xmlns="http://www.w3.org/2000/svg" xmlns:xlink="http://www.w3.org/1999/xlink" x="0px" y="0px"
	 viewBox="0 0 25.1 25.9" style="enable-background:new 0 0 25.1 25.9;" xml:space="preserve">
<path d="M24.7,23.6l-6.2-6.4c1.6-1.9,2.5-4.3,2.5-6.7C21,4.7,16.3,0,10.5,0S0,4.7,0,10.5s4.8,10.4,10.6,10.4c2.2,0,4.2-0.7,6-1.9
	l6.2,6.5c0.3,0.3,0.6,0.4,1,0.4s0.7-0.1,0.9-0.4C25.2,25,25.3,24.1,24.7,23.6z M10.6,2.7c4.3,0,7.7,3.5,7.7,7.7s-3.5,7.7-7.7,7.7
	s-7.7-3.5-7.7-7.7S6.3,2.7,10.6,2.7z"/>
</svg>
