<svg viewBox="0 0 30 30" xmlns="http://www.w3.org/2000/svg">
<path d="M24.456 2C24.9214 2 25.3823 2.09162 25.8122 2.26973C26.2422 2.44783 26.6329 2.7089 26.962 3.03799C27.2911 3.36708 27.5521 3.75782 27.7302 4.18779C27.9083 4.61777 28 5.07864 28 5.54404V17.364C28 17.8294 27.9083 18.2902 27.7302 18.7202C27.5521 19.1502 27.2911 19.5409 26.962 19.87C26.6329 20.1991 26.2422 20.4601 25.8122 20.6382C25.3823 20.8163 24.9214 20.908 24.456 20.908H15L5.544 28L9.092 20.908H5.544C5.0786 20.908 4.61775 20.8163 4.18777 20.6382C3.75779 20.4601 3.3671 20.1991 3.03801 19.87C2.70892 19.5409 2.44787 19.1502 2.26977 18.7202C2.09167 18.2902 2 17.8294 2 17.364V5.54404C2 5.07864 2.09167 4.61777 2.26977 4.18779C2.44787 3.75782 2.70892 3.36708 3.03801 3.03799C3.3671 2.7089 3.75779 2.44783 4.18777 2.26973C4.61775 2.09162 5.0786 2 5.544 2H24.456ZM24.456 0H5.544C4.07429 0.00211622 2.66538 0.586929 1.62614 1.62617C0.586892 2.66542 0.00211622 4.07433 0 5.54404V17.364C0.00211622 18.8337 0.586892 20.2426 1.62614 21.2818C2.66538 22.3211 4.07429 22.9059 5.544 22.908H5.856L3.756 27.104C3.55406 27.5073 3.49435 27.967 3.58657 28.4085C3.67878 28.85 3.91752 29.2473 4.264 29.536C4.62327 29.8356 5.0762 29.9998 5.544 30C5.97674 30 6.39781 29.8596 6.744 29.6L15.668 22.908H24.468C25.9356 22.9027 27.3415 22.3165 28.3781 21.2776C29.4148 20.2387 29.9979 18.8316 30 17.364V5.54404C29.9979 4.07433 29.4131 2.66542 28.3739 1.62617C27.3346 0.586929 25.9257 0.00211622 24.456 0Z"/>
</svg>
