<svg width="38" height="26" viewBox="0 0 38 26" fill="none" xmlns="http://www.w3.org/2000/svg">
<path d="M24.335 13.7457L11.829 1.25429C11.278 0.70702 10.5332 0.399902 9.75693 0.399902C8.98063 0.399902 8.23576 0.70702 7.68475 1.25429L6.30336 2.63681C6.15067 2.79423 6.05865 3.00075 6.04377 3.21964C6.02889 3.43853 6.09213 3.65558 6.22212 3.83225C6.48735 4.18936 6.61537 4.63004 6.58289 5.0738C6.55042 5.51757 6.35954 5.93486 6.04516 6.24949C5.73077 6.56412 5.31381 6.75509 4.87039 6.78759C4.42697 6.82009 3.98669 6.69192 3.62986 6.42649C3.45395 6.29481 3.2367 6.23059 3.01753 6.24552C2.79836 6.26044 2.59182 6.35353 2.43535 6.50784L1.05387 7.89031C0.507023 8.44175 0.200195 9.18721 0.200195 9.96412C0.200195 10.741 0.507023 11.4864 1.05387 12.0379L13.5599 24.5455C14.1109 25.0928 14.8557 25.3999 15.6321 25.3999C16.4084 25.3999 17.1532 25.0928 17.7042 24.5455L24.335 17.9094C24.6092 17.6366 24.8268 17.3122 24.9753 16.9549C25.1238 16.5976 25.2002 16.2145 25.2002 15.8275C25.2002 15.4406 25.1238 15.0574 24.9753 14.7002C24.8268 14.3429 24.6092 14.0185 24.335 13.7457ZM20.8733 12.8755L12.666 21.0079L2.34598 10.6798C2.24079 10.5728 2.15843 10.4456 2.10394 10.3058C2.04946 10.166 2.02399 10.0165 2.02905 9.86653C2.02399 9.71655 2.04946 9.56711 2.10394 9.4273C2.15843 9.28749 2.24079 9.16024 2.34598 9.05329L3.23169 8.16684C3.91406 8.48273 4.67684 8.58146 5.41706 8.44966C6.15727 8.31787 6.83927 7.96188 7.3709 7.42984C7.90253 6.89779 8.25823 6.21531 8.38993 5.47452C8.52162 4.73372 8.42297 3.9703 8.10732 3.28739L8.9849 2.40094C9.19204 2.19435 9.47263 2.07835 9.76507 2.07835C10.0575 2.07835 10.338 2.19435 10.5451 2.40094L20.8733 12.8755ZM23.3599 15.8194C23.3664 15.9703 23.3408 16.1208 23.2847 16.261C23.2287 16.4012 23.1435 16.5279 23.0349 16.6326L16.4121 23.2687C16.205 23.4753 15.9245 23.5913 15.6321 23.5913C15.3396 23.5913 15.0591 23.4753 14.852 23.2687L13.958 22.3741L22.1654 14.2417L23.0349 15.1119C23.2285 15.2982 23.3447 15.551 23.3599 15.8194Z" fill="white"/>
<path fill-rule="evenodd" clip-rule="evenodd" d="M29.7667 5.2L29.7667 0H32.3667L32.3667 5.2L38 5.2V7.8L32.3667 7.8V13H29.7667V7.8L25 7.8V5.2L29.7667 5.2Z" fill="white"/>
</svg>
