<?xml version="1.0" encoding="utf-8"?>
<!-- Generator: Adobe Illustrator 25.3.1, SVG Export Plug-In . SVG Version: 6.00 Build 0)  -->
<svg version="1.1" id="Calque_1" xmlns="http://www.w3.org/2000/svg" xmlns:xlink="http://www.w3.org/1999/xlink" x="0px" y="0px"
	 viewBox="0 0 50 50" style="enable-background:new 0 0 50 50;" xml:space="preserve">
<g>
	<path d="M25.1,45.4c-1.6,0-3.1-0.4-4.5-1.2L11,38.6C8.2,37,6.5,34,6.5,30.7V19.7c0-3.2,1.7-6.3,4.5-7.9l9.6-5.5
		c2.8-1.6,6.3-1.6,9.1,0l9.6,5.5c2.8,1.6,4.5,4.6,4.5,7.9v11.1c0,3.2-1.7,6.3-4.5,7.9l-9.6,5.5C28.3,44.9,26.7,45.4,25.1,45.4z
		 M25.1,7.1c-1.2,0-2.5,0.3-3.5,0.9L12,13.6c-2.2,1.3-3.5,3.6-3.5,6.1v11.1c0,2.5,1.4,4.9,3.5,6.1l9.6,5.5c2.2,1.3,4.9,1.3,7.1,0
		l9.6-5.5c2.2-1.3,3.5-3.6,3.5-6.1V19.7c0-2.5-1.4-4.9-3.5-6.1L28.7,8C27.6,7.4,26.4,7.1,25.1,7.1z"/>
</g>
<path d="M36.5,18.4L34.8,18v-0.1c0-0.1-0.1-0.3-0.1-0.4c-0.8-0.8-3.9-1.2-5-1.2c-0.8,0-3.3,0.1-4.6,0.9c-1.1-0.6-3.7-0.9-4.6-0.9
	c-0.9,0-3.9,0.1-5,1.2c-0.1,0.1-0.1,0.2-0.1,0.4V18l-1.7,0.4c-0.2,0.1-0.4,0.3-0.4,0.5v14.3c0,0.1,0.1,0.3,0.2,0.4
	c0.1,0.1,0.3,0.1,0.4,0.1l8.8-1c0.4,0.6,1.3,1,2.4,1c1.1,0,2-0.4,2.4-1l8.8,1c0,0,0,0,0.1,0c0.1,0,0.2,0,0.3-0.1
	c0.1-0.1,0.2-0.2,0.2-0.4V18.9C36.9,18.7,36.7,18.5,36.5,18.4z M33.8,18.1v12.2c-1.3-0.5-3.3-0.7-4.1-0.7c-0.7,0-2.7,0.1-4.1,0.6
	V18.1c0.7-0.5,2.6-0.7,4.1-0.7C31,17.4,33.1,17.8,33.8,18.1z M16.4,18.1c0.7-0.5,2.6-0.7,4.1-0.7c1.2,0,3.4,0.4,4.1,0.8v12.2
	c-1.3-0.5-3.3-0.7-4.1-0.7c-0.7,0-2.7,0.1-4.1,0.6V18.1z M14.4,19.3l1-0.3v12.1c0,0.2,0.1,0.4,0.3,0.5c0.2,0.1,0.4,0,0.6-0.1
	c0.6-0.6,2.6-0.9,4.2-0.9c0.6,0,1.3,0.1,2,0.2v0.9l-8.2,0.9V19.3z M25.1,32.7c-1,0-1.5-0.4-1.5-0.5v-1.1c0.6,0.1,1,0.3,1.2,0.5
	c0,0,0,0,0,0c0,0,0.1,0.1,0.1,0.1c0,0,0,0,0,0c0,0,0,0,0,0c0.1,0,0.1,0,0.2,0c0,0,0,0,0,0c0,0,0,0,0,0c0,0,0.1,0,0.1,0c0,0,0,0,0,0
	c0,0,0,0,0,0c0,0,0,0,0.1,0c0,0,0,0,0.1,0c0,0,0,0,0,0c0.2-0.2,0.6-0.4,1.2-0.5v1.2C26.7,32.3,26.1,32.7,25.1,32.7z M35.9,32.6
	l-8.2-0.9v-0.9c0.7-0.1,1.4-0.1,2-0.1c1.4,0,3.8,0.5,4.2,0.9c0.1,0.1,0.2,0.1,0.4,0.1c0.1,0,0.1,0,0.2,0c0.2-0.1,0.3-0.3,0.3-0.5
	V19.1l1,0.3V32.6z"/>
</svg>
