<?xml version="1.0" encoding="utf-8"?>
<!-- Generator: Adobe Illustrator 25.4.1, SVG Export Plug-In . SVG Version: 6.00 Build 0)  -->
<svg version="1.1" id="Calque_1" xmlns="http://www.w3.org/2000/svg" xmlns:xlink="http://www.w3.org/1999/xlink" x="0px" y="0px"
	 viewBox="0 0 29 24.5" style="enable-background:new 0 0 29 24.5;" xml:space="preserve">
<path d="M27.6,5.5h-0.7V4.1c0-2-1.6-3.5-3.5-3.5c-2,0-3.5,1.6-3.5,3.5v1.4h-0.7c-0.8,0-1.4,0.6-1.4,1.4v0.4l-6.5-6.5
	c-1-1-2.7-1-3.7,0L6.1,2.2C5.9,2.4,5.9,2.8,6,3c0.6,0.9,0.6,2.1-0.2,2.8C4.9,6.6,3.8,6.7,2.9,6C2.8,5.8,2.3,5.8,2.1,6.1L0.8,7.5
	c-1,1-1,2.7,0,3.7l12.6,12.6c1,1,2.7,1,3.7,0l6.7-6.7c0.5-0.5,0.7-1.1,0.8-1.8h3c0.8,0,1.4-0.6,1.4-1.4V6.8
	C28.9,6.1,28.4,5.5,27.6,5.5z M1.7,10.3c-0.3-0.3-0.4-0.6-0.4-1s0.1-0.7,0.4-1l1-1C4,8,5.6,7.7,6.6,6.7c1.1-1.1,1.3-2.7,0.6-4l1-1
	c0.6-0.6,1.4-0.6,2,0l7.4,7.4V14c0,0.4,0.2,0.8,0.5,1.1l-6,5.9L1.7,10.3z M22.9,16.3L16.2,23c-0.6,0.6-1.4,0.6-2,0l-1.1-1.1l6.5-6.5
	h3.7C23.3,15.7,23.1,16,22.9,16.3z M23.4,11.8c-0.8,0-1.4-0.6-1.4-1.4S22.5,9,23.4,9s1.4,0.6,1.4,1.4S24.1,11.8,23.4,11.8z
	 M25.6,5.5h-4.4V4.1c0-1.2,1-2.2,2.2-2.2s2.2,1,2.2,2.2V5.5z"/>
</svg>
