<?xml version="1.0" encoding="utf-8"?>
<!-- Generator: Adobe Illustrator 25.3.1, SVG Export Plug-In . SVG Version: 6.00 Build 0)  -->
<svg version="1.1" id="Calque_1" xmlns="http://www.w3.org/2000/svg" xmlns:xlink="http://www.w3.org/1999/xlink" x="0px" y="0px"
	 viewBox="0 0 50 50" style="enable-background:new 0 0 50 50;" xml:space="preserve">
<g>
	<path d="M32.9,14.2H17.5c-0.3,0-0.5,0.2-0.5,0.5v20.9c0,0.3,0.2,0.5,0.5,0.5h15.3c0.3,0,0.5-0.2,0.5-0.5V14.7
		C33.4,14.4,33.1,14.2,32.9,14.2z M18,35V15.2h14.3V35H18z"/>
	<path d="M30.9,25.2H19.5c-0.3,0-0.5,0.2-0.5,0.5s0.2,0.5,0.5,0.5h11.3c0.3,0,0.5-0.2,0.5-0.5S31.1,25.2,30.9,25.2z"/>
	<path d="M30.9,28.3H19.5c-0.3,0-0.5,0.2-0.5,0.5c0,0.3,0.2,0.5,0.5,0.5h11.3c0.3,0,0.5-0.2,0.5-0.5C31.4,28.5,31.1,28.3,30.9,28.3z
		"/>
	<path d="M30.9,31.3H19.5c-0.3,0-0.5,0.2-0.5,0.5c0,0.3,0.2,0.5,0.5,0.5h11.3c0.3,0,0.5-0.2,0.5-0.5C31.4,31.6,31.1,31.3,30.9,31.3z
		"/>
	<path d="M20,21.4h2.7c0.2,0,0.4-0.1,0.4-0.3l0.6-1.2l0.9,3.3c0.1,0.2,0.2,0.4,0.4,0.4l0,0c0,0,0,0,0,0c0.2,0,0.4-0.1,0.5-0.3
		l1.3-2.7l0.4,0.6c0.1,0.1,0.3,0.2,0.4,0.2h2.6c0.3,0,0.5-0.2,0.5-0.5c0-0.3-0.2-0.5-0.5-0.5h-2.3l-0.8-1.1
		c-0.1-0.2-0.3-0.2-0.5-0.2c-0.2,0-0.3,0.1-0.4,0.3l-1.1,2.2l-0.9-3.3c0-0.1-0.1-0.3-0.3-0.3c-0.2-0.1-0.6,0-0.7,0.2l-1.1,2.1H20
		c-0.3,0-0.5,0.2-0.5,0.5C19.5,21.2,19.7,21.4,20,21.4z"/>
</g>
</svg>
