<?xml version="1.0" encoding="utf-8"?>
<!-- Generator: Adobe Illustrator 25.4.1, SVG Export Plug-In . SVG Version: 6.00 Build 0)  -->
<svg version="1.1" xmlns="http://www.w3.org/2000/svg" xmlns:xlink="http://www.w3.org/1999/xlink" x="0px" y="0px"
	viewBox="0 0 29.7 38.6" style="enable-background:new 0 0 29.7 38.6;" xml:space="preserve">
	<path d="M29.7,26.4c0-0.2-0.1-0.5-0.2-0.6l-2.8-6.1c-0.6-1.4-2.1-2.3-3.6-2.4l0.3-0.3c1.1-1.1,1.1-2.9,0-4L11.2,0.8
	c-1.1-1.1-2.9-1.1-4,0L5.9,2.1C5.5,2.4,5.5,2.9,5.8,3.2C6.4,3.9,6.3,5,5.6,5.6C5,6.2,3.9,6.3,3.2,5.8C2.9,5.6,2.4,5.6,2.1,5.9
	L0.8,7.2c-1.1,1.1-1.1,2.9,0,4l6.1,6.1c-1.3,0.2-2.4,1-3,2.1l-3.4,6.3c-0.2,0.2-0.3,0.4-0.3,0.7v0.1l0,0V33c0,3.1,2.5,5.6,5.6,5.6
	h18.3c3.1,0,5.6-2.5,5.6-5.6L29.7,26.4C29.7,26.5,29.7,26.5,29.7,26.4z M13.2,21.4l8.1-8.1l0.9,0.9c0.2,0.2,0.3,0.5,0.3,0.8
	s-0.1,0.6-0.3,0.8l-6.5,6.5c-0.4,0.4-1.2,0.4-1.6,0L13.2,21.4z M1.9,10.1C1.7,9.9,1.6,9.6,1.6,9.3l0,0c0-0.3,0.1-0.6,0.3-0.8
	l0.9-0.9c1.4,0.6,2.9,0.3,4-0.7s1.3-2.6,0.7-4L8.4,2C8.8,1.6,9.6,1.6,10,2l10.2,10.2l-8.2,8L1.9,10.1z M5.5,20.4
	c0.4-0.7,1.1-1.1,1.9-1.1h1.3l0,0l4.2,4.2c0.5,0.5,1.3,0.8,2,0.8s1.4-0.3,2-0.8l4.2-4.2l0,0h1.8c0.8,0,1.6,0.5,1.9,1.2l2.3,5h-5.8
	c-0.4,0-0.7,0.2-0.9,0.6l-1.2,2.6c-0.3,0.7-1.1,1.2-1.9,1.2h-4.9c-0.8,0-1.6-0.5-1.9-1.2l-1.2-2.6c-0.2-0.3-0.5-0.6-0.9-0.6H2.8
	L5.5,20.4z M27.8,33c0,2-1.7,3.7-3.7,3.7H5.8c-2,0-3.7-1.6-3.7-3.7v-5.6h5.7l1,2.1c0.7,1.4,2.1,2.4,3.7,2.4l0,0h4.9
	c1.6,0,3-0.9,3.7-2.4l1-2.1h5.8L27.8,33L27.8,33z" />
</svg>