<?xml version="1.0" encoding="utf-8"?>
<!-- Generator: Adobe Illustrator 25.3.1, SVG Export Plug-In . SVG Version: 6.00 Build 0)  -->
<svg version="1.1" id="Calque_1" xmlns="http://www.w3.org/2000/svg" xmlns:xlink="http://www.w3.org/1999/xlink" x="0px" y="0px"
	 viewBox="0 0 50 50" style="enable-background:new 0 0 50 50;" xml:space="preserve">
<path d="M33.2,20.7c-0.4-0.4-1-0.4-1.4,0l-6.6,6.6l-6.6-6.6c-0.4-0.4-1-0.4-1.4,0c-0.4,0.4-0.4,1,0,1.4l7.2,7.2
	c0.2,0.2,0.5,0.3,0.7,0.3c0,0,0,0,0.1,0c0,0,0,0,0.1,0c0.3,0,0.5-0.1,0.7-0.3l7.2-7.2C33.6,21.8,33.6,21.1,33.2,20.7z"/>
</svg>
