<?xml version="1.0" encoding="utf-8"?>
<!-- Generator: Adobe Illustrator 25.4.1, SVG Export Plug-In . SVG Version: 6.00 Build 0)  -->
<svg version="1.1" xmlns="http://www.w3.org/2000/svg" xmlns:xlink="http://www.w3.org/1999/xlink" x="0px" y="0px"
	viewBox="0 0 40 40" style="enable-background:new 0 0 40 40;" xml:space="preserve">
	<g>
		<path d="M21.3,40h-2.5c-2,0-3.7-1.7-3.7-3.7v-0.8c-0.9-0.3-1.7-0.6-2.5-1L12,35.1c-1.5,1.5-3.8,1.4-5.2,0L5,33.3
		c-1.4-1.4-1.5-3.8,0-5.2l0.6-0.6c-0.4-0.8-0.8-1.6-1-2.5H3.7c-2,0-3.7-1.7-3.7-3.7v-2.5c0-2,1.7-3.7,3.7-3.7h0.8
		c0.3-0.9,0.6-1.7,1-2.5L5,11.9c-1.5-1.5-1.4-3.8,0-5.2l1.8-1.8c1.4-1.4,3.8-1.5,5.2,0l0.6,0.6c0.8-0.4,1.6-0.8,2.5-1V3.7
		c0-2,1.7-3.7,3.7-3.7h2.5c2,0,3.7,1.7,3.7,3.7v0.8c0.9,0.3,1.7,0.6,2.5,1l0.6-0.6c1.5-1.5,3.8-1.4,5.2,0l1.8,1.8
		c1.4,1.4,1.5,3.8,0,5.2l-0.6,0.6c0.4,0.8,0.8,1.6,1,2.5h0.8c2,0,3.7,1.7,3.7,3.7v2.5c0,2-1.7,3.7-3.7,3.7h-0.8
		c-0.3,0.9-0.6,1.7-1,2.5l0.6,0.6c1.5,1.5,1.4,3.8,0,5.2L33.3,35c-1.4,1.4-3.8,1.5-5.2,0l-0.6-0.6c-0.8,0.4-1.6,0.8-2.5,1v0.8
		C25,38.3,23.3,40,21.3,40z M13,32c1.1,0.7,2.3,1.2,3.6,1.5c0.5,0.1,0.9,0.6,0.9,1.1v1.7c0,0.7,0.6,1.3,1.3,1.3h2.5
		c0.7,0,1.3-0.6,1.3-1.3v-1.7c0-0.5,0.4-1,0.9-1.1c1.3-0.3,2.5-0.8,3.6-1.5c0.5-0.3,1-0.2,1.4,0.2l1.2,1.2c0.5,0.5,1.4,0.5,1.9,0
		l1.8-1.8c0.5-0.5,0.5-1.4,0-1.9l-1.2-1.2c-0.4-0.4-0.5-1-0.2-1.4c0.7-1.1,1.2-2.3,1.5-3.6c0.1-0.5,0.6-0.9,1.1-0.9h1.7
		c0.7,0,1.3-0.6,1.3-1.3v-2.5c0-0.7-0.6-1.3-1.3-1.3h-1.7c-0.5,0-1-0.4-1.1-0.9c-0.3-1.3-0.8-2.5-1.5-3.6c-0.3-0.5-0.2-1,0.2-1.4
		l1.2-1.2c0.5-0.5,0.5-1.4,0-1.9l-1.8-1.8c-0.5-0.5-1.4-0.5-1.9,0l-1.2,1.2c-0.4,0.4-1,0.5-1.4,0.2c-1.1-0.7-2.3-1.2-3.6-1.5
		C23,6.5,22.6,6,22.6,5.5V3.7c0-0.7-0.6-1.3-1.3-1.3h-2.5c-0.7,0-1.3,0.6-1.3,1.3v1.7c0,0.5-0.4,1-0.9,1.1C15.3,6.8,14.1,7.3,13,8
		c-0.5,0.3-1,0.2-1.4-0.2l-1.2-1.2C9.9,6.1,9,6.1,8.5,6.6L6.7,8.4c-0.5,0.5-0.5,1.4,0,1.9l1.2,1.2c0.4,0.4,0.5,1,0.2,1.4
		c-0.7,1.1-1.2,2.3-1.5,3.6C6.5,17,6,17.4,5.5,17.4H3.7c-0.7,0-1.3,0.6-1.3,1.3v2.5c0,0.7,0.6,1.3,1.3,1.3h1.7c0.5,0,1,0.4,1.1,0.9
		C6.8,24.7,7.3,25.9,8,27c0.3,0.5,0.2,1-0.2,1.4l-1.2,1.2c-0.5,0.5-0.5,1.4,0,1.9l1.8,1.8c0.5,0.5,1.4,0.5,1.9,0l1.2-1.2
		C11.8,31.9,12.4,31.6,13,32L13,32z" />
		<path d="M20,28.7c-4.8,0-8.7-3.9-8.7-8.7s3.9-8.7,8.7-8.7s8.7,3.9,8.7,8.7S24.8,28.7,20,28.7z M20,13.6c-3.5,0-6.4,2.9-6.4,6.4
		s2.9,6.4,6.4,6.4s6.4-2.9,6.4-6.4S23.5,13.6,20,13.6L20,13.6z" />
	</g>
</svg>