<svg width="33" height="28" viewBox="0 0 33 28" fill="none" xmlns="http://www.w3.org/2000/svg">
<path d="M27.9781 3.33445L29.6726 5.03329L28.8396 5.86869C28.8735 5.89731 28.9057 5.92653 28.9348 5.95575C29.0651 6.08633 29.1383 6.26284 29.1383 6.44709V6.59974L29.6554 6.72914L33.0005 3.3762L29.6298 0L25.0132 4.62721C25.4814 4.70115 25.9598 4.79179 26.4174 4.89852L27.9781 3.33445V3.33445ZM29.631 1.67796L31.3255 3.3762L30.5098 4.19431L28.8152 2.49547L29.631 1.67796V1.67796Z" fill="white"/>
<path d="M22.4239 12.2985L20.3016 12.7279L20.73 10.6003L25.2448 6.07507C24.7653 5.98741 24.2672 5.91288 23.7871 5.85742L19.6393 10.0154L18.7891 14.2454L23.0088 13.3927L27.7516 8.63911V6.96056L22.4251 12.2997L22.4239 12.2985Z" fill="white"/>
<path d="M31.3875 7.16319L29.6555 6.72909L29.1384 6.5997V6.44705C29.1384 6.26279 29.0653 6.08569 28.9349 5.9557C28.9052 5.92648 28.8737 5.89727 28.8397 5.86864L27.7509 6.95986V23.3656C26.0403 22.7288 23.2914 22.4378 22.2007 22.4378C21.241 22.4378 18.4825 22.5105 16.6505 23.2839V6.77083C17.6501 6.07198 20.1575 5.75237 22.2007 5.75237C22.6589 5.75237 23.2092 5.79113 23.787 5.85731C24.2672 5.91277 24.7652 5.98671 25.2447 6.07496L26.4181 4.89907C25.9605 4.79234 25.4821 4.7017 25.0139 4.62776C23.875 4.44709 22.7933 4.36182 22.2007 4.36182C21.1035 4.36182 17.6549 4.45722 15.9282 5.586C14.377 4.74165 10.9599 4.36182 9.71281 4.36182C8.46569 4.36182 4.45478 4.4769 2.97858 5.9563C2.84827 6.08629 2.77509 6.26339 2.77509 6.44764V6.60029L0.525387 7.16379C0.216581 7.24131 0 7.51918 0 7.83819V27.3047C0 27.5027 0.0838953 27.6911 0.231456 27.8229C0.378421 27.9547 0.574772 28.0179 0.770528 27.9958L12.7039 26.6673C13.1852 27.4621 14.4252 28.0006 15.9568 28.0006C17.4883 28.0006 18.7283 27.4627 19.2096 26.6673L31.143 27.9958C31.1686 27.9988 31.1942 28 31.2198 28C31.3893 28 31.5547 27.9374 31.6827 27.8229C31.8296 27.6911 31.9141 27.5027 31.9141 27.3047V7.8376C31.9141 7.51858 31.6975 7.24011 31.3887 7.16319H31.3875ZM12.4879 25.2922L1.38814 26.5283V8.38022L2.77568 8.03259V24.5236C2.77568 24.8051 2.94466 25.0585 3.20409 25.1658C3.46351 25.2737 3.7616 25.2141 3.96033 25.015C4.7743 24.1998 7.51309 23.8283 9.71341 23.8283C10.4816 23.8283 11.5091 23.9369 12.4885 24.1032V25.2916L12.4879 25.2922ZM9.71281 22.4378C8.75307 22.4378 5.99465 22.5105 4.16263 23.2839V6.77083C5.16224 6.07198 7.66958 5.75237 9.71281 5.75237C11.4002 5.75237 14.3419 6.27472 15.263 6.79349V23.3656C13.5524 22.7288 10.8035 22.4378 9.71281 22.4378V22.4378ZM18.0381 25.9142C18.0381 26.0871 17.3003 26.6094 15.9568 26.6094C14.6132 26.6094 13.8754 26.0871 13.8754 25.9142V24.39C14.6484 24.5826 15.2547 24.8033 15.4659 25.015C15.4671 25.0162 15.4683 25.0167 15.4689 25.0179C15.4843 25.0328 15.4998 25.0478 15.5171 25.0615C15.5182 25.0627 15.5194 25.0633 15.5212 25.0645C15.5361 25.0764 15.551 25.0877 15.567 25.0978C15.5724 25.1014 15.5777 25.105 15.5831 25.1086C15.5956 25.1163 15.6081 25.1241 15.6212 25.1312C15.6271 25.1342 15.6325 25.1378 15.6384 25.1408C15.6557 25.1497 15.6735 25.1581 15.692 25.1658C15.6962 25.1676 15.7009 25.1694 15.7051 25.1706C15.72 25.1766 15.7348 25.1819 15.7503 25.1867C15.7568 25.1885 15.7634 25.1903 15.7699 25.1927C15.7836 25.1968 15.7979 25.1998 15.8122 25.2028C15.8181 25.204 15.8241 25.2052 15.83 25.2064C15.8491 25.2099 15.8687 25.2129 15.8877 25.2147H15.8901C15.9104 25.2171 15.9312 25.2177 15.9514 25.2177C15.9532 25.2177 15.9556 25.2177 15.9574 25.2177C15.9609 25.2177 15.9645 25.2177 15.9687 25.2177C15.9835 25.2177 15.999 25.2165 16.0139 25.2153C16.0198 25.2153 16.0258 25.2141 16.0317 25.2135C16.0514 25.2111 16.071 25.2088 16.09 25.2052H16.0918C16.1121 25.201 16.1323 25.1956 16.1525 25.1897C16.1573 25.1885 16.1614 25.1867 16.1662 25.1855C16.1835 25.1801 16.2001 25.1742 16.2162 25.1676C16.2186 25.1664 16.2209 25.1658 16.2227 25.1652C16.2239 25.1646 16.2257 25.164 16.2269 25.1634C16.2382 25.1587 16.2489 25.1539 16.2596 25.1485C16.2644 25.1461 16.2691 25.1438 16.2739 25.1414C16.284 25.136 16.2935 25.1306 16.3031 25.1253C16.3084 25.1223 16.3138 25.1193 16.3191 25.1157C16.3274 25.1104 16.3358 25.105 16.3441 25.099C16.3501 25.0949 16.3566 25.0907 16.3626 25.0865C16.3697 25.0811 16.3762 25.0758 16.3834 25.0704C16.3905 25.065 16.3971 25.0597 16.4036 25.0537C16.4096 25.0489 16.4149 25.0436 16.4203 25.0388C16.4274 25.0323 16.4351 25.0251 16.4423 25.0179C16.4441 25.0167 16.4453 25.015 16.447 25.0138C16.7511 24.7091 17.3247 24.4664 18.0375 24.2821V25.913L18.0381 25.9142ZM30.526 26.5277L19.4262 25.2916V24.0156C20.3306 23.8892 21.31 23.8277 22.2013 23.8277C24.047 23.8277 27.3939 24.4527 27.9544 25.0144C28.0871 25.1473 28.2644 25.2183 28.4453 25.2183C28.5345 25.2183 28.625 25.201 28.7106 25.1652C28.9701 25.0579 29.139 24.8045 29.139 24.523V8.03259L30.5266 8.38022V26.5283L30.526 26.5277Z" fill="white"/>
</svg>
