<svg viewBox="0 0 30 30" xmlns="http://www.w3.org/2000/svg">
<path d="M12.4019 4.5C13.5566 2.5 16.4434 2.5 17.5981 4.5L25.3923 18C26.547 20 25.1036 22.5 22.7942 22.5H7.20577C4.89637 22.5 3.45299 20 4.6077 18L12.4019 4.5Z"/>
<path d="M16.1894 8.57153L15.9804 16.2759H14.0198L13.8055 8.57153H16.1894ZM15.0001 19.7144C14.6465 19.7144 14.343 19.589 14.0894 19.3383C13.8359 19.084 13.7109 18.7796 13.7144 18.425C13.7109 18.0739 13.8359 17.7731 14.0894 17.5224C14.343 17.2716 14.6465 17.1463 15.0001 17.1463C15.3394 17.1463 15.6376 17.2716 15.8947 17.5224C16.1519 17.7731 16.2822 18.0739 16.2858 18.425C16.2822 18.6614 16.2197 18.878 16.0983 19.075C15.9804 19.2685 15.8251 19.4243 15.6322 19.5425C15.4394 19.6571 15.2287 19.7144 15.0001 19.7144Z"/>
</svg>
