<?xml version="1.0" encoding="utf-8"?>
<!-- Generator: Adobe Illustrator 25.4.1, SVG Export Plug-In . SVG Version: 6.00 Build 0)  -->
<svg version="1.1" xmlns="http://www.w3.org/2000/svg" xmlns:xlink="http://www.w3.org/1999/xlink" x="0px" y="0px"
	viewBox="0 0 36.2 33.2" style="enable-background:new 0 0 36.2 33.2;" xml:space="preserve">
	<g>
		<path d="M32.4,0H3.8C1.7,0,0,1.7,0,3.8v25.6c0,2.1,1.7,3.8,3.8,3.8h28.6c2.1,0,3.8-1.7,3.8-3.8V3.8C36.2,1.7,34.5,0,32.4,0z
		 M3.8,1.5h28.6c1.2,0,2.3,1,2.3,2.3v2.3H1.5V3.8C1.5,2.5,2.6,1.5,3.8,1.5z M32.4,31.6H3.8c-1.2,0-2.3-1-2.3-2.3V7.5h33.2v21.9
		C34.7,30.6,33.7,31.6,32.4,31.6z" />
		<circle cx="3.8" cy="3.8" r="0.8" />
		<circle cx="6.8" cy="3.8" r="0.8" />
		<circle cx="9.8" cy="3.8" r="0.8" />
		<path d="M11.9,13.8c-0.3-0.3-0.8-0.3-1.1,0s-0.3,0.8,0,1.1l4,4l-4,4c-0.3,0.3-0.3,0.8,0,1.1c0.1,0.1,0.3,0.2,0.5,0.2
		s0.4-0.1,0.5-0.2l4.5-4.5c0.3-0.3,0.3-0.8,0-1.1L11.9,13.8z" />
		<path
			d="M26.4,21.1h-7.5c-0.4,0-0.8,0.3-0.8,0.8c0,0.4,0.3,0.8,0.8,0.8h7.5c0.4,0,0.8-0.3,0.8-0.8S26.8,21.1,26.4,21.1z" />
	</g>
</svg>