<?xml version="1.0" encoding="utf-8"?>
<!-- Generator: Adobe Illustrator 25.3.1, SVG Export Plug-In . SVG Version: 6.00 Build 0)  -->
<svg version="1.1" id="Calque_1" xmlns="http://www.w3.org/2000/svg" xmlns:xlink="http://www.w3.org/1999/xlink" x="0px" y="0px"
	 viewBox="0 0 50 50" style="enable-background:new 0 0 50 50;" xml:space="preserve">
<g>
	<circle cx="9.6" cy="22.6" r="0.8"/>
	<circle cx="12.9" cy="22.6" r="0.8"/>
	<circle cx="16.1" cy="22.6" r="0.8"/>
	<path d="M40.7,5.4H21c-2.3,0-4.1,1.8-4.1,4.1v9H9.6c-2.3,0-4.1,1.8-4.1,4.1v18c0,2.3,1.8,4.1,4.1,4.1h19.6c2.3,0,4.1-1.8,4.1-4.1
		v-9h7.4c2.3,0,4.1-1.8,4.1-4.1v-18C44.8,7.3,42.9,5.4,40.7,5.4z M21,7.1h19.6c1.4,0,2.5,1.1,2.5,2.5V12H18.6V9.5
		C18.6,8.2,19.7,7.1,21,7.1z M9.6,20.2h19.6c1.4,0,2.5,1.1,2.5,2.5v2.5H7.1v-2.5C7.1,21.3,8.2,20.2,9.6,20.2z M31.7,40.6
		c0,1.4-1.1,2.5-2.5,2.5H9.6c-1.4,0-2.5-1.1-2.5-2.5V26.7h24.5V40.6z M40.7,30h-7.4v-7.4c0-2.3-1.8-4.1-4.1-4.1H18.6v-4.9h24.5v13.9
		C43.1,28.9,42,30,40.7,30z"/>
	<circle cx="21" cy="9.5" r="0.8"/>
	<circle cx="24.3" cy="9.5" r="0.8"/>
	<circle cx="27.6" cy="9.5" r="0.8"/>
	<path d="M24.6,28.4c-0.1,0-0.2-0.1-0.3-0.1h-4.9c-0.5,0-0.8,0.4-0.8,0.8c0,0.5,0.4,0.8,0.8,0.8h2.9l-8.4,8.4
		c-0.3,0.3-0.3,0.8,0,1.2c0.2,0.2,0.4,0.2,0.6,0.2c0.2,0,0.4-0.1,0.6-0.2l8.4-8.4v2.9c0,0.5,0.4,0.8,0.8,0.8c0.5,0,0.8-0.4,0.8-0.8
		v-4.9c0-0.1,0-0.2-0.1-0.3C25,28.6,24.8,28.5,24.6,28.4z"/>
</g>
</svg>
