<?xml version="1.0" encoding="UTF-8"?>
<svg xmlns="http://www.w3.org/2000/svg" viewBox="0 0 32 32">
    <defs></defs>
    <path
        d="M27.69,13.49c-1.27-5.42-6.08-9.26-11.47-9.23-1.25,.02-2.36,.18-3.45,.48-4.61,1.3-8.13,5.6-8.48,10.39-.18,2.47,.32,4.78,1.54,6.93,.06,.11,.09,.21,.07,.34-.03,.18-.05,.35-.07,.53-.16,1.27-.31,2.55-.48,3.82-.13,.95,.69,1.47,1.46,1.26,1.35-.38,2.72-.69,4.08-1.03,.13-.03,.24-.03,.36,.03,2.72,1.21,5.51,1.39,8.35,.54,5.93-1.79,9.5-7.99,8.09-14.03Zm-9.92,12.25c-2.08,.35-4.07,.06-5.96-.88-.33-.16-.64-.2-1-.11-1.03,.27-2.07,.52-3.13,.78,.08-.61,.15-1.2,.22-1.79,.07-.56,.14-1.12,.21-1.68,.03-.28-.07-.53-.22-.76-.68-1.1-1.14-2.29-1.33-3.57-.43-2.8,.2-5.34,1.95-7.56,1.99-2.52,4.65-3.78,7.85-3.72,4.71,.09,8.63,3.56,9.37,8.22,.83,5.22-2.75,10.19-7.95,11.07Z" />
    <path
        d="M16.12,17.22c-.6,0-1.07-.48-1.07-1.08,0-.61,.48-1.08,1.09-1.07,.6,0,1.06,.49,1.05,1.09,0,.6-.48,1.06-1.08,1.06Z" />
    <path
        d="M10.73,17.22c-.6,0-1.08-.47-1.08-1.07,0-.6,.47-1.08,1.06-1.08,.61,0,1.1,.48,1.1,1.08,0,.59-.48,1.07-1.08,1.07Z" />
    <path
        d="M21.52,17.22c-.6,0-1.08-.47-1.09-1.06,0-.6,.48-1.09,1.09-1.09,.6,0,1.07,.48,1.07,1.08,0,.59-.48,1.07-1.07,1.08Z" />
</svg>