<?xml version="1.0" encoding="utf-8"?>
<!-- Generator: Adobe Illustrator 25.3.1, SVG Export Plug-In . SVG Version: 6.00 Build 0)  -->
<svg version="1.1" id="Calque_1" xmlns="http://www.w3.org/2000/svg" xmlns:xlink="http://www.w3.org/1999/xlink" x="0px" y="0px"
	 viewBox="0 0 50 50" style="enable-background:new 0 0 50 50;" xml:space="preserve">
<g>
	<path d="M26.4,45.1h-2.5c-2,0-3.7-1.7-3.7-3.7v-0.8c-0.9-0.3-1.7-0.6-2.5-1l-0.6,0.6c-1.5,1.5-3.8,1.4-5.2,0l-1.8-1.8
		c-1.4-1.4-1.5-3.8,0-5.2l0.6-0.6c-0.4-0.8-0.8-1.6-1-2.5H8.8c-2,0-3.7-1.7-3.7-3.7v-2.5c0-2,1.7-3.7,3.7-3.7h0.8
		c0.3-0.9,0.6-1.7,1-2.5L10.1,17c-1.5-1.5-1.4-3.8,0-5.2l1.8-1.8c1.4-1.4,3.8-1.5,5.2,0l0.6,0.6c0.8-0.4,1.6-0.8,2.5-1V8.8
		c0-2,1.7-3.7,3.7-3.7h2.5c2,0,3.7,1.7,3.7,3.7v0.8c0.9,0.3,1.7,0.6,2.5,1l0.6-0.6c1.5-1.5,3.8-1.4,5.2,0l1.8,1.8
		c1.4,1.4,1.5,3.8,0,5.2l-0.6,0.6c0.4,0.8,0.8,1.6,1,2.5h0.8c2,0,3.7,1.7,3.7,3.7v2.5c0,2-1.7,3.7-3.7,3.7h-0.8
		c-0.3,0.9-0.6,1.7-1,2.5l0.6,0.6c1.5,1.5,1.4,3.8,0,5.2l-1.8,1.8c-1.4,1.4-3.8,1.5-5.2,0l-0.6-0.6c-0.8,0.4-1.6,0.8-2.5,1v0.8
		C30.1,43.4,28.4,45.1,26.4,45.1z M18.1,37.1c1.1,0.7,2.3,1.2,3.6,1.5c0.5,0.1,0.9,0.6,0.9,1.1v1.7c0,0.7,0.6,1.3,1.3,1.3h2.5
		c0.7,0,1.3-0.6,1.3-1.3v-1.7c0-0.5,0.4-1,0.9-1.1c1.3-0.3,2.5-0.8,3.6-1.5c0.5-0.3,1-0.2,1.4,0.2l1.2,1.2c0.5,0.5,1.4,0.5,1.9,0
		l1.8-1.8c0.5-0.5,0.5-1.4,0-1.9l-1.2-1.2c-0.4-0.4-0.5-1-0.2-1.4c0.7-1.1,1.2-2.3,1.5-3.6c0.1-0.5,0.6-0.9,1.1-0.9h1.7
		c0.7,0,1.3-0.6,1.3-1.3v-2.5c0-0.7-0.6-1.3-1.3-1.3h-1.7c-0.5,0-1-0.4-1.1-0.9c-0.3-1.3-0.8-2.5-1.5-3.6c-0.3-0.5-0.2-1,0.2-1.4
		l1.2-1.2c0.5-0.5,0.5-1.4,0-1.9l-1.8-1.8c-0.5-0.5-1.4-0.5-1.9,0L33.6,13c-0.4,0.4-1,0.5-1.4,0.2c-1.1-0.7-2.3-1.2-3.6-1.5
		c-0.5-0.1-0.9-0.6-0.9-1.1V8.8c0-0.7-0.6-1.3-1.3-1.3h-2.5c-0.7,0-1.3,0.6-1.3,1.3v1.7c0,0.5-0.4,1-0.9,1.1
		c-1.3,0.3-2.5,0.8-3.6,1.5c-0.5,0.3-1,0.2-1.4-0.2l-1.2-1.2c-0.5-0.5-1.4-0.5-1.9,0l-1.8,1.8c-0.5,0.5-0.5,1.4,0,1.9l1.2,1.2
		c0.4,0.4,0.5,1,0.2,1.4c-0.7,1.1-1.2,2.3-1.5,3.6c-0.1,0.5-0.6,0.9-1.1,0.9H8.8c-0.7,0-1.3,0.6-1.3,1.3v2.5c0,0.7,0.6,1.3,1.3,1.3
		h1.7c0.5,0,1,0.4,1.1,0.9c0.3,1.3,0.8,2.5,1.5,3.6c0.3,0.5,0.2,1-0.2,1.4l-1.2,1.2c-0.5,0.5-0.5,1.4,0,1.9l1.8,1.8
		c0.5,0.5,1.4,0.5,1.9,0l1.2-1.2C16.9,37,17.5,36.7,18.1,37.1L18.1,37.1z"/>
	<path d="M25.1,33.8c-4.8,0-8.7-3.9-8.7-8.7s3.9-8.7,8.7-8.7s8.7,3.9,8.7,8.7S29.9,33.8,25.1,33.8z M25.1,18.7
		c-3.5,0-6.4,2.9-6.4,6.4s2.9,6.4,6.4,6.4s6.4-2.9,6.4-6.4S28.6,18.7,25.1,18.7L25.1,18.7z"/>
</g>
</svg>
