<svg viewBox="0 0 26 26"  xmlns="http://www.w3.org/2000/svg">
<path d="M22.9153 15.1941V6.61017V2.20339C22.9153 1.95969 22.7178 1.76271 22.4746 1.76271H20.2712V0.440678C20.2712 0.196983 20.0738 0 19.8305 0H16.7458C16.5025 0 16.3051 0.196983 16.3051 0.440678V1.76271H6.61017V0.440678C6.61017 0.196983 6.41275 0 6.16949 0H3.08475C2.84149 0 2.64407 0.196983 2.64407 0.440678V1.76271H0.440678C0.197424 1.76271 0 1.95969 0 2.20339V6.61017V24.678C0 24.9217 0.197424 25.1186 0.440678 25.1186H17.2323C18.1145 25.6739 19.1545 26 20.2712 26C23.43 26 26 23.43 26 20.2712C26 18.0665 24.7458 16.1513 22.9153 15.1941ZM17.1864 0.881356H19.3898V2.20339V3.52542H17.1864V2.20339V0.881356ZM3.52542 0.881356H5.72881V2.20339V3.52542H3.52542V2.20339V0.881356ZM0.881356 2.64407H2.64407V3.9661C2.64407 4.2098 2.84149 4.40678 3.08475 4.40678H6.16949C6.41275 4.40678 6.61017 4.2098 6.61017 3.9661V2.64407H16.3051V3.9661C16.3051 4.2098 16.5025 4.40678 16.7458 4.40678H19.8305C20.0738 4.40678 20.2712 4.2098 20.2712 3.9661V2.64407H22.0339V6.16949H0.881356V2.64407ZM0.881356 24.2373V7.05085H22.0339V14.8226C21.9475 14.7949 21.8594 14.7724 21.7713 14.7482C21.6897 14.7257 21.6082 14.7037 21.5258 14.6847C21.4513 14.668 21.376 14.6534 21.3006 14.6398C21.1931 14.6199 21.0851 14.6036 20.9767 14.59C20.9163 14.5825 20.8564 14.5741 20.7956 14.5684C20.622 14.5529 20.447 14.5424 20.2712 14.5424C20.1222 14.5424 19.9764 14.5534 19.8305 14.5648V14.1017V13.2203V9.25424H15.8644H14.9831H11.8983H11.0169H7.9322H7.05085H3.08475V13.2203V14.1017V17.1864V18.0678V22.0339H7.05085H7.9322H11.0169H11.8983H14.8226C14.8354 22.0727 14.8513 22.1101 14.8645 22.1485C14.9015 22.2556 14.9381 22.3631 14.9817 22.4675C15.006 22.5261 15.0346 22.5821 15.0611 22.6394C15.1117 22.7513 15.1633 22.8628 15.221 22.9712C15.2466 23.0184 15.2752 23.0638 15.3021 23.1105C15.3673 23.2246 15.4334 23.3374 15.5066 23.4467C15.5335 23.4868 15.563 23.5247 15.5907 23.5644C15.6683 23.6745 15.7476 23.7838 15.8336 23.8887C15.8653 23.9275 15.8997 23.9636 15.9323 24.0015C16.0006 24.0808 16.0658 24.1619 16.1385 24.2377L0.881356 24.2373ZM17.7651 15.1276C17.7175 15.1505 17.669 15.1721 17.6223 15.1963C17.5394 15.2395 17.4592 15.2871 17.379 15.3343C17.3089 15.3753 17.2389 15.4171 17.1706 15.4607C17.1014 15.5057 17.034 15.5515 16.967 15.5991C16.8907 15.6529 16.8167 15.7093 16.7431 15.7666C16.6841 15.8128 16.625 15.8587 16.5682 15.9076C16.4911 15.9728 16.4175 16.042 16.3439 16.1112C16.2932 16.1592 16.2407 16.2055 16.1918 16.2548C16.1121 16.3359 16.0367 16.4219 15.9618 16.5078C15.9301 16.5444 15.8953 16.5779 15.864 16.6153V14.1017H18.9487V14.7019C18.9412 14.7037 18.9342 14.7063 18.9271 14.7081C18.5213 14.8063 18.1326 14.9478 17.7651 15.1276ZM14.7936 18.5962C14.7781 18.6468 14.768 18.6988 14.7539 18.75C14.7186 18.8778 14.6825 19.0056 14.6561 19.1373C14.6354 19.2391 14.6239 19.3431 14.6089 19.4462C14.597 19.5295 14.5803 19.6115 14.5715 19.6961C14.5525 19.886 14.5424 20.0782 14.5424 20.2712C14.5424 20.4303 14.5512 20.5911 14.5657 20.7524C14.5684 20.7819 14.5684 20.8119 14.5715 20.8414C14.5785 20.9128 14.5926 20.982 14.6023 21.0525C14.6072 21.086 14.6089 21.1195 14.6142 21.1525H11.8983V18.0678H14.9831V18.0709C14.9786 18.0815 14.976 18.0925 14.9716 18.1031C14.9055 18.2639 14.8451 18.4283 14.7936 18.5962ZM3.9661 18.0678H7.05085V21.1525H3.9661V18.0678ZM3.9661 14.1017H7.05085V17.1864H3.9661V14.1017ZM18.9492 13.2203H15.8644V10.1356H18.9492V13.2203ZM14.9831 13.2203H11.8983V10.1356H14.9831V13.2203ZM14.9831 17.1864H11.8983V14.1017H14.9831V17.1864ZM7.9322 14.1017H11.0169V17.1864H7.9322V14.1017ZM11.0169 13.2203H7.9322V10.1356H11.0169V13.2203ZM7.05085 13.2203H3.9661V10.1356H7.05085V13.2203ZM7.9322 18.0678H11.0169V21.1525H7.9322V18.0678ZM20.2712 25.1186C19.2761 25.1186 18.3503 24.8163 17.58 24.2999C17.4297 24.1994 17.2878 24.0901 17.1516 23.9755C17.104 23.935 17.0591 23.8918 17.0133 23.8495C16.9264 23.7706 16.8423 23.6895 16.7621 23.6054C16.7105 23.5512 16.6607 23.4961 16.6118 23.4401C16.5395 23.3568 16.4717 23.2709 16.4056 23.1832C16.3633 23.1272 16.3196 23.073 16.2795 23.0153C16.1821 22.8738 16.0905 22.7284 16.0085 22.5777C15.9896 22.5424 15.9746 22.5054 15.9565 22.4697C15.8922 22.3437 15.8322 22.2159 15.7789 22.0846C15.756 22.0273 15.7362 21.9687 15.715 21.9105C15.6736 21.7951 15.6357 21.6778 15.6026 21.5593C15.5952 21.532 15.5885 21.5046 15.5815 21.4773C15.5317 21.2834 15.4951 21.0908 15.4691 20.8992C15.4674 20.8855 15.4647 20.8718 15.4629 20.8577C15.4374 20.6599 15.4237 20.4638 15.4237 20.2712C15.4237 20.1042 15.4321 19.9385 15.4493 19.7741C15.4506 19.7604 15.4541 19.7472 15.4555 19.7336C15.4722 19.5833 15.4942 19.4335 15.5251 19.2858C15.5282 19.2717 15.533 19.2581 15.5361 19.244C15.5678 19.0977 15.6053 18.9522 15.6507 18.8086C15.656 18.7918 15.6635 18.7755 15.6687 18.7588C15.7141 18.6213 15.7644 18.4847 15.8225 18.3507C15.8772 18.2247 15.9362 18.1008 16.001 17.9805L16.0446 17.9052C16.0623 17.8735 16.083 17.8435 16.1015 17.8122C16.1782 17.6831 16.2601 17.5579 16.347 17.4372C16.3685 17.4072 16.391 17.3777 16.4135 17.3482C16.4928 17.2433 16.5765 17.1424 16.6638 17.045C16.6942 17.0111 16.7246 16.9767 16.7559 16.9436C16.8423 16.852 16.9331 16.7652 17.026 16.681C17.0591 16.651 17.0913 16.6202 17.1252 16.5911C17.2345 16.4977 17.3477 16.41 17.4645 16.3267C17.483 16.3135 17.5006 16.2989 17.5192 16.2857C18.0942 15.8882 18.7548 15.6159 19.4634 15.4969L19.4727 15.4956C19.7327 15.4519 19.9984 15.4237 20.2712 15.4237C20.4426 15.4237 20.6132 15.433 20.7824 15.4515C20.8088 15.4541 20.8344 15.4603 20.8608 15.4634C21.0054 15.4815 21.1495 15.5031 21.2918 15.5339C21.3094 15.5379 21.3262 15.5432 21.3434 15.5471C21.4949 15.5819 21.6452 15.6225 21.7937 15.6723C21.8039 15.6758 21.8136 15.6798 21.8237 15.6833C21.9757 15.7353 22.1256 15.7948 22.2741 15.8622C23.9495 16.6263 25.1186 18.3133 25.1186 20.2712C25.1186 22.9439 22.9439 25.1186 20.2712 25.1186Z" />
<path d="M22.9153 19.8657H20.7119V17.6624C20.7119 17.4187 20.5145 17.2217 20.2713 17.2217C20.028 17.2217 19.8306 17.4187 19.8306 17.6624V19.8657H17.6272C17.3839 19.8657 17.1865 20.0627 17.1865 20.3064C17.1865 20.5501 17.3839 20.7471 17.6272 20.7471H19.8306V22.9505C19.8306 23.1942 20.028 23.3912 20.2713 23.3912C20.5145 23.3912 20.7119 23.1942 20.7119 22.9505V20.7471H22.9153C23.1586 20.7471 23.356 20.5501 23.356 20.3064C23.356 20.0627 23.1586 19.8657 22.9153 19.8657Z" />
</svg>
