<svg width="38" height="38" viewBox="0 0 38 38" fill="none" xmlns="http://www.w3.org/2000/svg">
    <path
        d="M24.6907 8.91528L29.0128 13.2373M33.463 7.59934L30.4006 4.53697C27.0181 1.15434 21.5337 1.15434 18.1512 4.53697L17.1559 5.53226C15.468 7.22015 14.5373 9.43144 14.534 11.6437C14.5316 13.1719 14.9705 14.7006 15.772 16.0576L4.59274 27.2825C2.92199 28.9532 2.0104 31.2056 2.00002 33.5138C1.9939 34.8831 3.11684 36.0061 4.4862 36C5.91917 35.9936 7.33067 35.6397 8.59472 34.9726C9.65225 34.4145 10.4513 33.4847 10.9278 32.388C11.0627 32.0773 11.2577 31.7982 11.4985 31.5582C11.9779 31.0803 12.6535 30.8144 13.3831 30.8135C14.1212 30.8126 14.8251 30.4797 15.3059 29.9919C15.7776 29.5133 16.1179 28.8189 16.1187 28.0946C16.1196 27.3635 16.3171 26.6378 16.7968 26.158C17.2766 25.6783 18.0002 25.4839 18.7313 25.483C19.4738 25.4821 20.1855 25.1239 20.6669 24.631C21.1336 24.1532 21.5372 23.3205 21.8569 22.2415C23.194 23.0312 24.7832 23.5288 26.2889 23.5381C28.5237 23.552 30.7627 22.5491 32.4677 20.8441L33.463 19.8488C36.8457 16.4662 36.8457 10.982 33.463 7.59934Z"
        stroke="#0E3864" stroke-width="3" stroke-miterlimit="10" stroke-linecap="round"
        stroke-linejoin="round" />
</svg>