<svg width="26" height="26" viewBox="0 0 26 26" fill="none" xmlns="http://www.w3.org/2000/svg">
<path d="M24.7 15.6C24.3552 15.6 24.0246 15.737 23.7808 15.9808C23.537 16.2246 23.4 16.5552 23.4 16.9V22.1C23.4 22.4448 23.263 22.7754 23.0192 23.0192C22.7754 23.263 22.4448 23.4 22.1 23.4H3.9C3.55522 23.4 3.22456 23.263 2.98076 23.0192C2.73696 22.7754 2.6 22.4448 2.6 22.1V16.9C2.6 16.5552 2.46304 16.2246 2.21924 15.9808C1.97544 15.737 1.64478 15.6 1.3 15.6C0.955219 15.6 0.624558 15.737 0.380761 15.9808C0.136964 16.2246 0 16.5552 0 16.9V22.1C0 23.1343 0.410892 24.1263 1.14228 24.8577C1.87368 25.5891 2.86566 26 3.9 26H22.1C23.1343 26 24.1263 25.5891 24.8577 24.8577C25.5891 24.1263 26 23.1343 26 22.1V16.9C26 16.5552 25.863 16.2246 25.6192 15.9808C25.3754 15.737 25.0448 15.6 24.7 15.6Z" fill="#7DAAB7"/>
<path d="M13.4942 0.104302C13.6538 0.166175 13.7996 0.25895 13.9232 0.377302L19.1232 5.5773C19.2445 5.69851 19.3406 5.84241 19.4062 6.00078C19.4718 6.15915 19.5056 6.32889 19.5056 6.5003C19.5056 6.67172 19.4718 6.84146 19.4062 6.99983C19.3406 7.1582 19.2445 7.30209 19.1232 7.4233C19.002 7.54451 18.8581 7.64066 18.6998 7.70626C18.5414 7.77186 18.3717 7.80562 18.2002 7.80562C18.0288 7.80562 17.8591 7.77186 17.7007 7.70626C17.5424 7.64066 17.3985 7.54451 17.2772 7.4233L14.3002 4.4333L14.3002 16.9003C14.3002 17.2451 14.1633 17.5757 13.9195 17.8195C13.6757 18.0633 13.345 18.2003 13.0002 18.2003C12.6555 18.2003 12.3248 18.0633 12.081 17.8195C11.8372 17.5757 11.7002 17.2451 11.7002 16.9003L11.7002 4.4333L8.72324 7.4233C8.47845 7.6681 8.14643 7.80562 7.80024 7.80562C7.45405 7.80562 7.12204 7.6681 6.87724 7.4233C6.63245 7.17851 6.49492 6.84649 6.49492 6.5003C6.49492 6.15411 6.63245 5.8221 6.87724 5.5773L12.0772 0.377302C12.2009 0.25895 12.3467 0.166175 12.5062 0.104302C12.6619 0.0355254 12.8301 -1.4873e-08 13.0002 0C13.1704 1.48738e-08 13.3386 0.0355254 13.4942 0.104302Z" fill="#7DAAB7"/>
</svg>
