<?xml version="1.0" encoding="utf-8"?>
<!-- Generator: Adobe Illustrator 25.3.1, SVG Export Plug-In . SVG Version: 6.00 Build 0)  -->
<svg version="1.1" id="Calque_1" xmlns="http://www.w3.org/2000/svg" xmlns:xlink="http://www.w3.org/1999/xlink" x="0px" y="0px"
	 viewBox="0 0 50 50" style="enable-background:new 0 0 50 50;" xml:space="preserve">
<g>
	<g>
		<path d="M31.8,9.6H18.3c-4.8,0-8.7,3.9-8.7,8.7v13.5c0,4.8,3.9,8.7,8.7,8.7h13.5c4.8,0,8.7-3.9,8.7-8.7V18.3
			C40.5,13.5,36.6,9.6,31.8,9.6z M18.3,11.4h13.5c3.5,0,6.4,2.7,6.8,6.1h-27C11.9,14.1,14.8,11.4,18.3,11.4z M38.6,31.8
			c0,3.8-3.1,6.8-6.8,6.8H18.3c-3.8,0-6.8-3.1-6.8-6.8V19.4h27.1V31.8z"/>
		<path d="M17,32.7c1.3,0,2.3-1.1,2.3-2.3c0-0.2,0-0.4-0.1-0.5l4-2.4c0.4,0.5,1.1,0.8,1.8,0.8c0.9,0,1.7-0.5,2.1-1.2l3.6,1.1l0,0
			c0,1.3,1.1,2.3,2.3,2.3c1.3,0,2.3-1.1,2.3-2.3c0-1.3-1.1-2.3-2.3-2.3c-0.9,0-1.7,0.5-2.1,1.2L27.3,26l0,0c0-1.3-1.1-2.3-2.3-2.3
			s-2.3,1.1-2.3,2.3c0,0.2,0,0.4,0.1,0.5l-4,2.4C18.3,28.4,17.7,28,17,28c-1.3,0-2.3,1.1-2.3,2.3C14.7,31.7,15.7,32.7,17,32.7z
			 M33.1,26.9c0.7,0,1.2,0.5,1.2,1.2s-0.5,1.2-1.2,1.2s-1.2-0.5-1.2-1.2C31.9,27.5,32.4,26.9,33.1,26.9z M25,24.7
			c0.7,0,1.2,0.5,1.2,1.2s-0.5,1.2-1.2,1.2s-1.2-0.5-1.2-1.2S24.4,24.7,25,24.7z M17,29.2c0.7,0,1.2,0.5,1.2,1.2s-0.5,1.2-1.2,1.2
			s-1.2-0.5-1.2-1.2S16.3,29.2,17,29.2z"/>
	</g>
</g>
</svg>
