<?xml version="1.0" encoding="UTF-8"?><svg id="Calque_1" xmlns="http://www.w3.org/2000/svg" viewBox="0 0 32 32"><defs><style>.cls-1{fill:#143862;}.cls-2{fill:#fff;}</style></defs><circle class="cls-1" cx="16" cy="16" r="15"/><g><path class="cls-2" d="M15.88,13c-1.66,.07-2.94,1.46-2.88,3.12,.07,1.66,1.46,2.94,3.12,2.88,1.66-.07,2.94-1.46,2.88-3.12-.07-1.66-1.46-2.94-3.12-2.88Z"/><path class="cls-2" d="M15.78,10.55c-4.97,.2-8.82,4.72-8.77,5.81,.04,1.09,4.25,5.29,9.21,5.09,4.97-.2,8.82-4.72,8.77-5.81-.04-1.09-4.25-5.29-9.21-5.09Zm5.79,7.66c-1.19,.93-3.09,2.06-5.39,2.15-2.3,.09-4.29-.88-5.55-1.71-1.5-.98-2.29-1.96-2.5-2.34,.18-.39,.89-1.43,2.3-2.53,1.19-.93,3.1-2.06,5.39-2.15,2.3-.09,4.29,.88,5.55,1.71,1.5,.98,2.29,1.96,2.49,2.34-.18,.39-.89,1.43-2.3,2.53Z"/></g></svg>