<svg width="18" height="18" viewBox="0 0 18 18" fill="none" xmlns="http://www.w3.org/2000/svg">
    <path fill-rule="evenodd" clip-rule="evenodd"
        d="M4.3322 1.8C2.93369 1.8 1.8 2.93369 1.8 4.3322V13.6678C1.8 15.0663 2.93369 16.2 4.3322 16.2H13.6678C15.0663 16.2 16.2 15.0663 16.2 13.6678V4.3322C16.2 2.93369 15.0663 1.8 13.6678 1.8H4.3322ZM0 4.3322C0 1.93957 1.93958 0 4.3322 0H13.6678C16.0604 0 18 1.93958 18 4.3322V13.6678C18 16.0604 16.0604 18 13.6678 18H4.3322C1.93958 18 0 16.0604 0 13.6678V4.3322ZM8.99988 4.5C9.49693 4.5 9.89988 4.90294 9.89988 5.4V8.1H12.6C13.0971 8.1 13.5 8.50294 13.5 9C13.5 9.49706 13.0971 9.9 12.6 9.9H9.89988V12.5991L8.99988 12.6L8.09988 12.5999V9.9H5.4009L5.4 9L5.40006 8.1H8.09988V5.4C8.09988 4.90294 8.50282 4.5 8.99988 4.5ZM5.4 9L5.40006 8.1C4.903 8.1 4.5 8.50294 4.5 9C4.5 9.49706 4.90294 9.9 5.4 9.9V9ZM8.99988 12.6L8.09988 12.5999C8.09988 13.097 8.50282 13.5 8.99988 13.5C9.49693 13.5 9.89988 13.0971 9.89988 12.6H8.99988Z"
        fill="#7DAAB7" />
</svg>