<?xml version="1.0" encoding="utf-8"?>
<!-- Generator: Adobe Illustrator 25.3.1, SVG Export Plug-In . SVG Version: 6.00 Build 0)  -->
<svg version="1.1" id="Calque_1" xmlns="http://www.w3.org/2000/svg" xmlns:xlink="http://www.w3.org/1999/xlink" x="0px" y="0px"
	 viewBox="0 0 50 50" style="enable-background:new 0 0 50 50;" xml:space="preserve">
<g>
	<g>
		<g>
			<g>
				<path d="M40.5,10.2C37.5,9.6,32.8,9,25.4,9v0c0,0-0.1,0-0.1,0c0,0-0.1,0-0.1,0v0C17.8,9,13,9.6,10,10.2
					c-1.7,0.5-5.5,2.2-5.5,8.3v11.8c0,4.8,2.4,6.9,4.3,7.7c1,0.4,2.1,0.6,3.4,0.7c0.6,0,1.4,0.1,2.2,0.1c2.1,0.1,4.9,0.1,6.5,0.5
					c1.3,0.3,2.4,0.9,3.1,1.4l0.5,0.4h0.7H26l0.5-0.4c0.7-0.5,1.7-1.1,3.1-1.4c1.6-0.4,4.4-0.5,6.5-0.5c0.8,0,1.6,0,2.2-0.1
					c1.3-0.1,2.5-0.3,3.4-0.7c1.9-0.9,4.3-2.9,4.3-7.7V18.5C46,12.3,42.3,10.6,40.5,10.2z M42.3,17.7v13.2c0,0.5,0,1-0.1,1.4
					c-0.7,2.3-4.3,2.7-4.3,2.7s0,0,0,0c-0.5,0-1.2,0-1.9,0.1c-2.4,0.1-5.3,0.2-7.3,0.6c-1.4,0.3-2.5,0.8-3.4,1.4
					c-0.9-0.5-2.1-1-3.4-1.4c-1.9-0.5-4.9-0.6-7.3-0.6c-0.7,0-1.3,0-1.9-0.1c0,0,0,0,0,0s-3.6-0.3-4.3-2.7c-0.1-0.4-0.1-0.9-0.1-1.4
					V17.7V17c0-2.2,2.3-3,3.6-3.3c2.7-0.5,7-0.9,13.4-0.9c6.4,0,10.7,0.4,13.4,0.9c1.3,0.3,3.6,1.1,3.6,3.3V17.7z"/>
			</g>
		</g>
		<path d="M20.5,19.1l-3.2,3.2l3.2,3.2c0.5,0.5,0.5,1.4,0,1.9c-0.2,0.3-0.6,0.4-0.9,0.4c-0.4,0-0.7-0.1-0.9-0.4l-4.2-4.2
			c-0.5-0.5-0.5-1.4,0-1.9l4.2-4.2c0.5-0.5,1.4-0.5,1.9,0C21,17.8,21,18.6,20.5,19.1z M36.2,21.4l-4.2-4.2c-0.5-0.5-1.4-0.5-1.9,0
			c-0.5,0.5-0.5,1.4,0,1.9l3.2,3.2l-3.2,3.2c-0.5,0.5-0.5,1.4,0,1.9c0.2,0.3,0.6,0.4,0.9,0.4c0.4,0,0.7-0.1,0.9-0.4l4.2-4.2
			C36.8,22.8,36.8,21.9,36.2,21.4z"/>
	</g>
</g>
</svg>
