<?xml version="1.0" encoding="utf-8"?>
<!-- Generator: Adobe Illustrator 25.4.1, SVG Export Plug-In . SVG Version: 6.00 Build 0)  -->
<svg version="1.1" id="Calque_1" xmlns="http://www.w3.org/2000/svg" xmlns:xlink="http://www.w3.org/1999/xlink" x="0px" y="0px"
	 viewBox="0 0 32.8 32.8" style="enable-background:new 0 0 32.8 32.8;" xml:space="preserve">
	<path d="M23.6,15.2h-5.9V9.3c0-0.7-0.6-1.3-1.3-1.3c-0.7,0-1.3,0.6-1.3,1.3v5.9H9.3c-0.7,0-1.3,0.6-1.3,1.3c0,0.7,0.6,1.3,1.3,1.3
		h5.9v5.9c0,0.7,0.6,1.3,1.3,1.3c0.7,0,1.3-0.6,1.3-1.3v-5.9h5.9c0.7,0,1.3-0.6,1.3-1.3C24.8,15.7,24.3,15.2,23.6,15.2z"/>
	<path d="M16.4,0C7.4,0,0,7.4,0,16.4s7.4,16.4,16.4,16.4s16.4-7.3,16.4-16.4S25.5,0,16.4,0z M16.4,30.9C8.4,30.9,2,24.4,2,16.5
		S8.5,2.1,16.4,2.1s14.5,6.4,14.5,14.3S24.4,30.9,16.4,30.9z"/>
</svg>
