<?xml version="1.0" encoding="utf-8"?>
<!-- Generator: Adobe Illustrator 25.3.1, SVG Export Plug-In . SVG Version: 6.00 Build 0)  -->
<svg version="1.1" id="Calque_1"
    xmlns="http://www.w3.org/2000/svg"
    xmlns:xlink="http://www.w3.org/1999/xlink" x="0px" y="0px" viewBox="0 0 50 50" style="enable-background:new 0 0 50 50;" xml:space="preserve">
    <g>
        <path d="M32.3,23.8h-5.9v-5.9c0-0.7-0.6-1.3-1.3-1.3c-0.7,0-1.3,0.6-1.3,1.3v5.9H18c-0.7,0-1.3,0.6-1.3,1.3c0,0.7,0.6,1.3,1.3,1.3
		h5.9v5.9c0,0.7,0.6,1.3,1.3,1.3c0.7,0,1.3-0.6,1.3-1.3v-5.9h5.9c0.7,0,1.3-0.6,1.3-1.3C33.5,24.3,33,23.8,32.3,23.8z"/>
        <path d="M25.1,8.6C16.1,8.6,8.7,16,8.7,25s7.4,16.4,16.4,16.4S41.5,34.1,41.5,25S34.2,8.6,25.1,8.6z M25.1,39.5
		c-8,0-14.4-6.5-14.4-14.4s6.5-14.4,14.4-14.4S39.6,17.1,39.6,25S33.1,39.5,25.1,39.5z"/>
    </g>
</svg>
