<?xml version="1.0" encoding="utf-8"?>
<!-- Generator: Adobe Illustrator 25.4.1, SVG Export Plug-In . SVG Version: 6.00 Build 0)  -->
<svg version="1.1" id="Calque_1" xmlns="http://www.w3.org/2000/svg" xmlns:xlink="http://www.w3.org/1999/xlink" x="0px" y="0px"
	 viewBox="0 0 43.4 6.4" style="enable-background:new 0 0 43.4 6.4;" xml:space="preserve">
<style type="text/css">
	.st0{opacity:0.1755;}
	.st1{fill:none;stroke:#000000;stroke-width:0.5861;stroke-miterlimit:10;}
	.st2{opacity:7.581800e-02;}
	.st3{opacity:0.185;}
	.st4{opacity:8.607600e-02;}
	.st5{opacity:0.2437;}
	.st6{opacity:0.2473;}
	.st7{opacity:6.424400e-02;}
	.st8{opacity:0.2226;}
	.st9{opacity:6.783600e-02;}
	.st10{opacity:0.171;}
	.st11{opacity:0.1819;}
	.st12{opacity:0.1126;}
	.st13{opacity:0.2092;}
	.st14{opacity:0.1108;}
	.st15{opacity:0.1232;}
	.st16{opacity:6.368900e-02;}
	.st17{opacity:0.1676;}
	.st18{opacity:0.2315;}
	.st19{opacity:6.316000e-02;}
	.st20{opacity:0.1838;}
	.st21{opacity:0.2343;}
	.st22{opacity:0.1841;}
	.st23{opacity:0.1526;}
	.st24{opacity:0.1109;}
	.st25{opacity:0.2096;}
</style>
<g id="XMLID_332_">
	<g id="XMLID_333_">
		<g id="XMLID_334_">
			<g id="XMLID_432_" class="st0">
				<g id="XMLID_433_">
					<line id="XMLID_434_" class="st1" x1="0.3" y1="6.4" x2="0.3" y2="0"/>
				</g>
			</g>
			<g id="XMLID_429_" class="st2">
				<g id="XMLID_430_">
					<line id="XMLID_431_" class="st1" x1="2.1" y1="6.4" x2="2.1" y2="0"/>
				</g>
			</g>
			<g id="XMLID_426_" class="st3">
				<g id="XMLID_427_">
					<line id="XMLID_428_" class="st1" x1="3.8" y1="6.4" x2="3.8" y2="0"/>
				</g>
			</g>
			<g id="XMLID_423_" class="st4">
				<g id="XMLID_424_">
					<line id="XMLID_425_" class="st1" x1="5.6" y1="6.4" x2="5.6" y2="0"/>
				</g>
			</g>
			<g id="XMLID_420_" class="st5">
				<g id="XMLID_421_">
					<line id="XMLID_422_" class="st1" x1="7.4" y1="6.4" x2="7.4" y2="0"/>
				</g>
			</g>
			<g id="XMLID_417_" class="st6">
				<g id="XMLID_418_">
					<line id="XMLID_419_" class="st1" x1="9.2" y1="6.4" x2="9.2" y2="0"/>
				</g>
			</g>
			<g id="XMLID_414_" class="st7">
				<g id="XMLID_415_">
					<line id="XMLID_416_" class="st1" x1="11" y1="6.4" x2="11" y2="0"/>
				</g>
			</g>
			<g id="XMLID_411_" class="st8">
				<g id="XMLID_412_">
					<line id="XMLID_413_" class="st1" x1="12.8" y1="6.4" x2="12.8" y2="0"/>
				</g>
			</g>
			<g id="XMLID_408_" class="st9">
				<g id="XMLID_409_">
					<line id="XMLID_410_" class="st1" x1="14.5" y1="6.4" x2="14.5" y2="0"/>
				</g>
			</g>
			<g id="XMLID_405_" class="st10">
				<g id="XMLID_406_">
					<line id="XMLID_407_" class="st1" x1="16.3" y1="6.4" x2="16.3" y2="0"/>
				</g>
			</g>
			<g id="XMLID_402_" class="st11">
				<g id="XMLID_403_">
					<line id="XMLID_404_" class="st1" x1="18.1" y1="6.4" x2="18.1" y2="0"/>
				</g>
			</g>
			<g id="XMLID_399_" class="st12">
				<g id="XMLID_400_">
					<line id="XMLID_401_" class="st1" x1="19.9" y1="6.4" x2="19.9" y2="0"/>
				</g>
			</g>
			<g id="XMLID_396_" class="st13">
				<g id="XMLID_397_">
					<line id="XMLID_398_" class="st1" x1="21.7" y1="6.4" x2="21.7" y2="0"/>
				</g>
			</g>
			<g id="XMLID_393_" class="st14">
				<g id="XMLID_394_">
					<line id="XMLID_395_" class="st1" x1="23.5" y1="6.4" x2="23.5" y2="0"/>
				</g>
			</g>
			<g id="XMLID_390_" class="st15">
				<g id="XMLID_391_">
					<line id="XMLID_392_" class="st1" x1="25.2" y1="6.4" x2="25.2" y2="0"/>
				</g>
			</g>
			<g id="XMLID_387_" class="st16">
				<g id="XMLID_388_">
					<line id="XMLID_389_" class="st1" x1="27" y1="6.4" x2="27" y2="0"/>
				</g>
			</g>
			<g id="XMLID_384_" class="st17">
				<g id="XMLID_385_">
					<line id="XMLID_386_" class="st1" x1="28.8" y1="6.4" x2="28.8" y2="0"/>
				</g>
			</g>
			<g id="XMLID_381_" class="st18">
				<g id="XMLID_382_">
					<line id="XMLID_383_" class="st1" x1="30.6" y1="6.4" x2="30.6" y2="0"/>
				</g>
			</g>
			<g id="XMLID_378_" class="st19">
				<g id="XMLID_379_">
					<line id="XMLID_380_" class="st1" x1="32.4" y1="6.4" x2="32.4" y2="0"/>
				</g>
			</g>
			<g id="XMLID_375_" class="st20">
				<g id="XMLID_376_">
					<line id="XMLID_377_" class="st1" x1="34.2" y1="6.4" x2="34.2" y2="0"/>
				</g>
			</g>
			<g id="XMLID_372_" class="st21">
				<g id="XMLID_373_">
					<line id="XMLID_374_" class="st1" x1="35.9" y1="6.4" x2="35.9" y2="0"/>
				</g>
			</g>
			<g id="XMLID_369_" class="st22">
				<g id="XMLID_370_">
					<line id="XMLID_371_" class="st1" x1="37.7" y1="6.4" x2="37.7" y2="0"/>
				</g>
			</g>
			<g id="XMLID_366_" class="st23">
				<g id="XMLID_367_">
					<line id="XMLID_368_" class="st1" x1="39.5" y1="6.4" x2="39.5" y2="0"/>
				</g>
			</g>
			<g id="XMLID_363_" class="st24">
				<g id="XMLID_364_">
					<line id="XMLID_365_" class="st1" x1="41.3" y1="6.4" x2="41.3" y2="0"/>
				</g>
			</g>
			<g id="XMLID_360_" class="st25">
				<g id="XMLID_361_">
					<line id="XMLID_362_" class="st1" x1="43.1" y1="6.4" x2="43.1" y2="0"/>
				</g>
			</g>
			<line id="XMLID_359_" class="st1" x1="0.3" y1="6.4" x2="0.3" y2="4.1"/>
			<line id="XMLID_358_" class="st1" x1="2.1" y1="6.4" x2="2.1" y2="3.8"/>
			<line id="XMLID_357_" class="st1" x1="3.8" y1="6.4" x2="3.8" y2="5.2"/>
			<line id="XMLID_356_" class="st1" x1="5.6" y1="6.4" x2="5.6" y2="5.5"/>
			<line id="XMLID_355_" class="st1" x1="7.4" y1="6.4" x2="7.4" y2="4.9"/>
			<line id="XMLID_354_" class="st1" x1="9.2" y1="6.4" x2="9.2" y2="3.9"/>
			<line id="XMLID_353_" class="st1" x1="11" y1="6.4" x2="11" y2="3.9"/>
			<line id="XMLID_352_" class="st1" x1="12.8" y1="6.4" x2="12.8" y2="5.7"/>
			<line id="XMLID_351_" class="st1" x1="14.5" y1="6.4" x2="14.5" y2="5.3"/>
			<line id="XMLID_350_" class="st1" x1="16.3" y1="6.4" x2="16.3" y2="4.5"/>
			<line id="XMLID_349_" class="st1" x1="18.1" y1="6.4" x2="18.1" y2="4.5"/>
			<line id="XMLID_348_" class="st1" x1="19.9" y1="6.4" x2="19.9" y2="5.4"/>
			<line id="XMLID_347_" class="st1" x1="21.7" y1="6.4" x2="21.7" y2="5.4"/>
			<line id="XMLID_346_" class="st1" x1="23.5" y1="6.4" x2="23.5" y2="3.8"/>
			<line id="XMLID_345_" class="st1" x1="25.2" y1="6.4" x2="25.2" y2="5.7"/>
			<line id="XMLID_344_" class="st1" x1="27" y1="6.4" x2="27" y2="4.5"/>
			<line id="XMLID_343_" class="st1" x1="28.8" y1="6.4" x2="28.8" y2="4.3"/>
			<line id="XMLID_342_" class="st1" x1="30.6" y1="6.4" x2="30.6" y2="5.7"/>
			<line id="XMLID_341_" class="st1" x1="32.4" y1="6.4" x2="32.4" y2="5.7"/>
			<line id="XMLID_340_" class="st1" x1="34.2" y1="6.4" x2="34.2" y2="4.3"/>
			<line id="XMLID_339_" class="st1" x1="35.9" y1="6.4" x2="35.9" y2="5"/>
			<line id="XMLID_338_" class="st1" x1="37.7" y1="6.4" x2="37.7" y2="3.7"/>
			<line id="XMLID_337_" class="st1" x1="39.5" y1="6.4" x2="39.5" y2="5.2"/>
			<line id="XMLID_336_" class="st1" x1="41.3" y1="6.4" x2="41.3" y2="5.7"/>
			<line id="XMLID_335_" class="st1" x1="43.1" y1="6.4" x2="43.1" y2="3.8"/>
		</g>
	</g>
</g>
</svg>
