<?xml version="1.0" encoding="UTF-8"?>
<svg id="Calque_1" xmlns="http://www.w3.org/2000/svg" viewBox="0 0 32 32">
    <path d="M26.08,12.21l-1.83,1.83c.42,1.48,.46,3.04,.11,4.55-.41,1.76-1.33,3.37-2.65,4.61-1.32,1.24-2.98,2.06-4.77,2.36-1.79,.3-3.62,.06-5.27-.69-1.65-.75-3.04-1.97-4-3.5-.96-1.54-1.44-3.32-1.38-5.14,.06-1.81,.65-3.56,1.71-5.04,1.41-1.98,3.55-3.31,5.95-3.71,2.32-.39,4.69,.14,6.63,1.45l1.67-1.67c-1.9-1.4-4.19-2.18-6.56-2.23-2.82-.06-5.57,.92-7.71,2.76-2.14,1.84-3.54,4.4-3.91,7.2-.37,2.8,.3,5.64,1.88,7.97h0c.82,1.37,2.13,2.49,3.72,3.47,2.44,1.42,5.32,1.89,8.09,1.33,2.77-.57,5.23-2.13,6.91-4.4,.05-.07,.1-.15,.15-.22,.48-.77,.93-1.57,1.31-2.41,.65-1.66,.92-3.45,.76-5.25-.1-1.13-.37-2.23-.79-3.27Z" />
    <path d="M15.7,20.57c-.31,.31-.74,.5-1.16,.5s-.85-.16-1.16-.5l-3.06-3.06c-.66-.66-.66-1.71,0-2.37,.66-.66,1.71-.66,2.37,0l1.86,1.86L24.69,6.84c.66-.66,1.71-.66,2.37,0,.66,.66,.66,1.71,0,2.37l-11.36,11.36Z" />
</svg>