<?xml version="1.0" encoding="UTF-8" standalone="no"?>
<!-- Created with Inkscape (http://www.inkscape.org/) -->

<svg
   xmlns:dc="http://purl.org/dc/elements/1.1/"
   xmlns:cc="http://creativecommons.org/ns#"
   xmlns:rdf="http://www.w3.org/1999/02/22-rdf-syntax-ns#"
   xmlns:svg="http://www.w3.org/2000/svg"
   xmlns="http://www.w3.org/2000/svg"
   xmlns:sodipodi="http://sodipodi.sourceforge.net/DTD/sodipodi-0.dtd"
   xmlns:inkscape="http://www.inkscape.org/namespaces/inkscape"
   width="210mm"
   height="297mm"
   viewBox="0 0 210 297"
   version="1.1"
   id="svg8"
   inkscape:version="0.92.4 (5da689c313, 2019-01-14)"
   sodipodi:docname="chart-pie-solid.svg">
  <defs
     id="defs2" />
  <sodipodi:namedview
     id="base"
     pagecolor="#ffffff"
     bordercolor="#666666"
     borderopacity="1.0"
     inkscape:pageopacity="0.0"
     inkscape:pageshadow="2"
     inkscape:zoom="0.24748737"
     inkscape:cx="476.92582"
     inkscape:cy="628.00776"
     inkscape:document-units="mm"
     inkscape:current-layer="layer1"
     showgrid="false"
     inkscape:snap-global="false"
     inkscape:window-width="1920"
     inkscape:window-height="1017"
     inkscape:window-x="3832"
     inkscape:window-y="-8"
     inkscape:window-maximized="1" />
  <metadata
     id="metadata5">
    <rdf:RDF>
      <cc:Work
         rdf:about="">
        <dc:format>image/svg+xml</dc:format>
        <dc:type
           rdf:resource="http://purl.org/dc/dcmitype/StillImage" />
        <dc:title></dc:title>
      </cc:Work>
    </rdf:RDF>
  </metadata>
  <g
     inkscape:label="Calque 1"
     inkscape:groupmode="layer"
     id="layer1">
    <path
       id="path826"
       d="m 178.3277,165.41716 h -62.78298 l 41.8121,41.8121 c 1.59809,1.59809 4.22804,1.72773 5.87111,0.17992 10.23937,-9.64671 17.28258,-22.65098 19.34898,-37.26921 0.35454,-2.50296 -1.72244,-4.72281 -4.24921,-4.72281 z m 0.62244,-9.66145 c -2.18016,-31.60713 -27.43729,-56.86425 -59.04441,-59.04442 -2.413,-0.16669 -4.42317,1.86806 -4.445,4.28625 v 59.20317 h 59.20581 c 2.41829,0 4.45029,-2.032 4.2836,-4.445 z m -69.77494,11.79961 v -62.78298 c 0,-2.52677 -2.21986,-4.60375 -4.72017,-4.24921 -31.530396,4.45558 -55.631291,32.00135 -54.509458,65.01341 1.153584,33.90372 30.345062,61.70613 64.264648,61.28015 13.335,-0.16668 25.65664,-4.46352 35.78754,-11.6496 2.09021,-1.48167 2.22779,-4.55877 0.41539,-6.37117 z"
       inkscape:connector-curvature="0"
       style="fill:currentColor;stroke-width:0.26458332"
       sodipodi:nodetypes="scsccsccscsccscccccc" />
  </g>
</svg>
