<?xml version="1.0" encoding="utf-8"?>
<!-- Generator: Adobe Illustrator 26.0.3, SVG Export Plug-In . SVG Version: 6.00 Build 0)  -->
<svg data-testid="ico-ticket-solved" version="1.1" xmlns="http://www.w3.org/2000/svg"
	xmlns:xlink="http://www.w3.org/1999/xlink" viewBox="0 0 24 25.3" xml:space="preserve">
	<style type="text/css">
		.ticketSolvedIcon {
			fill: none;
		}
	</style>
	<g>
		<path class="ticketSolvedIcon" d="M19.1,12.3c-1,0.6-2.1,0.9-3.3,0.9c-3.6,0-6.6-2.9-6.6-6.6c0-1.2,0.3-2.3,0.9-3.3L10,3.1
		C9.9,3,9.7,2.9,9.6,2.9C9.5,2.8,9.3,2.8,9.1,2.8s-0.3,0-0.5,0.1c0,0-0.2,0.1-0.3,0.2L7.4,4c0.3,0.6,0.4,1.4,0.3,2.1
		C7.6,6.8,7.2,7.5,6.7,8S5.5,8.8,4.8,9c-0.6,0-1.4-0.1-2-0.4l-0.9,1c-0.2,0.2-0.4,0.5-0.4,0.8c0,0.2,0,0.3,0.1,0.5
		c0.1,0.1,0.1,0.3,0.3,0.4l10.1,10l8.1-8.1L19.1,12.3z" />
		<path class="ticketSolvedIcon" d="M22.1,15.3l-0.9-0.9l-8.1,8.1l1,0.9c0.1,0.1,0.2,0.2,0.4,0.3c0.1,0.1,0.3,0.1,0.5,0.1s0.3,0,0.5-0.1
		c0.1-0.1,0.3-0.1,0.4-0.3l6.4-6.4l0,0c0.2-0.2,0.3-0.5,0.3-0.8C22.5,15.8,22.3,15.5,22.1,15.3z" />
		<path d="M23.2,14.2l-2.8-2.8c1.3-1.2,2-2.9,2-4.8C22.4,3,19.5,0,15.8,0c-1.9,0-3.6,0.8-4.8,2.1c-0.5-0.5-1.2-0.8-1.9-0.8
		S7.7,1.6,7.2,2.1L5.9,3.4C5.8,3.5,5.7,3.7,5.7,3.9c0,0.2,0,0.4,0.2,0.5c0.3,0.4,0.4,0.8,0.4,1.3S6.1,6.6,5.7,6.9
		C5.3,7.2,4.9,7.4,4.4,7.5C4,7.5,3.5,7.4,3.1,7.1C3,7,2.8,6.9,2.6,6.9C2.4,6.9,2.3,7,2.1,7.2L0.8,8.5C0.3,9,0,9.7,0,10.4
		s0.3,1.4,0.8,1.9l12.1,12.1c0.5,0.5,1.2,0.8,1.9,0.8s1.4-0.3,1.9-0.8l6.4-6.4c0.5-0.5,0.8-1.2,0.8-1.9C24,15.4,23.7,14.7,23.2,14.2
		z M13.3,5.6L15,7.2l3.5-3.6l1.2,1.2L15,9.5l-2.8-2.7L13.3,5.6z M12,21.3L1.9,11.2c-0.1-0.1-0.2-0.2-0.3-0.4
		c-0.1-0.1-0.1-0.3-0.1-0.5c0-0.3,0.1-0.6,0.4-0.8l0.9-0.9C3.4,8.9,4.2,9,4.9,8.9s1.4-0.5,1.9-1s0.8-1.2,1-1.9
		c0.1-0.7,0-1.4-0.3-2.1L8.4,3c0,0,0.2-0.1,0.3-0.1C8.8,2.8,9,2.8,9.1,2.8c0.2,0,0.3,0,0.5,0.1C9.7,2.9,9.9,3,10,3.1l0.2,0.2
		c-0.6,1-0.9,2.1-0.9,3.3c0,3.6,2.9,6.6,6.6,6.6c1.2,0,2.3-0.3,3.3-0.9l1,1L12,21.3z M22.1,16.9l-6.4,6.4c-0.1,0.1-0.2,0.2-0.4,0.3
		c-0.1,0.1-0.3,0.1-0.5,0.1s-0.3,0-0.5-0.1c-0.1-0.1-0.3-0.1-0.4-0.3l-1-0.9l8.1-8.1l0.9,0.9c0.2,0.2,0.3,0.5,0.3,0.8
		C22.4,16.4,22.3,16.7,22.1,16.9L22.1,16.9z" />
	</g>
</svg>