<svg width="18" height="18" viewBox="0 0 18 18" fill="none" xmlns="http://www.w3.org/2000/svg">
<path fill-rule="evenodd" clip-rule="evenodd" d="M4.42373 2.11765C3.1501 2.11765 2.11765 3.1501 2.11765 4.42373V13.5763C2.11765 14.8499 3.1501 15.8824 4.42373 15.8824H13.5763C14.8499 15.8824 15.8824 14.8499 15.8824 13.5763V4.42373C15.8824 3.1501 14.8499 2.11765 13.5763 2.11765H4.42373ZM0 4.42373C0 1.98055 1.98055 0 4.42373 0H13.5763C16.0194 0 18 1.98055 18 4.42373V13.5763C18 16.0194 16.0194 18 13.5763 18H4.42373C1.98055 18 0 16.0194 0 13.5763V4.42373ZM4.94641 9C4.94641 8.41523 5.42046 7.94118 6.00523 7.94118H12.0621C12.6468 7.94118 13.1209 8.41523 13.1209 9C13.1209 9.58477 12.6468 10.0588 12.0621 10.0588H6.00523C5.42046 10.0588 4.94641 9.58477 4.94641 9Z" fill="#7DAAB7"/>
</svg>
