<?xml version="1.0" encoding="utf-8"?>
<!-- Generator: Adobe Illustrator 25.3.1, SVG Export Plug-In . SVG Version: 6.00 Build 0)  -->
<svg version="1.1" id="Calque_1" xmlns="http://www.w3.org/2000/svg" xmlns:xlink="http://www.w3.org/1999/xlink" x="0px" y="0px"
	 viewBox="0 0 50 50" style="enable-background:new 0 0 50 50;" xml:space="preserve">
<path d="M23.6,9.4c-1.4-1.4-3.7-1.4-5.1,0l-1.9,1.9c-0.3,0.3-0.3,0.8-0.1,1.1c0.9,1.2,0.8,2.8-0.3,3.9c-1,1-2.7,1.2-3.9,0.3
	c-0.3-0.3-0.8-0.2-1.1,0.1l-1.9,1.9c-1.4,1.4-1.4,3.7,0,5.1L26.6,41c1.4,1.4,3.7,1.4,5.1,0l9.1-9.1c1.4-1.4,1.4-3.7,0-5.1L23.6,9.4z
	 M10,21.1c0-0.5,0.2-1,0.6-1.4l1.4-1.4c1.8,0.9,4,0.6,5.5-0.8c1.4-1.4,1.8-3.7,0.8-5.5l1.4-1.4c0.8-0.8,2-0.8,2.7,0L37,25.1L25.1,37
	L10.5,22.4C10.2,22.1,10,21.6,10,21.1z M39.7,30.5l-9.1,9.1c-0.8,0.8-2,0.8-2.7,0l-1.5-1.5l11.9-11.9l1.5,1.5
	C40.4,28.6,40.4,29.8,39.7,30.5z"
	/>
</svg>