<?xml version="1.0" encoding="utf-8"?>
<!-- Generator: Adobe Illustrator 25.3.1, SVG Export Plug-In . SVG Version: 6.00 Build 0)  -->
<svg version="1.1" id="Calque_1" xmlns="http://www.w3.org/2000/svg" xmlns:xlink="http://www.w3.org/1999/xlink" x="0px" y="0px"
	 viewBox="0 0 50 50" style="enable-background:new 0 0 50 50;" xml:space="preserve">
<g>
	<g>
		<g>
			<path d="M35.6,28.5l-2,1.9l-4.7-4.5c-0.3-0.3-0.7-0.3-1,0L26,27.7c-0.3,0.3-0.3,0.7,0,0.9l4.7,4.5l-2,1.9
				c-0.4,0.4-0.1,1.1,0.5,1.1H36c0.4,0,0.7-0.3,0.7-0.6V29C36.7,28.4,36,28.1,35.6,28.5z"/>
		</g>
	</g>
	<g>
		<g>
			<path d="M24.3,21.4l-4.7-4.5l2-1.9c0.4-0.4,0.1-1.1-0.5-1.1h-6.8c-0.4,0-0.7,0.3-0.7,0.6v6.5c0,0.6,0.7,0.9,1.2,0.5l2-1.9
				l4.7,4.5c0.3,0.3,0.7,0.3,1,0l1.9-1.8C24.5,22.1,24.5,21.7,24.3,21.4z"/>
		</g>
	</g>
</g>
</svg>
