<svg viewBox="0 0 35 35" xmlns="http://www.w3.org/2000/svg">
<g clip-path="url(#clip0_612_4377)">
<path d="M17.4979 2.20019C20.5243 2.20019 23.4828 3.09762 25.9992 4.77902C28.5156 6.46041 30.4769 8.85025 31.635 11.6463C32.7932 14.4424 33.0962 17.519 32.5058 20.4873C31.9153 23.4556 30.458 26.1821 28.318 28.3221C26.178 30.4621 23.4515 31.9195 20.4832 32.5099C17.5149 33.1004 14.4382 32.7973 11.6422 31.6392C8.84611 30.481 6.45626 28.5197 4.77487 26.0033C3.09347 23.487 2.19604 20.5285 2.19604 17.5021C2.20371 13.4461 3.81832 9.55847 6.68632 6.69047C9.55432 3.82247 13.442 2.20785 17.4979 2.20019ZM17.4979 4.90696e-07C14.0362 -0.000819055 10.6519 1.02496 7.77318 2.94762C4.89443 4.87027 2.65048 7.60343 1.32516 10.8014C-0.000167143 13.9995 -0.347353 17.5187 0.327501 20.914C1.00235 24.3094 2.66894 27.4283 5.11648 29.8764C7.56402 32.3246 10.6826 33.9919 14.0778 34.6675C17.473 35.3432 20.9922 34.9968 24.1906 33.6723C27.3889 32.3477 30.1226 30.1044 32.0459 27.2261C33.9693 24.3478 34.9958 20.9638 34.9958 17.5021C34.9964 15.2039 34.5442 12.9281 33.6651 10.8046C32.786 8.68121 31.4972 6.75176 29.8723 5.12649C28.2474 3.50121 26.3183 2.21196 24.1951 1.33234C22.0718 0.452731 19.7961 4.26262e-07 17.4979 4.90696e-07Z" />
<path d="M23.2452 23.2574L25.9674 26.7793H22.4165L21.0325 24.9976C19.4711 25.8142 17.6895 26.1099 15.948 25.8415C14.2065 25.5731 12.5965 24.7547 11.3534 23.506C10.4728 22.6105 9.80861 21.5256 9.41162 20.3341C9.01464 19.1426 8.89535 17.8762 9.06287 16.6315C9.2304 15.3869 9.68031 14.197 10.3782 13.1529C11.0761 12.1088 12.0035 11.2381 13.0895 10.6073C14.3257 9.87826 15.7356 9.49606 17.1708 9.50099C18.2387 9.4881 19.2979 9.69518 20.2823 10.1093C21.2668 10.5235 22.1554 11.1359 22.893 11.9084C24.3666 13.4112 25.2189 15.4148 25.2796 17.5187C25.3403 19.6227 24.6049 21.6721 23.2203 23.2574H23.2452ZM21.3847 20.85C22.0082 19.9358 22.3378 18.8531 22.3295 17.7465C22.3439 17.0491 22.2185 16.3558 21.9609 15.7076C21.7033 15.0593 21.3187 14.4691 20.8295 13.9718C20.3661 13.4732 19.8033 13.0772 19.1773 12.8096C18.5514 12.542 17.8763 12.4086 17.1957 12.418C16.5126 12.4011 15.8335 12.5264 15.2015 12.7861C14.5695 13.0457 13.9984 13.434 13.5246 13.9262C13.0325 14.4342 12.648 15.0362 12.3938 15.6961C12.1396 16.3561 12.0211 17.0605 12.0453 17.7672C12.0128 18.5499 12.1646 19.3292 12.4885 20.0424C12.8123 20.7557 13.2992 21.3828 13.9099 21.8734C14.8403 22.6469 16.0148 23.0653 17.2247 23.0543C17.9149 23.0596 18.5985 22.9183 19.2301 22.64L16.4291 19.031H19.9801L21.3847 20.85Z" />
</g>
</svg>
