<?xml version="1.0" encoding="utf-8"?>
<!-- Generator: Adobe Illustrator 25.3.1, SVG Export Plug-In . SVG Version: 6.00 Build 0)  -->
<svg version="1.1" id="Calque_1" xmlns="http://www.w3.org/2000/svg" xmlns:xlink="http://www.w3.org/1999/xlink" x="0px" y="0px"
	 viewBox="0 0 50 50" style="enable-background:new 0 0 50 50;" xml:space="preserve">
<path d="M25.1,5.1c-11.1,0-20,8.9-20,20c0,3.5,0.9,6.9,2.7,10l-2.6,8c-0.2,0.6,0,1.2,0.4,1.6c0.4,0.4,1,0.6,1.6,0.4l8-2.6
	c3,1.7,6.4,2.7,10,2.7c11.1,0,20-8.9,20-20C45.1,14.1,36.2,5.1,25.1,5.1z M25.1,42c-3.2,0-6.3-0.9-8.9-2.6c-0.4-0.2-0.9-0.3-1.3-0.2
	l-5.8,1.9l1.9-5.8c0.1-0.4,0.1-0.9-0.2-1.3c-1.7-2.7-2.6-5.8-2.6-8.9c0-9.3,7.6-16.9,16.9-16.9S42,15.8,42,25.1S34.4,42,25.1,42z"/>
</svg>
