<?xml version="1.0" encoding="utf-8"?>
<!-- Generator: Adobe Illustrator 25.4.1, SVG Export Plug-In . SVG Version: 6.00 Build 0)  -->
<svg version="1.1" id="Calque_1" xmlns="http://www.w3.org/2000/svg" xmlns:xlink="http://www.w3.org/1999/xlink" x="0px" y="0px"
	 viewBox="0 0 23 22.2" style="enable-background:new 0 0 23 22.2;" xml:space="preserve">
<g>
	<path d="M18.5,2.4l-3.3,3.5c-0.2,0.2-0.2,0.5,0,0.7L16.6,8c0.2,0.2,0.5,0.2,0.7,0l3.3-3.5L22,5.9c0.3,0.3,0.8,0.1,0.8-0.4v-5
		c0-0.3-0.2-0.5-0.5-0.5h-4.8c-0.4,0-0.6,0.5-0.3,0.9L18.5,2.4z"/>
	<path d="M23,12.1V8.5c0-0.7-0.5-1.2-1.2-1.2s-1.2,0.5-1.2,1.2v2.4h-8.4V2.5h2.4c0.7,0,1.2-0.5,1.2-1.2s-0.5-1.2-1.2-1.2H11l0,0
		c-0.1,0-0.2,0-0.3,0h-9C0.8,0.1,0,0.9,0,1.8v18.7c0,0.9,0.8,1.7,1.7,1.7h19.6c0.9,0,1.7-0.8,1.7-1.7v-7.7 M3.3,18.8V3.4h6.4v8.7
		c0,0.7,0.5,1.2,1.2,1.2h8.7v5.4L3.3,18.8L3.3,18.8z"/>
</g>
</svg>
