<?xml version="1.0" encoding="utf-8"?>
<!-- Generator: Adobe Illustrator 25.4.1, SVG Export Plug-In . SVG Version: 6.00 Build 0)  -->
<svg version="1.1" viewBox="0 0 40 30" xmlns="http://www.w3.org/2000/svg" xmlns:xlink="http://www.w3.org/1999/xlink"
	x="0px" y="0px" viewBox="0 0 33.7 24.9" style="enable-background:new 0 0 33.7 24.9;" xml:space="preserve">
	<path
		d="M33.2,3l-2.4-0.6V2.2c0-0.2-0.1-0.4-0.2-0.5C29.4,0.5,25,0,23.5,0c-1.2,0-4.8,0.1-6.6,1.3C15.3,0.4,11.7,0,10.3,0
	C9,0,4.8,0.1,3.2,1.7C3.1,1.8,3,2,3,2.2v0.2L0.6,3C0.3,3.1,0,3.4,0,3.7v20.5c0,0.2,0.1,0.4,0.2,0.5c0.2,0.1,0.4,0.2,0.6,0.2
	l12.6-1.4c0.5,0.8,1.8,1.4,3.4,1.4s2.9-0.6,3.4-1.4l12.6,1.4h0.1c0.2,0,0.4-0.1,0.5-0.2c0.2-0.1,0.2-0.3,0.2-0.5V3.7
	C33.8,3.4,33.5,3.1,33.2,3z M29.4,2.6V20c-1.8-0.7-4.7-1-5.9-1c-1,0-3.9,0.1-5.9,0.9V2.6c1.1-0.7,3.7-1.1,5.9-1.1
	C25.3,1.5,28.4,2.1,29.4,2.6z M4.5,2.6c1.1-0.7,3.7-1.1,5.9-1.1c1.8,0,4.9,0.5,5.9,1.1V20c-1.8-0.7-4.7-1-5.9-1
	c-1,0-3.9,0.1-5.9,0.9C4.5,19.9,4.5,2.6,4.5,2.6z M1.6,4.3l1.5-0.4v17.3c0,0.3,0.2,0.6,0.5,0.7C3.9,22,4.2,22,4.4,21.7
	c0.9-0.9,3.7-1.2,6.1-1.2c0.8,0,1.9,0.1,2.9,0.3V22L1.6,23.4V4.3z M16.9,23.5c-1.4,0-2.2-0.5-2.2-0.7v-1.6c0.8,0.2,1.5,0.4,1.7,0.7
	l0,0c0.1,0.1,0.1,0.1,0.2,0.1l0,0l0,0c0.1,0,0.2,0,0.2,0l0,0l0,0c0.1,0,0.1,0,0.2,0l0,0l0,0c0,0,0.1,0,0.1-0.1c0,0,0.1,0,0.1-0.1
	l0,0c0.3-0.3,0.9-0.6,1.7-0.8v1.7C19.1,22.9,18.4,23.5,16.9,23.5z M32.3,23.4l-11.7-1.3v-1.3c1-0.1,2-0.2,2.9-0.2
	c1.9,0,5.5,0.7,6.1,1.2c0.1,0.1,0.3,0.2,0.5,0.2c0.1,0,0.2,0,0.3-0.1c0.3-0.1,0.5-0.4,0.5-0.7V3.9l1.5,0.4L32.3,23.4L32.3,23.4z" />
</svg>