<?xml version="1.0" encoding="utf-8"?>
<!-- Generator: Adobe Illustrator 25.3.1, SVG Export Plug-In . SVG Version: 6.00 Build 0)  -->
<svg version="1.1" id="Calque_1" xmlns="http://www.w3.org/2000/svg" xmlns:xlink="http://www.w3.org/1999/xlink" x="0px" y="0px"
	 viewBox="0 0 50 50" style="enable-background:new 0 0 50 50;" xml:space="preserve">
<g>
	<g>
		<g>
			<path d="M25.1,19.4c-1,0-1.7,0.4-1.7,1v8.5c0,0.5,0.7,1.1,1.7,1.1c1,0,1.7-0.5,1.7-1.1v-8.5C26.8,19.8,26.1,19.4,25.1,19.4z"/>
			<path d="M25.1,14.1c-1,0-1.8,0.7-1.8,1.6s0.8,1.6,1.8,1.6c1,0,1.8-0.8,1.8-1.6C26.9,14.9,26.1,14.1,25.1,14.1z"/>
			<path d="M25.1,5C15.5,5,7.8,12.7,7.8,22.3c0,7.8,5.2,14.3,12.1,16.5l3.9,5.8c0.3,0.4,0.8,0.7,1.3,0.7c0.5,0,1-0.3,1.3-0.7
				l3.9-5.8c6.9-2.2,12.1-8.7,12.1-16.5C42.4,12.7,34.7,5,25.1,5z M28.9,36c-0.4,0.1-0.7,0.3-0.9,0.6l-3,4.4l-3-4.4
				c-0.2-0.3-0.5-0.5-0.9-0.6c-5.9-1.7-10.4-7.1-10.4-13.7c0-7.8,6.4-14.2,14.2-14.2s14.2,6.4,14.2,14.2
				C39.3,28.9,34.8,34.3,28.9,36z"/>
		</g>
	</g>
</g>
</svg>
