<?xml version="1.0" encoding="utf-8"?>
<!-- Generator: Adobe Illustrator 25.4.1, SVG Export Plug-In . SVG Version: 6.00 Build 0)  -->
<svg version="1.1" id="Calque_1" xmlns="http://www.w3.org/2000/svg" xmlns:xlink="http://www.w3.org/1999/xlink" x="0px" y="0px"
	 viewBox="0 0 30.9 30.9" style="enable-background:new 0 0 30.9 30.9;" xml:space="preserve">
<g>
	<path d="M22.2,0H8.7C3.9,0,0,3.9,0,8.7v13.5c0,4.8,3.9,8.7,8.7,8.7h13.5c4.8,0,8.7-3.9,8.7-8.7V8.6C30.8,3.8,27,0,22.2,0z M8.7,1.8
		h13.5c3.5,0,6.4,2.7,6.8,6.1H2C2.3,4.5,5.2,1.8,8.7,1.8z M29,22.1c0,3.8-3.1,6.8-6.8,6.8H8.7c-3.8,0-6.8-3.1-6.8-6.8V9.7H29V22.1z"
		/>
	<path d="M8.9,23c0.1,0.1,0.3,0.2,0.5,0.2s0.4-0.1,0.5-0.2l3.8-3.8c0.1-0.1,0.2-0.3,0.2-0.5s-0.1-0.4-0.2-0.5l-3.8-3.8
		c-0.3-0.3-0.8-0.3-1.1,0c-0.3,0.3-0.3,0.8,0,1.1l3.2,3.2l-3.2,3.2C8.6,22.2,8.6,22.7,8.9,23z"/>
	<path d="M15.7,21.9H22c0.4,0,0.8-0.3,0.8-0.8c0-0.4-0.3-0.8-0.8-0.8h-6.3c-0.4,0-0.8,0.3-0.8,0.8C15,21.6,15.3,21.9,15.7,21.9z"/>
</g>
</svg>
