<svg viewBox="0 0 10 8" xmlns="http://www.w3.org/2000/svg">
<path d="M5.01083 4.88167C3.56292 5.57875 1.88417 6.38958 1.47583 6.58583C0.705833 6.95625 0 5.98375 0 5.98375L3.65042 4.22292L5.01083 4.88167ZM8.315 7.75C8.02917 7.75 7.73458 7.68583 7.455 7.55042C6.64542 7.15833 6.22458 6.3 6.41417 5.52792C6.5225 5.0875 6.29083 5.0275 5.93708 4.85625L0.025 1.99542C0.025 1.99542 0.733333 1.025 1.5025 1.39708C1.975 1.62583 3.87292 2.54167 5.50833 3.335L5.91875 3.1375C6.27292 2.96708 6.50458 2.9075 6.3975 2.46708C6.20958 1.69417 6.6325 0.836667 7.44333 0.447083C7.72208 0.313333 8.01542 0.25 8.29917 0.25C9.26208 0.25 9.98458 0.956667 9.98458 1.83375C9.98458 2.49292 9.57375 3.14875 8.89583 3.48917C8.21875 3.82917 7.74375 3.56417 7.07083 3.89125L6.86083 3.99333L7.09083 4.10583C7.76292 4.43458 8.23833 4.17083 8.91458 4.5125C9.59125 4.85375 10 5.50917 10 6.16667C10 7.045 9.27542 7.75 8.315 7.75ZM7.25042 2.41042C7.45417 2.83625 8.03208 2.98458 8.53875 2.74083C9.04583 2.4975 9.2925 1.95208 9.08917 1.52583C8.88542 1.1 8.3075 0.95125 7.80042 1.195C7.29333 1.43875 7.04708 1.98417 7.25042 2.41042ZM5.7325 3.92083C5.7325 3.74833 5.59292 3.60833 5.42 3.60833C5.2475 3.60833 5.1075 3.74833 5.1075 3.92083C5.1075 4.09333 5.2475 4.23333 5.42 4.23333C5.5925 4.23333 5.7325 4.09333 5.7325 3.92083ZM8.55625 5.25958C8.05 5.01458 7.47125 5.16125 7.26667 5.58708C7.06208 6.01292 7.3075 6.55875 7.81375 6.80333C8.32 7.04833 8.89833 6.90125 9.10292 6.47542C9.30792 6.05 9.0625 5.50458 8.55625 5.25958Z"/>
</svg>
