<?xml version="1.0" encoding="utf-8"?>
<!-- Generator: Adobe Illustrator 25.3.1, SVG Export Plug-In . SVG Version: 6.00 Build 0)  -->
<svg version="1.1" id="Calque_1" xmlns="http://www.w3.org/2000/svg" xmlns:xlink="http://www.w3.org/1999/xlink" x="0px" y="0px"
	 viewBox="0 0 50 50" style="enable-background:new 0 0 50 50;" xml:space="preserve">
<g>
	<path d="M13.4,21.2c-2.2,0-3.9,1.8-3.9,3.9s1.8,3.9,3.9,3.9s3.9-1.8,3.9-3.9S15.6,21.2,13.4,21.2z M13.4,27.4c-1.3,0-2.3-1-2.3-2.3
		s1-2.3,2.3-2.3c1.3,0,2.3,1,2.3,2.3S14.7,27.4,13.4,27.4z"/>
	<path d="M39.6,24.2H21.5c-0.5,0-1,0.4-1,1s0.4,1,1,1h18.1c0.5,0,1-0.4,1-1S40.1,24.2,39.6,24.2z"/>
	<path d="M13.4,9.9c-2.2,0-3.9,1.8-3.9,3.9c0,2.2,1.8,3.9,3.9,3.9s3.9-1.8,3.9-3.9C17.3,11.7,15.6,9.9,13.4,9.9z M13.4,16.2
		c-1.3,0-2.3-1-2.3-2.3c0-1.3,1-2.3,2.3-2.3c1.3,0,2.3,1,2.3,2.3C15.7,15.2,14.7,16.2,13.4,16.2z"/>
	<path d="M21.5,14.8h18.1c0.5,0,1-0.4,1-1s-0.4-1-1-1H21.5c-0.5,0-1,0.4-1,1S21,14.8,21.5,14.8z"/>
	<path d="M13.4,32.4c-2.2,0-3.9,1.8-3.9,3.9s1.8,3.9,3.9,3.9s3.9-1.8,3.9-3.9S15.6,32.4,13.4,32.4z M13.4,38.7c-1.3,0-2.3-1-2.3-2.3
		s1-2.3,2.3-2.3c1.3,0,2.3,1,2.3,2.3S14.7,38.7,13.4,38.7z"/>
	<path d="M39.6,35.4H21.5c-0.5,0-1,0.4-1,1s0.4,1,1,1h18.1c0.5,0,1-0.4,1-1S40.1,35.4,39.6,35.4z"/>
</g>
</svg>
