<svg viewBox="0 0 25 18" xmlns="http://www.w3.org/2000/svg">
<path d="M24.5084 9.53998C24.5772 9.37488 24.6126 9.1978 24.6126 9.01894C24.6126 8.84008 24.5772 8.663 24.5084 8.4979C24.4358 8.32409 24.3296 8.16631 24.1958 8.03367L16.6169 0.454723C16.3475 0.203708 15.9912 0.0670596 15.623 0.0735551C15.2549 0.0800507 14.9036 0.2292 14.6433 0.489561C14.3829 0.749923 14.2338 1.10116 14.2273 1.46931C14.2208 1.83746 14.3574 2.19376 14.6085 2.46314L19.7621 7.61683H1.40209C1.0252 7.61683 0.663741 7.76656 0.397242 8.03306C0.130743 8.29956 -0.0189667 8.66099 -0.0189667 9.03788C-0.0189667 9.41477 0.130743 9.77622 0.397242 10.0427C0.663741 10.3092 1.0252 10.4589 1.40209 10.4589H19.7716L14.6179 15.6126C14.485 15.7439 14.3795 15.9003 14.3074 16.0727C14.2354 16.245 14.1984 16.43 14.1984 16.6168C14.1984 16.8036 14.2354 16.9886 14.3074 17.161C14.3795 17.3334 14.485 17.4897 14.6179 17.621C14.8844 17.8872 15.2455 18.0366 15.6221 18.0366C15.9987 18.0366 16.3599 17.8872 16.6264 17.621L24.2053 10.0421C24.34 9.89745 24.4431 9.72649 24.5084 9.53998Z" />
</svg>
