<svg viewBox="0 0 32 32" xmlns="http://www.w3.org/2000/svg">
<g clip-path="url(#clip0_612_4384)">
<path d="M4.64463 9.28671H27.3579C28.5883 9.28671 29.7683 8.79793 30.6384 7.9279C31.5084 7.05787 31.9972 5.87785 31.9972 4.64744C31.9972 3.41703 31.5084 2.23702 30.6384 1.36699C29.7683 0.496958 28.5883 0.00817871 27.3579 0.00817871H4.64463C3.41423 0.00817871 2.23421 0.496958 1.36418 1.36699C0.49415 2.23702 0.00537109 3.41703 0.00537109 4.64744C0.00537109 5.87785 0.49415 7.05787 1.36418 7.9279C2.23421 8.79793 3.41423 9.28671 4.64463 9.28671ZM4.64463 2.05491H27.3579C28.0455 2.05491 28.7049 2.32806 29.1911 2.81425C29.6773 3.30045 29.9504 3.95986 29.9504 4.64744C29.9504 5.33502 29.6773 5.99445 29.1911 6.48064C28.7049 6.96684 28.0455 7.23997 27.3579 7.23997H4.64463C3.95705 7.23997 3.29763 6.96684 2.81144 6.48064C2.32524 5.99445 2.0521 5.33502 2.0521 4.64744C2.0521 3.95986 2.32524 3.30045 2.81144 2.81425C3.29763 2.32806 3.95705 2.05491 4.64463 2.05491Z"/>
<path d="M27.3579 22.1129H4.64463C3.41423 22.1129 2.23421 22.6017 1.36418 23.4717C0.49415 24.3418 0.00537109 25.5218 0.00537109 26.7522C0.00537109 27.9826 0.49415 29.1626 1.36418 30.0326C2.23421 30.9027 3.41423 31.3914 4.64463 31.3914H27.3579C28.5883 31.3914 29.7683 30.9027 30.6384 30.0326C31.5084 29.1626 31.9972 27.9826 31.9972 26.7522C31.9972 25.5218 31.5084 24.3418 30.6384 23.4717C29.7683 22.6017 28.5883 22.1129 27.3579 22.1129ZM27.3579 29.3474H4.64463C3.95705 29.3474 3.29763 29.0743 2.81144 28.5881C2.32524 28.1019 2.0521 27.4425 2.0521 26.7549C2.0521 26.0673 2.32524 25.4079 2.81144 24.9217C3.29763 24.4355 3.95705 24.1624 4.64463 24.1624H27.3579C28.0455 24.1624 28.7049 24.4355 29.1911 24.9217C29.6773 25.4079 29.9504 26.0673 29.9504 26.7549C29.9504 27.4425 29.6773 28.1019 29.1911 28.5881C28.7049 29.0743 28.0455 29.3474 27.3579 29.3474Z" />
<path d="M27.3579 11.0578H4.64463C3.41423 11.0578 2.23421 11.5466 1.36418 12.4166C0.49415 13.2866 0.00537109 14.4667 0.00537109 15.6971C0.00537109 16.9275 0.49415 18.1075 1.36418 18.9775C2.23421 19.8475 3.41423 20.3363 4.64463 20.3363H27.3579C28.5883 20.3363 29.7683 19.8475 30.6384 18.9775C31.5084 18.1075 31.9972 16.9275 31.9972 15.6971C31.9972 14.4667 31.5084 13.2866 30.6384 12.4166C29.7683 11.5466 28.5883 11.0578 27.3579 11.0578ZM27.3579 18.2896H4.64463C3.95705 18.2896 3.29763 18.0165 2.81144 17.5303C2.32524 17.0441 2.0521 16.3846 2.0521 15.6971C2.0521 15.0095 2.32524 14.3501 2.81144 13.8639C3.29763 13.3777 3.95705 13.1045 4.64463 13.1045H27.3579C28.0455 13.1045 28.7049 13.3777 29.1911 13.8639C29.6773 14.3501 29.9504 15.0095 29.9504 15.6971C29.9504 16.3846 29.6773 17.0441 29.1911 17.5303C28.7049 18.0165 28.0455 18.2896 27.3579 18.2896Z" />
<path d="M6.473 5.95466C7.19644 5.95466 7.78291 5.36819 7.78291 4.64475C7.78291 3.92131 7.19644 3.33484 6.473 3.33484C5.74955 3.33484 5.16309 3.92131 5.16309 4.64475C5.16309 5.36819 5.74955 5.95466 6.473 5.95466Z" />
<path d="M10.8177 5.95466C11.5412 5.95466 12.1276 5.36819 12.1276 4.64475C12.1276 3.92131 11.5412 3.33484 10.8177 3.33484C10.0943 3.33484 9.50781 3.92131 9.50781 4.64475C9.50781 5.36819 10.0943 5.95466 10.8177 5.95466Z" />
<path d="M6.473 28.0675C7.19644 28.0675 7.78291 27.481 7.78291 26.7576C7.78291 26.0342 7.19644 25.4477 6.473 25.4477C5.74955 25.4477 5.16309 26.0342 5.16309 26.7576C5.16309 27.481 5.74955 28.0675 6.473 28.0675Z" />
<path d="M10.8177 28.0675C11.5412 28.0675 12.1276 27.481 12.1276 26.7576C12.1276 26.0342 11.5412 25.4477 10.8177 25.4477C10.0943 25.4477 9.50781 26.0342 9.50781 26.7576C9.50781 27.481 10.0943 28.0675 10.8177 28.0675Z" />
<path d="M6.47307 14.3899C6.21323 14.3894 5.95907 14.4659 5.74279 14.61C5.52651 14.754 5.35785 14.959 5.25816 15.1989C5.15847 15.4389 5.13224 15.7031 5.1828 15.9579C5.23337 16.2128 5.35844 16.447 5.54218 16.6307C5.72592 16.8144 5.96005 16.9395 6.21493 16.9901C6.46981 17.0406 6.73397 17.0144 6.97393 16.9147C7.21389 16.815 7.41887 16.6464 7.5629 16.4301C7.70693 16.2138 7.78354 15.9597 7.783 15.6998C7.783 15.3524 7.64499 15.0192 7.39933 14.7736C7.15368 14.5279 6.82048 14.3899 6.47307 14.3899Z"/>
<path d="M10.8202 14.3899C10.5604 14.3894 10.3062 14.4659 10.09 14.61C9.87368 14.754 9.70501 14.959 9.60533 15.1989C9.50564 15.4389 9.47941 15.7031 9.52997 15.9579C9.58053 16.2128 9.70561 16.447 9.88935 16.6307C10.0731 16.8144 10.3072 16.9395 10.5621 16.9901C10.817 17.0406 11.0812 17.0144 11.3211 16.9147C11.5611 16.815 11.7661 16.6464 11.9101 16.4301C12.0541 16.2138 12.1307 15.9597 12.1302 15.6998C12.1302 15.3524 11.9922 15.0192 11.7465 14.7736C11.5008 14.5279 11.1677 14.3899 10.8202 14.3899Z"/>
</g>
</svg>
