<?xml version="1.0" encoding="utf-8"?>
<!-- Generator: Adobe Illustrator 25.4.1, SVG Export Plug-In . SVG Version: 6.00 Build 0)  -->
<svg version="1.1" id="Calque_1" xmlns="http://www.w3.org/2000/svg" xmlns:xlink="http://www.w3.org/1999/xlink" x="0px" y="0px"
	 viewBox="0 0 23.1 22.2" style="enable-background:new 0 0 23.1 22.2;" xml:space="preserve">
<g>
	<g>
		<g>
			<path d="M22,14.6l-2,1.9L15.3,12c-0.3-0.3-0.7-0.3-1,0l-1.9,1.8c-0.3,0.3-0.3,0.7,0,0.9l4.7,4.5l-2,1.9c-0.4,0.4-0.1,1.1,0.5,1.1
				h6.8c0.4,0,0.7-0.3,0.7-0.6v-6.5C23.1,14.5,22.4,14.2,22,14.6z"/>
		</g>
	</g>
	<g>
		<g>
			<path d="M10.7,7.5L6,3l2-1.9C8.4,0.7,8.1,0,7.5,0H0.7C0.3,0,0,0.3,0,0.6v6.5C0,7.7,0.7,8,1.2,7.6l2-1.9l4.7,4.5
				c0.3,0.3,0.7,0.3,1,0l1.9-1.8C10.9,8.2,10.9,7.8,10.7,7.5z"/>
		</g>
	</g>
</g>
</svg>
