<?xml version="1.0" encoding="UTF-8"?>
<svg id="Calque_1" xmlns="http://www.w3.org/2000/svg" viewBox="0 0 32 32">
    <path d="M8.25,6.36h15.81c1.47,0,2.67,1.2,2.67,2.67v10.87c0,1.47-1.2,2.67-2.67,2.67H15.63l-.66,.66-1.48,1.48v-2.14h-5.23c-1.47,0-2.67-1.2-2.67-2.67V9.03c0-1.47,1.2-2.67,2.67-2.67m0-2.27c-2.72,0-4.94,2.22-4.94,4.94v10.87c0,2.72,2.22,4.94,4.94,4.94h2.96v2.96c0,.4,.24,.76,.61,.91,.12,.05,.25,.08,.38,.08,.26,0,.51-.1,.7-.29l3.66-3.66h7.49c2.72,0,4.94-2.22,4.94-4.94V9.03c0-2.72-2.22-4.94-4.94-4.94H8.25Z" />
    <g>
        <path d="M16.96,18.75c.23,.23,.36,.54,.36,.86,0,.67-.55,1.22-1.22,1.22s-1.22-.55-1.22-1.22,.55-1.22,1.22-1.22h0c.32,0,.63,.13,.86,.36Z" />
        <path d="M19.96,11.91c0,1.67-1.07,3.14-2.64,3.66v.74c0,.67-.55,1.22-1.22,1.22s-1.22-.55-1.22-1.22v-1.76c0-.67,.55-1.22,1.22-1.22,.78,0,1.42-.64,1.42-1.42s-.64-1.42-1.42-1.42-1.42,.64-1.42,1.42c0,.67-.55,1.22-1.22,1.22s-1.22-.55-1.22-1.22c0-2.12,1.73-3.85,3.85-3.85s3.85,1.73,3.85,3.85Z" />
    </g>
</svg>