<svg viewBox="0 0 30 30" xmlns="http://www.w3.org/2000/svg">
    <path fill-rule="evenodd" clip-rule="evenodd"
        d="M15 2.72727C8.22197 2.72727 2.72727 8.22197 2.72727 15C2.72727 21.778 8.22197 27.2727 15 27.2727C21.778 27.2727 27.2727 21.778 27.2727 15C27.2727 8.22197 21.778 2.72727 15 2.72727ZM0 15C0 6.71574 6.71574 0 15 0C23.2843 0 30 6.71574 30 15C30 23.2843 23.2843 30 15 30C6.71574 30 0 23.2843 0 15ZM21.6859 10.1594C22.2185 10.6919 22.2185 11.5553 21.6859 12.0879L13.9332 19.8406C13.4007 20.3731 12.5373 20.3731 12.0047 19.8406L8.31407 16.15C7.78153 15.6175 7.78152 14.7541 8.31405 14.2215C8.84658 13.689 9.70999 13.689 10.2425 14.2215L12.9689 16.9479L19.7575 10.1594C20.29 9.62687 21.1534 9.62687 21.6859 10.1594Z" />
</svg>