<?xml version="1.0" encoding="utf-8"?>
<!-- Generator: Adobe Illustrator 25.4.1, SVG Export Plug-In . SVG Version: 6.00 Build 0)  -->
<svg version="1.1" xmlns="http://www.w3.org/2000/svg" xmlns:xlink="http://www.w3.org/1999/xlink" x="0px" y="0px"
	viewBox="0 0 22.7 21.8" style="enable-background:new 0 0 22.7 21.8;" xml:space="preserve">
	<path d="M20.1,0H2.6C1.2,0,0,1.2,0,2.6v12.6c0,1.4,1.2,2.6,2.6,2.6h6c-0.3,1.4-0.8,2.5-1.1,2.5H5.6v1.5h11.6v-1.4h-2
	c-0.4,0-0.9-1.2-1.1-2.5h6c1.4,0,2.6-1.2,2.6-2.6V2.7C22.7,1.2,21.5,0,20.1,0z M2.6,1.4h17.5c0.7,0,1.3,0.6,1.3,1.3v10h-20v-10
	C1.4,2,2,1.4,2.6,1.4z M13.5,20.4H9.2c0.4-0.8,0.7-1.8,0.8-2.5h2.7C12.9,18.6,13.1,19.6,13.5,20.4z M20.1,16.5H2.6
	c-0.7,0-1.3-0.6-1.3-1.3v-1.3h20v1.3C21.4,16,20.8,16.5,20.1,16.5z" />
</svg>