<svg viewBox="0 0 30 30" xmlns="http://www.w3.org/2000/svg">
<g clip-path="url(#clip0_1661_16632)">
<path d="M26.536 24.6408H3.45098C2.53454 24.6372 1.65679 24.2544 1.01 23.5761C0.363221 22.8978 -2.7122e-05 21.9794 -2.04466e-05 21.0221V3.61878C-0.00176101 3.14421 0.0862187 2.67392 0.258861 2.23495C0.431504 1.79598 0.685516 1.39691 1.00613 1.0607C1.32675 0.72448 1.70766 0.4577 2.1272 0.27567C2.54674 0.0936399 2.99669 -3.48325e-06 3.45098 0H26.536C26.9903 -3.48325e-06 27.4401 0.0936399 27.8596 0.27567C28.2791 0.4577 28.6602 0.72448 28.9808 1.0607C29.3014 1.39691 29.5553 1.79598 29.7279 2.23495C29.9006 2.67392 29.9886 3.14421 29.9868 3.61878V21.0221C29.9868 21.9794 29.6237 22.8978 28.977 23.5761C28.3302 24.2544 27.4524 24.6372 26.536 24.6408ZM3.45098 1.94748C3.00915 1.94748 2.58536 2.1308 2.27294 2.45717C1.96052 2.78355 1.78504 3.22626 1.78504 3.68782V21.0911C1.78504 21.5527 1.96052 21.9954 2.27294 22.3218C2.58536 22.6481 3.00915 22.8314 3.45098 22.8314H26.536C26.7541 22.8315 26.9702 22.7864 27.1716 22.6988C27.3729 22.6111 27.5557 22.4827 27.7093 22.3209C27.863 22.1591 27.9844 21.9672 28.0667 21.7561C28.149 21.545 28.1904 21.319 28.1887 21.0911V3.68782C28.1904 3.45993 28.149 3.23391 28.0667 3.02284C27.9844 2.81177 27.863 2.6198 27.7093 2.45801C27.5557 2.29623 27.3729 2.1678 27.1716 2.08017C26.9702 1.99254 26.7541 1.94747 26.536 1.94748H3.45098Z"/>
<path d="M22.6865 28.1221H7.30963V30.0005H22.6865V28.1221Z"/>
<path d="M29.0956 17.4033H0.893707V19.2818H29.0956V17.4033Z"/>
<path d="M20.1266 29.9998C17.6012 29.9998 16.8476 25.2623 16.6625 23.812L18.4474 23.5771C18.725 25.87 19.558 28.1214 20.1266 28.1214V29.9998Z"/>
<path d="M9.86563 30V28.1906C10.4342 28.1906 11.2672 25.9393 11.5448 23.6465L13.3165 23.8813C13.1446 25.2625 12.391 30 9.86563 30Z"/>
</g>
</svg>
