<svg viewBox="0 0 34 43" xmlns="http://www.w3.org/2000/svg">
<path d="M33.3007 23.4963C34.3423 22.0608 34.222 20.0145 32.9384 18.7205L15.5326 1.07163C14.1153 -0.35721 11.7888 -0.35721 10.3716 1.07163L8.44887 2.90755C8.24697 3.21354 8.24697 3.82552 8.34725 4.1315C8.99973 4.93624 9.12943 6.0537 8.74302 6.99862C8.63472 7.26147 8.48764 7.51085 8.29912 7.73596C8.22023 7.83031 8.136 7.92197 8.04374 8.00824C7.03159 9.02865 5.31213 9.23219 4.09675 8.31423C3.89485 8.00824 3.28783 8.11069 2.98298 8.41668L1.0603 10.355C-0.223278 11.6491 -0.343614 13.6953 0.697953 15.1309C-0.237986 16.4209 -0.233975 18.2042 0.707313 19.4915C-0.343614 20.9271 -0.22729 22.9814 1.05896 24.2795L18.565 41.9284C19.9823 43.3572 22.3088 43.3572 23.7261 41.9284L32.9344 32.645C34.222 31.3469 34.3369 29.2939 33.286 27.857C34.2286 26.5697 34.2327 24.7863 33.2954 23.4963H33.3007ZM1.96147 18.2123C1.84247 17.9535 1.77161 17.6556 1.77161 17.3564C1.77161 17.0571 1.84381 16.7606 1.98153 16.4842L1.98821 16.491L2.84125 17.351L4.78132 19.3069L17.9473 32.5802L17.0515 33.4753L3.15413 19.5616L2.27702 18.6828C2.15133 18.556 2.04571 18.3943 1.96147 18.2123ZM18.3671 34.5968L19.2269 33.7301C19.2269 33.7301 19.2362 33.7368 19.2416 33.7395C19.6962 34.0199 20.2003 34.1897 20.715 34.2517C21.79 34.3798 22.9118 34.032 23.7301 33.2071L31.1655 25.711L32.2672 24.6003L32.2739 24.5936C32.5533 25.2837 32.4931 26.0359 32.0586 26.5926C31.9891 26.6816 31.9129 26.7665 31.8246 26.8433L31.1026 27.5712L22.6163 36.1267C22.0681 36.6794 21.3341 36.856 20.6976 36.6605C20.3941 36.5675 20.112 36.3896 19.8834 36.1267L19.3499 35.5889L18.3645 34.5955L18.3671 34.5968ZM30.4087 18.1072L31.9262 19.6371C32.5506 20.4472 32.6242 21.4933 32.0773 22.2198C32.0038 22.3169 31.9209 22.4099 31.8246 22.4934L31.1227 23.2011L29.9033 24.4305L28.7801 25.5628L22.615 31.7782C22.0574 32.3403 21.3087 32.5155 20.6642 32.3026C20.3727 32.2069 20.104 32.0316 19.8834 31.7782L19.3298 31.2202L18.3658 30.2483L25.8868 22.666L27.0286 21.5148L28.0849 20.4499L29.212 19.3136L30.4087 18.1072ZM2.3773 11.579L3.79458 10.1502C5.44317 10.9805 7.42067 10.8066 8.90748 9.70668C9.06391 9.59075 9.21634 9.46943 9.36074 9.33329C9.70303 8.98821 9.98515 8.59056 10.2031 8.15787C10.2338 8.09586 10.2646 8.03386 10.2927 7.9705C10.6844 7.10511 10.8248 6.12245 10.6697 5.17348C10.5882 4.67204 10.4237 4.18003 10.1697 3.72038L11.5869 2.29154C12.3959 1.47602 13.6112 1.47602 14.3185 2.29154L29.093 17.0841L28.0474 18.1301L26.9083 19.2691L25.856 20.3219L24.7021 21.4757L17.0515 29.1241L7.23348 19.2974L5.61698 17.6785L3.13273 15.1915L2.27702 14.3342C2.14465 14.2008 2.03367 14.0282 1.9481 13.8355C1.83713 13.5834 1.77027 13.2963 1.77027 13.0078C1.77027 12.4983 1.97217 11.9874 2.3773 11.579ZM2.27568 23.0555C1.97217 22.7496 1.77027 22.24 1.77027 21.7292C1.77027 21.4259 1.84381 21.1226 1.98821 20.8408L2.00158 20.8543L17.9593 36.9423L17.0515 37.8494L2.27702 23.0555H2.27568ZM31.8246 31.2175L22.6163 40.5009C21.8074 41.3164 20.592 41.3164 19.8847 40.5009L18.3671 38.9709L19.2416 38.0894C19.2496 38.0948 19.259 38.1002 19.267 38.1055C20.6682 38.9521 22.5267 38.7687 23.7301 37.5569L32.2552 28.9623L32.2672 28.9502C32.6001 29.7549 32.4704 30.6486 31.8246 31.2175Z" />
</svg>
