<svg viewBox="0 0 18 18" xmlns="http://www.w3.org/2000/svg">
    <path
        d="M1.63827 3.44576C1.63827 2.1073 2.3075 1.43807 3.64596 1.43807H6.99211C7.39931 1.43807 7.66135 1.17603 7.66135 0.76884C7.66135 0.361647 7.39931 0.0996094 6.99211 0.0996094H3.64596C1.63827 0.0996094 0.299805 1.43807 0.299805 3.44576V14.1535C0.299805 16.1611 1.63827 17.4996 3.64596 17.4996H14.3537C16.3613 17.4996 17.6998 16.1611 17.6998 14.1535V10.8073C17.6998 10.4001 17.4378 10.1381 17.0306 10.1381C16.6234 10.1381 16.3613 10.4001 16.3613 10.8073V14.1535C16.3613 15.4919 15.6921 16.1611 14.3537 16.1611H3.64596C2.3075 16.1611 1.63827 15.4919 1.63827 14.1535V3.44576Z" />
    <path fill-rule="evenodd" clip-rule="evenodd"
        d="M15.6462 0.56557C15.1006 0.0447918 14.2128 0.043886 13.6668 0.565127L5.66487 8.20334C5.58556 8.27905 5.52777 8.3728 5.49695 8.47574L4.45058 11.9715C4.38473 12.1915 4.44901 12.4283 4.6185 12.5901C4.78798 12.7518 5.03603 12.8132 5.2665 12.7503L8.92872 11.7515C9.03657 11.7221 9.13479 11.667 9.2141 11.5913L15.1882 5.88874L15.19 5.887L15.1918 5.88526L17.2161 3.95305C17.7621 3.43182 17.7611 2.5844 17.2156 2.06365L15.6462 0.56557ZM7.06493 8.64882L12.1075 3.83551L13.7899 5.44152L8.74741 10.2548L7.06493 8.64882ZM13.0408 2.94456L14.7233 4.55057L16.2827 3.06212C16.3125 3.03365 16.313 2.98401 16.2822 2.9546L14.7128 1.4565C14.682 1.42712 14.63 1.42762 14.6002 1.45606L13.0408 2.94456ZM6.45801 9.85139L7.48758 10.8342L6.04617 11.2273L6.45801 9.85139Z" />
</svg>