<svg viewBox="0 0 20 20" xmlns="http://www.w3.org/2000/svg">
    <path
        d="M0.938802 19.0612C2.19054 20.3129 4.2198 20.3129 5.4694 19.0612L10 14.5306L14.5306 19.0612C15.7823 20.3129 17.8095 20.3129 19.0612 19.0612C20.3129 17.8095 20.3129 15.7823 19.0612 14.5306L14.5306 10L19.0612 5.4694C20.3129 4.21767 20.3129 2.19054 19.0612 0.938802C17.8095 -0.312934 15.7802 -0.312934 14.5306 0.938802L10 5.4694L5.4694 0.938802C4.21767 -0.312934 2.1884 -0.312934 0.938802 0.938802C-0.310798 2.19054 -0.312934 4.21767 0.938802 5.4694L5.4694 10L0.938802 14.5306C-0.312934 15.7823 -0.312934 17.8116 0.938802 19.0612Z" />
</svg>