<?xml version="1.0" encoding="utf-8"?>
<!-- Generator: Adobe Illustrator 25.3.1, SVG Export Plug-In . SVG Version: 6.00 Build 0)  -->
<svg version="1.1" id="Calque_1" xmlns="http://www.w3.org/2000/svg" xmlns:xlink="http://www.w3.org/1999/xlink" x="0px" y="0px"
	 viewBox="0 0 50 50" style="enable-background:new 0 0 50 50;" xml:space="preserve">
<g>
	<path d="M25.2,4.4L33,8.9c0.6,0.3,1,1,1,1.7v7.9c0,0.7-0.4,1.3-1,1.7l-6.9,4c-0.6,0.3-1.3,0.3-1.9,0l-6.9-4c-0.6-0.3-1-1-1-1.7
		v-7.9c0-0.7,0.4-1.3,1-1.7L25.2,4.4 M25.2,2.4c-0.3,0-0.7,0.1-1,0.3l-7.8,4.5c-1.2,0.7-2,2-2,3.4v7.9c0,1.4,0.8,2.7,2,3.4l7.8,4.5
		c0.3,0.2,0.7,0.3,1,0.3s0.7-0.1,1-0.3L34,22c1.2-0.7,2-2,2-3.4v-7.9c0-1.4-0.8-2.7-2-3.4l-7.8-4.5C25.9,2.5,25.5,2.4,25.2,2.4
		L25.2,2.4z"/>
	<g>
		<path d="M37.4,25.2l7.8,4.5c0.6,0.3,1,1,1,1.7v7.9c0,0.7-0.4,1.3-1,1.7l-6.9,4c-0.6,0.3-1.3,0.3-1.9,0l-6.9-4c-0.6-0.3-1-1-1-1.7
			v-7.9c0-0.7,0.4-1.3,1-1.7L37.4,25.2 M37.4,23.2c-0.3,0-0.7,0.1-1,0.3L28.6,28c-1.2,0.7-2,2-2,3.4v7.9c0,1.4,0.8,2.7,2,3.4
			l7.8,4.5c0.3,0.2,0.7,0.3,1,0.3s0.7-0.1,1-0.3l7.8-4.5c1.2-0.7,2-2,2-3.4v-7.9c0-1.4-0.8-2.7-2-3.4l-7.8-4.5
			C38.1,23.3,37.8,23.2,37.4,23.2L37.4,23.2z"/>
		<path d="M12.9,25.2l7.8,4.5c0.6,0.3,1,1,1,1.7v7.9c0,0.7-0.4,1.3-1,1.7l-6.9,4c-0.6,0.3-1.3,0.3-1.9,0l-6.9-4c-0.6-0.3-1-1-1-1.7
			v-7.9c0-0.7,0.4-1.3,1-1.7L12.9,25.2 M12.9,23.2c-0.3,0-0.7,0.1-1,0.3L4.1,28c-1.2,0.7-2,2-2,3.4v7.9c0,1.4,0.8,2.7,2,3.4l7.8,4.5
			c0.3,0.2,0.7,0.3,1,0.3s0.7-0.1,1-0.3l7.8-4.5c1.2-0.7,2-2,2-3.4v-7.9c0-1.4-0.8-2.7-2-3.4l-7.8-4.5
			C13.6,23.3,13.3,23.2,12.9,23.2L12.9,23.2z"/>
	</g>
</g>
</svg>
