<svg width="40" height="27" viewBox="0 0 40 27" fill="none" xmlns="http://www.w3.org/2000/svg">
<path d="M14.8828 15.873C14.0469 15.7285 12.7421 15.6046 10.7645 15.584C8.78695 15.584 7.50255 15.7078 6.64628 15.873C6.25892 15.9555 5.54536 16.2032 5.54536 16.9051V21.2193C5.54536 21.3844 5.54536 21.5289 5.58614 21.6528C5.79001 22.3753 6.91132 22.4785 6.91132 22.4785C7.07442 22.4785 7.27829 22.4785 7.48216 22.4785C8.21611 22.4991 9.11315 22.5198 9.72477 22.6849C10.1325 22.7881 10.4791 22.9532 10.7645 23.1184C11.05 22.9532 11.3965 22.7881 11.8043 22.6849C12.3955 22.5404 13.3129 22.5198 14.0469 22.4785C14.2508 22.4785 14.4546 22.4785 14.6177 22.4785C14.6177 22.4785 15.739 22.3753 15.9429 21.6528C15.9633 21.5289 15.9837 21.3844 15.9837 21.2193V16.9051C15.9837 16.2239 15.2701 15.9555 14.8828 15.873ZM9.31703 19.5679C9.48012 19.7331 9.48012 19.9808 9.31703 20.1459C9.23548 20.2285 9.13354 20.2698 9.0316 20.2698C8.92967 20.2698 8.82773 20.2285 8.74618 20.1459L7.46178 18.8455C7.29868 18.6803 7.29868 18.4326 7.46178 18.2675L8.74618 16.967C8.90928 16.8019 9.15393 16.8019 9.31703 16.967C9.48012 17.1321 9.48012 17.4005 9.31703 17.545L8.31804 18.5565L9.31703 19.5679ZM14.1488 18.8661L12.8644 20.1666C12.8644 20.1666 12.6809 20.2904 12.579 20.2904C12.4771 20.2904 12.3751 20.2491 12.2936 20.1666C12.1305 20.0014 12.1305 19.7331 12.2936 19.5886L13.2926 18.5771L12.2936 17.5656C12.1305 17.4005 12.1305 17.1321 12.2936 16.9877C12.4567 16.8225 12.7217 16.8225 12.8644 16.9877L14.1488 18.2881C14.3119 18.4532 14.3119 18.701 14.1488 18.8661Z" />
<path d="M36.6565 3.38532C36.6565 1.52752 35.1682 0 33.3333 0H3.34353C1.48828 0 0 1.50688 0 3.38532V6.75H36.6565V3.38532Z" />
<path d="M0 11.8078V23.6151C0 25.4729 1.48828 26.9798 3.34353 26.9798H24.7095C22.8338 24.9981 21.6718 22.3353 21.6718 19.3834C21.6718 16.4316 22.8338 13.7688 24.7095 11.7871H0V11.8078ZM17.1458 21.0142C17.1458 22.5211 16.4118 23.161 15.841 23.4293C15.5352 23.5532 15.1886 23.6151 14.7808 23.6357C14.5974 23.6357 14.3527 23.6357 14.1081 23.6564C13.476 23.6564 12.5994 23.6977 12.1101 23.8215C11.7023 23.9247 11.3761 24.0899 11.1519 24.255L10.9888 24.3995H10.5607L10.3976 24.255C10.1733 24.0899 9.86748 23.9247 9.43935 23.8215C8.97044 23.6977 8.09378 23.677 7.44139 23.6564C7.19674 23.6564 6.95209 23.6564 6.7686 23.6357C6.36086 23.6151 6.01427 23.5325 5.70846 23.4293C5.13761 23.161 4.40367 22.5211 4.40367 21.0142V17.3605C4.40367 15.4614 5.56575 14.9247 6.09582 14.7802C7.01325 14.5944 8.46076 14.4087 10.7238 14.4087H10.8053C13.0683 14.4087 14.5158 14.5738 15.4332 14.7802C15.9633 14.9247 17.1254 15.4614 17.1254 17.3605V21.0142H17.1458Z" />
<path d="M32.4975 11.8066C28.3588 11.8066 24.9949 15.2126 24.9949 19.403C24.9949 23.5933 28.3588 26.9993 32.4975 26.9993C36.6361 26.9993 40 23.5933 40 19.403C40 15.2126 36.6361 11.8066 32.4975 11.8066ZM31.7227 22.747L28.9093 19.981L30.0714 18.8043L31.7227 20.3938L35.2497 16.7401L36.4118 17.9167L31.7227 22.747Z" />
</svg>
