<?xml version="1.0" encoding="utf-8"?>
<!-- Generator: Adobe Illustrator 25.3.1, SVG Export Plug-In . SVG Version: 6.00 Build 0)  -->
<svg version="1.1" id="Calque_1" xmlns="http://www.w3.org/2000/svg" xmlns:xlink="http://www.w3.org/1999/xlink" x="0px" y="0px"
	 viewBox="0 0 50 50" style="enable-background:new 0 0 50 50;" xml:space="preserve">
<g>
	<g>
		<path d="M25,31.6c-1,0-1.8,0.8-1.8,1.8c0,1,0.8,1.8,1.8,1.8c0.9,0,1.8-0.8,1.8-1.8C26.8,32.4,26,31.6,25,31.6z"/>
		<path d="M41.7,38c1.1-1.9,1.1-4.3,0-6.2L30.4,12.3c-1.1-2-3.1-3.1-5.4-3.1s-4.3,1.2-5.4,3.1L8.3,31.8c-1.1,2-1.1,4.3,0,6.3
			c1.1,1.9,3.1,3.1,5.4,3.1h22.5C38.5,41.1,40.5,40,41.7,38z M39.2,36.6c-0.6,1.1-1.7,1.7-3,1.7H13.7c-1.2,0-2.3-0.6-2.9-1.7
			c-0.6-1.1-0.6-2.4,0-3.4l11.3-19.5c0.6-1.1,1.7-1.7,2.9-1.7c1.2,0,2.3,0.6,2.9,1.7l11.3,19.5C39.8,34.3,39.8,35.5,39.2,36.6z"/>
		<path d="M24.6,19c-0.9,0.2-1.4,1-1.4,2c0,0.6,0.1,1.1,0.1,1.7c0.1,2.2,0.2,4.3,0.4,6.5c0,0.7,0.6,1.3,1.3,1.3
			c0.7,0,1.3-0.6,1.3-1.3c0-0.4,0-0.9,0-1.3c0.1-1.4,0.2-2.8,0.2-4.2c0-0.9,0.1-1.8,0.2-2.7c0-0.3,0-0.6-0.2-0.9
			C26.3,19.2,25.4,18.8,24.6,19z"/>
	</g>
</g>
</svg>
