<svg viewBox="0 0 18 18" fill="none" xmlns="http://www.w3.org/2000/svg">
<path d="M9.9375 5.25C9.9375 5.7675 9.5175 6.1875 9 6.1875C8.4825 6.1875 8.0625 5.7675 8.0625 5.25C8.0625 4.7325 8.4825 4.3125 9 4.3125C9.5175 4.3125 9.9375 4.7325 9.9375 5.25ZM18 9C18 13.9703 13.9703 18 9 18C4.02975 18 0 13.9703 0 9C0 4.02975 4.02975 0 9 0C13.9703 0 18 4.02975 18 9ZM16.5 9C16.5 4.8645 13.1355 1.5 9 1.5C4.8645 1.5 1.5 4.8645 1.5 9C1.5 13.1355 4.8645 16.5 9 16.5C13.1355 16.5 16.5 13.1355 16.5 9ZM6.75 7.5V9H8.25V13.5H9.75V7.5H6.75Z" fill="#7DAAB7"/>
</svg>
