<?xml version="1.0" encoding="UTF-8"?>
<svg id="Calque_1" xmlns="http://www.w3.org/2000/svg" viewBox="0 0 32 32">
    <path d="M18.51,22.12c-.87,0-1.57,.7-1.57,1.57v1.07c0,.71-.58,1.29-1.29,1.29H6.11c-.71,0-1.29-.58-1.29-1.29V7.14c0-.71,.58-1.29,1.29-1.29H15.65c.71,0,1.29,.58,1.29,1.29v1.46c0,.87,.7,1.57,1.57,1.57s1.57-.7,1.57-1.57v-1.46c0-2.44-1.99-4.43-4.43-4.43H6.11C3.67,2.71,1.68,4.7,1.68,7.14V24.76c0,2.44,1.99,4.43,4.43,4.43H15.65c2.44,0,4.43-1.99,4.43-4.43v-1.07c0-.87-.7-1.57-1.57-1.57Z" />
    <path d="M24.99,10.32c-.31-.29-.71-.43-1.13-.42-.42,.01-.81,.19-1.1,.5l.1,.1h0l-.1-.1c-.32,.34-.47,.8-.41,1.27,.05,.38,.25,.73,.53,.99l2.15,2.01H13.81c-.82,0-1.55,.6-1.63,1.41-.09,.94,.65,1.73,1.56,1.73h11.29l-2.15,2.01c-.28,.26-.48,.61-.53,.99-.06,.47,.09,.93,.41,1.27,.31,.33,.73,.5,1.15,.5,.39,0,.77-.14,1.07-.42l4.88-4.58c.77-.72,.77-1.95,0-2.67l-4.89-4.58Z" />
</svg>