<?xml version="1.0" encoding="utf-8"?>
<!-- Generator: Adobe Illustrator 25.4.1, SVG Export Plug-In . SVG Version: 6.00 Build 0)  -->
<svg version="1.1" xmlns="http://www.w3.org/2000/svg" xmlns:xlink="http://www.w3.org/1999/xlink" x="0px" y="0px"
	viewBox="0 0 35.3 38.2" style="enable-background:new 0 0 35.3 38.2;" xml:space="preserve">
	<g>
		<path d="M18,25.4C18,25.5,17.9,25.5,18,25.4c-0.1,0.1-0.1,0.1-0.1,0.1l0,0l0,0h-0.1l0,0l0,0c-0.1,0-0.1,0-0.2,0l0,0l0,0
		c-0.1,0-0.1-0.1-0.1-0.1l0,0c-0.2-0.2-0.6-0.3-1.2-0.5v1.1c0,0.1,0.5,0.5,1.5,0.5s1.5-0.4,1.5-0.5v-1.1C18.6,25,18.2,25.1,18,25.4
		L18,25.4z" />
		<path d="M8.8,25.4c-0.1,0.1-0.4,0.2-0.6,0.1C8,25.4,7.9,25.2,7.9,25V13l-1,0.3v13.3l8.2-0.9v-0.9c-0.7-0.1-1.5-0.2-2-0.2
		C11.4,24.6,9.4,24.8,8.8,25.4z" />
		<path
			d="M17.1,12c-0.7-0.4-2.8-0.8-4.1-0.8c-1.5,0-3.4,0.2-4.1,0.7V24c1.3-0.6,3.4-0.6,4.1-0.6c0.8,0,2.8,0.2,4.1,0.7V12z" />
		<path d="M27.3,25.1c0,0.2-0.1,0.4-0.3,0.5c-0.1,0-0.1,0-0.2,0c-0.1,0-0.3-0.1-0.4-0.1c-0.4-0.4-2.9-0.9-4.2-0.9c-0.7,0-1.4,0-2,0.1
		v0.9l8.2,0.9V13.1l-1-0.3L27.3,25.1L27.3,25.1z" />
		<path
			d="M26.3,24.1V12c-0.7-0.4-2.8-0.8-4.1-0.8c-1.5,0-3.4,0.2-4.1,0.7V24c1.3-0.6,3.4-0.6,4.1-0.6C23,23.5,25.1,23.8,26.3,24.1z" />
		<path d="M31.3,6.6l-9.6-5.5c-2.5-1.4-5.6-1.4-8.1,0L4,6.6c-2.5,1.4-4,4.1-4,7v11.1c0,2.9,1.5,5.6,4,7l9.6,5.5
		c2.5,1.4,5.6,1.4,8.1,0l9.6-5.5c2.5-1.4,4-4.1,4-7V13.6C35.3,10.6,33.8,8,31.3,6.6z M29.4,27.1c0,0.1-0.1,0.3-0.2,0.4
		c-0.1,0.1-0.2,0.1-0.3,0.1c0,0,0,0-0.1,0l-8.8-1c-0.4,0.6-1.3,1-2.4,1s-2-0.4-2.4-1l-8.8,1c-0.1,0-0.3,0-0.4-0.1
		c-0.1-0.1-0.2-0.2-0.2-0.4V12.8c0-0.2,0.2-0.4,0.4-0.5l1.7-0.4v-0.1c0-0.1,0.1-0.3,0.1-0.4c1.1-1.1,4.1-1.2,5-1.2s3.4,0.3,4.6,0.9
		c1.3-0.8,3.8-0.9,4.6-0.9c1,0,4.1,0.4,5,1.2c0.1,0.1,0.1,0.2,0.1,0.4v0.1l1.7,0.4c0.2,0.1,0.4,0.3,0.4,0.5
		C29.4,12.8,29.4,27.1,29.4,27.1z" />
	</g>
</svg>