<?xml version="1.0" encoding="utf-8"?>
<!-- Generator: Adobe Illustrator 25.4.1, SVG Export Plug-In . SVG Version: 6.00 Build 0)  -->
<svg version="1.1" id="Calque_1" xmlns="http://www.w3.org/2000/svg" xmlns:xlink="http://www.w3.org/1999/xlink" x="0px" y="0px"
	 viewBox="0 0 31.9 20" style="enable-background:new 0 0 31.9 20;" xml:space="preserve">
		<path d="M20.5,20H4.7C2.1,20,0,17.9,0,15.3c0-2.4,1.7-4.3,4-4.7c0.4-4.4,4.1-8,8.7-8c3.5,0,6.6,2.1,8,5.3c3.3,0,6,2.7,6,6.1
			C26.5,17.3,23.8,20,20.5,20z M4.7,12.1c-1.7,0-3.2,1.4-3.2,3.2c0,1.7,1.4,3.2,3.2,3.2h15.8c2.5,0,4.5-2,4.5-4.5s-2-4.5-4.5-4.5
			c-0.1,0-0.1,0-0.2,0l-0.8,0.1L19.3,9c-1-2.9-3.7-4.8-6.7-4.8c-3.9,0-7.1,3.2-7.1,7.1v0.8C5.5,12.1,4.7,12.1,4.7,12.1z"/>
		<path d="M28.4,16.7l-0.7-1.4c1.5-0.8,2.5-2.3,2.5-4c0-2.5-2-4.5-4.5-4.5c-0.1,0-0.1,0-0.2,0l-0.7,0.1l-0.2-0.6
			c-1-2.9-3.7-4.8-6.7-4.8c-0.7,0-1.5,0.1-2.2,0.4l-0.5-1.5C16.1,0.1,17,0,17.9,0c3.5,0,6.6,2.1,8,5.3c3.3,0,6,2.7,6,6.1
			C31.8,13.6,30.5,15.7,28.4,16.7z"/>

</svg>
