<svg width="18" height="18" viewBox="0 0 18 18" xmlns="http://www.w3.org/2000/svg">
    <path fill-rule="evenodd" clip-rule="evenodd"
        d="M4.72727 1C4.72727 0.447715 5.17499 0 5.72727 0H12.2727C12.825 0 13.2727 0.447715 13.2727 1V3.2H13.3636C13.9159 3.2 14.3636 3.64772 14.3636 4.2V5.12124L17.4804 6.82833C17.8008 7.00383 18 7.34007 18 7.70539V17C18 17.2652 17.8946 17.5196 17.7071 17.7071C17.5196 17.8946 17.2652 18 17 18L1 18C0.447715 18 0 17.5523 0 17V7.70539C0 7.34007 0.199212 7.00382 0.519619 6.82833L3.63636 5.12123V4.2C3.63636 3.64772 4.08408 3.2 4.63636 3.2H4.72727V1ZM6.72727 3.2V2H11.2727V3.20001L6.72727 3.2ZM5.63636 5.71369V16H12.3636L12.3636 5.71369C12.3636 5.71323 12.3636 5.71277 12.3636 5.71231V5.2H12.2769C12.2755 5.20001 12.2741 5.20001 12.2727 5.20001H5.72728C5.72589 5.20001 5.72451 5.20001 5.72313 5.2H5.63636V5.19587C5.58129 5.19085 5.52699 5.18128 5.47396 5.1674M14.3636 16L16 16V8.29785L14.3636 7.40158V16ZM3.63636 16V7.40158L2 8.29784V16H3.63636Z" />
</svg>