<?xml version="1.0" encoding="UTF-8"?>
<svg xmlns="http://www.w3.org/2000/svg" viewBox="0 0 32 32">
    <path
        d="M26.45,22.85c-1-.52-1.42-3.06-1.83-5.51-.68-4.05-1.52-9-5.6-10.72,.28-.49,.44-1.05,.44-1.66,0-1.86-1.51-3.36-3.36-3.36s-3.36,1.51-3.36,3.36c0,.6,.16,1.17,.44,1.65-4.21,1.67-4.71,6.31-5.11,10.1-.36,3.39-.68,5.49-2.18,6.06-.55,.21-.88,.78-.77,1.36,.11,.58,.61,1,1.2,1h5.66c0,2.19,1.85,3.98,4.13,3.98s4.13-1.78,4.13-3.98h5.66c.56,0,1.05-.38,1.19-.93,.13-.55-.12-1.11-.62-1.38ZM16.09,4.05c.51,0,.92,.41,.92,.92s-.41,.92-.92,.92-.92-.41-.92-.92,.41-.92,.92-.92Zm0,22.63c-.93,0-1.68-.69-1.68-1.53h3.36c0,.84-.75,1.53-1.68,1.53Zm-7.1-3.81c.88-1.59,1.11-3.77,1.33-5.91,.49-4.63,1.07-7.72,4.57-8.5,.38-.08,.76-.13,1.14-.13,.02,0,.04,0,.06,0,.04,0,.08,0,.12,0,.37,0,.72,.04,1.06,.12,3.42,.77,4.26,4.33,5.09,9.28,.33,1.98,.63,3.79,1.26,5.15H8.99Z" />
</svg>