<?xml version="1.0" encoding="utf-8"?>
<!-- Generator: Adobe Illustrator 25.3.1, SVG Export Plug-In . SVG Version: 6.00 Build 0)  -->
<svg version="1.1" id="Calque_1" xmlns="http://www.w3.org/2000/svg" xmlns:xlink="http://www.w3.org/1999/xlink" x="0px" y="0px"
	 viewBox="0 0 50 50" style="enable-background:new 0 0 50 50;" xml:space="preserve">
<g>
	<g>
		<path d="M25.2,17.6c-4.1,0-7.5,3.4-7.5,7.5c0,4.1,3.4,7.5,7.5,7.5c4.1,0,7.5-3.4,7.5-7.5C32.7,21,29.3,17.6,25.2,17.6z M25.2,30.9
			c-3.2,0-5.8-2.6-5.8-5.8c0-3.2,2.6-5.8,5.8-5.8c3.2,0,5.8,2.6,5.8,5.8C30.9,28.3,28.4,30.9,25.2,30.9z"/>
		<path d="M27.7,26.4L26,25.2l0-3.3c0-0.5-0.4-0.9-0.9-0.9s-0.9,0.4-0.9,0.9l0,3.7c0,0.3,0.1,0.5,0.4,0.7l2,1.4
			c0.2,0.1,0.3,0.2,0.5,0.2c0.3,0,0.5-0.1,0.7-0.4C28.2,27.2,28.1,26.7,27.7,26.4z"/>
	</g>
</g>
</svg>
