<?xml version="1.0" encoding="utf-8"?>
<!-- Generator: Adobe Illustrator 25.3.1, SVG Export Plug-In . SVG Version: 6.00 Build 0)  -->
<svg version="1.1" id="Calque_1" xmlns="http://www.w3.org/2000/svg" xmlns:xlink="http://www.w3.org/1999/xlink" x="0px" y="0px"
	 viewBox="0 0 50 50" style="enable-background:new 0 0 50 50;" xml:space="preserve">
<g>
	<path d="M32.2,16.3l-3.3,3.5c-0.2,0.2-0.2,0.5,0,0.7l1.4,1.4c0.2,0.2,0.5,0.2,0.7,0l3.3-3.5l1.4,1.4c0.3,0.3,0.8,0.1,0.8-0.4v-5
		c0-0.3-0.2-0.5-0.5-0.5h-4.8c-0.4,0-0.6,0.5-0.3,0.9L32.2,16.3z"/>
	<path d="M36.7,26v-3.6c0-0.7-0.5-1.2-1.2-1.2c-0.7,0-1.2,0.5-1.2,1.2v2.4h-8.4v-8.4h2.4c0.7,0,1.2-0.5,1.2-1.2
		c0-0.7-0.5-1.2-1.2-1.2h-3.6c0,0,0,0,0,0c-0.1,0-0.2,0-0.3,0h-9c-0.9,0-1.7,0.8-1.7,1.7v18.7c0,0.9,0.8,1.7,1.7,1.7H35
		c0.9,0,1.7-0.8,1.7-1.7v-7.7 M17,32.7V17.3h6.4V26c0,0.7,0.5,1.2,1.2,1.2h8.7v5.4H17z"/>
</g>
</svg>
