<svg width="30" height="40" viewBox="0 0 30 40" fill="none" xmlns="http://www.w3.org/2000/svg">
<g clip-path="url(#clip0_1096_9310)">
<path d="M6.03796 20.4301H1.56964C1.35253 20.4491 1.13371 20.424 0.927153 20.3563C0.720591 20.2887 0.530791 20.1799 0.369879 20.0371C0.208966 19.8943 0.0804675 19.7205 -0.00745785 19.5268C-0.0953832 19.3331 -0.140808 19.1237 -0.140808 18.912C-0.140808 18.7003 -0.0953832 18.4909 -0.00745785 18.2972C0.0804675 18.1035 0.208966 17.9297 0.369879 17.7868C0.530791 17.644 0.720591 17.5353 0.927153 17.4677C1.13371 17.4 1.35253 17.3748 1.56964 17.3938H6.03796C6.25508 17.3748 6.47389 17.4 6.68045 17.4677C6.88701 17.5353 7.07681 17.644 7.23773 17.7868C7.39864 17.9297 7.52714 18.1035 7.61506 18.2972C7.70299 18.4909 7.74841 18.7003 7.74841 18.912C7.74841 19.1237 7.70299 19.3331 7.61506 19.5268C7.52714 19.7205 7.39864 19.8943 7.23773 20.0371C7.07681 20.1799 6.88701 20.2887 6.68045 20.3563C6.47389 20.424 6.25508 20.4491 6.03796 20.4301V20.4301Z" fill="#F7284F"/>
<path d="M3.81014 16.091C3.39385 16.091 2.99459 15.9304 2.70023 15.6445C2.40587 15.3587 2.24046 14.971 2.24046 14.5667V1.52429C2.2209 1.31344 2.24681 1.10095 2.31648 0.900354C2.38616 0.699759 2.49807 0.51548 2.64514 0.359215C2.79221 0.202951 2.97119 0.0781272 3.17066 -0.00725817C3.37014 -0.0926436 3.58581 -0.136719 3.80381 -0.136719C4.0218 -0.136719 4.23739 -0.0926436 4.43687 -0.00725817C4.63635 0.0781272 4.81532 0.202951 4.96239 0.359215C5.10946 0.51548 5.22138 0.699759 5.29106 0.900354C5.36073 1.10095 5.38664 1.31344 5.36708 1.52429V14.5667C5.36709 14.9689 5.20342 15.3547 4.91179 15.6402C4.62016 15.9257 4.22423 16.0877 3.81014 16.091Z" fill="#F7284F"/>
<path d="M3.81014 40.0002C3.39604 40.0002 2.99863 39.8413 2.70463 39.5581C2.41063 39.2749 2.2438 38.8903 2.24046 38.4882V23.2577C2.2209 23.0468 2.24681 22.8344 2.31648 22.6338C2.38616 22.4332 2.49807 22.2489 2.64514 22.0926C2.79221 21.9363 2.97119 21.8116 3.17066 21.7262C3.37014 21.6408 3.58581 21.5967 3.80381 21.5967C4.0218 21.5967 4.23739 21.6408 4.43687 21.7262C4.63635 21.8116 4.81532 21.9363 4.96239 22.0926C5.10946 22.2489 5.22138 22.4332 5.29106 22.6338C5.36073 22.8344 5.38664 23.0468 5.36708 23.2577V38.4882C5.36377 38.8882 5.19866 39.2709 4.90738 39.5538C4.61611 39.8366 4.22205 39.997 3.81014 40.0002Z" fill="#F7284F"/>
<path d="M17.2406 29.1335H12.7595C12.3432 29.1335 11.944 28.9729 11.6497 28.6871C11.3553 28.4012 11.1899 28.0135 11.1899 27.6092C11.1899 27.205 11.3553 26.8173 11.6497 26.5314C11.944 26.2456 12.3432 26.085 12.7595 26.085H17.2406C17.6568 26.085 18.056 26.2456 18.3504 26.5314C18.6447 26.8173 18.8102 27.205 18.8102 27.6092C18.8102 28.0135 18.6447 28.4012 18.3504 28.6871C18.056 28.9729 17.6568 29.1335 17.2406 29.1335Z" fill="#F7284F"/>
<path d="M15 24.7818C14.7934 24.7834 14.5885 24.7451 14.3973 24.6691C14.2061 24.5931 14.0324 24.4809 13.8863 24.339C13.7402 24.1971 13.6247 24.0284 13.5464 23.8428C13.4681 23.6571 13.4287 23.4581 13.4303 23.2575V1.52427C13.4303 1.12 13.5957 0.732311 13.89 0.446453C14.1844 0.160596 14.5837 0 15 0C15.4162 0 15.8155 0.160596 16.1099 0.446453C16.4042 0.732311 16.5696 1.12 16.5696 1.52427V23.2575C16.5696 23.6618 16.4042 24.0495 16.1099 24.3354C15.8155 24.6212 15.4162 24.7818 15 24.7818V24.7818Z" fill="#F7284F"/>
<path d="M15 40.0001C14.5837 40.0001 14.1844 39.8395 13.8901 39.5537C13.5957 39.2678 13.4304 38.8801 13.4304 38.4758V31.9608C13.4304 31.5565 13.5957 31.1688 13.8901 30.883C14.1844 30.5971 14.5837 30.4365 15 30.4365C15.4163 30.4365 15.8155 30.5971 16.1099 30.883C16.4042 31.1688 16.5696 31.5565 16.5696 31.9608V38.4881C16.563 38.8893 16.3951 39.272 16.1018 39.5545C15.8085 39.837 15.4131 39.997 15 40.0001Z" fill="#F7284F"/>
<path d="M28.4304 16.0911H23.9494C23.5331 16.0911 23.1338 15.9305 22.8395 15.6446C22.5451 15.3587 22.3798 14.971 22.3798 14.5668C22.3798 14.1625 22.5451 13.7748 22.8395 13.4889C23.1338 13.2031 23.5331 13.0425 23.9494 13.0425H28.4304C28.8466 13.0425 29.2459 13.2031 29.5403 13.4889C29.8346 13.7748 30 14.1625 30 14.5668C30 14.971 29.8346 15.3587 29.5403 15.6446C29.2459 15.9305 28.8466 16.0911 28.4304 16.0911Z" fill="#F7284F"/>
<path d="M26.1899 11.7394C25.7736 11.7394 25.3744 11.5788 25.08 11.2929C24.7856 11.0071 24.6203 10.6194 24.6203 10.2151V1.52427C24.6203 1.12 24.7856 0.732311 25.08 0.446453C25.3744 0.160596 25.7736 0 26.1899 0C26.6062 0 27.0054 0.160596 27.2997 0.446453C27.5941 0.732311 27.7595 1.12 27.7595 1.52427V10.2151C27.7595 10.6194 27.5941 11.0071 27.2997 11.2929C27.0054 11.5788 26.6062 11.7394 26.1899 11.7394V11.7394Z" fill="#F7284F"/>
<path d="M26.1899 40.0001C25.7746 39.9969 25.3773 39.8352 25.0836 39.5501C24.79 39.2649 24.6236 38.8791 24.6203 38.4758V18.9183C24.6203 18.514 24.7856 18.1264 25.08 17.8405C25.3744 17.5546 25.7736 17.394 26.1899 17.394C26.6062 17.394 27.0054 17.5546 27.2997 17.8405C27.5941 18.1264 27.7595 18.514 27.7595 18.9183V38.4881C27.7529 38.8892 27.585 39.2719 27.2917 39.5545C26.9984 39.837 26.603 39.9969 26.1899 40.0001Z" fill="#F7284F"/>
</g>
<defs>
<clipPath id="clip0_1096_9310">
<rect width="30" height="40" fill="white"/>
</clipPath>
</defs>
</svg>
