<?xml version="1.0" encoding="utf-8"?>
<!-- Generator: Adobe Illustrator 25.3.1, SVG Export Plug-In . SVG Version: 6.00 Build 0)  -->
<svg version="1.1" id="Calque_1" xmlns="http://www.w3.org/2000/svg" xmlns:xlink="http://www.w3.org/1999/xlink" x="0px" y="0px"
	 viewBox="0 0 50 50" style="enable-background:new 0 0 50 50;" xml:space="preserve">
<g>
	<path d="M31.9,9.6H18.4c-4.8,0-8.7,3.9-8.7,8.7v13.5c0,4.8,3.9,8.7,8.7,8.7h13.5c4.8,0,8.7-3.9,8.7-8.7V18.2
		C40.5,13.4,36.7,9.6,31.9,9.6z M18.4,11.4h13.5c3.5,0,6.4,2.7,6.8,6.1h-27C12,14.1,14.9,11.4,18.4,11.4z M38.7,31.7
		c0,3.8-3.1,6.8-6.8,6.8H18.4c-3.8,0-6.8-3.1-6.8-6.8V19.3h27.1V31.7z"/>
	<path d="M18.6,32.6c0.1,0.1,0.3,0.2,0.5,0.2s0.4-0.1,0.5-0.2l3.8-3.8c0.1-0.1,0.2-0.3,0.2-0.5s-0.1-0.4-0.2-0.5L19.6,24
		c-0.3-0.3-0.8-0.3-1.1,0c-0.3,0.3-0.3,0.8,0,1.1l3.2,3.2l-3.2,3.2C18.3,31.8,18.3,32.3,18.6,32.6z"/>
	<path d="M25.4,31.5h6.3c0.4,0,0.8-0.3,0.8-0.8c0-0.4-0.3-0.8-0.8-0.8h-6.3c-0.4,0-0.8,0.3-0.8,0.8C24.7,31.2,25,31.5,25.4,31.5z"/>
</g>
</svg>
