<svg viewBox="0 0 50 47" xmlns="http://www.w3.org/2000/svg">
<path d="M39.4352 25.2342C36.1114 25.2342 33.1412 26.7776 31.2032 29.185L26.2185 25.8668V21.0587C31.4717 20.4519 35.5638 15.9773 35.5638 10.5643C35.5648 4.73929 30.8257 0 25 0C19.1743 0 14.4352 4.73929 14.4352 10.5652C14.4352 15.9783 18.5273 20.4528 23.7806 21.0597V26.0828L18.9077 29.3265C16.9734 26.8378 13.9526 25.2342 10.5638 25.2342C4.73911 25.2342 0 29.9735 0 35.7984C0 41.6234 4.73911 46.3636 10.5648 46.3636C16.3905 46.3636 21.1296 41.6243 21.1296 35.7984C21.1296 34.234 20.7875 32.7488 20.1749 31.4118L25.1625 28.0917L29.9035 31.2474C29.2422 32.6265 28.8723 34.1699 28.8723 35.7984C28.8723 41.6243 33.6114 46.3636 39.4371 46.3636C45.2628 46.3636 50.0019 41.6243 50.0019 35.7984C50.0019 29.9725 45.2628 25.2332 39.4371 25.2332L39.4352 25.2342ZM39.4352 43.9257C37.4369 43.9257 35.6059 43.1993 34.1896 41.999C35.2915 39.885 36.9572 38.742 37.8832 38.2383C38.1412 38.1074 38.3075 37.8465 38.3266 37.5407C38.3458 37.2339 38.2148 36.9548 37.9788 36.7952C37.328 36.326 36.94 35.5691 36.94 34.7701C36.94 33.3939 38.0591 32.2748 39.4352 32.2748C40.8114 32.2748 41.9304 33.3939 41.9304 34.7701C41.9304 35.5691 41.5424 36.3269 40.8954 36.7933C40.6556 36.9558 40.5247 37.2348 40.5438 37.5416C40.5629 37.8484 40.7292 38.1093 40.9834 38.2374C41.9132 38.7429 43.5789 39.8859 44.6808 41.9999C43.2645 43.2003 41.4335 43.9266 39.4352 43.9266V43.9257ZM23.4595 12.9602C23.7166 12.8293 23.8819 12.5683 23.901 12.2635C23.9201 11.9567 23.7892 11.6776 23.5531 11.518C22.9023 11.0488 22.5143 10.2919 22.5143 9.49292C22.5143 8.11672 23.6334 6.9976 25.0096 6.9976C26.3857 6.9976 27.5048 8.11672 27.5048 9.49292C27.5048 10.2919 27.1168 11.0497 26.4698 11.5161C26.2299 11.6786 26.099 11.9577 26.1181 12.2644C26.1372 12.5712 26.3035 12.8321 26.5577 12.9611C27.4914 13.4686 29.1657 14.6183 30.2676 16.7466C28.8475 17.9585 27.0088 18.6924 25 18.6924C22.9912 18.6924 21.164 17.9632 19.7458 16.7581C20.8467 14.6231 22.5239 13.4705 23.4595 12.9611V12.9602ZM2.43788 35.7984C2.43788 31.3172 6.08372 27.6712 10.5648 27.6712C15.0459 27.6712 18.6917 31.3172 18.6917 35.7984C18.6917 37.6314 18.081 39.3249 17.0528 40.6859C16.0847 39.0593 14.8519 37.9822 13.9125 37.3304C14.4773 36.5955 14.7869 35.6914 14.7869 34.7672C14.7869 32.4497 12.9014 30.565 10.5849 30.565C8.26835 30.565 6.38284 32.4506 6.38284 34.7672C6.38284 35.6914 6.69247 36.5955 7.25726 37.3304C6.31116 37.986 5.07072 39.0726 4.10073 40.7136C3.06001 39.3479 2.43979 37.6439 2.43979 35.7975L2.43788 35.7984ZM47.5621 35.7984C47.5621 37.6381 46.9467 39.3364 45.9127 40.7002C44.9436 39.0659 43.706 37.9841 42.7638 37.3314C43.3286 36.5964 43.6382 35.6923 43.6382 34.7682C43.6382 32.4506 41.7527 30.566 39.4362 30.566C37.1196 30.566 35.2341 32.4516 35.2341 34.7682C35.2341 35.6923 35.5438 36.5964 36.1086 37.3314C35.1663 37.9841 33.9297 39.0659 32.9597 40.7002C31.9256 39.3364 31.3102 37.6381 31.3102 35.7984C31.3102 31.3172 34.956 27.6712 39.4371 27.6712C43.9182 27.6712 47.564 31.3172 47.564 35.7984H47.5621ZM25 2.43798C29.4811 2.43798 33.1269 6.08396 33.1269 10.5652C33.1269 12.3935 32.5201 14.0822 31.4966 15.4421C30.5256 13.7983 29.2833 12.7107 28.3381 12.0561C28.9029 11.3212 29.2125 10.4171 29.2125 9.49292C29.2125 7.17536 27.327 5.29073 25.0105 5.29073C22.694 5.29073 20.8085 7.17631 20.8085 9.49292C20.8085 10.4171 21.1181 11.3212 21.6829 12.0561C20.7349 12.7127 19.4887 13.805 18.5159 15.4565C17.4866 14.0946 16.874 12.4001 16.874 10.5652C16.874 6.08396 20.5199 2.43798 25.001 2.43798H25ZM5.33257 42.0104C6.43444 39.8898 8.10206 38.7439 9.03192 38.2383C9.28995 38.1074 9.45623 37.8465 9.47534 37.5407C9.49446 37.2339 9.36353 36.9548 9.12748 36.7952C8.47668 36.326 8.08868 35.5691 8.08868 34.7701C8.08868 33.3939 9.20776 32.2748 10.5839 32.2748C11.9601 32.2748 13.0791 33.3939 13.0791 34.7701C13.0791 35.5691 12.6911 36.326 12.0442 36.7933C11.8043 36.9558 11.6734 37.2348 11.6925 37.5416C11.7116 37.8484 11.8779 38.1093 12.1321 38.2374C13.061 38.742 14.7209 39.8821 15.8238 41.9885C14.4056 43.1965 12.5688 43.9266 10.5648 43.9266C8.56078 43.9266 6.74694 43.2051 5.33257 42.0114V42.0104Z"/>
</svg>
