<?xml version="1.0" encoding="UTF-8"?>
<svg viewBox="0 0 37 28" xmlns="http://www.w3.org/2000/svg">
    <path fill-rule="evenodd" clip-rule="evenodd"
        d="M14.7907 0.0484401C15.8306 -0.187908 16.8652 0.463524 17.1016 1.50345L22.5873 25.6407C22.8237 26.6806 22.1722 27.7152 21.1323 27.9516C20.0924 28.1879 19.0577 27.5365 18.8214 26.4965L13.3357 2.35934C13.0993 1.31941 13.7508 0.284788 14.7907 0.0484401ZM9.22921 7.54888C9.9355 8.34792 9.86031 9.56823 9.06128 10.2745L4.8466 14L9.06128 17.7255C9.86031 18.4318 9.9355 19.6521 9.22921 20.4511C8.52291 21.2502 7.3026 21.3253 6.50356 20.619L0.652119 15.4468C0.237461 15.0803 0 14.5534 0 14C0 13.4466 0.237461 12.9197 0.652119 12.5532L6.50356 7.38095C7.3026 6.67466 8.52291 6.74984 9.22921 7.54888ZM26.8157 7.54888C27.522 6.74984 28.7423 6.67466 29.5413 7.38095L35.3928 12.5532C35.8074 12.9197 36.0449 13.4466 36.0449 14C36.0449 14.5534 35.8074 15.0803 35.3928 15.4468L29.5413 20.619C28.7423 21.3253 27.522 21.2502 26.8157 20.4511C26.1094 19.6521 26.1846 18.4318 26.9836 17.7255L31.1983 14L26.9836 10.2745C26.1846 9.56823 26.1094 8.34792 26.8157 7.54888Z" />
</svg>