<svg viewBox="0 0 20 20" xmlns="http://www.w3.org/2000/svg">
<path d="M19.439 5.83503L14.165 0.561026C13.9875 0.382602 13.7763 0.241149 13.5438 0.144851C13.3113 0.0485535 13.062 -0.000677438 12.8103 7.04049e-06H1.57908C1.16043 0.000465719 0.759047 0.16698 0.463011 0.463016C0.166975 0.759052 0.000458678 1.16043 0 1.57909V18.4209C0.000458678 18.8396 0.166975 19.2409 0.463011 19.537C0.759047 19.833 1.16043 19.9995 1.57908 20H18.4209C18.8396 19.9995 19.2409 19.833 19.537 19.537C19.833 19.2409 19.9995 18.8396 20 18.4209V7.18971C20.0007 6.93803 19.9514 6.68871 19.8552 6.45619C19.7589 6.22366 19.6174 6.01254 19.439 5.83503ZM15.7263 10.1053H4.27371C3.76581 10.1058 3.27888 10.3079 2.91974 10.667C2.5606 11.0261 2.35858 11.5131 2.35801 12.021V18.8632H1.57822C1.46094 18.8631 1.34851 18.8165 1.26558 18.7335C1.18265 18.6506 1.13602 18.5382 1.1359 18.4209V1.57909C1.13602 1.46182 1.18265 1.34938 1.26558 1.26645C1.34851 1.18353 1.46094 1.13689 1.57822 1.13677H2.35801V5.28398C2.35847 5.79195 2.56044 6.27899 2.91959 6.63823C3.27874 6.99746 3.76573 7.19953 4.27371 7.20011H11.0107C11.5186 7.19942 12.0056 6.99731 12.3647 6.6381C12.7238 6.27889 12.9258 5.79192 12.9264 5.28398V1.14544C13.0907 1.17004 13.2427 1.24709 13.3596 1.36508L18.6336 6.63865C18.7062 6.71085 18.7638 6.79672 18.803 6.89131C18.8422 6.9859 18.8622 7.08732 18.8619 7.18971V18.4209C18.8618 18.5382 18.8152 18.6506 18.7323 18.7335C18.6493 18.8165 18.5369 18.8631 18.4196 18.8632H17.6398V12.021C17.6392 11.5134 17.4375 11.0268 17.0789 10.6678C16.7202 10.3087 16.2338 10.1064 15.7263 10.1053ZM3.49478 12.021C3.49478 11.8142 3.57694 11.6158 3.72318 11.4696C3.86941 11.3233 4.06776 11.2412 4.27457 11.2412H15.7272C15.934 11.2412 16.1323 11.3233 16.2786 11.4696C16.4248 11.6158 16.5069 11.8142 16.5069 12.021V18.8632H3.49478V12.021ZM11.7896 5.28398C11.7896 5.49079 11.7075 5.68914 11.5612 5.83538C11.415 5.98162 11.2166 6.06377 11.0098 6.06377H4.27371C4.06689 6.06377 3.86855 5.98162 3.72231 5.83538C3.57607 5.68914 3.49391 5.49079 3.49391 5.28398V1.13677H11.7888L11.7896 5.28398Z" />
</svg>
