<svg viewBox="25 29 28 32" xmlns="http://www.w3.org/2000/svg">
<rect x="27.0869" y="31" width="24" height="28" fill="#0E3864"/>
<path fill-rule="evenodd" clip-rule="evenodd" d="M28.9868 31.4202C28.2267 31.4202 27.6166 32.0072 27.6166 32.7239V57.276C27.6166 57.9928 28.2267 58.5798 28.9868 58.5798H49.0131C49.7732 58.5798 50.3834 57.9928 50.3834 57.276V32.7239C50.3834 32.0072 49.7732 31.4202 49.0131 31.4202H28.9868ZM25.0869 32.7239C25.0869 30.6641 26.8364 29 28.9868 29H49.0131C51.1635 29 52.913 30.6641 52.913 32.7239V57.276C52.913 59.3359 51.1635 61 49.0131 61H28.9868C26.8364 61 25.0869 59.3359 25.0869 57.276V32.7239ZM39 36.7831C38.1428 36.7831 37.4541 37.4451 37.4541 38.2545C37.4541 39.0638 38.1428 39.7258 39 39.7258C39.8571 39.7258 40.5458 39.0638 40.5458 38.2545C40.5458 37.4451 39.8571 36.7831 39 36.7831ZM42.2482 40.6053C42.7672 39.9526 43.0755 39.1384 43.0755 38.2545C43.0755 36.102 41.2474 34.3629 39 34.3629C36.7525 34.3629 34.9244 36.102 34.9244 38.2545C34.9244 39.1383 35.2326 39.9524 35.7515 40.6051C33.9908 41.6447 32.8164 43.5044 32.8164 45.6285V48.9803C32.8164 49.6486 33.3827 50.1904 34.0812 50.1904H43.9187C44.6172 50.1904 45.1835 49.6486 45.1835 48.9803V45.6285C45.1835 43.5 44.0068 41.6434 42.2482 40.6053ZM39 42.146C36.9786 42.146 35.346 43.7084 35.346 45.6285V47.7702H42.6539V45.6285C42.6539 43.7037 41.0163 42.146 39 42.146ZM30.7083 54.3432C30.7083 53.6749 31.2746 53.1331 31.9732 53.1331H46.0267C46.7253 53.1331 47.2916 53.6749 47.2916 54.3432C47.2916 55.0115 46.7253 55.5533 46.0267 55.5533H31.9732C31.2746 55.5533 30.7083 55.0115 30.7083 54.3432Z"/>
</svg>
