<svg width="20" height="26" viewBox="0 0 20 26" fill="none" xmlns="http://www.w3.org/2000/svg">
<path fill-rule="evenodd" clip-rule="evenodd" d="M7.79591 1.89314C7.51483 1.89314 7.28693 2.11866 7.28693 2.39679V2.99712H12.2131V2.39679C12.2131 2.11866 11.9852 1.89314 11.7041 1.89314H7.79591ZM14.1262 2.99712V2.39679C14.1262 1.07311 13.0418 0 11.7041 0H7.79591C6.45821 0 5.37375 1.07311 5.37375 2.39679V2.99712H2.42216C1.08446 2.99712 0 4.07023 0 5.39391V7.65079C0 8.17356 0.428279 8.59736 0.956589 8.59736H1.05346L2.29659 23.359C2.42233 24.8518 3.68345 26 5.19723 26H14.3028C15.8165 26 17.0777 24.8518 17.2034 23.359C17.2034 23.359 17.2034 23.359 17.2034 23.359L18.4466 8.59736H18.5434C19.0717 8.59736 19.5 8.17356 19.5 7.65079V5.39391C19.5 4.07023 18.4155 2.99712 17.0778 2.99712H14.1262ZM13.1697 4.89026H6.33034C6.32979 4.89026 6.32924 4.89026 6.32868 4.89026H2.42216C2.14108 4.89026 1.91318 5.11578 1.91318 5.39391V6.70422H1.93201C1.93256 6.70421 1.9331 6.70421 1.93365 6.70421H17.5664C17.5669 6.70421 17.5675 6.70421 17.568 6.70422H17.5868V5.39391C17.5868 5.11578 17.3589 4.89026 17.0778 4.89026H13.1713C13.1708 4.89026 13.1702 4.89026 13.1697 4.89026ZM16.5268 8.59736H2.97327L4.20316 23.2018C4.20316 23.2018 4.20316 23.2018 4.20316 23.2018C4.24626 23.7134 4.67846 24.1069 5.19723 24.1069H14.3028C14.8216 24.1069 15.2538 23.7134 15.2968 23.2018L16.5268 8.59736ZM4.88791 11.5888C4.84839 11.0675 5.24344 10.6132 5.77027 10.5741C6.2971 10.535 6.75621 10.9259 6.79573 11.4472L7.52851 21.1154C7.56802 21.6367 7.17297 22.091 6.64614 22.1301C6.11931 22.1692 5.6602 21.7783 5.62069 21.257L4.88791 11.5888ZM13.7297 10.5741C14.2566 10.6132 14.6516 11.0675 14.6121 11.5888L13.8793 21.257C13.8398 21.7783 13.3807 22.1692 12.8539 22.1301C12.327 22.091 11.932 21.6367 11.9715 21.1154L12.7043 11.4472C12.7438 10.9259 13.2029 10.535 13.7297 10.5741ZM9.75 10.5715C10.2783 10.5715 10.7066 10.9953 10.7066 11.518V21.1862C10.7066 21.709 10.2783 22.1327 9.75 22.1327C9.22169 22.1327 8.79341 21.709 8.79341 21.1862V11.518C8.79341 10.9953 9.22169 10.5715 9.75 10.5715Z" fill="#7DAAB7"/>
</svg>
