<?xml version="1.0" encoding="utf-8"?>
<!-- Generator: Adobe Illustrator 25.3.1, SVG Export Plug-In . SVG Version: 6.00 Build 0)  -->
<svg version="1.1" id="Calque_1" xmlns="http://www.w3.org/2000/svg" xmlns:xlink="http://www.w3.org/1999/xlink" x="0px" y="0px"
	 viewBox="0 0 50 50" style="enable-background:new 0 0 50 50;" xml:space="preserve">
<g>
	<g>
		<path d="M30.8,26.3c-0.7,0-1.2,0.5-1.2,1.2v8.2c0,1.1-0.9,2.1-2.1,2.1h-5.3V12c0-1.6-1-3-2.5-3.5l-3.1-1h11c1.1,0,2.1,0.9,2.1,2.1
			v8.2c0,0.7,0.5,1.2,1.2,1.2s1.2-0.5,1.2-1.2V9.6c0-2.5-2-4.5-4.5-4.5H8.8c-0.1,0-0.2,0-0.2,0c-2,0.1-3.5,1.7-3.5,3.7v29.4
			c0,1.6,1,3,2.5,3.5l9.8,3.3c0.4,0.1,0.8,0.2,1.2,0.2c2,0,3.7-1.6,3.7-3.7v-1.2h5.3c2.5,0,4.5-2,4.5-4.5v-8.2
			C32,26.9,31.5,26.3,30.8,26.3z M7.5,8.8c0-0.7,0.6-1.2,1.2-1.2c0.1,0,0.3,0,0.4,0.1l9.8,3.3c0.5,0.2,0.9,0.6,0.9,1.2v29.4
			c0,0.4-0.2,0.8-0.5,1s-0.7,0.3-1.1,0.2l-9.8-3.3c-0.5-0.2-0.9-0.6-0.9-1.2C7.5,38.3,7.5,8.8,7.5,8.8z"/>
		<path d="M45,23.1L45,23.1c0.1-0.2,0.1-0.3,0.1-0.5c0-0.3-0.1-0.6-0.4-0.9l-6.5-6.5c-0.5-0.5-1.2-0.5-1.7,0s-0.5,1.2,0,1.7l4.5,4.5
			H27.5c-0.7,0-1.2,0.5-1.2,1.2s0.5,1.2,1.2,1.2H41l-4.5,4.5c-0.2,0.2-0.4,0.5-0.4,0.9s0.1,0.6,0.4,0.9c0.2,0.2,0.5,0.4,0.9,0.4
			c0.3,0,0.6-0.1,0.9-0.4l6.5-6.5l0,0C44.9,23.4,44.9,23.2,45,23.1z"/>
	</g>
</g>
</svg>
