<?xml version="1.0" encoding="utf-8"?>
<!-- Generator: Adobe Illustrator 25.4.1, SVG Export Plug-In . SVG Version: 6.00 Build 0)  -->
<svg version="1.1" xmlns="http://www.w3.org/2000/svg" xmlns:xlink="http://www.w3.org/1999/xlink" x="0px" y="0px"
	viewBox="0 0 10 10" style="enable-background:new 0 0 10 10;" xml:space="preserve">
	<path d="M9.7,8.3L6.4,5l3.3-3.3c0.4-0.4,0.4-1,0-1.4s-1-0.4-1.4,0L5,3.6L1.7,0.3c-0.4-0.4-1-0.4-1.4,0s-0.4,1,0,1.4L3.6,5L0.3,8.3
	c-0.4,0.4-0.4,1,0,1.4s1,0.4,1.4,0L5,6.4l3.3,3.3c0.4,0.4,1,0.4,1.4,0C10.1,9.3,10.1,8.7,9.7,8.3z" />
</svg>