<?xml version="1.0" encoding="utf-8"?>
<!-- Generator: Adobe Illustrator 25.3.1, SVG Export Plug-In . SVG Version: 6.00 Build 0)  -->
<svg version="1.1" id="Calque_1" xmlns="http://www.w3.org/2000/svg" xmlns:xlink="http://www.w3.org/1999/xlink" x="0px" y="0px"
	 viewBox="0 0 50 50" style="enable-background:new 0 0 50 50;" xml:space="preserve">
<path d="M38.2,18.3h-0.7v-1.4c0-2-1.6-3.5-3.5-3.5c-2,0-3.5,1.6-3.5,3.5v1.4h-0.7c-0.8,0-1.4,0.6-1.4,1.4v0.4l-6.5-6.5
	c-1-1-2.7-1-3.7,0L16.7,15c-0.2,0.2-0.2,0.6-0.1,0.8c0.6,0.9,0.6,2.1-0.2,2.8c-0.8,0.8-2,0.9-2.8,0.2c-0.2-0.2-0.6-0.2-0.8,0.1
	l-1.4,1.4c-1,1-1,2.7,0,3.7L24,36.6c1,1,2.7,1,3.7,0l6.7-6.7c0.5-0.5,0.7-1.1,0.8-1.8h3c0.8,0,1.4-0.6,1.4-1.4v-7.1
	C39.6,18.9,39,18.3,38.2,18.3z M12.3,23.1c-0.3-0.3-0.4-0.6-0.4-1c0-0.4,0.1-0.7,0.4-1l1-1c1.3,0.7,2.9,0.4,4-0.6
	c1.1-1.1,1.3-2.7,0.6-4l1-1c0.6-0.6,1.4-0.6,2,0l7.4,7.4v4.9c0,0.4,0.2,0.8,0.5,1.1l-6,5.9L12.3,23.1z M33.6,29.1l-6.7,6.7
	c-0.6,0.6-1.4,0.6-2,0l-1.1-1.1l6.5-6.5H34C33.9,28.5,33.8,28.8,33.6,29.1z M34,24.6c-0.8,0-1.4-0.6-1.4-1.4c0-0.8,0.6-1.4,1.4-1.4
	s1.4,0.6,1.4,1.4C35.4,24,34.7,24.6,34,24.6z M36.2,18.3h-4.4v-1.4c0-1.2,1-2.2,2.2-2.2s2.2,1,2.2,2.2V18.3z"/>
</svg>
