<?xml version="1.0" encoding="utf-8"?>
<!-- Generator: Adobe Illustrator 25.3.1, SVG Export Plug-In . SVG Version: 6.00 Build 0)  -->
<svg version="1.1" id="Calque_1" xmlns="http://www.w3.org/2000/svg" xmlns:xlink="http://www.w3.org/1999/xlink" x="0px" y="0px"
	 viewBox="0 0 50 50" style="enable-background:new 0 0 50 50;" xml:space="preserve">
<path d="M33,21.2h-1.1v-7.4H18.4v7.4h-1.1c-1.9,0-3.5,1.6-3.5,3.5v5.6c0,0.9,0.7,1.6,1.6,1.6h3v4.6h13.5v-4.6h3
	c0.9,0,1.6-0.7,1.6-1.6v-5.6C36.5,22.7,35,21.2,33,21.2z M19.9,15.2h10.6v6H19.9V15.2z M30.5,35H19.9v-6.9h10.6V35z M35.1,30.2
	c0,0.1-0.1,0.2-0.2,0.2h-3v-3.7H18.4v3.7h-3c-0.1,0-0.2-0.1-0.2-0.2v-5.6c0-1.1,0.9-2.1,2.1-2.1h1.1h13.5H33c1.1,0,2.1,0.9,2.1,2.1
	V30.2z"/>
</svg>
