<?xml version="1.0" encoding="utf-8"?>
<!-- Generator: Adobe Illustrator 25.3.1, SVG Export Plug-In . SVG Version: 6.00 Build 0)  -->
<svg version="1.1" id="Calque_1" xmlns="http://www.w3.org/2000/svg" xmlns:xlink="http://www.w3.org/1999/xlink" x="0px" y="0px"
	 viewBox="0 0 50 50" style="enable-background:new 0 0 50 50;" xml:space="preserve">
<path d="M40.2,32.2c0-0.2-0.1-0.5-0.2-0.6l-2.8-6.1c-0.6-1.4-2.1-2.3-3.6-2.4l0.3-0.3c1.1-1.1,1.1-2.9,0-4L21.7,6.6
	c-1.1-1.1-2.9-1.1-4,0l-1.3,1.3C16,8.2,16,8.7,16.3,9c0.6,0.7,0.5,1.8-0.2,2.4c-0.6,0.6-1.7,0.7-2.4,0.2c-0.3-0.2-0.8-0.2-1.1,0.1
	l-1.3,1.3c-1.1,1.1-1.1,2.9,0,4l6.1,6.1c-1.3,0.2-2.4,1-3,2.1l-3.4,6.3c-0.2,0.2-0.3,0.4-0.3,0.7c0,0,0,0.1,0,0.1l0,0v6.5
	c0,3.1,2.5,5.6,5.6,5.6h18.3c3.1,0,5.6-2.5,5.6-5.6L40.2,32.2C40.2,32.3,40.2,32.3,40.2,32.2z M23.7,27.2l8.1-8.1l0.9,0.9
	c0.2,0.2,0.3,0.5,0.3,0.8c0,0.3-0.1,0.6-0.3,0.8l-6.5,6.5c-0.4,0.4-1.2,0.4-1.6,0L23.7,27.2z M12.4,15.9c-0.2-0.2-0.3-0.5-0.3-0.8v0
	c0-0.3,0.1-0.6,0.3-0.8l0.9-0.9c1.4,0.6,2.9,0.3,4-0.7s1.3-2.6,0.7-4l0.9-0.9c0.4-0.4,1.2-0.4,1.6,0l10.2,10.2L22.5,26L12.4,15.9z
	 M16,26.2c0.4-0.7,1.1-1.1,1.9-1.1h1.3c0,0,0,0,0,0l4.2,4.2c0.5,0.5,1.3,0.8,2,0.8c0.7,0,1.4-0.3,2-0.8l4.2-4.2c0,0,0,0,0,0h1.8
	c0.8,0,1.6,0.5,1.9,1.2l2.3,5h-5.8c-0.4,0-0.7,0.2-0.9,0.6l-1.2,2.6c-0.3,0.7-1.1,1.2-1.9,1.2h-4.9c-0.8,0-1.6-0.5-1.9-1.2l-1.2-2.6
	c-0.2-0.3-0.5-0.6-0.9-0.6h-5.6L16,26.2z M38.3,38.8c0,2-1.7,3.7-3.7,3.7H16.3c-2,0-3.7-1.6-3.7-3.7v-5.6h5.7l1,2.1
	c0.7,1.4,2.1,2.4,3.7,2.4c0,0,0,0,0,0h4.9c1.6,0,3-0.9,3.7-2.4l1-2.1h5.8V38.8z"/>
</svg>
