<svg viewBox="0 0 30 30" xmlns="http://www.w3.org/2000/svg">
    <path fill-rule="evenodd" clip-rule="evenodd"
        d="M2.80303 8.7395C2.25671 8.7395 1.81818 9.1614 1.81818 9.67659V27.3234C1.81818 27.8386 2.25671 28.2605 2.80303 28.2605H17.197C17.7433 28.2605 18.1818 27.8386 18.1818 27.3234V9.67659C18.1818 9.1614 17.7433 8.7395 17.197 8.7395H2.80303ZM0 9.67659C0 8.19606 1.25743 7 2.80303 7H17.197C18.7426 7 20 8.19606 20 9.67659V27.3234C20 28.8039 18.7426 30 17.197 30H2.80303C1.25743 30 0 28.8039 0 27.3234V9.67659ZM10 12.5941C9.38392 12.5941 8.88889 13.0699 8.88889 13.6516C8.88889 14.2334 9.38392 14.7092 10 14.7092C10.6161 14.7092 11.1111 14.2334 11.1111 13.6516C11.1111 13.0699 10.6161 12.5941 10 12.5941ZM12.3346 15.3413C12.7077 14.8722 12.9293 14.287 12.9293 13.6516C12.9293 12.1046 11.6154 10.8546 10 10.8546C8.38463 10.8546 7.07071 12.1046 7.07071 13.6516C7.07071 14.2869 7.29224 14.872 7.66521 15.3411C6.39964 16.0884 5.55555 17.4251 5.55555 18.9517V21.3608C5.55555 21.8412 5.96257 22.2306 6.46465 22.2306H13.5354C14.0374 22.2306 14.4444 21.8412 14.4444 21.3608V18.9517C14.4444 17.4219 13.5987 16.0874 12.3346 15.3413ZM10 16.4487C8.54712 16.4487 7.37374 17.5716 7.37374 18.9517V20.4911H12.6263V18.9517C12.6263 17.5683 11.4493 16.4487 10 16.4487ZM4.0404 25.2154C4.0404 24.7351 4.44742 24.3457 4.94949 24.3457H15.0505C15.5526 24.3457 15.9596 24.7351 15.9596 25.2154C15.9596 25.6958 15.5526 26.0852 15.0505 26.0852H4.94949C4.44742 26.0852 4.0404 25.6958 4.0404 25.2154Z" />
    <path d="M30 4V6L20 6L20 4L30 4Z" />
    <path d="M24 0H26V10H24V0Z" />
</svg>