<?xml version="1.0" encoding="UTF-8"?>
<svg xmlns="http://www.w3.org/2000/svg" viewBox="0 0 32 32">
    <circle fill="#172534" cx="16" cy="16" r="15" />
    <path fill="#fff"
        d="M16,10.18c3.07,0,5.66,1.4,7.3,2.57,1.94,1.39,2.94,2.73,3.2,3.25-.26,.51-1.26,1.86-3.2,3.25-1.64,1.17-4.23,2.57-7.3,2.57s-5.66-1.4-7.3-2.57c-1.94-1.39-2.94-2.73-3.2-3.25,.26-.51,1.26-1.86,3.2-3.25,1.64-1.17,4.23-2.57,7.3-2.57m0-1.45c-6.63,0-12,5.82-12,7.27s5.37,7.27,12,7.27,12-5.82,12-7.27-5.37-7.27-12-7.27h0Zm0,2.91c-2.41,0-4.36,1.95-4.36,4.36s1.95,4.36,4.36,4.36,4.36-1.95,4.36-4.36-1.95-4.36-4.36-4.36Z" />
</svg>