<?xml version="1.0" encoding="utf-8"?>
<!-- Generator: Adobe Illustrator 25.4.1, SVG Export Plug-In . SVG Version: 6.00 Build 0)  -->
<svg version="1.1" id="Calque_1" xmlns="http://www.w3.org/2000/svg" xmlns:xlink="http://www.w3.org/1999/xlink" x="0px" y="0px"
	 viewBox="0 0 34.6 40.3" style="enable-background:new 0 0 34.6 40.3;" xml:space="preserve">
<g>
	<g>
		<g>
			<path d="M17.3,14.4c-1,0-1.7,0.4-1.7,1v8.5c0,0.5,0.7,1.1,1.7,1.1s1.7-0.5,1.7-1.1v-8.5C19,14.8,18.3,14.4,17.3,14.4z"/>
			<path d="M17.3,9.1c-1,0-1.8,0.7-1.8,1.6c0,0.9,0.8,1.6,1.8,1.6s1.8-0.8,1.8-1.6S18.3,9.1,17.3,9.1z"/>
			<path d="M17.3,0C7.7,0,0,7.7,0,17.3c0,7.8,5.2,14.3,12.1,16.5l3.9,5.8c0.3,0.4,0.8,0.7,1.3,0.7s1-0.3,1.3-0.7l3.9-5.8
				c6.9-2.2,12.1-8.7,12.1-16.5C34.6,7.7,26.9,0,17.3,0z M21.1,31c-0.4,0.1-0.7,0.3-0.9,0.6l-3,4.4l-3-4.4c-0.2-0.3-0.5-0.5-0.9-0.6
				C7.4,29.3,2.9,23.9,2.9,17.3c0-7.8,6.4-14.2,14.2-14.2s14.2,6.4,14.2,14.2C31.5,23.9,27,29.3,21.1,31z"/>
		</g>
	</g>
</g>
</svg>
