<?xml version="1.0" encoding="utf-8"?>
<!-- Generator: Adobe Illustrator 25.4.1, SVG Export Plug-In . SVG Version: 6.00 Build 0)  -->
<svg version="1.1" id="Calque_1" xmlns="http://www.w3.org/2000/svg" xmlns:xlink="http://www.w3.org/1999/xlink" x="0px" y="0px"
	 viewBox="0 0 30.9 30.9" style="enable-background:new 0 0 30.9 30.9;" xml:space="preserve">
<g>
	<g>
		<path d="M22.2,0H8.7C3.9,0,0,3.9,0,8.7v13.5c0,4.8,3.9,8.7,8.7,8.7h13.5c4.8,0,8.7-3.9,8.7-8.7V8.7C30.9,3.9,27,0,22.2,0z
			 M8.7,1.8h13.5c3.5,0,6.4,2.7,6.8,6.1H2C2.3,4.5,5.2,1.8,8.7,1.8z M29,22.2c0,3.8-3.1,6.8-6.8,6.8H8.7c-3.8,0-6.8-3.1-6.8-6.8V9.8
			H29V22.2z"/>
		<path d="M7.4,23.1c1.3,0,2.3-1.1,2.3-2.3c0-0.2,0-0.4-0.1-0.5l4-2.4c0.4,0.5,1.1,0.8,1.8,0.8c0.9,0,1.7-0.5,2.1-1.2l3.6,1.1l0,0
			c0,1.3,1.1,2.3,2.3,2.3c1.3,0,2.3-1.1,2.3-2.3c0-1.3-1.1-2.3-2.3-2.3c-0.9,0-1.7,0.5-2.1,1.2l-3.6-1.1l0,0c0-1.3-1.1-2.3-2.3-2.3
			s-2.3,1.1-2.3,2.3c0,0.2,0,0.4,0.1,0.5l-4,2.4c-0.5-0.5-1.1-0.9-1.8-0.9c-1.3,0-2.3,1.1-2.3,2.3C5.1,22.1,6.1,23.1,7.4,23.1z
			 M23.5,17.3c0.7,0,1.2,0.5,1.2,1.2s-0.5,1.2-1.2,1.2s-1.2-0.5-1.2-1.2C22.3,17.9,22.8,17.3,23.5,17.3z M15.4,15.1
			c0.7,0,1.2,0.5,1.2,1.2s-0.5,1.2-1.2,1.2c-0.7,0-1.2-0.5-1.2-1.2S14.8,15.1,15.4,15.1z M7.4,19.6c0.7,0,1.2,0.5,1.2,1.2
			S8.1,22,7.4,22s-1.2-0.5-1.2-1.2S6.7,19.6,7.4,19.6z"/>
	</g>
</g>
</svg>
