<?xml version="1.0" encoding="UTF-8"?>
<svg version="1.1" viewBox="0 0 1e3 536" xml:space="preserve" xmlns="http://www.w3.org/2000/svg">
<style type="text/css">
	.st0{fill:#FFFFFF;}
	.st1{fill:url(#a);}
</style>
	<path class="st0" d="m622.4 47.7c-23.9-4.9-61.7-9.3-120.5-9.4h-1.1-1.1c-58.9 0.1-96.6 4.5-120.5 9.4-13.9 3.7-44.1 17.3-44.1 66.3v93.9c0 38.7 19.3 55 34.1 61.9 7.9 3.1 17.1 4.9 27.5 5.5 4.9 0.3 11.1 0.5 17.7 0.7 16.7 0.5 39.5 1.2 51.9 4.3 10.7 2.6 18.9 7.1 24.7 11.1l4.3 3.5h11.2l4.3-3.5c5.7-4 13.9-8.5 24.7-11.1 12.4-3.1 35.2-3.8 51.9-4.3 6.6-0.2 12.8-0.4 17.7-0.7 10.4-0.6 19.6-2.5 27.5-5.5 14.8-6.9 34.1-23.2 34.1-61.9v-93.9c-0.2-49-30.4-62.6-44.3-66.3zm14 60.1v105c0 4.4-0.3 8.1-0.9 11.4-5.4 18.7-34.5 21.2-34.5 21.2-4.2 0.2-9.4 0.4-14.8 0.5-19 0.6-42.7 1.3-58.2 5.1-10.9 2.7-20 6.8-27.3 11-7.4-4.3-16.5-8.3-27.3-11-15.5-3.8-39.2-4.5-58.2-5.1-5.5-0.2-10.6-0.3-14.8-0.5 0 0-29-2.4-34.5-21.2-0.6-3.3-0.9-7-0.9-11.4v-110.7c0-17.7 18.5-24.2 28.7-26.4 21.8-3.8 55.6-7.2 107-7.2 51.3 0.1 85.2 3.5 107 7.2 10.2 2.2 28.7 8.7 28.7 26.4v5.7z"/>
		
			<linearGradient id="a" x1="389.07" x2="482.87" y1="3.8361" y2="166.3" gradientTransform="matrix(6.1232e-17 -1 -1 -6.1232e-17 583.36 583.46)" gradientUnits="userSpaceOnUse">
			<stop stop-color="#f16" offset="0"/>
			<stop stop-color="#f35" offset=".5056"/>
			<stop stop-color="#f55" offset="1"/>
		</linearGradient>
		<path class="st1" d="m479.4 134.8c4.1 4.2 4.1 10.9 0 15l-33.3 33.3c-4.2 4.1-10.9 4.1-15 0l-33.3-33.3c-2-2-3.1-4.7-3.1-7.5 0-2.9 1.1-5.5 3.1-7.5 4.2-4.1 10.9-4.1 15 0l25.8 25.8 25.8-25.8c4.1-4.1 10.8-4.1 15 0zm92.2 48.2 33.3-33.3c2-2 3.1-4.7 3.1-7.5 0-2.9-1.1-5.5-3.1-7.5-4.2-4.1-10.9-4.1-15 0l-25.8 25.8-25.8-25.8c-4.2-4.1-10.9-4.1-15 0-4.1 4.2-4.1 10.9 0 15l33.3 33.3c4.1 4.1 10.8 4.1 15 0z"/>

</svg>
