<?xml version="1.0" encoding="utf-8"?>
<!-- Generator: Adobe Illustrator 22.0.0, SVG Export Plug-In . SVG Version: 6.00 Build 0)  -->
<svg version="1.1"
	 id="COMPOSITION" inkscape:export-filename="D:\OneDrive - lisi.be\Documents\Organization\Templates\Neomanis-20210207T103734Z-001\Neomanis\SVG\nm_logo_couleur_blanc_2.png" inkscape:export-xdpi="96" inkscape:export-ydpi="96" inkscape:version="0.92.4 (5da689c313, 2019-01-14)" sodipodi:docname="nm_logo_couleur_blanc_sans_texte.svg" xmlns:cc="http://creativecommons.org/ns#" xmlns:dc="http://purl.org/dc/elements/1.1/" xmlns:inkscape="http://www.inkscape.org/namespaces/inkscape" xmlns:rdf="http://www.w3.org/1999/02/22-rdf-syntax-ns#" xmlns:sodipodi="http://sodipodi.sourceforge.net/DTD/sodipodi-0.dtd" xmlns:svg="http://www.w3.org/2000/svg"
	 xmlns="http://www.w3.org/2000/svg" xmlns:xlink="http://www.w3.org/1999/xlink" x="0px" y="0px" viewBox="0 0 1000 536"
	 style="enable-background:new 0 0 1000 536;" xml:space="preserve">
<style type="text/css">
	.st0{fill:#FFFFFF;}
	.st1{fill:url(#path13_1_);}
</style>
<sodipodi:namedview  bordercolor="#666666" borderopacity="1" gridtolerance="10" guidetolerance="10" id="namedview38" inkscape:current-layer="g35" inkscape:cx="500" inkscape:cy="155.95518" inkscape:pageopacity="0" inkscape:pageshadow="2" inkscape:window-height="1017" inkscape:window-maximized="1" inkscape:window-width="1920" inkscape:window-x="1072" inkscape:window-y="360" inkscape:zoom="0.357" objecttolerance="10" pagecolor="#ffffff" showgrid="false">
	</sodipodi:namedview>
<g id="g35">
	<path id="path4" class="st0" d="M622.4,47.7c-23.9-4.9-61.7-9.3-120.5-9.4l0,0c-0.4,0-0.8,0-1.1,0c-0.4,0-0.8,0-1.1,0l0,0
		c-58.9,0.1-96.6,4.5-120.5,9.4c-13.9,3.7-44.1,17.3-44.1,66.3v93.9c0,38.7,19.3,55,34.1,61.9c7.9,3.1,17.1,4.9,27.5,5.5
		c4.9,0.3,11.1,0.5,17.7,0.7c16.7,0.5,39.5,1.2,51.9,4.3c10.7,2.6,18.9,7.1,24.7,11.1l4.3,3.5h5.6h5.6l4.3-3.5
		c5.7-4,13.9-8.5,24.7-11.1c12.4-3.1,35.2-3.8,51.9-4.3c6.6-0.2,12.8-0.4,17.7-0.7c10.4-0.6,19.6-2.5,27.5-5.5
		c14.8-6.9,34.1-23.2,34.1-61.9V114C666.5,65,636.3,51.4,622.4,47.7z M636.4,107.8v105c0,4.4-0.3,8.1-0.9,11.4
		c-5.4,18.7-34.5,21.2-34.5,21.2l0,0c-4.2,0.2-9.4,0.4-14.8,0.5c-19,0.6-42.7,1.3-58.2,5.1c-10.9,2.7-20,6.8-27.3,11
		c-7.4-4.3-16.5-8.3-27.3-11c-15.5-3.8-39.2-4.5-58.2-5.1c-5.5-0.2-10.6-0.3-14.8-0.5l0,0c0,0-29-2.4-34.5-21.2
		c-0.6-3.3-0.9-7-0.9-11.4v-105v-5.7c0-17.7,18.5-24.2,28.7-26.4c21.8-3.8,55.6-7.2,107-7.2c51.3,0.1,85.2,3.5,107,7.2
		c10.2,2.2,28.7,8.7,28.7,26.4L636.4,107.8L636.4,107.8z"/>
	
		<linearGradient id="path13_1_" gradientUnits="userSpaceOnUse" x1="403.0661" y1="3.8361" x2="496.8664" y2="166.303" gradientTransform="matrix(6.123234e-17 1 -1 6.123234e-17 583.3625 -293.7375)">
		<stop  offset="0" style="stop-color:#FF1166"/>
		<stop  offset="0.5056" style="stop-color:#FF3355"/>
		<stop  offset="1" style="stop-color:#FF5555"/>
	</linearGradient>
	<path id="path13" class="st1" d="M464.4,169l-25.8-25.8L412.8,169c-4.1,4.1-10.8,4.1-15,0c-2-2-3.1-4.6-3.1-7.5
		c0-2.8,1.1-5.5,3.1-7.5l33.3-33.3c4.1-4.1,10.8-4.1,15,0l33.3,33.3c4.1,4.1,4.1,10.8,0,15C475.2,173.1,468.5,173.1,464.4,169z
		 M556.6,120.8l-33.3,33.3c-4.1,4.1-4.1,10.8,0,15c4.1,4.1,10.8,4.1,15,0l25.8-25.8l25.8,25.8c4.1,4.1,10.8,4.1,15,0
		c2-2,3.1-4.6,3.1-7.5c0-2.8-1.1-5.5-3.1-7.5l-33.3-33.3C567.4,116.7,560.7,116.7,556.6,120.8z"/>
</g>
</svg>
