<svg width="60" height="50" viewBox="0 0 60 50" fill="none" xmlns="http://www.w3.org/2000/svg">
<g clip-path="url(#clip0_613_4416)">
<path d="M51.4796 1.83926C47.1984 0.880576 40.4385 0.0299161 29.8938 0.00628662H29.4812C18.9334 0.0299161 12.1765 0.880576 7.89537 1.83926C5.41352 2.55489 0 5.21491 0 14.7646V33.0639C0 40.595 3.45907 43.7816 6.11464 45.1184C7.69634 45.7505 9.35783 46.1148 11.0411 46.1986C11.9253 46.256 13.0328 46.2931 14.2085 46.3302C17.1899 46.4281 21.2756 46.5631 23.4968 47.1606C25.0799 47.5796 26.5778 48.3144 27.9145 49.3278L28.6932 50.0029H30.6818L31.4605 49.3278C32.7972 48.3144 34.2951 47.5796 35.8781 47.1606C38.0994 46.5631 42.1851 46.4281 45.1664 46.3302C46.3422 46.2931 47.4528 46.256 48.3339 46.1986C50.0172 46.1148 51.6787 45.7505 53.2604 45.1184C55.9159 43.7681 59.375 40.595 59.375 33.0639V14.7646C59.375 5.21154 53.9615 2.55489 51.4796 1.83926ZM53.9832 13.5426V34.0125C53.9888 34.7552 53.937 35.4971 53.8281 36.2303C52.8539 39.8794 47.6545 40.3554 47.6545 40.3554C46.9006 40.3992 45.9761 40.4296 44.9958 40.4634C41.5833 40.5747 37.3548 40.7132 34.5752 41.4592C32.8576 41.9186 31.2091 42.6427 29.6797 43.6095C28.149 42.6433 26.4996 41.9193 24.7812 41.4592C21.9891 40.7132 17.7638 40.5747 14.3606 40.4634C13.3802 40.4296 12.4557 40.3992 11.7019 40.3554C11.7019 40.3554 6.50243 39.8794 5.52831 36.2303C5.41942 35.4971 5.36753 34.7552 5.37319 34.0125V12.432C5.37319 8.97537 8.68024 7.70612 10.5137 7.28079C14.4133 6.54828 20.4783 5.88328 29.6704 5.87315C38.8626 5.86303 44.9245 6.54828 48.824 7.28079C50.6575 7.71625 53.9646 8.96862 53.9646 12.432L53.9832 13.5426Z" fill="white"/>
<path d="M22.4831 26.1208C22.8375 26.5075 23.0366 27.0313 23.0366 27.5774C23.0366 28.1235 22.8375 28.6474 22.4831 29.034C22.3073 29.2254 22.0986 29.3772 21.869 29.4808C21.6393 29.5843 21.3931 29.6377 21.1444 29.6377C20.8958 29.6377 20.6496 29.5843 20.4199 29.4808C20.1902 29.3772 19.9815 29.2254 19.8058 29.034L13.8463 22.5528C13.4916 22.1655 13.2925 21.6412 13.2925 21.0945C13.2925 20.5478 13.4916 20.0234 13.8463 19.6362L19.8058 13.1516C20.1654 12.7885 20.6405 12.5912 21.1311 12.6013C21.6216 12.6115 22.0895 12.8282 22.4362 13.2059C22.783 13.5836 22.9816 14.0929 22.9903 14.6267C22.9991 15.1605 22.8172 15.6772 22.4831 16.0682L17.8637 21.0945L22.4831 26.1208ZM36.3442 26.1208C35.9897 26.5075 35.7907 27.0313 35.7907 27.5774C35.7907 28.1235 35.9897 28.6474 36.3442 29.034C36.5199 29.2254 36.7286 29.3772 36.9583 29.4808C37.188 29.5843 37.4342 29.6377 37.6828 29.6377C37.9314 29.6377 38.1776 29.5843 38.4073 29.4808C38.637 29.3772 38.8457 29.2254 39.0215 29.034L44.9934 22.5528C45.348 22.1655 45.5472 21.6412 45.5472 21.0945C45.5472 20.5478 45.348 20.0234 44.9934 19.6362L39.0339 13.1516C38.6767 12.7737 38.1973 12.564 37.6992 12.5678C37.201 12.5716 36.7243 12.7886 36.3721 13.1718C36.0199 13.5551 35.8204 14.0738 35.8169 14.6158C35.8135 15.1579 36.0062 15.6796 36.3535 16.0682L40.9604 21.0945L36.3442 26.1208Z" fill="url(#paint0_linear_613_4416)"/>
</g>
<defs>
<linearGradient id="paint0_linear_613_4416" x1="23.8171" y1="31.64" x2="36.4833" y2="11.4763" gradientUnits="userSpaceOnUse">
<stop stop-color="#FF1166"/>
<stop offset="0.51" stop-color="#FF3355"/>
<stop offset="1" stop-color="#FF5555"/>
</linearGradient>
<clipPath id="clip0_613_4416">
<rect width="59.375" height="50" fill="white"/>
</clipPath>
</defs>
</svg>
