<svg width="212" height="40" viewBox="0 0 212 40" fill="none" xmlns="http://www.w3.org/2000/svg">
<path d="M79.908 17.4421V27.3455H76.2621V12.349L75.0559 10.4531V10.2025H79.3701L87.0233 21.1192V10.2078H90.6692V27.3455H87.0233L79.908 17.4421Z" fill="white"/>
<path d="M118.638 9.91984C123.749 9.91984 127.628 13.749 127.628 18.7647C127.628 23.7804 123.749 27.6121 118.638 27.6121C113.528 27.6121 109.651 23.7857 109.651 18.7753C109.651 13.765 113.528 9.91984 118.638 9.91984ZM118.638 24.0337C121.592 24.0337 123.852 21.6898 123.852 18.7647C123.852 15.8395 121.592 13.4983 118.638 13.4983C115.685 13.4983 113.4 15.8662 113.4 18.7647C113.4 21.6632 115.661 24.0524 118.638 24.0524V24.0337Z" fill="white"/>
<path d="M138.805 27.3455L134.76 16.6608V27.3455H131.1V10.2078H135.575L140.427 22.7831L145.255 10.2078H149.702V27.3455H146.045V16.6608L141.989 27.3455H138.805Z" fill="white"/>
<path d="M164.438 23.6924H158.189L156.88 27.3455H152.805L159.276 10.2078H163.351L169.822 27.3455H165.747L164.438 23.6924ZM159.404 20.2392H163.256L161.33 14.9062L159.404 20.2392Z" fill="white"/>
<path d="M176.715 17.4421V27.3455H173.066V12.349L171.86 10.4585V10.2078H176.174L183.827 21.1192V10.2078H187.465V27.3455H183.816L176.715 17.4421Z" fill="white"/>
<path d="M192.627 10.2078H196.273V27.3455H192.627V10.2078Z" fill="white"/>
<path d="M210.362 14.5169C209.246 13.7654 207.938 13.3375 206.586 13.2823C205.121 13.2823 204.429 13.9383 204.429 14.8182C204.429 15.3729 204.891 15.9035 205.741 16.3835L208.05 17.7434C210.31 19.0767 211.21 20.5672 211.21 22.4818C211.21 25.1776 209.387 27.6228 205.328 27.6228C203.811 27.6112 202.311 27.3114 200.91 26.7402V22.7831C202.143 23.6968 203.632 24.2163 205.176 24.271C206.561 24.271 207.33 23.6151 207.33 22.6711C207.33 22.0925 206.92 21.5645 205.945 21.0099L203.557 19.6233C201.245 18.3114 200.527 16.8501 200.527 14.9089C200.527 12.509 202.092 9.91984 206.613 9.91984C207.904 9.92472 209.18 10.1907 210.362 10.7011V14.5169Z" fill="white"/>
<path d="M94.5922 27.3748V10.1252H106.742V13.5916H98.2626V16.9408H104.973V20.4072H98.2626V23.8737H106.742V27.3402L94.5922 27.3748Z" fill="white"/>
<path d="M46.019 1.46995C42.192 0.703002 36.1491 0.0224742 26.7229 0.00357056H26.354C16.925 0.0224742 10.8849 0.703002 7.05788 1.46995C4.8393 2.04246 0 4.17047 0 11.8102V26.4497C0 32.4745 3.09215 35.0238 5.46604 36.0932C6.87997 36.599 8.36522 36.8904 9.86994 36.9574C10.6603 37.0033 11.6504 37.033 12.7014 37.0627C15.3665 37.141 19.0188 37.2491 21.0045 37.727C22.4196 38.0622 23.7586 38.6501 24.9536 39.4608L25.6496 40.0009H27.4273L28.1234 39.4608C29.3183 38.6501 30.6573 38.0622 32.0724 37.727C34.0581 37.2491 37.7104 37.141 40.3755 37.0627C41.4266 37.033 42.4194 37.0033 43.207 36.9574C44.7117 36.8904 46.197 36.599 47.6109 36.0932C49.9848 35.013 53.0769 32.4745 53.0769 26.4497V11.8102C53.0769 4.16777 48.2376 2.04246 46.019 1.46995ZM48.257 10.8326V27.2085C48.2621 27.8027 48.2157 28.3962 48.1184 28.9828C47.2476 31.902 42.5997 32.2828 42.5997 32.2828C41.9258 32.3179 41.0993 32.3422 40.223 32.3692C37.1724 32.4583 33.3925 32.5691 30.9077 33.1659C29.3723 33.5335 27.8987 34.1127 26.5315 34.8861C25.1631 34.1132 23.6887 33.534 22.1526 33.1659C19.6567 32.5691 15.8795 32.4583 12.8373 32.3692C11.961 32.3422 11.1345 32.3179 10.4606 32.2828C10.4606 32.2828 5.8127 31.902 4.94191 28.9828C4.84457 28.3962 4.79818 27.8027 4.80324 27.2085V9.94416C4.80324 7.17883 7.7595 6.16344 9.39849 5.82317C12.8844 5.23716 18.3061 4.70517 26.5232 4.69706C34.7403 4.68896 40.1592 5.23716 43.6451 5.82317C45.2841 6.17154 48.2404 7.17343 48.2404 9.94416L48.257 10.8326Z" fill="white"/>
<path d="M20.0981 20.8968C20.4149 21.2061 20.5929 21.6251 20.5929 22.062C20.5929 22.4989 20.4149 22.918 20.0981 23.2273C19.941 23.3804 19.7544 23.5018 19.5491 23.5847C19.3438 23.6676 19.1237 23.7102 18.9014 23.7102C18.6792 23.7102 18.4591 23.6676 18.2537 23.5847C18.0484 23.5018 17.8619 23.3804 17.7048 23.2273L12.3774 18.0423C12.0604 17.7325 11.8824 17.313 11.8824 16.8757C11.8824 16.4383 12.0604 16.0188 12.3774 15.7091L17.7048 10.5214C18.0263 10.2309 18.4509 10.0731 18.8895 10.0812C19.328 10.0893 19.7462 10.2626 20.0562 10.5648C20.3661 10.867 20.5437 11.2745 20.5515 11.7015C20.5593 12.1285 20.3968 12.5419 20.0981 12.8546L15.9687 16.8757L20.0981 20.8968ZM32.4889 20.8968C32.172 21.2061 31.9941 21.6251 31.9941 22.062C31.9941 22.4989 32.172 22.918 32.4889 23.2273C32.646 23.3804 32.8325 23.5018 33.0378 23.5847C33.2432 23.6676 33.4633 23.7102 33.6855 23.7102C33.9078 23.7102 34.1279 23.6676 34.3332 23.5847C34.5385 23.5018 34.7251 23.3804 34.8822 23.2273L40.2206 18.0423C40.5377 17.7325 40.7157 17.313 40.7157 16.8757C40.7157 16.4383 40.5377 16.0188 40.2206 15.7091L34.8933 10.5214C34.574 10.2191 34.1454 10.0513 33.7001 10.0543C33.2549 10.0574 32.8287 10.231 32.5138 10.5376C32.199 10.8442 32.0207 11.2592 32.0176 11.6928C32.0145 12.1264 32.1868 12.5437 32.4972 12.8546L36.6154 16.8757L32.4889 20.8968Z" fill="url(#paint0_linear_1930_800)"/>
<defs>
<linearGradient id="paint0_linear_1930_800" x1="68.9169" y1="44.6926" x2="83.0152" y2="-18.0282" gradientUnits="userSpaceOnUse">
<stop stop-color="#FF1166"/>
<stop offset="0.51" stop-color="#FF3355"/>
<stop offset="1" stop-color="#FF5555"/>
</linearGradient>
</defs>
</svg>
