<?xml version="1.0" encoding="UTF-8" standalone="no"?>
<!-- Generator: Adobe Illustrator 25.1.0, SVG Export Plug-In . SVG Version: 6.00 Build 0)  -->

<svg
   xmlns:dc="http://purl.org/dc/elements/1.1/"
   xmlns:cc="http://creativecommons.org/ns#"
   xmlns:rdf="http://www.w3.org/1999/02/22-rdf-syntax-ns#"
   xmlns:svg="http://www.w3.org/2000/svg"
   xmlns="http://www.w3.org/2000/svg"
   xmlns:sodipodi="http://sodipodi.sourceforge.net/DTD/sodipodi-0.dtd"
   xmlns:inkscape="http://www.inkscape.org/namespaces/inkscape"
   version="1.1"
   id="COMPOSITION"
   x="0px"
   y="0px"
   viewBox="0 0 1000 536"
   style="enable-background:new 0 0 1000 536;"
   xml:space="preserve"
   sodipodi:docname="nm_logo_couleur_blanc_sans_texte.svg"
   inkscape:export-filename="D:\OneDrive - lisi.be\Documents\Organization\Templates\Neomanis-20210207T103734Z-001\Neomanis\SVG\nm_logo_couleur_blanc_2.png"
   inkscape:export-xdpi="96"
   inkscape:export-ydpi="96"
   inkscape:version="0.92.4 (5da689c313, 2019-01-14)"><metadata
   id="metadata42"><rdf:RDF><cc:Work
       rdf:about=""><dc:format>image/svg+xml</dc:format><dc:type
         rdf:resource="http://purl.org/dc/dcmitype/StillImage" /><dc:title></dc:title></cc:Work></rdf:RDF></metadata><defs
   id="defs40" /><sodipodi:namedview
   pagecolor="#ffffff"
   bordercolor="#666666"
   borderopacity="1"
   objecttolerance="10"
   gridtolerance="10"
   guidetolerance="10"
   inkscape:pageopacity="0"
   inkscape:pageshadow="2"
   inkscape:window-width="1920"
   inkscape:window-height="1017"
   id="namedview38"
   showgrid="false"
   inkscape:zoom="0.357"
   inkscape:cx="500"
   inkscape:cy="155.95518"
   inkscape:window-x="1072"
   inkscape:window-y="360"
   inkscape:window-maximized="1"
   inkscape:current-layer="g35" />
<style
   type="text/css"
   id="style2">
	.st0{fill:#FFFFFF;}
	.st1{fill:url(#SVGID_1_);}
</style>
<g
   id="g35">
	<path
   class="st0"
   d="M622.4,47.7c-23.9-4.9-61.7-9.3-120.5-9.4v0c-0.4,0-0.8,0-1.1,0c-0.4,0-0.8,0-1.1,0v0   c-58.9,0.1-96.6,4.5-120.5,9.4c-13.9,3.7-44.1,17.3-44.1,66.3v93.9c0,38.7,19.3,55,34.1,61.9c7.9,3.1,17.1,4.9,27.5,5.5   c4.9,0.3,11.1,0.5,17.7,0.7c16.7,0.5,39.5,1.2,51.9,4.3c10.7,2.6,18.9,7.1,24.7,11.1l4.3,3.5h5.6h5.6l4.3-3.5   c5.7-4,13.9-8.5,24.7-11.1c12.4-3.1,35.2-3.8,51.9-4.3c6.6-0.2,12.8-0.4,17.7-0.7c10.4-0.6,19.6-2.5,27.5-5.5   c14.8-6.9,34.1-23.2,34.1-61.9V114C666.5,65,636.3,51.4,622.4,47.7z M636.4,107.8v105c0,4.4-0.3,8.1-0.9,11.4   c-5.4,18.7-34.5,21.2-34.5,21.2s0,0,0,0c-4.2,0.2-9.4,0.4-14.8,0.5c-19,0.6-42.7,1.3-58.2,5.1c-10.9,2.7-20,6.8-27.3,11   c-7.4-4.3-16.5-8.3-27.3-11c-15.5-3.8-39.2-4.5-58.2-5.1c-5.5-0.2-10.6-0.3-14.8-0.5c0,0,0,0,0,0s-29-2.4-34.5-21.2   c-0.6-3.3-0.9-7-0.9-11.4v-105v-5.7c0-17.7,18.5-24.2,28.7-26.4c21.8-3.8,55.6-7.2,107-7.2c51.3,0.1,85.2,3.5,107,7.2   c10.2,2.2,28.7,8.7,28.7,26.4V107.8z"
   id="path4" />
	<linearGradient
   id="SVGID_1_"
   gradientUnits="userSpaceOnUse"
   x1="470.1037"
   y1="198.9577"
   x2="532.5886"
   y2="90.7306">
		<stop
   offset="0"
   style="stop-color:#FF1166"
   id="stop6" />
		<stop
   offset="0.5056"
   style="stop-color:#FF3355"
   id="stop8" />
		<stop
   offset="1"
   style="stop-color:#FF5555"
   id="stop10" />
	</linearGradient>
	<path
   class="st1"
   d="M462.7,119l-25.8,25.8l25.8,25.8c4.1,4.1,4.1,10.8,0,15c-2,2-4.6,3.1-7.5,3.1c-2.8,0-5.5-1.1-7.5-3.1   l-33.3-33.3c-4.1-4.1-4.1-10.8,0-15l33.3-33.3c4.1-4.1,10.8-4.1,15,0C466.8,108.2,466.8,114.9,462.7,119z M588.3,137.4L555,104.1   c-4.1-4.1-10.8-4.1-15,0c-4.1,4.1-4.1,10.8,0,15l25.8,25.8l-25.8,25.8c-4.1,4.1-4.1,10.8,0,15c2,2,4.6,3.1,7.5,3.1   c2.8,0,5.5-1.1,7.5-3.1l33.3-33.3C592.4,148.2,592.4,141.5,588.3,137.4z"
   id="path13" />
	
</g>
</svg>