<?xml version="1.0" encoding="utf-8"?>
<!-- Generator: Adobe Illustrator 25.1.0, SVG Export Plug-In . SVG Version: 6.00 Build 0)  -->
<svg version="1.1" id="COMPOSITION" xmlns="http://www.w3.org/2000/svg" xmlns:xlink="http://www.w3.org/1999/xlink" x="0px"
	 y="0px" viewBox="0 0 1000 536" style="enable-background:new 0 0 1000 536;" xml:space="preserve">
<style type="text/css">
	.st0{fill:#112233;}
	.st1{fill:url(#SVGID_1_);}
</style>
<g>
	<path class="st0" d="M622.4,47.7c-23.9-4.9-61.7-9.3-120.5-9.4v0c-0.4,0-0.8,0-1.1,0c-0.4,0-0.8,0-1.1,0v0
		c-58.9,0.1-96.6,4.5-120.5,9.4c-13.9,3.7-44.1,17.3-44.1,66.3v93.9c0,38.7,19.3,55,34.1,61.9c7.9,3.1,17.1,4.9,27.5,5.5
		c4.9,0.3,11.1,0.5,17.7,0.7c16.7,0.5,39.5,1.2,51.9,4.3c10.7,2.6,18.9,7.1,24.7,11.1l4.3,3.5h5.6h5.6l4.3-3.5
		c5.7-4,13.9-8.5,24.7-11.1c12.4-3.1,35.2-3.8,51.9-4.3c6.6-0.2,12.8-0.4,17.7-0.7c10.4-0.6,19.6-2.5,27.5-5.5
		c14.8-6.9,34.1-23.2,34.1-61.9V114C666.5,65,636.3,51.4,622.4,47.7z M636.4,107.8v105c0,4.4-0.3,8.1-0.9,11.4
		c-5.4,18.7-34.5,21.2-34.5,21.2s0,0,0,0c-4.2,0.2-9.4,0.4-14.8,0.5c-19,0.6-42.7,1.3-58.2,5.1c-10.9,2.7-20,6.8-27.3,11
		c-7.4-4.3-16.5-8.3-27.3-11c-15.5-3.8-39.2-4.5-58.2-5.1c-5.5-0.2-10.6-0.3-14.8-0.5c0,0,0,0,0,0s-29-2.4-34.5-21.2
		c-0.6-3.3-0.9-7-0.9-11.4v-105v-5.7c0-17.7,18.5-24.2,28.7-26.4c21.8-3.8,55.6-7.2,107-7.2c51.3,0.1,85.2,3.5,107,7.2
		c10.2,2.2,28.7,8.7,28.7,26.4V107.8z"/>
	<linearGradient id="SVGID_1_" gradientUnits="userSpaceOnUse" x1="470.1037" y1="198.9577" x2="532.5886" y2="90.7306">
		<stop  offset="0" style="stop-color:#FF1166"/>
		<stop  offset="0.5056" style="stop-color:#FF3355"/>
		<stop  offset="1" style="stop-color:#FF5555"/>
	</linearGradient>
	<path class="st1" d="M462.7,119l-25.8,25.8l25.8,25.8c4.1,4.1,4.1,10.8,0,15c-2,2-4.6,3.1-7.5,3.1c-2.8,0-5.5-1.1-7.5-3.1
		l-33.3-33.3c-4.1-4.1-4.1-10.8,0-15l33.3-33.3c4.1-4.1,10.8-4.1,15,0C466.8,108.2,466.8,114.9,462.7,119z M588.3,137.4L555,104.1
		c-4.1-4.1-10.8-4.1-15,0c-4.1,4.1-4.1,10.8,0,15l25.8,25.8l-25.8,25.8c-4.1,4.1-4.1,10.8,0,15c2,2,4.6,3.1,7.5,3.1
		c2.8,0,5.5-1.1,7.5-3.1l33.3-33.3C592.4,148.2,592.4,141.5,588.3,137.4z"/>
	<g>
		<g>
			<path class="st0" d="M70.7,417.7v68.6H45.9V382.5l-8.2-13.1v-1.7h29.3l52,75.6v-75.6h24.8v118.7h-24.8L70.7,417.7z"/>
			<path class="st0" d="M333.9,365.7c34.7,0,61.1,26.5,61.1,61.3c0,34.7-26.4,61.3-61.1,61.3s-61.1-26.5-61.1-61.3
				C272.9,392.2,299.2,365.7,333.9,365.7z M333.9,463.5c20.1,0,35.4-16.2,35.4-36.5c0-20.1-15.4-36.5-35.4-36.5
				c-20.2,0-35.6,16.4-35.6,36.5C298.3,447.2,313.7,463.5,333.9,463.5z"/>
			<path class="st0" d="M471,486.3l-27.6-74v74h-24.8V367.6H449l33,87.1l32.8-87.1H545v118.7h-24.8v-74l-27.6,74H471z"/>
			<path class="st0" d="M645.2,461h-42.4l-8.9,25.3h-27.7l44-118.7h27.8l44,118.7h-27.8L645.2,461z M611,437.1h26.2l-13.1-37
				L611,437.1z"/>
			<path class="st0" d="M728.7,417.7v68.6h-24.8V382.5l-8.2-13.1v-1.7H725l52,75.6v-75.6h24.8v118.7H777L728.7,417.7z"/>
			<path class="st0" d="M836.7,367.6h24.8v118.7h-24.8V367.6z"/>
			<path class="st0" d="M957.3,397.5c-6.1-4.4-16.6-8.6-25.7-8.6c-9.9,0-14.7,4.5-14.7,10.6c0,3.8,3.1,7.5,8.9,10.8l15.7,9.4
				c15.4,9.3,21.5,19.5,21.5,32.8c0,18.7-12.4,35.6-40,35.6c-11.7,0-22.5-3-30-6.1v-27.4c6.5,5.1,18,10.3,29,10.3
				c9.4,0,14.7-4.5,14.7-11c0-4-2.8-7.7-9.4-11.5l-16.2-9.6c-15.7-9.1-20.6-19.2-20.6-32.6c0-16.6,10.6-34.6,41.4-34.6
				c8.9,0,18.2,2.1,25.5,5.4V397.5z"/>
			<path class="st0" d="M170.5,486.5V367.1h82.6v24.1h-57.6v23.2h45.6v24.1h-45.6v24.1h57.6v24.1H170.5z"/>
		</g>
	</g>
</g>
</svg>
